M48
; DRILL file {KiCad 9.0.7} date 2026-03-04T19:42:52-0300
; FORMAT={-:-/ absolute / metric / decimal}
; #@! TF.CreationDate,2026-03-04T19:42:52-03:00
; #@! TF.GenerationSoftware,Kicad,Pcbnew,9.0.7
; #@! TF.FileFunction,Plated,1,2,PTH
FMAT,2
METRIC
; #@! TA.AperFunction,Plated,PTH,ComponentDrill
T1C0.700
; #@! TA.AperFunction,Plated,PTH,ComponentDrill
T2C0.800
; #@! TA.AperFunction,Plated,PTH,ComponentDrill
T3C0.900
; #@! TA.AperFunction,Plated,PTH,ViaDrill
T4C1.000
; #@! TA.AperFunction,Plated,PTH,ComponentDrill
T5C1.000
; #@! TA.AperFunction,Plated,PTH,ComponentDrill
T6C1.016
; #@! TA.AperFunction,Plated,PTH,ComponentDrill
T7C1.100
%
G90
G05
T1
X-59.405Y41.85
X-59.405Y35.15
X-51.785Y41.85
X-51.785Y35.15
X-13.92Y23.15
X-6.3Y23.15
T2
X-54.835Y28.07
X-54.835Y20.97
X-52.335Y28.07
X-52.335Y20.97
X-51.105Y11.63
X-48.605Y11.63
X-48.483Y42.081
X-45.983Y42.081
X-39.321Y20.592
X-39.321Y12.972
X-36.781Y20.592
X-36.781Y12.972
X-34.241Y20.592
X-34.241Y12.972
X-31.701Y20.592
X-31.701Y12.972
X-30.88Y32.04
X-30.88Y29.54
X-30.88Y25.12
X-29.161Y20.592
X-29.161Y12.972
X-26.621Y20.592
X-26.621Y12.972
X-25.98Y32.04
X-25.98Y29.54
X-25.98Y25.12
X-24.081Y20.592
X-24.081Y12.972
X-21.541Y20.592
X-21.541Y12.972
X-19.001Y20.592
X-19.001Y12.972
X-16.461Y20.592
X-16.461Y12.972
X-13.921Y20.592
X-13.921Y12.972
X-11.381Y20.592
X-11.381Y12.972
X-8.841Y20.592
X-8.841Y12.972
X-6.301Y20.592
X-6.301Y12.972
X-4.179Y27.284
X-4.179Y24.784
T3
X-65.25Y41.79
X-65.25Y35.11
X-62.71Y41.79
X-62.71Y35.11
T4
X-55.771Y24.823
T5
X-26.665Y9.94
X-24.125Y9.94
X-7.69Y39.97
X-7.69Y37.43
X-7.69Y34.89
X-7.69Y32.35
X-7.69Y29.81
X-7.69Y27.27
T6
X-51.011Y51.401
X-48.471Y51.401
X-45.931Y51.401
X-43.391Y51.401
X-41.867Y3.141
X-40.851Y51.401
X-39.327Y3.141
X-38.311Y51.401
X-36.787Y3.141
X-35.771Y51.401
X-34.247Y3.141
X-33.231Y51.401
X-31.707Y3.141
X-30.691Y51.401
X-29.167Y3.141
X-28.151Y51.401
X-26.627Y3.141
X-24.087Y51.401
X-24.087Y3.141
X-21.547Y51.401
X-19.007Y51.401
X-19.007Y3.141
X-16.467Y51.401
X-16.467Y3.141
X-13.927Y51.401
X-13.927Y3.141
X-11.387Y51.401
X-11.387Y3.141
X-8.847Y51.401
X-8.847Y3.141
X-6.307Y51.401
X-6.307Y3.141
T7
X-65.69Y51.69
X-65.69Y47.19
X-59.19Y51.69
X-59.19Y47.19
X-55.58Y16.71
X-55.58Y6.55
T5
G00X-65.55Y11.3
M15
G01X-65.55Y9.3
M16
G05
G00X-63.55Y5.6
M15
G01X-61.55Y5.6
M16
G05
G00X-59.55Y11.3
M15
G01X-59.55Y9.3
M16
G05
M30
