%TF.GenerationSoftware,KiCad,Pcbnew,9.0.7*%
%TF.CreationDate,2026-03-04T19:42:52-03:00*%
%TF.ProjectId,ZATINO PTH V2,5a415449-4e4f-4205-9054-482056322e6b,rev?*%
%TF.SameCoordinates,Original*%
%TF.FileFunction,Drillmap*%
%TF.FilePolarity,Positive*%
%FSLAX45Y45*%
G04 Gerber Fmt 4.5, Leading zero omitted, Abs format (unit mm)*
G04 Created by KiCad (PCBNEW 9.0.7) date 2026-03-04 19:42:52*
%MOMM*%
%LPD*%
G01*
G04 APERTURE LIST*
%ADD10C,0.050000*%
%ADD11C,0.200000*%
%ADD12C,0.330000*%
G04 APERTURE END LIST*
D10*
X-381000Y5237000D02*
X-536000Y5390000D01*
X-536000Y5390000D02*
X-6866318Y5392904D01*
X-382117Y160987D02*
X-382117Y314000D01*
X-382117Y160987D02*
G75*
G02*
X-484000Y56930I-141883J37013D01*
G01*
X-381000Y4096000D02*
X-381000Y5237000D01*
X-6976000Y5285002D02*
X-6976000Y173000D01*
X-6847991Y56930D02*
X-484000Y56930D01*
X-127000Y3841000D02*
X-381000Y4096000D01*
X-6847991Y56930D02*
G75*
G02*
X-6976000Y173000I-15009J112070D01*
G01*
X-127000Y568000D02*
X-127000Y3841000D01*
X-6976000Y5285000D02*
G75*
G02*
X-6866318Y5392905I103000J5000D01*
G01*
X-382117Y314000D02*
X-127000Y568000D01*
D11*
D12*
X-5748730Y479070D02*
X-5418730Y149070D01*
X-5418730Y479070D02*
X-5748730Y149070D01*
X-5621730Y5305070D02*
X-5291730Y4975070D01*
X-5291730Y5305070D02*
X-5621730Y4975070D01*
X-541730Y3781069D02*
X-211730Y3451069D01*
X-211730Y3781069D02*
X-541730Y3451069D01*
X-541730Y987070D02*
X-211730Y657070D01*
X-211730Y987070D02*
X-541730Y657070D01*
D11*
X-6717844Y-258055D02*
X-6717844Y-58055D01*
X-6717844Y-58055D02*
X-6670225Y-58055D01*
X-6670225Y-58055D02*
X-6641654Y-67578D01*
X-6641654Y-67578D02*
X-6622606Y-86626D01*
X-6622606Y-86626D02*
X-6613083Y-105674D01*
X-6613083Y-105674D02*
X-6603559Y-143769D01*
X-6603559Y-143769D02*
X-6603559Y-172340D01*
X-6603559Y-172340D02*
X-6613083Y-210435D01*
X-6613083Y-210435D02*
X-6622606Y-229483D01*
X-6622606Y-229483D02*
X-6641654Y-248531D01*
X-6641654Y-248531D02*
X-6670225Y-258055D01*
X-6670225Y-258055D02*
X-6717844Y-258055D01*
X-6517844Y-258055D02*
X-6517844Y-124721D01*
X-6517844Y-162817D02*
X-6508321Y-143769D01*
X-6508321Y-143769D02*
X-6498797Y-134245D01*
X-6498797Y-134245D02*
X-6479749Y-124721D01*
X-6479749Y-124721D02*
X-6460702Y-124721D01*
X-6394035Y-258055D02*
X-6394035Y-124721D01*
X-6394035Y-58055D02*
X-6403559Y-67578D01*
X-6403559Y-67578D02*
X-6394035Y-77102D01*
X-6394035Y-77102D02*
X-6384511Y-67578D01*
X-6384511Y-67578D02*
X-6394035Y-58055D01*
X-6394035Y-58055D02*
X-6394035Y-77102D01*
X-6270225Y-258055D02*
X-6289273Y-248531D01*
X-6289273Y-248531D02*
X-6298797Y-229483D01*
X-6298797Y-229483D02*
X-6298797Y-58055D01*
X-6165464Y-258055D02*
X-6184511Y-248531D01*
X-6184511Y-248531D02*
X-6194035Y-229483D01*
X-6194035Y-229483D02*
X-6194035Y-58055D01*
X-5936892Y-258055D02*
X-5936892Y-58055D01*
X-5936892Y-58055D02*
X-5870225Y-200912D01*
X-5870225Y-200912D02*
X-5803559Y-58055D01*
X-5803559Y-58055D02*
X-5803559Y-258055D01*
X-5622606Y-258055D02*
X-5622606Y-153293D01*
X-5622606Y-153293D02*
X-5632130Y-134245D01*
X-5632130Y-134245D02*
X-5651178Y-124721D01*
X-5651178Y-124721D02*
X-5689273Y-124721D01*
X-5689273Y-124721D02*
X-5708321Y-134245D01*
X-5622606Y-248531D02*
X-5641654Y-258055D01*
X-5641654Y-258055D02*
X-5689273Y-258055D01*
X-5689273Y-258055D02*
X-5708321Y-248531D01*
X-5708321Y-248531D02*
X-5717844Y-229483D01*
X-5717844Y-229483D02*
X-5717844Y-210435D01*
X-5717844Y-210435D02*
X-5708321Y-191388D01*
X-5708321Y-191388D02*
X-5689273Y-181864D01*
X-5689273Y-181864D02*
X-5641654Y-181864D01*
X-5641654Y-181864D02*
X-5622606Y-172340D01*
X-5527368Y-124721D02*
X-5527368Y-324721D01*
X-5527368Y-134245D02*
X-5508321Y-124721D01*
X-5508321Y-124721D02*
X-5470225Y-124721D01*
X-5470225Y-124721D02*
X-5451178Y-134245D01*
X-5451178Y-134245D02*
X-5441654Y-143769D01*
X-5441654Y-143769D02*
X-5432130Y-162817D01*
X-5432130Y-162817D02*
X-5432130Y-219959D01*
X-5432130Y-219959D02*
X-5441654Y-239007D01*
X-5441654Y-239007D02*
X-5451178Y-248531D01*
X-5451178Y-248531D02*
X-5470225Y-258055D01*
X-5470225Y-258055D02*
X-5508321Y-258055D01*
X-5508321Y-258055D02*
X-5527368Y-248531D01*
X-5346416Y-239007D02*
X-5336892Y-248531D01*
X-5336892Y-248531D02*
X-5346416Y-258055D01*
X-5346416Y-258055D02*
X-5355940Y-248531D01*
X-5355940Y-248531D02*
X-5346416Y-239007D01*
X-5346416Y-239007D02*
X-5346416Y-258055D01*
X-5346416Y-134245D02*
X-5336892Y-143769D01*
X-5336892Y-143769D02*
X-5346416Y-153293D01*
X-5346416Y-153293D02*
X-5355940Y-143769D01*
X-5355940Y-143769D02*
X-5346416Y-134245D01*
X-5346416Y-134245D02*
X-5346416Y-153293D01*
X-7178621Y-486571D02*
X-6978621Y-686571D01*
X-6978621Y-486571D02*
X-7178621Y-686571D01*
X-6736892Y-478055D02*
X-6613083Y-478055D01*
X-6613083Y-478055D02*
X-6679749Y-554245D01*
X-6679749Y-554245D02*
X-6651178Y-554245D01*
X-6651178Y-554245D02*
X-6632130Y-563769D01*
X-6632130Y-563769D02*
X-6622606Y-573293D01*
X-6622606Y-573293D02*
X-6613083Y-592340D01*
X-6613083Y-592340D02*
X-6613083Y-639959D01*
X-6613083Y-639959D02*
X-6622606Y-659007D01*
X-6622606Y-659007D02*
X-6632130Y-668531D01*
X-6632130Y-668531D02*
X-6651178Y-678055D01*
X-6651178Y-678055D02*
X-6708321Y-678055D01*
X-6708321Y-678055D02*
X-6727368Y-668531D01*
X-6727368Y-668531D02*
X-6736892Y-659007D01*
X-6527368Y-659007D02*
X-6517844Y-668531D01*
X-6517844Y-668531D02*
X-6527368Y-678055D01*
X-6527368Y-678055D02*
X-6536892Y-668531D01*
X-6536892Y-668531D02*
X-6527368Y-659007D01*
X-6527368Y-659007D02*
X-6527368Y-678055D01*
X-6451178Y-478055D02*
X-6327368Y-478055D01*
X-6327368Y-478055D02*
X-6394035Y-554245D01*
X-6394035Y-554245D02*
X-6365463Y-554245D01*
X-6365463Y-554245D02*
X-6346416Y-563769D01*
X-6346416Y-563769D02*
X-6336892Y-573293D01*
X-6336892Y-573293D02*
X-6327368Y-592340D01*
X-6327368Y-592340D02*
X-6327368Y-639959D01*
X-6327368Y-639959D02*
X-6336892Y-659007D01*
X-6336892Y-659007D02*
X-6346416Y-668531D01*
X-6346416Y-668531D02*
X-6365463Y-678055D01*
X-6365463Y-678055D02*
X-6422606Y-678055D01*
X-6422606Y-678055D02*
X-6441654Y-668531D01*
X-6441654Y-668531D02*
X-6451178Y-659007D01*
X-6203559Y-478055D02*
X-6184511Y-478055D01*
X-6184511Y-478055D02*
X-6165463Y-487578D01*
X-6165463Y-487578D02*
X-6155940Y-497102D01*
X-6155940Y-497102D02*
X-6146416Y-516150D01*
X-6146416Y-516150D02*
X-6136892Y-554245D01*
X-6136892Y-554245D02*
X-6136892Y-601864D01*
X-6136892Y-601864D02*
X-6146416Y-639959D01*
X-6146416Y-639959D02*
X-6155940Y-659007D01*
X-6155940Y-659007D02*
X-6165463Y-668531D01*
X-6165463Y-668531D02*
X-6184511Y-678055D01*
X-6184511Y-678055D02*
X-6203559Y-678055D01*
X-6203559Y-678055D02*
X-6222606Y-668531D01*
X-6222606Y-668531D02*
X-6232130Y-659007D01*
X-6232130Y-659007D02*
X-6241654Y-639959D01*
X-6241654Y-639959D02*
X-6251178Y-601864D01*
X-6251178Y-601864D02*
X-6251178Y-554245D01*
X-6251178Y-554245D02*
X-6241654Y-516150D01*
X-6241654Y-516150D02*
X-6232130Y-497102D01*
X-6232130Y-497102D02*
X-6222606Y-487578D01*
X-6222606Y-487578D02*
X-6203559Y-478055D01*
X-6013083Y-478055D02*
X-5994035Y-478055D01*
X-5994035Y-478055D02*
X-5974987Y-487578D01*
X-5974987Y-487578D02*
X-5965463Y-497102D01*
X-5965463Y-497102D02*
X-5955940Y-516150D01*
X-5955940Y-516150D02*
X-5946416Y-554245D01*
X-5946416Y-554245D02*
X-5946416Y-601864D01*
X-5946416Y-601864D02*
X-5955940Y-639959D01*
X-5955940Y-639959D02*
X-5965463Y-659007D01*
X-5965463Y-659007D02*
X-5974987Y-668531D01*
X-5974987Y-668531D02*
X-5994035Y-678055D01*
X-5994035Y-678055D02*
X-6013083Y-678055D01*
X-6013083Y-678055D02*
X-6032130Y-668531D01*
X-6032130Y-668531D02*
X-6041654Y-659007D01*
X-6041654Y-659007D02*
X-6051178Y-639959D01*
X-6051178Y-639959D02*
X-6060702Y-601864D01*
X-6060702Y-601864D02*
X-6060702Y-554245D01*
X-6060702Y-554245D02*
X-6051178Y-516150D01*
X-6051178Y-516150D02*
X-6041654Y-497102D01*
X-6041654Y-497102D02*
X-6032130Y-487578D01*
X-6032130Y-487578D02*
X-6013083Y-478055D01*
X-5860702Y-678055D02*
X-5860702Y-544721D01*
X-5860702Y-563769D02*
X-5851178Y-554245D01*
X-5851178Y-554245D02*
X-5832130Y-544721D01*
X-5832130Y-544721D02*
X-5803559Y-544721D01*
X-5803559Y-544721D02*
X-5784511Y-554245D01*
X-5784511Y-554245D02*
X-5774987Y-573293D01*
X-5774987Y-573293D02*
X-5774987Y-678055D01*
X-5774987Y-573293D02*
X-5765463Y-554245D01*
X-5765463Y-554245D02*
X-5746416Y-544721D01*
X-5746416Y-544721D02*
X-5717844Y-544721D01*
X-5717844Y-544721D02*
X-5698797Y-554245D01*
X-5698797Y-554245D02*
X-5689273Y-573293D01*
X-5689273Y-573293D02*
X-5689273Y-678055D01*
X-5594035Y-678055D02*
X-5594035Y-544721D01*
X-5594035Y-563769D02*
X-5584511Y-554245D01*
X-5584511Y-554245D02*
X-5565464Y-544721D01*
X-5565464Y-544721D02*
X-5536892Y-544721D01*
X-5536892Y-544721D02*
X-5517844Y-554245D01*
X-5517844Y-554245D02*
X-5508321Y-573293D01*
X-5508321Y-573293D02*
X-5508321Y-678055D01*
X-5508321Y-573293D02*
X-5498797Y-554245D01*
X-5498797Y-554245D02*
X-5479749Y-544721D01*
X-5479749Y-544721D02*
X-5451178Y-544721D01*
X-5451178Y-544721D02*
X-5432130Y-554245D01*
X-5432130Y-554245D02*
X-5422606Y-573293D01*
X-5422606Y-573293D02*
X-5422606Y-678055D01*
X-5032130Y-468531D02*
X-5203559Y-725674D01*
X-4774987Y-478055D02*
X-4755940Y-478055D01*
X-4755940Y-478055D02*
X-4736892Y-487578D01*
X-4736892Y-487578D02*
X-4727368Y-497102D01*
X-4727368Y-497102D02*
X-4717844Y-516150D01*
X-4717844Y-516150D02*
X-4708321Y-554245D01*
X-4708321Y-554245D02*
X-4708321Y-601864D01*
X-4708321Y-601864D02*
X-4717844Y-639959D01*
X-4717844Y-639959D02*
X-4727368Y-659007D01*
X-4727368Y-659007D02*
X-4736892Y-668531D01*
X-4736892Y-668531D02*
X-4755940Y-678055D01*
X-4755940Y-678055D02*
X-4774987Y-678055D01*
X-4774987Y-678055D02*
X-4794035Y-668531D01*
X-4794035Y-668531D02*
X-4803559Y-659007D01*
X-4803559Y-659007D02*
X-4813082Y-639959D01*
X-4813082Y-639959D02*
X-4822606Y-601864D01*
X-4822606Y-601864D02*
X-4822606Y-554245D01*
X-4822606Y-554245D02*
X-4813082Y-516150D01*
X-4813082Y-516150D02*
X-4803559Y-497102D01*
X-4803559Y-497102D02*
X-4794035Y-487578D01*
X-4794035Y-487578D02*
X-4774987Y-478055D01*
X-4622606Y-659007D02*
X-4613082Y-668531D01*
X-4613082Y-668531D02*
X-4622606Y-678055D01*
X-4622606Y-678055D02*
X-4632130Y-668531D01*
X-4632130Y-668531D02*
X-4622606Y-659007D01*
X-4622606Y-659007D02*
X-4622606Y-678055D01*
X-4422606Y-678055D02*
X-4536892Y-678055D01*
X-4479749Y-678055D02*
X-4479749Y-478055D01*
X-4479749Y-478055D02*
X-4498797Y-506626D01*
X-4498797Y-506626D02*
X-4517844Y-525674D01*
X-4517844Y-525674D02*
X-4536892Y-535197D01*
X-4346416Y-497102D02*
X-4336892Y-487578D01*
X-4336892Y-487578D02*
X-4317844Y-478055D01*
X-4317844Y-478055D02*
X-4270225Y-478055D01*
X-4270225Y-478055D02*
X-4251178Y-487578D01*
X-4251178Y-487578D02*
X-4241654Y-497102D01*
X-4241654Y-497102D02*
X-4232130Y-516150D01*
X-4232130Y-516150D02*
X-4232130Y-535197D01*
X-4232130Y-535197D02*
X-4241654Y-563769D01*
X-4241654Y-563769D02*
X-4355940Y-678055D01*
X-4355940Y-678055D02*
X-4232130Y-678055D01*
X-4136892Y-678055D02*
X-4098797Y-678055D01*
X-4098797Y-678055D02*
X-4079749Y-668531D01*
X-4079749Y-668531D02*
X-4070225Y-659007D01*
X-4070225Y-659007D02*
X-4051178Y-630436D01*
X-4051178Y-630436D02*
X-4041654Y-592340D01*
X-4041654Y-592340D02*
X-4041654Y-516150D01*
X-4041654Y-516150D02*
X-4051178Y-497102D01*
X-4051178Y-497102D02*
X-4060701Y-487578D01*
X-4060701Y-487578D02*
X-4079749Y-478055D01*
X-4079749Y-478055D02*
X-4117844Y-478055D01*
X-4117844Y-478055D02*
X-4136892Y-487578D01*
X-4136892Y-487578D02*
X-4146416Y-497102D01*
X-4146416Y-497102D02*
X-4155939Y-516150D01*
X-4155939Y-516150D02*
X-4155939Y-563769D01*
X-4155939Y-563769D02*
X-4146416Y-582817D01*
X-4146416Y-582817D02*
X-4136892Y-592340D01*
X-4136892Y-592340D02*
X-4117844Y-601864D01*
X-4117844Y-601864D02*
X-4079749Y-601864D01*
X-4079749Y-601864D02*
X-4060701Y-592340D01*
X-4060701Y-592340D02*
X-4051178Y-582817D01*
X-4051178Y-582817D02*
X-4041654Y-563769D01*
X-3946416Y-678055D02*
X-3908320Y-678055D01*
X-3908320Y-678055D02*
X-3889273Y-668531D01*
X-3889273Y-668531D02*
X-3879749Y-659007D01*
X-3879749Y-659007D02*
X-3860701Y-630436D01*
X-3860701Y-630436D02*
X-3851178Y-592340D01*
X-3851178Y-592340D02*
X-3851178Y-516150D01*
X-3851178Y-516150D02*
X-3860701Y-497102D01*
X-3860701Y-497102D02*
X-3870225Y-487578D01*
X-3870225Y-487578D02*
X-3889273Y-478055D01*
X-3889273Y-478055D02*
X-3927368Y-478055D01*
X-3927368Y-478055D02*
X-3946416Y-487578D01*
X-3946416Y-487578D02*
X-3955939Y-497102D01*
X-3955939Y-497102D02*
X-3965463Y-516150D01*
X-3965463Y-516150D02*
X-3965463Y-563769D01*
X-3965463Y-563769D02*
X-3955939Y-582817D01*
X-3955939Y-582817D02*
X-3946416Y-592340D01*
X-3946416Y-592340D02*
X-3927368Y-601864D01*
X-3927368Y-601864D02*
X-3889273Y-601864D01*
X-3889273Y-601864D02*
X-3870225Y-592340D01*
X-3870225Y-592340D02*
X-3860701Y-582817D01*
X-3860701Y-582817D02*
X-3851178Y-563769D01*
X-3774987Y-478055D02*
X-3774987Y-516150D01*
X-3698797Y-478055D02*
X-3698797Y-516150D01*
X-3403558Y-754245D02*
X-3413082Y-744721D01*
X-3413082Y-744721D02*
X-3432130Y-716150D01*
X-3432130Y-716150D02*
X-3441654Y-697102D01*
X-3441654Y-697102D02*
X-3451177Y-668531D01*
X-3451177Y-668531D02*
X-3460701Y-620912D01*
X-3460701Y-620912D02*
X-3460701Y-582817D01*
X-3460701Y-582817D02*
X-3451177Y-535197D01*
X-3451177Y-535197D02*
X-3441654Y-506626D01*
X-3441654Y-506626D02*
X-3432130Y-487578D01*
X-3432130Y-487578D02*
X-3413082Y-459007D01*
X-3413082Y-459007D02*
X-3403558Y-449483D01*
X-3241654Y-544721D02*
X-3241654Y-678055D01*
X-3289273Y-468531D02*
X-3336892Y-611388D01*
X-3336892Y-611388D02*
X-3213082Y-611388D01*
X-2984511Y-678055D02*
X-2984511Y-478055D01*
X-2898796Y-678055D02*
X-2898796Y-573293D01*
X-2898796Y-573293D02*
X-2908320Y-554245D01*
X-2908320Y-554245D02*
X-2927368Y-544721D01*
X-2927368Y-544721D02*
X-2955939Y-544721D01*
X-2955939Y-544721D02*
X-2974987Y-554245D01*
X-2974987Y-554245D02*
X-2984511Y-563769D01*
X-2774987Y-678055D02*
X-2794035Y-668531D01*
X-2794035Y-668531D02*
X-2803558Y-659007D01*
X-2803558Y-659007D02*
X-2813082Y-639959D01*
X-2813082Y-639959D02*
X-2813082Y-582817D01*
X-2813082Y-582817D02*
X-2803558Y-563769D01*
X-2803558Y-563769D02*
X-2794035Y-554245D01*
X-2794035Y-554245D02*
X-2774987Y-544721D01*
X-2774987Y-544721D02*
X-2746416Y-544721D01*
X-2746416Y-544721D02*
X-2727368Y-554245D01*
X-2727368Y-554245D02*
X-2717844Y-563769D01*
X-2717844Y-563769D02*
X-2708320Y-582817D01*
X-2708320Y-582817D02*
X-2708320Y-639959D01*
X-2708320Y-639959D02*
X-2717844Y-659007D01*
X-2717844Y-659007D02*
X-2727368Y-668531D01*
X-2727368Y-668531D02*
X-2746416Y-678055D01*
X-2746416Y-678055D02*
X-2774987Y-678055D01*
X-2594035Y-678055D02*
X-2613082Y-668531D01*
X-2613082Y-668531D02*
X-2622606Y-649483D01*
X-2622606Y-649483D02*
X-2622606Y-478055D01*
X-2441654Y-668531D02*
X-2460701Y-678055D01*
X-2460701Y-678055D02*
X-2498797Y-678055D01*
X-2498797Y-678055D02*
X-2517844Y-668531D01*
X-2517844Y-668531D02*
X-2527368Y-649483D01*
X-2527368Y-649483D02*
X-2527368Y-573293D01*
X-2527368Y-573293D02*
X-2517844Y-554245D01*
X-2517844Y-554245D02*
X-2498797Y-544721D01*
X-2498797Y-544721D02*
X-2460701Y-544721D01*
X-2460701Y-544721D02*
X-2441654Y-554245D01*
X-2441654Y-554245D02*
X-2432130Y-573293D01*
X-2432130Y-573293D02*
X-2432130Y-592340D01*
X-2432130Y-592340D02*
X-2527368Y-611388D01*
X-2355939Y-668531D02*
X-2336892Y-678055D01*
X-2336892Y-678055D02*
X-2298797Y-678055D01*
X-2298797Y-678055D02*
X-2279749Y-668531D01*
X-2279749Y-668531D02*
X-2270225Y-649483D01*
X-2270225Y-649483D02*
X-2270225Y-639959D01*
X-2270225Y-639959D02*
X-2279749Y-620912D01*
X-2279749Y-620912D02*
X-2298797Y-611388D01*
X-2298797Y-611388D02*
X-2327368Y-611388D01*
X-2327368Y-611388D02*
X-2346416Y-601864D01*
X-2346416Y-601864D02*
X-2355939Y-582817D01*
X-2355939Y-582817D02*
X-2355939Y-573293D01*
X-2355939Y-573293D02*
X-2346416Y-554245D01*
X-2346416Y-554245D02*
X-2327368Y-544721D01*
X-2327368Y-544721D02*
X-2298797Y-544721D01*
X-2298797Y-544721D02*
X-2279749Y-554245D01*
X-2203558Y-754245D02*
X-2194035Y-744721D01*
X-2194035Y-744721D02*
X-2174987Y-716150D01*
X-2174987Y-716150D02*
X-2165463Y-697102D01*
X-2165463Y-697102D02*
X-2155939Y-668531D01*
X-2155939Y-668531D02*
X-2146416Y-620912D01*
X-2146416Y-620912D02*
X-2146416Y-582817D01*
X-2146416Y-582817D02*
X-2155939Y-535197D01*
X-2155939Y-535197D02*
X-2165463Y-506626D01*
X-2165463Y-506626D02*
X-2174987Y-487578D01*
X-2174987Y-487578D02*
X-2194035Y-459007D01*
X-2194035Y-459007D02*
X-2203558Y-449483D01*
X-1841653Y-754245D02*
X-1851177Y-744721D01*
X-1851177Y-744721D02*
X-1870225Y-716150D01*
X-1870225Y-716150D02*
X-1879749Y-697102D01*
X-1879749Y-697102D02*
X-1889273Y-668531D01*
X-1889273Y-668531D02*
X-1898796Y-620912D01*
X-1898796Y-620912D02*
X-1898796Y-582817D01*
X-1898796Y-582817D02*
X-1889273Y-535197D01*
X-1889273Y-535197D02*
X-1879749Y-506626D01*
X-1879749Y-506626D02*
X-1870225Y-487578D01*
X-1870225Y-487578D02*
X-1851177Y-459007D01*
X-1851177Y-459007D02*
X-1841653Y-449483D01*
X-1765463Y-544721D02*
X-1765463Y-678055D01*
X-1765463Y-563769D02*
X-1755939Y-554245D01*
X-1755939Y-554245D02*
X-1736892Y-544721D01*
X-1736892Y-544721D02*
X-1708320Y-544721D01*
X-1708320Y-544721D02*
X-1689273Y-554245D01*
X-1689273Y-554245D02*
X-1679749Y-573293D01*
X-1679749Y-573293D02*
X-1679749Y-678055D01*
X-1555939Y-678055D02*
X-1574987Y-668531D01*
X-1574987Y-668531D02*
X-1584511Y-659007D01*
X-1584511Y-659007D02*
X-1594034Y-639959D01*
X-1594034Y-639959D02*
X-1594034Y-582817D01*
X-1594034Y-582817D02*
X-1584511Y-563769D01*
X-1584511Y-563769D02*
X-1574987Y-554245D01*
X-1574987Y-554245D02*
X-1555939Y-544721D01*
X-1555939Y-544721D02*
X-1527368Y-544721D01*
X-1527368Y-544721D02*
X-1508320Y-554245D01*
X-1508320Y-554245D02*
X-1498796Y-563769D01*
X-1498796Y-563769D02*
X-1489273Y-582817D01*
X-1489273Y-582817D02*
X-1489273Y-639959D01*
X-1489273Y-639959D02*
X-1498796Y-659007D01*
X-1498796Y-659007D02*
X-1508320Y-668531D01*
X-1508320Y-668531D02*
X-1527368Y-678055D01*
X-1527368Y-678055D02*
X-1555939Y-678055D01*
X-1432130Y-544721D02*
X-1355939Y-544721D01*
X-1403558Y-478055D02*
X-1403558Y-649483D01*
X-1403558Y-649483D02*
X-1394035Y-668531D01*
X-1394035Y-668531D02*
X-1374987Y-678055D01*
X-1374987Y-678055D02*
X-1355939Y-678055D01*
X-1136892Y-544721D02*
X-1136892Y-744721D01*
X-1136892Y-554245D02*
X-1117844Y-544721D01*
X-1117844Y-544721D02*
X-1079749Y-544721D01*
X-1079749Y-544721D02*
X-1060701Y-554245D01*
X-1060701Y-554245D02*
X-1051177Y-563769D01*
X-1051177Y-563769D02*
X-1041653Y-582817D01*
X-1041653Y-582817D02*
X-1041653Y-639959D01*
X-1041653Y-639959D02*
X-1051177Y-659007D01*
X-1051177Y-659007D02*
X-1060701Y-668531D01*
X-1060701Y-668531D02*
X-1079749Y-678055D01*
X-1079749Y-678055D02*
X-1117844Y-678055D01*
X-1117844Y-678055D02*
X-1136892Y-668531D01*
X-927368Y-678055D02*
X-946415Y-668531D01*
X-946415Y-668531D02*
X-955939Y-649483D01*
X-955939Y-649483D02*
X-955939Y-478055D01*
X-765463Y-678055D02*
X-765463Y-573293D01*
X-765463Y-573293D02*
X-774987Y-554245D01*
X-774987Y-554245D02*
X-794034Y-544721D01*
X-794034Y-544721D02*
X-832130Y-544721D01*
X-832130Y-544721D02*
X-851177Y-554245D01*
X-765463Y-668531D02*
X-784511Y-678055D01*
X-784511Y-678055D02*
X-832130Y-678055D01*
X-832130Y-678055D02*
X-851177Y-668531D01*
X-851177Y-668531D02*
X-860701Y-649483D01*
X-860701Y-649483D02*
X-860701Y-630436D01*
X-860701Y-630436D02*
X-851177Y-611388D01*
X-851177Y-611388D02*
X-832130Y-601864D01*
X-832130Y-601864D02*
X-784511Y-601864D01*
X-784511Y-601864D02*
X-765463Y-592340D01*
X-698796Y-544721D02*
X-622606Y-544721D01*
X-670225Y-478055D02*
X-670225Y-649483D01*
X-670225Y-649483D02*
X-660701Y-668531D01*
X-660701Y-668531D02*
X-641654Y-678055D01*
X-641654Y-678055D02*
X-622606Y-678055D01*
X-479749Y-668531D02*
X-498796Y-678055D01*
X-498796Y-678055D02*
X-536892Y-678055D01*
X-536892Y-678055D02*
X-555939Y-668531D01*
X-555939Y-668531D02*
X-565463Y-649483D01*
X-565463Y-649483D02*
X-565463Y-573293D01*
X-565463Y-573293D02*
X-555939Y-554245D01*
X-555939Y-554245D02*
X-536892Y-544721D01*
X-536892Y-544721D02*
X-498796Y-544721D01*
X-498796Y-544721D02*
X-479749Y-554245D01*
X-479749Y-554245D02*
X-470225Y-573293D01*
X-470225Y-573293D02*
X-470225Y-592340D01*
X-470225Y-592340D02*
X-565463Y-611388D01*
X-298796Y-678055D02*
X-298796Y-478055D01*
X-298796Y-668531D02*
X-317844Y-678055D01*
X-317844Y-678055D02*
X-355939Y-678055D01*
X-355939Y-678055D02*
X-374987Y-668531D01*
X-374987Y-668531D02*
X-384511Y-659007D01*
X-384511Y-659007D02*
X-394034Y-639959D01*
X-394034Y-639959D02*
X-394034Y-582817D01*
X-394034Y-582817D02*
X-384511Y-563769D01*
X-384511Y-563769D02*
X-374987Y-554245D01*
X-374987Y-554245D02*
X-355939Y-544721D01*
X-355939Y-544721D02*
X-317844Y-544721D01*
X-317844Y-544721D02*
X-298796Y-554245D01*
X-222606Y-754245D02*
X-213082Y-744721D01*
X-213082Y-744721D02*
X-194034Y-716150D01*
X-194034Y-716150D02*
X-184511Y-697102D01*
X-184511Y-697102D02*
X-174987Y-668531D01*
X-174987Y-668531D02*
X-165463Y-620912D01*
X-165463Y-620912D02*
X-165463Y-582817D01*
X-165463Y-582817D02*
X-174987Y-535197D01*
X-174987Y-535197D02*
X-184511Y-506626D01*
X-184511Y-506626D02*
X-194034Y-487578D01*
X-194034Y-487578D02*
X-213082Y-459007D01*
X-213082Y-459007D02*
X-222606Y-449483D01*
M02*
