%TF.GenerationSoftware,KiCad,Pcbnew,9.0.7*%
%TF.CreationDate,2026-03-04T19:42:52-03:00*%
%TF.ProjectId,ZATINO PTH V2,5a415449-4e4f-4205-9054-482056322e6b,rev?*%
%TF.SameCoordinates,Original*%
%TF.FileFunction,Drillmap*%
%TF.FilePolarity,Positive*%
%FSLAX45Y45*%
G04 Gerber Fmt 4.5, Leading zero omitted, Abs format (unit mm)*
G04 Created by KiCad (PCBNEW 9.0.7) date 2026-03-04 19:42:52*
%MOMM*%
%LPD*%
G01*
G04 APERTURE LIST*
%ADD10C,0.050000*%
%ADD11C,0.200000*%
%ADD12C,0.100000*%
%ADD13C,0.101600*%
%ADD14C,0.110000*%
G04 APERTURE END LIST*
D10*
X-381000Y5237000D02*
X-536000Y5390000D01*
X-536000Y5390000D02*
X-6866318Y5392904D01*
X-382117Y160987D02*
X-382117Y314000D01*
X-382117Y160987D02*
G75*
G02*
X-484000Y56930I-141883J37013D01*
G01*
X-381000Y4096000D02*
X-381000Y5237000D01*
X-6976000Y5285002D02*
X-6976000Y173000D01*
X-6847991Y56930D02*
X-484000Y56930D01*
X-127000Y3841000D02*
X-381000Y4096000D01*
X-6847991Y56930D02*
G75*
G02*
X-6976000Y173000I-15009J112070D01*
G01*
X-127000Y568000D02*
X-127000Y3841000D01*
X-6976000Y5285000D02*
G75*
G02*
X-6866318Y5392905I103000J5000D01*
G01*
X-382117Y314000D02*
X-127000Y568000D01*
D11*
D12*
X-5975511Y4220000D02*
X-5905511Y4150000D01*
X-5905511Y4220000D02*
X-5975511Y4150000D01*
X-5975511Y3550000D02*
X-5905511Y3480000D01*
X-5905511Y3550000D02*
X-5975511Y3480000D01*
X-5213511Y4220000D02*
X-5143511Y4150000D01*
X-5143511Y4220000D02*
X-5213511Y4150000D01*
X-5213511Y3550000D02*
X-5143511Y3480000D01*
X-5143511Y3550000D02*
X-5213511Y3480000D01*
X-1427000Y2350000D02*
X-1357000Y2280000D01*
X-1357000Y2350000D02*
X-1427000Y2280000D01*
X-665000Y2350000D02*
X-595000Y2280000D01*
X-595000Y2350000D02*
X-665000Y2280000D01*
X-5443511Y2807000D02*
G75*
G02*
X-5523511Y2807000I-40000J0D01*
G01*
X-5523511Y2807000D02*
G75*
G02*
X-5443511Y2807000I40000J0D01*
G01*
X-5443511Y2097000D02*
G75*
G02*
X-5523511Y2097000I-40000J0D01*
G01*
X-5523511Y2097000D02*
G75*
G02*
X-5443511Y2097000I40000J0D01*
G01*
X-5193511Y2807000D02*
G75*
G02*
X-5273511Y2807000I-40000J0D01*
G01*
X-5273511Y2807000D02*
G75*
G02*
X-5193511Y2807000I40000J0D01*
G01*
X-5193511Y2097000D02*
G75*
G02*
X-5273511Y2097000I-40000J0D01*
G01*
X-5273511Y2097000D02*
G75*
G02*
X-5193511Y2097000I40000J0D01*
G01*
X-5070511Y1163000D02*
G75*
G02*
X-5150511Y1163000I-40000J0D01*
G01*
X-5150511Y1163000D02*
G75*
G02*
X-5070511Y1163000I40000J0D01*
G01*
X-4820511Y1163000D02*
G75*
G02*
X-4900511Y1163000I-40000J0D01*
G01*
X-4900511Y1163000D02*
G75*
G02*
X-4820511Y1163000I40000J0D01*
G01*
X-4808291Y4208112D02*
G75*
G02*
X-4888291Y4208112I-40000J0D01*
G01*
X-4888291Y4208112D02*
G75*
G02*
X-4808291Y4208112I40000J0D01*
G01*
X-4558291Y4208112D02*
G75*
G02*
X-4638291Y4208112I-40000J0D01*
G01*
X-4638291Y4208112D02*
G75*
G02*
X-4558291Y4208112I40000J0D01*
G01*
X-3892142Y2059200D02*
G75*
G02*
X-3972142Y2059200I-40000J0D01*
G01*
X-3972142Y2059200D02*
G75*
G02*
X-3892142Y2059200I40000J0D01*
G01*
X-3892142Y1297200D02*
G75*
G02*
X-3972142Y1297200I-40000J0D01*
G01*
X-3972142Y1297200D02*
G75*
G02*
X-3892142Y1297200I40000J0D01*
G01*
X-3638142Y2059200D02*
G75*
G02*
X-3718142Y2059200I-40000J0D01*
G01*
X-3718142Y2059200D02*
G75*
G02*
X-3638142Y2059200I40000J0D01*
G01*
X-3638142Y1297200D02*
G75*
G02*
X-3718142Y1297200I-40000J0D01*
G01*
X-3718142Y1297200D02*
G75*
G02*
X-3638142Y1297200I40000J0D01*
G01*
X-3384142Y2059200D02*
G75*
G02*
X-3464142Y2059200I-40000J0D01*
G01*
X-3464142Y2059200D02*
G75*
G02*
X-3384142Y2059200I40000J0D01*
G01*
X-3384142Y1297200D02*
G75*
G02*
X-3464142Y1297200I-40000J0D01*
G01*
X-3464142Y1297200D02*
G75*
G02*
X-3384142Y1297200I40000J0D01*
G01*
X-3130142Y2059200D02*
G75*
G02*
X-3210142Y2059200I-40000J0D01*
G01*
X-3210142Y2059200D02*
G75*
G02*
X-3130142Y2059200I40000J0D01*
G01*
X-3130142Y1297200D02*
G75*
G02*
X-3210142Y1297200I-40000J0D01*
G01*
X-3210142Y1297200D02*
G75*
G02*
X-3130142Y1297200I40000J0D01*
G01*
X-3048000Y3204000D02*
G75*
G02*
X-3128000Y3204000I-40000J0D01*
G01*
X-3128000Y3204000D02*
G75*
G02*
X-3048000Y3204000I40000J0D01*
G01*
X-3048000Y2954000D02*
G75*
G02*
X-3128000Y2954000I-40000J0D01*
G01*
X-3128000Y2954000D02*
G75*
G02*
X-3048000Y2954000I40000J0D01*
G01*
X-3048000Y2512000D02*
G75*
G02*
X-3128000Y2512000I-40000J0D01*
G01*
X-3128000Y2512000D02*
G75*
G02*
X-3048000Y2512000I40000J0D01*
G01*
X-2876142Y2059200D02*
G75*
G02*
X-2956142Y2059200I-40000J0D01*
G01*
X-2956142Y2059200D02*
G75*
G02*
X-2876142Y2059200I40000J0D01*
G01*
X-2876142Y1297200D02*
G75*
G02*
X-2956142Y1297200I-40000J0D01*
G01*
X-2956142Y1297200D02*
G75*
G02*
X-2876142Y1297200I40000J0D01*
G01*
X-2622143Y2059200D02*
G75*
G02*
X-2702143Y2059200I-40000J0D01*
G01*
X-2702143Y2059200D02*
G75*
G02*
X-2622143Y2059200I40000J0D01*
G01*
X-2622143Y1297200D02*
G75*
G02*
X-2702143Y1297200I-40000J0D01*
G01*
X-2702143Y1297200D02*
G75*
G02*
X-2622143Y1297200I40000J0D01*
G01*
X-2558000Y3204000D02*
G75*
G02*
X-2638000Y3204000I-40000J0D01*
G01*
X-2638000Y3204000D02*
G75*
G02*
X-2558000Y3204000I40000J0D01*
G01*
X-2558000Y2954000D02*
G75*
G02*
X-2638000Y2954000I-40000J0D01*
G01*
X-2638000Y2954000D02*
G75*
G02*
X-2558000Y2954000I40000J0D01*
G01*
X-2558000Y2512000D02*
G75*
G02*
X-2638000Y2512000I-40000J0D01*
G01*
X-2638000Y2512000D02*
G75*
G02*
X-2558000Y2512000I40000J0D01*
G01*
X-2368143Y2059200D02*
G75*
G02*
X-2448143Y2059200I-40000J0D01*
G01*
X-2448143Y2059200D02*
G75*
G02*
X-2368143Y2059200I40000J0D01*
G01*
X-2368143Y1297200D02*
G75*
G02*
X-2448143Y1297200I-40000J0D01*
G01*
X-2448143Y1297200D02*
G75*
G02*
X-2368143Y1297200I40000J0D01*
G01*
X-2114143Y2059200D02*
G75*
G02*
X-2194143Y2059200I-40000J0D01*
G01*
X-2194143Y2059200D02*
G75*
G02*
X-2114143Y2059200I40000J0D01*
G01*
X-2114143Y1297200D02*
G75*
G02*
X-2194143Y1297200I-40000J0D01*
G01*
X-2194143Y1297200D02*
G75*
G02*
X-2114143Y1297200I40000J0D01*
G01*
X-1860142Y2059200D02*
G75*
G02*
X-1940142Y2059200I-40000J0D01*
G01*
X-1940142Y2059200D02*
G75*
G02*
X-1860142Y2059200I40000J0D01*
G01*
X-1860142Y1297200D02*
G75*
G02*
X-1940142Y1297200I-40000J0D01*
G01*
X-1940142Y1297200D02*
G75*
G02*
X-1860142Y1297200I40000J0D01*
G01*
X-1606142Y2059200D02*
G75*
G02*
X-1686142Y2059200I-40000J0D01*
G01*
X-1686142Y2059200D02*
G75*
G02*
X-1606142Y2059200I40000J0D01*
G01*
X-1606142Y1297200D02*
G75*
G02*
X-1686142Y1297200I-40000J0D01*
G01*
X-1686142Y1297200D02*
G75*
G02*
X-1606142Y1297200I40000J0D01*
G01*
X-1352143Y2059200D02*
G75*
G02*
X-1432142Y2059200I-40000J0D01*
G01*
X-1432142Y2059200D02*
G75*
G02*
X-1352143Y2059200I40000J0D01*
G01*
X-1352143Y1297200D02*
G75*
G02*
X-1432142Y1297200I-40000J0D01*
G01*
X-1432142Y1297200D02*
G75*
G02*
X-1352143Y1297200I40000J0D01*
G01*
X-1098143Y2059200D02*
G75*
G02*
X-1178143Y2059200I-40000J0D01*
G01*
X-1178143Y2059200D02*
G75*
G02*
X-1098143Y2059200I40000J0D01*
G01*
X-1098143Y1297200D02*
G75*
G02*
X-1178143Y1297200I-40000J0D01*
G01*
X-1178143Y1297200D02*
G75*
G02*
X-1098143Y1297200I40000J0D01*
G01*
X-844142Y2059200D02*
G75*
G02*
X-924142Y2059200I-40000J0D01*
G01*
X-924142Y2059200D02*
G75*
G02*
X-844142Y2059200I40000J0D01*
G01*
X-844142Y1297200D02*
G75*
G02*
X-924142Y1297200I-40000J0D01*
G01*
X-924142Y1297200D02*
G75*
G02*
X-844142Y1297200I40000J0D01*
G01*
X-590143Y2059200D02*
G75*
G02*
X-670143Y2059200I-40000J0D01*
G01*
X-670143Y2059200D02*
G75*
G02*
X-590143Y2059200I40000J0D01*
G01*
X-590143Y1297200D02*
G75*
G02*
X-670143Y1297200I-40000J0D01*
G01*
X-670143Y1297200D02*
G75*
G02*
X-590143Y1297200I40000J0D01*
G01*
X-377863Y2728416D02*
G75*
G02*
X-457863Y2728416I-40000J0D01*
G01*
X-457863Y2728416D02*
G75*
G02*
X-377863Y2728416I40000J0D01*
G01*
X-377863Y2478416D02*
G75*
G02*
X-457863Y2478416I-40000J0D01*
G01*
X-457863Y2478416D02*
G75*
G02*
X-377863Y2478416I40000J0D01*
G01*
X-6525000Y4224000D02*
X-6525000Y4134000D01*
X-6570000Y4179000D02*
X-6480000Y4179000D01*
X-6525000Y3556000D02*
X-6525000Y3466000D01*
X-6570000Y3511000D02*
X-6480000Y3511000D01*
X-6271000Y4224000D02*
X-6271000Y4134000D01*
X-6316000Y4179000D02*
X-6226000Y4179000D01*
X-6271000Y3556000D02*
X-6271000Y3466000D01*
X-6316000Y3511000D02*
X-6226000Y3511000D01*
X-5541755Y2446952D02*
X-5541755Y2517663D01*
X-5612466Y2517663D01*
X-5612466Y2446952D01*
X-5541755Y2446952D01*
X-6555000Y980000D02*
X-6505000Y1030000D01*
X-6555000Y1080000D01*
X-6605000Y1030000D01*
X-6555000Y980000D01*
X-6605000Y1130000D02*
X-6605000Y930000D01*
X-6505000Y930000D02*
G75*
G02*
X-6605000Y930000I-50000J0D01*
G01*
X-6505000Y930000D02*
X-6505000Y1130000D01*
X-6505000Y1130000D02*
G75*
G03*
X-6605000Y1130000I-50000J0D01*
G01*
X-6255000Y510000D02*
X-6205000Y560000D01*
X-6255000Y610000D01*
X-6305000Y560000D01*
X-6255000Y510000D01*
X-6355000Y510000D02*
X-6155000Y510000D01*
X-6155000Y610000D02*
G75*
G02*
X-6155000Y510000I0J-50000D01*
G01*
X-6155000Y610000D02*
X-6355000Y610000D01*
X-6355000Y610000D02*
G75*
G03*
X-6355000Y510000I0J-50000D01*
G01*
X-5955000Y980000D02*
X-5905000Y1030000D01*
X-5955000Y1080000D01*
X-6005000Y1030000D01*
X-5955000Y980000D01*
X-6005000Y1130000D02*
X-6005000Y930000D01*
X-5905000Y930000D02*
G75*
G02*
X-6005000Y930000I-50000J0D01*
G01*
X-5905000Y930000D02*
X-5905000Y1130000D01*
X-5905000Y1130000D02*
G75*
G03*
X-6005000Y1130000I-50000J0D01*
G01*
X-2666500Y944000D02*
X-2616500Y994000D01*
X-2666500Y1044000D01*
X-2716500Y994000D01*
X-2666500Y944000D01*
X-2412500Y944000D02*
X-2362500Y994000D01*
X-2412500Y1044000D01*
X-2462500Y994000D01*
X-2412500Y944000D01*
X-769000Y3947000D02*
X-719000Y3997000D01*
X-769000Y4047000D01*
X-819000Y3997000D01*
X-769000Y3947000D01*
X-769000Y3693000D02*
X-719000Y3743000D01*
X-769000Y3793000D01*
X-819000Y3743000D01*
X-769000Y3693000D01*
X-769000Y3439000D02*
X-719000Y3489000D01*
X-769000Y3539000D01*
X-819000Y3489000D01*
X-769000Y3439000D01*
X-769000Y3185000D02*
X-719000Y3235000D01*
X-769000Y3285000D01*
X-819000Y3235000D01*
X-769000Y3185000D01*
X-769000Y2931000D02*
X-719000Y2981000D01*
X-769000Y3031000D01*
X-819000Y2981000D01*
X-769000Y2931000D01*
X-769000Y2677000D02*
X-719000Y2727000D01*
X-769000Y2777000D01*
X-819000Y2727000D01*
X-769000Y2677000D01*
D13*
X-5151930Y5190870D02*
X-5050330Y5089270D01*
X-5050330Y5190870D02*
X-5151930Y5089270D01*
X-5050330Y5140070D02*
G75*
G02*
X-5151930Y5140070I-50800J0D01*
G01*
X-5151930Y5140070D02*
G75*
G02*
X-5050330Y5140070I50800J0D01*
G01*
X-4897930Y5190870D02*
X-4796330Y5089270D01*
X-4796330Y5190870D02*
X-4897930Y5089270D01*
X-4796330Y5140070D02*
G75*
G02*
X-4897930Y5140070I-50800J0D01*
G01*
X-4897930Y5140070D02*
G75*
G02*
X-4796330Y5140070I50800J0D01*
G01*
X-4643930Y5190870D02*
X-4542330Y5089270D01*
X-4542330Y5190870D02*
X-4643930Y5089270D01*
X-4542330Y5140070D02*
G75*
G02*
X-4643930Y5140070I-50800J0D01*
G01*
X-4643930Y5140070D02*
G75*
G02*
X-4542330Y5140070I50800J0D01*
G01*
X-4389931Y5190870D02*
X-4288331Y5089270D01*
X-4288331Y5190870D02*
X-4389931Y5089270D01*
X-4288331Y5140070D02*
G75*
G02*
X-4389931Y5140070I-50800J0D01*
G01*
X-4389931Y5140070D02*
G75*
G02*
X-4288331Y5140070I50800J0D01*
G01*
X-4237531Y364870D02*
X-4135931Y263270D01*
X-4135931Y364870D02*
X-4237531Y263270D01*
X-4135931Y314070D02*
G75*
G02*
X-4237531Y314070I-50800J0D01*
G01*
X-4237531Y314070D02*
G75*
G02*
X-4135931Y314070I50800J0D01*
G01*
X-4135931Y5190870D02*
X-4034331Y5089270D01*
X-4034331Y5190870D02*
X-4135931Y5089270D01*
X-4034331Y5140070D02*
G75*
G02*
X-4135931Y5140070I-50800J0D01*
G01*
X-4135931Y5140070D02*
G75*
G02*
X-4034331Y5140070I50800J0D01*
G01*
X-3983531Y364870D02*
X-3881931Y263270D01*
X-3881931Y364870D02*
X-3983531Y263270D01*
X-3881931Y314070D02*
G75*
G02*
X-3983531Y314070I-50800J0D01*
G01*
X-3983531Y314070D02*
G75*
G02*
X-3881931Y314070I50800J0D01*
G01*
X-3881931Y5190870D02*
X-3780331Y5089270D01*
X-3780331Y5190870D02*
X-3881931Y5089270D01*
X-3780331Y5140070D02*
G75*
G02*
X-3881931Y5140070I-50800J0D01*
G01*
X-3881931Y5140070D02*
G75*
G02*
X-3780331Y5140070I50800J0D01*
G01*
X-3729531Y364870D02*
X-3627931Y263270D01*
X-3627931Y364870D02*
X-3729531Y263270D01*
X-3627931Y314070D02*
G75*
G02*
X-3729531Y314070I-50800J0D01*
G01*
X-3729531Y314070D02*
G75*
G02*
X-3627931Y314070I50800J0D01*
G01*
X-3627931Y5190870D02*
X-3526331Y5089270D01*
X-3526331Y5190870D02*
X-3627931Y5089270D01*
X-3526331Y5140070D02*
G75*
G02*
X-3627931Y5140070I-50800J0D01*
G01*
X-3627931Y5140070D02*
G75*
G02*
X-3526331Y5140070I50800J0D01*
G01*
X-3475531Y364870D02*
X-3373931Y263270D01*
X-3373931Y364870D02*
X-3475531Y263270D01*
X-3373931Y314070D02*
G75*
G02*
X-3475531Y314070I-50800J0D01*
G01*
X-3475531Y314070D02*
G75*
G02*
X-3373931Y314070I50800J0D01*
G01*
X-3373931Y5190870D02*
X-3272331Y5089270D01*
X-3272331Y5190870D02*
X-3373931Y5089270D01*
X-3272331Y5140070D02*
G75*
G02*
X-3373931Y5140070I-50800J0D01*
G01*
X-3373931Y5140070D02*
G75*
G02*
X-3272331Y5140070I50800J0D01*
G01*
X-3221531Y364870D02*
X-3119931Y263270D01*
X-3119931Y364870D02*
X-3221531Y263270D01*
X-3119931Y314070D02*
G75*
G02*
X-3221531Y314070I-50800J0D01*
G01*
X-3221531Y314070D02*
G75*
G02*
X-3119931Y314070I50800J0D01*
G01*
X-3119931Y5190870D02*
X-3018331Y5089270D01*
X-3018331Y5190870D02*
X-3119931Y5089270D01*
X-3018331Y5140070D02*
G75*
G02*
X-3119931Y5140070I-50800J0D01*
G01*
X-3119931Y5140070D02*
G75*
G02*
X-3018331Y5140070I50800J0D01*
G01*
X-2967531Y364870D02*
X-2865931Y263270D01*
X-2865931Y364870D02*
X-2967531Y263270D01*
X-2865931Y314070D02*
G75*
G02*
X-2967531Y314070I-50800J0D01*
G01*
X-2967531Y314070D02*
G75*
G02*
X-2865931Y314070I50800J0D01*
G01*
X-2865931Y5190870D02*
X-2764331Y5089270D01*
X-2764331Y5190870D02*
X-2865931Y5089270D01*
X-2764331Y5140070D02*
G75*
G02*
X-2865931Y5140070I-50800J0D01*
G01*
X-2865931Y5140070D02*
G75*
G02*
X-2764331Y5140070I50800J0D01*
G01*
X-2713531Y364870D02*
X-2611931Y263270D01*
X-2611931Y364870D02*
X-2713531Y263270D01*
X-2611931Y314070D02*
G75*
G02*
X-2713531Y314070I-50800J0D01*
G01*
X-2713531Y314070D02*
G75*
G02*
X-2611931Y314070I50800J0D01*
G01*
X-2459530Y5190870D02*
X-2357930Y5089270D01*
X-2357930Y5190870D02*
X-2459530Y5089270D01*
X-2357930Y5140070D02*
G75*
G02*
X-2459530Y5140070I-50800J0D01*
G01*
X-2459530Y5140070D02*
G75*
G02*
X-2357930Y5140070I50800J0D01*
G01*
X-2459530Y364870D02*
X-2357930Y263270D01*
X-2357930Y364870D02*
X-2459530Y263270D01*
X-2357930Y314070D02*
G75*
G02*
X-2459530Y314070I-50800J0D01*
G01*
X-2459530Y314070D02*
G75*
G02*
X-2357930Y314070I50800J0D01*
G01*
X-2205530Y5190870D02*
X-2103930Y5089270D01*
X-2103930Y5190870D02*
X-2205530Y5089270D01*
X-2103930Y5140070D02*
G75*
G02*
X-2205530Y5140070I-50800J0D01*
G01*
X-2205530Y5140070D02*
G75*
G02*
X-2103930Y5140070I50800J0D01*
G01*
X-1951530Y5190870D02*
X-1849930Y5089270D01*
X-1849930Y5190870D02*
X-1951530Y5089270D01*
X-1849930Y5140070D02*
G75*
G02*
X-1951530Y5140070I-50800J0D01*
G01*
X-1951530Y5140070D02*
G75*
G02*
X-1849930Y5140070I50800J0D01*
G01*
X-1951530Y364870D02*
X-1849930Y263270D01*
X-1849930Y364870D02*
X-1951530Y263270D01*
X-1849930Y314070D02*
G75*
G02*
X-1951530Y314070I-50800J0D01*
G01*
X-1951530Y314070D02*
G75*
G02*
X-1849930Y314070I50800J0D01*
G01*
X-1697530Y5190870D02*
X-1595930Y5089270D01*
X-1595930Y5190870D02*
X-1697530Y5089270D01*
X-1595930Y5140070D02*
G75*
G02*
X-1697530Y5140070I-50800J0D01*
G01*
X-1697530Y5140070D02*
G75*
G02*
X-1595930Y5140070I50800J0D01*
G01*
X-1697530Y364870D02*
X-1595930Y263270D01*
X-1595930Y364870D02*
X-1697530Y263270D01*
X-1595930Y314070D02*
G75*
G02*
X-1697530Y314070I-50800J0D01*
G01*
X-1697530Y314070D02*
G75*
G02*
X-1595930Y314070I50800J0D01*
G01*
X-1443530Y5190870D02*
X-1341930Y5089270D01*
X-1341930Y5190870D02*
X-1443530Y5089270D01*
X-1341930Y5140070D02*
G75*
G02*
X-1443530Y5140070I-50800J0D01*
G01*
X-1443530Y5140070D02*
G75*
G02*
X-1341930Y5140070I50800J0D01*
G01*
X-1443530Y364870D02*
X-1341930Y263270D01*
X-1341930Y364870D02*
X-1443530Y263270D01*
X-1341930Y314070D02*
G75*
G02*
X-1443530Y314070I-50800J0D01*
G01*
X-1443530Y314070D02*
G75*
G02*
X-1341930Y314070I50800J0D01*
G01*
X-1189530Y5190870D02*
X-1087930Y5089270D01*
X-1087930Y5190870D02*
X-1189530Y5089270D01*
X-1087930Y5140070D02*
G75*
G02*
X-1189530Y5140070I-50800J0D01*
G01*
X-1189530Y5140070D02*
G75*
G02*
X-1087930Y5140070I50800J0D01*
G01*
X-1189530Y364870D02*
X-1087930Y263270D01*
X-1087930Y364870D02*
X-1189530Y263270D01*
X-1087930Y314070D02*
G75*
G02*
X-1189530Y314070I-50800J0D01*
G01*
X-1189530Y314070D02*
G75*
G02*
X-1087930Y314070I50800J0D01*
G01*
X-935530Y5190870D02*
X-833930Y5089270D01*
X-833930Y5190870D02*
X-935530Y5089270D01*
X-833930Y5140070D02*
G75*
G02*
X-935530Y5140070I-50800J0D01*
G01*
X-935530Y5140070D02*
G75*
G02*
X-833930Y5140070I50800J0D01*
G01*
X-935530Y364870D02*
X-833930Y263270D01*
X-833930Y364870D02*
X-935530Y263270D01*
X-833930Y314070D02*
G75*
G02*
X-935530Y314070I-50800J0D01*
G01*
X-935530Y314070D02*
G75*
G02*
X-833930Y314070I50800J0D01*
G01*
X-681530Y5190870D02*
X-579930Y5089270D01*
X-579930Y5190870D02*
X-681530Y5089270D01*
X-579930Y5140070D02*
G75*
G02*
X-681530Y5140070I-50800J0D01*
G01*
X-681530Y5140070D02*
G75*
G02*
X-579930Y5140070I50800J0D01*
G01*
X-681530Y364870D02*
X-579930Y263270D01*
X-579930Y364870D02*
X-681530Y263270D01*
X-579930Y314070D02*
G75*
G02*
X-681530Y314070I-50800J0D01*
G01*
X-681530Y314070D02*
G75*
G02*
X-579930Y314070I50800J0D01*
G01*
D14*
X-6624000Y5224000D02*
X-6514000Y5114000D01*
X-6514000Y5224000D02*
X-6624000Y5114000D01*
X-6569000Y5224000D02*
X-6569000Y5114000D01*
X-6624000Y5169000D02*
X-6514000Y5169000D01*
X-6624000Y4774000D02*
X-6514000Y4664000D01*
X-6514000Y4774000D02*
X-6624000Y4664000D01*
X-6569000Y4774000D02*
X-6569000Y4664000D01*
X-6624000Y4719000D02*
X-6514000Y4719000D01*
X-5974000Y5224000D02*
X-5864000Y5114000D01*
X-5864000Y5224000D02*
X-5974000Y5114000D01*
X-5919000Y5224000D02*
X-5919000Y5114000D01*
X-5974000Y5169000D02*
X-5864000Y5169000D01*
X-5974000Y4774000D02*
X-5864000Y4664000D01*
X-5864000Y4774000D02*
X-5974000Y4664000D01*
X-5919000Y4774000D02*
X-5919000Y4664000D01*
X-5974000Y4719000D02*
X-5864000Y4719000D01*
X-5613000Y1726000D02*
X-5503000Y1616000D01*
X-5503000Y1726000D02*
X-5613000Y1616000D01*
X-5558000Y1726000D02*
X-5558000Y1616000D01*
X-5613000Y1671000D02*
X-5503000Y1671000D01*
X-5613000Y710000D02*
X-5503000Y600000D01*
X-5503000Y710000D02*
X-5613000Y600000D01*
X-5558000Y710000D02*
X-5558000Y600000D01*
X-5613000Y655000D02*
X-5503000Y655000D01*
D11*
X-6717844Y-258055D02*
X-6717844Y-58055D01*
X-6717844Y-58055D02*
X-6670225Y-58055D01*
X-6670225Y-58055D02*
X-6641654Y-67578D01*
X-6641654Y-67578D02*
X-6622606Y-86626D01*
X-6622606Y-86626D02*
X-6613083Y-105674D01*
X-6613083Y-105674D02*
X-6603559Y-143769D01*
X-6603559Y-143769D02*
X-6603559Y-172340D01*
X-6603559Y-172340D02*
X-6613083Y-210435D01*
X-6613083Y-210435D02*
X-6622606Y-229483D01*
X-6622606Y-229483D02*
X-6641654Y-248531D01*
X-6641654Y-248531D02*
X-6670225Y-258055D01*
X-6670225Y-258055D02*
X-6717844Y-258055D01*
X-6517844Y-258055D02*
X-6517844Y-124721D01*
X-6517844Y-162817D02*
X-6508321Y-143769D01*
X-6508321Y-143769D02*
X-6498797Y-134245D01*
X-6498797Y-134245D02*
X-6479749Y-124721D01*
X-6479749Y-124721D02*
X-6460702Y-124721D01*
X-6394035Y-258055D02*
X-6394035Y-124721D01*
X-6394035Y-58055D02*
X-6403559Y-67578D01*
X-6403559Y-67578D02*
X-6394035Y-77102D01*
X-6394035Y-77102D02*
X-6384511Y-67578D01*
X-6384511Y-67578D02*
X-6394035Y-58055D01*
X-6394035Y-58055D02*
X-6394035Y-77102D01*
X-6270225Y-258055D02*
X-6289273Y-248531D01*
X-6289273Y-248531D02*
X-6298797Y-229483D01*
X-6298797Y-229483D02*
X-6298797Y-58055D01*
X-6165464Y-258055D02*
X-6184511Y-248531D01*
X-6184511Y-248531D02*
X-6194035Y-229483D01*
X-6194035Y-229483D02*
X-6194035Y-58055D01*
X-5936892Y-258055D02*
X-5936892Y-58055D01*
X-5936892Y-58055D02*
X-5870225Y-200912D01*
X-5870225Y-200912D02*
X-5803559Y-58055D01*
X-5803559Y-58055D02*
X-5803559Y-258055D01*
X-5622606Y-258055D02*
X-5622606Y-153293D01*
X-5622606Y-153293D02*
X-5632130Y-134245D01*
X-5632130Y-134245D02*
X-5651178Y-124721D01*
X-5651178Y-124721D02*
X-5689273Y-124721D01*
X-5689273Y-124721D02*
X-5708321Y-134245D01*
X-5622606Y-248531D02*
X-5641654Y-258055D01*
X-5641654Y-258055D02*
X-5689273Y-258055D01*
X-5689273Y-258055D02*
X-5708321Y-248531D01*
X-5708321Y-248531D02*
X-5717844Y-229483D01*
X-5717844Y-229483D02*
X-5717844Y-210435D01*
X-5717844Y-210435D02*
X-5708321Y-191388D01*
X-5708321Y-191388D02*
X-5689273Y-181864D01*
X-5689273Y-181864D02*
X-5641654Y-181864D01*
X-5641654Y-181864D02*
X-5622606Y-172340D01*
X-5527368Y-124721D02*
X-5527368Y-324721D01*
X-5527368Y-134245D02*
X-5508321Y-124721D01*
X-5508321Y-124721D02*
X-5470225Y-124721D01*
X-5470225Y-124721D02*
X-5451178Y-134245D01*
X-5451178Y-134245D02*
X-5441654Y-143769D01*
X-5441654Y-143769D02*
X-5432130Y-162817D01*
X-5432130Y-162817D02*
X-5432130Y-219959D01*
X-5432130Y-219959D02*
X-5441654Y-239007D01*
X-5441654Y-239007D02*
X-5451178Y-248531D01*
X-5451178Y-248531D02*
X-5470225Y-258055D01*
X-5470225Y-258055D02*
X-5508321Y-258055D01*
X-5508321Y-258055D02*
X-5527368Y-248531D01*
X-5346416Y-239007D02*
X-5336892Y-248531D01*
X-5336892Y-248531D02*
X-5346416Y-258055D01*
X-5346416Y-258055D02*
X-5355940Y-248531D01*
X-5355940Y-248531D02*
X-5346416Y-239007D01*
X-5346416Y-239007D02*
X-5346416Y-258055D01*
X-5346416Y-134245D02*
X-5336892Y-143769D01*
X-5336892Y-143769D02*
X-5346416Y-153293D01*
X-5346416Y-153293D02*
X-5355940Y-143769D01*
X-5355940Y-143769D02*
X-5346416Y-134245D01*
X-5346416Y-134245D02*
X-5346416Y-153293D01*
D12*
X-7048621Y-551571D02*
X-6978621Y-621571D01*
X-6978621Y-551571D02*
X-7048621Y-621571D01*
D11*
X-6679749Y-478055D02*
X-6660702Y-478055D01*
X-6660702Y-478055D02*
X-6641654Y-487578D01*
X-6641654Y-487578D02*
X-6632130Y-497102D01*
X-6632130Y-497102D02*
X-6622606Y-516150D01*
X-6622606Y-516150D02*
X-6613083Y-554245D01*
X-6613083Y-554245D02*
X-6613083Y-601864D01*
X-6613083Y-601864D02*
X-6622606Y-639959D01*
X-6622606Y-639959D02*
X-6632130Y-659007D01*
X-6632130Y-659007D02*
X-6641654Y-668531D01*
X-6641654Y-668531D02*
X-6660702Y-678055D01*
X-6660702Y-678055D02*
X-6679749Y-678055D01*
X-6679749Y-678055D02*
X-6698797Y-668531D01*
X-6698797Y-668531D02*
X-6708321Y-659007D01*
X-6708321Y-659007D02*
X-6717844Y-639959D01*
X-6717844Y-639959D02*
X-6727368Y-601864D01*
X-6727368Y-601864D02*
X-6727368Y-554245D01*
X-6727368Y-554245D02*
X-6717844Y-516150D01*
X-6717844Y-516150D02*
X-6708321Y-497102D01*
X-6708321Y-497102D02*
X-6698797Y-487578D01*
X-6698797Y-487578D02*
X-6679749Y-478055D01*
X-6527368Y-659007D02*
X-6517844Y-668531D01*
X-6517844Y-668531D02*
X-6527368Y-678055D01*
X-6527368Y-678055D02*
X-6536892Y-668531D01*
X-6536892Y-668531D02*
X-6527368Y-659007D01*
X-6527368Y-659007D02*
X-6527368Y-678055D01*
X-6451178Y-478055D02*
X-6317844Y-478055D01*
X-6317844Y-478055D02*
X-6403559Y-678055D01*
X-6203559Y-478055D02*
X-6184511Y-478055D01*
X-6184511Y-478055D02*
X-6165463Y-487578D01*
X-6165463Y-487578D02*
X-6155940Y-497102D01*
X-6155940Y-497102D02*
X-6146416Y-516150D01*
X-6146416Y-516150D02*
X-6136892Y-554245D01*
X-6136892Y-554245D02*
X-6136892Y-601864D01*
X-6136892Y-601864D02*
X-6146416Y-639959D01*
X-6146416Y-639959D02*
X-6155940Y-659007D01*
X-6155940Y-659007D02*
X-6165463Y-668531D01*
X-6165463Y-668531D02*
X-6184511Y-678055D01*
X-6184511Y-678055D02*
X-6203559Y-678055D01*
X-6203559Y-678055D02*
X-6222606Y-668531D01*
X-6222606Y-668531D02*
X-6232130Y-659007D01*
X-6232130Y-659007D02*
X-6241654Y-639959D01*
X-6241654Y-639959D02*
X-6251178Y-601864D01*
X-6251178Y-601864D02*
X-6251178Y-554245D01*
X-6251178Y-554245D02*
X-6241654Y-516150D01*
X-6241654Y-516150D02*
X-6232130Y-497102D01*
X-6232130Y-497102D02*
X-6222606Y-487578D01*
X-6222606Y-487578D02*
X-6203559Y-478055D01*
X-6013083Y-478055D02*
X-5994035Y-478055D01*
X-5994035Y-478055D02*
X-5974987Y-487578D01*
X-5974987Y-487578D02*
X-5965463Y-497102D01*
X-5965463Y-497102D02*
X-5955940Y-516150D01*
X-5955940Y-516150D02*
X-5946416Y-554245D01*
X-5946416Y-554245D02*
X-5946416Y-601864D01*
X-5946416Y-601864D02*
X-5955940Y-639959D01*
X-5955940Y-639959D02*
X-5965463Y-659007D01*
X-5965463Y-659007D02*
X-5974987Y-668531D01*
X-5974987Y-668531D02*
X-5994035Y-678055D01*
X-5994035Y-678055D02*
X-6013083Y-678055D01*
X-6013083Y-678055D02*
X-6032130Y-668531D01*
X-6032130Y-668531D02*
X-6041654Y-659007D01*
X-6041654Y-659007D02*
X-6051178Y-639959D01*
X-6051178Y-639959D02*
X-6060702Y-601864D01*
X-6060702Y-601864D02*
X-6060702Y-554245D01*
X-6060702Y-554245D02*
X-6051178Y-516150D01*
X-6051178Y-516150D02*
X-6041654Y-497102D01*
X-6041654Y-497102D02*
X-6032130Y-487578D01*
X-6032130Y-487578D02*
X-6013083Y-478055D01*
X-5860702Y-678055D02*
X-5860702Y-544721D01*
X-5860702Y-563769D02*
X-5851178Y-554245D01*
X-5851178Y-554245D02*
X-5832130Y-544721D01*
X-5832130Y-544721D02*
X-5803559Y-544721D01*
X-5803559Y-544721D02*
X-5784511Y-554245D01*
X-5784511Y-554245D02*
X-5774987Y-573293D01*
X-5774987Y-573293D02*
X-5774987Y-678055D01*
X-5774987Y-573293D02*
X-5765463Y-554245D01*
X-5765463Y-554245D02*
X-5746416Y-544721D01*
X-5746416Y-544721D02*
X-5717844Y-544721D01*
X-5717844Y-544721D02*
X-5698797Y-554245D01*
X-5698797Y-554245D02*
X-5689273Y-573293D01*
X-5689273Y-573293D02*
X-5689273Y-678055D01*
X-5594035Y-678055D02*
X-5594035Y-544721D01*
X-5594035Y-563769D02*
X-5584511Y-554245D01*
X-5584511Y-554245D02*
X-5565464Y-544721D01*
X-5565464Y-544721D02*
X-5536892Y-544721D01*
X-5536892Y-544721D02*
X-5517844Y-554245D01*
X-5517844Y-554245D02*
X-5508321Y-573293D01*
X-5508321Y-573293D02*
X-5508321Y-678055D01*
X-5508321Y-573293D02*
X-5498797Y-554245D01*
X-5498797Y-554245D02*
X-5479749Y-544721D01*
X-5479749Y-544721D02*
X-5451178Y-544721D01*
X-5451178Y-544721D02*
X-5432130Y-554245D01*
X-5432130Y-554245D02*
X-5422606Y-573293D01*
X-5422606Y-573293D02*
X-5422606Y-678055D01*
X-5032130Y-468531D02*
X-5203559Y-725674D01*
X-4774987Y-478055D02*
X-4755940Y-478055D01*
X-4755940Y-478055D02*
X-4736892Y-487578D01*
X-4736892Y-487578D02*
X-4727368Y-497102D01*
X-4727368Y-497102D02*
X-4717844Y-516150D01*
X-4717844Y-516150D02*
X-4708321Y-554245D01*
X-4708321Y-554245D02*
X-4708321Y-601864D01*
X-4708321Y-601864D02*
X-4717844Y-639959D01*
X-4717844Y-639959D02*
X-4727368Y-659007D01*
X-4727368Y-659007D02*
X-4736892Y-668531D01*
X-4736892Y-668531D02*
X-4755940Y-678055D01*
X-4755940Y-678055D02*
X-4774987Y-678055D01*
X-4774987Y-678055D02*
X-4794035Y-668531D01*
X-4794035Y-668531D02*
X-4803559Y-659007D01*
X-4803559Y-659007D02*
X-4813082Y-639959D01*
X-4813082Y-639959D02*
X-4822606Y-601864D01*
X-4822606Y-601864D02*
X-4822606Y-554245D01*
X-4822606Y-554245D02*
X-4813082Y-516150D01*
X-4813082Y-516150D02*
X-4803559Y-497102D01*
X-4803559Y-497102D02*
X-4794035Y-487578D01*
X-4794035Y-487578D02*
X-4774987Y-478055D01*
X-4622606Y-659007D02*
X-4613082Y-668531D01*
X-4613082Y-668531D02*
X-4622606Y-678055D01*
X-4622606Y-678055D02*
X-4632130Y-668531D01*
X-4632130Y-668531D02*
X-4622606Y-659007D01*
X-4622606Y-659007D02*
X-4622606Y-678055D01*
X-4489273Y-478055D02*
X-4470225Y-478055D01*
X-4470225Y-478055D02*
X-4451178Y-487578D01*
X-4451178Y-487578D02*
X-4441654Y-497102D01*
X-4441654Y-497102D02*
X-4432130Y-516150D01*
X-4432130Y-516150D02*
X-4422606Y-554245D01*
X-4422606Y-554245D02*
X-4422606Y-601864D01*
X-4422606Y-601864D02*
X-4432130Y-639959D01*
X-4432130Y-639959D02*
X-4441654Y-659007D01*
X-4441654Y-659007D02*
X-4451178Y-668531D01*
X-4451178Y-668531D02*
X-4470225Y-678055D01*
X-4470225Y-678055D02*
X-4489273Y-678055D01*
X-4489273Y-678055D02*
X-4508321Y-668531D01*
X-4508321Y-668531D02*
X-4517844Y-659007D01*
X-4517844Y-659007D02*
X-4527368Y-639959D01*
X-4527368Y-639959D02*
X-4536892Y-601864D01*
X-4536892Y-601864D02*
X-4536892Y-554245D01*
X-4536892Y-554245D02*
X-4527368Y-516150D01*
X-4527368Y-516150D02*
X-4517844Y-497102D01*
X-4517844Y-497102D02*
X-4508321Y-487578D01*
X-4508321Y-487578D02*
X-4489273Y-478055D01*
X-4346416Y-497102D02*
X-4336892Y-487578D01*
X-4336892Y-487578D02*
X-4317844Y-478055D01*
X-4317844Y-478055D02*
X-4270225Y-478055D01*
X-4270225Y-478055D02*
X-4251178Y-487578D01*
X-4251178Y-487578D02*
X-4241654Y-497102D01*
X-4241654Y-497102D02*
X-4232130Y-516150D01*
X-4232130Y-516150D02*
X-4232130Y-535197D01*
X-4232130Y-535197D02*
X-4241654Y-563769D01*
X-4241654Y-563769D02*
X-4355940Y-678055D01*
X-4355940Y-678055D02*
X-4232130Y-678055D01*
X-4165463Y-478055D02*
X-4032130Y-478055D01*
X-4032130Y-478055D02*
X-4117844Y-678055D01*
X-3870225Y-478055D02*
X-3908320Y-478055D01*
X-3908320Y-478055D02*
X-3927368Y-487578D01*
X-3927368Y-487578D02*
X-3936892Y-497102D01*
X-3936892Y-497102D02*
X-3955939Y-525674D01*
X-3955939Y-525674D02*
X-3965463Y-563769D01*
X-3965463Y-563769D02*
X-3965463Y-639959D01*
X-3965463Y-639959D02*
X-3955939Y-659007D01*
X-3955939Y-659007D02*
X-3946416Y-668531D01*
X-3946416Y-668531D02*
X-3927368Y-678055D01*
X-3927368Y-678055D02*
X-3889273Y-678055D01*
X-3889273Y-678055D02*
X-3870225Y-668531D01*
X-3870225Y-668531D02*
X-3860701Y-659007D01*
X-3860701Y-659007D02*
X-3851178Y-639959D01*
X-3851178Y-639959D02*
X-3851178Y-592340D01*
X-3851178Y-592340D02*
X-3860701Y-573293D01*
X-3860701Y-573293D02*
X-3870225Y-563769D01*
X-3870225Y-563769D02*
X-3889273Y-554245D01*
X-3889273Y-554245D02*
X-3927368Y-554245D01*
X-3927368Y-554245D02*
X-3946416Y-563769D01*
X-3946416Y-563769D02*
X-3955939Y-573293D01*
X-3955939Y-573293D02*
X-3965463Y-592340D01*
X-3774987Y-478055D02*
X-3774987Y-516150D01*
X-3698797Y-478055D02*
X-3698797Y-516150D01*
X-3403558Y-754245D02*
X-3413082Y-744721D01*
X-3413082Y-744721D02*
X-3432130Y-716150D01*
X-3432130Y-716150D02*
X-3441654Y-697102D01*
X-3441654Y-697102D02*
X-3451177Y-668531D01*
X-3451177Y-668531D02*
X-3460701Y-620912D01*
X-3460701Y-620912D02*
X-3460701Y-582817D01*
X-3460701Y-582817D02*
X-3451177Y-535197D01*
X-3451177Y-535197D02*
X-3441654Y-506626D01*
X-3441654Y-506626D02*
X-3432130Y-487578D01*
X-3432130Y-487578D02*
X-3413082Y-459007D01*
X-3413082Y-459007D02*
X-3403558Y-449483D01*
X-3241654Y-478055D02*
X-3279749Y-478055D01*
X-3279749Y-478055D02*
X-3298797Y-487578D01*
X-3298797Y-487578D02*
X-3308320Y-497102D01*
X-3308320Y-497102D02*
X-3327368Y-525674D01*
X-3327368Y-525674D02*
X-3336892Y-563769D01*
X-3336892Y-563769D02*
X-3336892Y-639959D01*
X-3336892Y-639959D02*
X-3327368Y-659007D01*
X-3327368Y-659007D02*
X-3317844Y-668531D01*
X-3317844Y-668531D02*
X-3298797Y-678055D01*
X-3298797Y-678055D02*
X-3260701Y-678055D01*
X-3260701Y-678055D02*
X-3241654Y-668531D01*
X-3241654Y-668531D02*
X-3232130Y-659007D01*
X-3232130Y-659007D02*
X-3222606Y-639959D01*
X-3222606Y-639959D02*
X-3222606Y-592340D01*
X-3222606Y-592340D02*
X-3232130Y-573293D01*
X-3232130Y-573293D02*
X-3241654Y-563769D01*
X-3241654Y-563769D02*
X-3260701Y-554245D01*
X-3260701Y-554245D02*
X-3298797Y-554245D01*
X-3298797Y-554245D02*
X-3317844Y-563769D01*
X-3317844Y-563769D02*
X-3327368Y-573293D01*
X-3327368Y-573293D02*
X-3336892Y-592340D01*
X-2984511Y-678055D02*
X-2984511Y-478055D01*
X-2898796Y-678055D02*
X-2898796Y-573293D01*
X-2898796Y-573293D02*
X-2908320Y-554245D01*
X-2908320Y-554245D02*
X-2927368Y-544721D01*
X-2927368Y-544721D02*
X-2955939Y-544721D01*
X-2955939Y-544721D02*
X-2974987Y-554245D01*
X-2974987Y-554245D02*
X-2984511Y-563769D01*
X-2774987Y-678055D02*
X-2794035Y-668531D01*
X-2794035Y-668531D02*
X-2803558Y-659007D01*
X-2803558Y-659007D02*
X-2813082Y-639959D01*
X-2813082Y-639959D02*
X-2813082Y-582817D01*
X-2813082Y-582817D02*
X-2803558Y-563769D01*
X-2803558Y-563769D02*
X-2794035Y-554245D01*
X-2794035Y-554245D02*
X-2774987Y-544721D01*
X-2774987Y-544721D02*
X-2746416Y-544721D01*
X-2746416Y-544721D02*
X-2727368Y-554245D01*
X-2727368Y-554245D02*
X-2717844Y-563769D01*
X-2717844Y-563769D02*
X-2708320Y-582817D01*
X-2708320Y-582817D02*
X-2708320Y-639959D01*
X-2708320Y-639959D02*
X-2717844Y-659007D01*
X-2717844Y-659007D02*
X-2727368Y-668531D01*
X-2727368Y-668531D02*
X-2746416Y-678055D01*
X-2746416Y-678055D02*
X-2774987Y-678055D01*
X-2594035Y-678055D02*
X-2613082Y-668531D01*
X-2613082Y-668531D02*
X-2622606Y-649483D01*
X-2622606Y-649483D02*
X-2622606Y-478055D01*
X-2441654Y-668531D02*
X-2460701Y-678055D01*
X-2460701Y-678055D02*
X-2498797Y-678055D01*
X-2498797Y-678055D02*
X-2517844Y-668531D01*
X-2517844Y-668531D02*
X-2527368Y-649483D01*
X-2527368Y-649483D02*
X-2527368Y-573293D01*
X-2527368Y-573293D02*
X-2517844Y-554245D01*
X-2517844Y-554245D02*
X-2498797Y-544721D01*
X-2498797Y-544721D02*
X-2460701Y-544721D01*
X-2460701Y-544721D02*
X-2441654Y-554245D01*
X-2441654Y-554245D02*
X-2432130Y-573293D01*
X-2432130Y-573293D02*
X-2432130Y-592340D01*
X-2432130Y-592340D02*
X-2527368Y-611388D01*
X-2355939Y-668531D02*
X-2336892Y-678055D01*
X-2336892Y-678055D02*
X-2298797Y-678055D01*
X-2298797Y-678055D02*
X-2279749Y-668531D01*
X-2279749Y-668531D02*
X-2270225Y-649483D01*
X-2270225Y-649483D02*
X-2270225Y-639959D01*
X-2270225Y-639959D02*
X-2279749Y-620912D01*
X-2279749Y-620912D02*
X-2298797Y-611388D01*
X-2298797Y-611388D02*
X-2327368Y-611388D01*
X-2327368Y-611388D02*
X-2346416Y-601864D01*
X-2346416Y-601864D02*
X-2355939Y-582817D01*
X-2355939Y-582817D02*
X-2355939Y-573293D01*
X-2355939Y-573293D02*
X-2346416Y-554245D01*
X-2346416Y-554245D02*
X-2327368Y-544721D01*
X-2327368Y-544721D02*
X-2298797Y-544721D01*
X-2298797Y-544721D02*
X-2279749Y-554245D01*
X-2203558Y-754245D02*
X-2194035Y-744721D01*
X-2194035Y-744721D02*
X-2174987Y-716150D01*
X-2174987Y-716150D02*
X-2165463Y-697102D01*
X-2165463Y-697102D02*
X-2155939Y-668531D01*
X-2155939Y-668531D02*
X-2146416Y-620912D01*
X-2146416Y-620912D02*
X-2146416Y-582817D01*
X-2146416Y-582817D02*
X-2155939Y-535197D01*
X-2155939Y-535197D02*
X-2165463Y-506626D01*
X-2165463Y-506626D02*
X-2174987Y-487578D01*
X-2174987Y-487578D02*
X-2194035Y-459007D01*
X-2194035Y-459007D02*
X-2203558Y-449483D01*
D12*
X-6978621Y-850571D02*
G75*
G02*
X-7058621Y-850571I-40000J0D01*
G01*
X-7058621Y-850571D02*
G75*
G02*
X-6978621Y-850571I40000J0D01*
G01*
D11*
X-6679749Y-742055D02*
X-6660702Y-742055D01*
X-6660702Y-742055D02*
X-6641654Y-751578D01*
X-6641654Y-751578D02*
X-6632130Y-761102D01*
X-6632130Y-761102D02*
X-6622606Y-780150D01*
X-6622606Y-780150D02*
X-6613083Y-818245D01*
X-6613083Y-818245D02*
X-6613083Y-865864D01*
X-6613083Y-865864D02*
X-6622606Y-903959D01*
X-6622606Y-903959D02*
X-6632130Y-923007D01*
X-6632130Y-923007D02*
X-6641654Y-932531D01*
X-6641654Y-932531D02*
X-6660702Y-942055D01*
X-6660702Y-942055D02*
X-6679749Y-942055D01*
X-6679749Y-942055D02*
X-6698797Y-932531D01*
X-6698797Y-932531D02*
X-6708321Y-923007D01*
X-6708321Y-923007D02*
X-6717844Y-903959D01*
X-6717844Y-903959D02*
X-6727368Y-865864D01*
X-6727368Y-865864D02*
X-6727368Y-818245D01*
X-6727368Y-818245D02*
X-6717844Y-780150D01*
X-6717844Y-780150D02*
X-6708321Y-761102D01*
X-6708321Y-761102D02*
X-6698797Y-751578D01*
X-6698797Y-751578D02*
X-6679749Y-742055D01*
X-6527368Y-923007D02*
X-6517844Y-932531D01*
X-6517844Y-932531D02*
X-6527368Y-942055D01*
X-6527368Y-942055D02*
X-6536892Y-932531D01*
X-6536892Y-932531D02*
X-6527368Y-923007D01*
X-6527368Y-923007D02*
X-6527368Y-942055D01*
X-6403559Y-827769D02*
X-6422606Y-818245D01*
X-6422606Y-818245D02*
X-6432130Y-808721D01*
X-6432130Y-808721D02*
X-6441654Y-789674D01*
X-6441654Y-789674D02*
X-6441654Y-780150D01*
X-6441654Y-780150D02*
X-6432130Y-761102D01*
X-6432130Y-761102D02*
X-6422606Y-751578D01*
X-6422606Y-751578D02*
X-6403559Y-742055D01*
X-6403559Y-742055D02*
X-6365463Y-742055D01*
X-6365463Y-742055D02*
X-6346416Y-751578D01*
X-6346416Y-751578D02*
X-6336892Y-761102D01*
X-6336892Y-761102D02*
X-6327368Y-780150D01*
X-6327368Y-780150D02*
X-6327368Y-789674D01*
X-6327368Y-789674D02*
X-6336892Y-808721D01*
X-6336892Y-808721D02*
X-6346416Y-818245D01*
X-6346416Y-818245D02*
X-6365463Y-827769D01*
X-6365463Y-827769D02*
X-6403559Y-827769D01*
X-6403559Y-827769D02*
X-6422606Y-837293D01*
X-6422606Y-837293D02*
X-6432130Y-846816D01*
X-6432130Y-846816D02*
X-6441654Y-865864D01*
X-6441654Y-865864D02*
X-6441654Y-903959D01*
X-6441654Y-903959D02*
X-6432130Y-923007D01*
X-6432130Y-923007D02*
X-6422606Y-932531D01*
X-6422606Y-932531D02*
X-6403559Y-942055D01*
X-6403559Y-942055D02*
X-6365463Y-942055D01*
X-6365463Y-942055D02*
X-6346416Y-932531D01*
X-6346416Y-932531D02*
X-6336892Y-923007D01*
X-6336892Y-923007D02*
X-6327368Y-903959D01*
X-6327368Y-903959D02*
X-6327368Y-865864D01*
X-6327368Y-865864D02*
X-6336892Y-846816D01*
X-6336892Y-846816D02*
X-6346416Y-837293D01*
X-6346416Y-837293D02*
X-6365463Y-827769D01*
X-6203559Y-742055D02*
X-6184511Y-742055D01*
X-6184511Y-742055D02*
X-6165463Y-751578D01*
X-6165463Y-751578D02*
X-6155940Y-761102D01*
X-6155940Y-761102D02*
X-6146416Y-780150D01*
X-6146416Y-780150D02*
X-6136892Y-818245D01*
X-6136892Y-818245D02*
X-6136892Y-865864D01*
X-6136892Y-865864D02*
X-6146416Y-903959D01*
X-6146416Y-903959D02*
X-6155940Y-923007D01*
X-6155940Y-923007D02*
X-6165463Y-932531D01*
X-6165463Y-932531D02*
X-6184511Y-942055D01*
X-6184511Y-942055D02*
X-6203559Y-942055D01*
X-6203559Y-942055D02*
X-6222606Y-932531D01*
X-6222606Y-932531D02*
X-6232130Y-923007D01*
X-6232130Y-923007D02*
X-6241654Y-903959D01*
X-6241654Y-903959D02*
X-6251178Y-865864D01*
X-6251178Y-865864D02*
X-6251178Y-818245D01*
X-6251178Y-818245D02*
X-6241654Y-780150D01*
X-6241654Y-780150D02*
X-6232130Y-761102D01*
X-6232130Y-761102D02*
X-6222606Y-751578D01*
X-6222606Y-751578D02*
X-6203559Y-742055D01*
X-6013083Y-742055D02*
X-5994035Y-742055D01*
X-5994035Y-742055D02*
X-5974987Y-751578D01*
X-5974987Y-751578D02*
X-5965463Y-761102D01*
X-5965463Y-761102D02*
X-5955940Y-780150D01*
X-5955940Y-780150D02*
X-5946416Y-818245D01*
X-5946416Y-818245D02*
X-5946416Y-865864D01*
X-5946416Y-865864D02*
X-5955940Y-903959D01*
X-5955940Y-903959D02*
X-5965463Y-923007D01*
X-5965463Y-923007D02*
X-5974987Y-932531D01*
X-5974987Y-932531D02*
X-5994035Y-942055D01*
X-5994035Y-942055D02*
X-6013083Y-942055D01*
X-6013083Y-942055D02*
X-6032130Y-932531D01*
X-6032130Y-932531D02*
X-6041654Y-923007D01*
X-6041654Y-923007D02*
X-6051178Y-903959D01*
X-6051178Y-903959D02*
X-6060702Y-865864D01*
X-6060702Y-865864D02*
X-6060702Y-818245D01*
X-6060702Y-818245D02*
X-6051178Y-780150D01*
X-6051178Y-780150D02*
X-6041654Y-761102D01*
X-6041654Y-761102D02*
X-6032130Y-751578D01*
X-6032130Y-751578D02*
X-6013083Y-742055D01*
X-5860702Y-942055D02*
X-5860702Y-808721D01*
X-5860702Y-827769D02*
X-5851178Y-818245D01*
X-5851178Y-818245D02*
X-5832130Y-808721D01*
X-5832130Y-808721D02*
X-5803559Y-808721D01*
X-5803559Y-808721D02*
X-5784511Y-818245D01*
X-5784511Y-818245D02*
X-5774987Y-837293D01*
X-5774987Y-837293D02*
X-5774987Y-942055D01*
X-5774987Y-837293D02*
X-5765463Y-818245D01*
X-5765463Y-818245D02*
X-5746416Y-808721D01*
X-5746416Y-808721D02*
X-5717844Y-808721D01*
X-5717844Y-808721D02*
X-5698797Y-818245D01*
X-5698797Y-818245D02*
X-5689273Y-837293D01*
X-5689273Y-837293D02*
X-5689273Y-942055D01*
X-5594035Y-942055D02*
X-5594035Y-808721D01*
X-5594035Y-827769D02*
X-5584511Y-818245D01*
X-5584511Y-818245D02*
X-5565464Y-808721D01*
X-5565464Y-808721D02*
X-5536892Y-808721D01*
X-5536892Y-808721D02*
X-5517844Y-818245D01*
X-5517844Y-818245D02*
X-5508321Y-837293D01*
X-5508321Y-837293D02*
X-5508321Y-942055D01*
X-5508321Y-837293D02*
X-5498797Y-818245D01*
X-5498797Y-818245D02*
X-5479749Y-808721D01*
X-5479749Y-808721D02*
X-5451178Y-808721D01*
X-5451178Y-808721D02*
X-5432130Y-818245D01*
X-5432130Y-818245D02*
X-5422606Y-837293D01*
X-5422606Y-837293D02*
X-5422606Y-942055D01*
X-5032130Y-732531D02*
X-5203559Y-989674D01*
X-4774987Y-742055D02*
X-4755940Y-742055D01*
X-4755940Y-742055D02*
X-4736892Y-751578D01*
X-4736892Y-751578D02*
X-4727368Y-761102D01*
X-4727368Y-761102D02*
X-4717844Y-780150D01*
X-4717844Y-780150D02*
X-4708321Y-818245D01*
X-4708321Y-818245D02*
X-4708321Y-865864D01*
X-4708321Y-865864D02*
X-4717844Y-903959D01*
X-4717844Y-903959D02*
X-4727368Y-923007D01*
X-4727368Y-923007D02*
X-4736892Y-932531D01*
X-4736892Y-932531D02*
X-4755940Y-942055D01*
X-4755940Y-942055D02*
X-4774987Y-942055D01*
X-4774987Y-942055D02*
X-4794035Y-932531D01*
X-4794035Y-932531D02*
X-4803559Y-923007D01*
X-4803559Y-923007D02*
X-4813082Y-903959D01*
X-4813082Y-903959D02*
X-4822606Y-865864D01*
X-4822606Y-865864D02*
X-4822606Y-818245D01*
X-4822606Y-818245D02*
X-4813082Y-780150D01*
X-4813082Y-780150D02*
X-4803559Y-761102D01*
X-4803559Y-761102D02*
X-4794035Y-751578D01*
X-4794035Y-751578D02*
X-4774987Y-742055D01*
X-4622606Y-923007D02*
X-4613082Y-932531D01*
X-4613082Y-932531D02*
X-4622606Y-942055D01*
X-4622606Y-942055D02*
X-4632130Y-932531D01*
X-4632130Y-932531D02*
X-4622606Y-923007D01*
X-4622606Y-923007D02*
X-4622606Y-942055D01*
X-4489273Y-742055D02*
X-4470225Y-742055D01*
X-4470225Y-742055D02*
X-4451178Y-751578D01*
X-4451178Y-751578D02*
X-4441654Y-761102D01*
X-4441654Y-761102D02*
X-4432130Y-780150D01*
X-4432130Y-780150D02*
X-4422606Y-818245D01*
X-4422606Y-818245D02*
X-4422606Y-865864D01*
X-4422606Y-865864D02*
X-4432130Y-903959D01*
X-4432130Y-903959D02*
X-4441654Y-923007D01*
X-4441654Y-923007D02*
X-4451178Y-932531D01*
X-4451178Y-932531D02*
X-4470225Y-942055D01*
X-4470225Y-942055D02*
X-4489273Y-942055D01*
X-4489273Y-942055D02*
X-4508321Y-932531D01*
X-4508321Y-932531D02*
X-4517844Y-923007D01*
X-4517844Y-923007D02*
X-4527368Y-903959D01*
X-4527368Y-903959D02*
X-4536892Y-865864D01*
X-4536892Y-865864D02*
X-4536892Y-818245D01*
X-4536892Y-818245D02*
X-4527368Y-780150D01*
X-4527368Y-780150D02*
X-4517844Y-761102D01*
X-4517844Y-761102D02*
X-4508321Y-751578D01*
X-4508321Y-751578D02*
X-4489273Y-742055D01*
X-4355940Y-742055D02*
X-4232130Y-742055D01*
X-4232130Y-742055D02*
X-4298797Y-818245D01*
X-4298797Y-818245D02*
X-4270225Y-818245D01*
X-4270225Y-818245D02*
X-4251178Y-827769D01*
X-4251178Y-827769D02*
X-4241654Y-837293D01*
X-4241654Y-837293D02*
X-4232130Y-856340D01*
X-4232130Y-856340D02*
X-4232130Y-903959D01*
X-4232130Y-903959D02*
X-4241654Y-923007D01*
X-4241654Y-923007D02*
X-4251178Y-932531D01*
X-4251178Y-932531D02*
X-4270225Y-942055D01*
X-4270225Y-942055D02*
X-4327368Y-942055D01*
X-4327368Y-942055D02*
X-4346416Y-932531D01*
X-4346416Y-932531D02*
X-4355940Y-923007D01*
X-4041654Y-942055D02*
X-4155939Y-942055D01*
X-4098797Y-942055D02*
X-4098797Y-742055D01*
X-4098797Y-742055D02*
X-4117844Y-770626D01*
X-4117844Y-770626D02*
X-4136892Y-789674D01*
X-4136892Y-789674D02*
X-4155939Y-799197D01*
X-3860701Y-742055D02*
X-3955939Y-742055D01*
X-3955939Y-742055D02*
X-3965463Y-837293D01*
X-3965463Y-837293D02*
X-3955939Y-827769D01*
X-3955939Y-827769D02*
X-3936892Y-818245D01*
X-3936892Y-818245D02*
X-3889273Y-818245D01*
X-3889273Y-818245D02*
X-3870225Y-827769D01*
X-3870225Y-827769D02*
X-3860701Y-837293D01*
X-3860701Y-837293D02*
X-3851178Y-856340D01*
X-3851178Y-856340D02*
X-3851178Y-903959D01*
X-3851178Y-903959D02*
X-3860701Y-923007D01*
X-3860701Y-923007D02*
X-3870225Y-932531D01*
X-3870225Y-932531D02*
X-3889273Y-942055D01*
X-3889273Y-942055D02*
X-3936892Y-942055D01*
X-3936892Y-942055D02*
X-3955939Y-932531D01*
X-3955939Y-932531D02*
X-3965463Y-923007D01*
X-3774987Y-742055D02*
X-3774987Y-780150D01*
X-3698797Y-742055D02*
X-3698797Y-780150D01*
X-3403558Y-1018245D02*
X-3413082Y-1008721D01*
X-3413082Y-1008721D02*
X-3432130Y-980150D01*
X-3432130Y-980150D02*
X-3441654Y-961102D01*
X-3441654Y-961102D02*
X-3451177Y-932531D01*
X-3451177Y-932531D02*
X-3460701Y-884912D01*
X-3460701Y-884912D02*
X-3460701Y-846816D01*
X-3460701Y-846816D02*
X-3451177Y-799197D01*
X-3451177Y-799197D02*
X-3441654Y-770626D01*
X-3441654Y-770626D02*
X-3432130Y-751578D01*
X-3432130Y-751578D02*
X-3413082Y-723007D01*
X-3413082Y-723007D02*
X-3403558Y-713483D01*
X-3241654Y-808721D02*
X-3241654Y-942055D01*
X-3289273Y-732531D02*
X-3336892Y-875388D01*
X-3336892Y-875388D02*
X-3213082Y-875388D01*
X-3051177Y-808721D02*
X-3051177Y-942055D01*
X-3098797Y-732531D02*
X-3146416Y-875388D01*
X-3146416Y-875388D02*
X-3022606Y-875388D01*
X-2794035Y-942055D02*
X-2794035Y-742055D01*
X-2708320Y-942055D02*
X-2708320Y-837293D01*
X-2708320Y-837293D02*
X-2717844Y-818245D01*
X-2717844Y-818245D02*
X-2736892Y-808721D01*
X-2736892Y-808721D02*
X-2765463Y-808721D01*
X-2765463Y-808721D02*
X-2784511Y-818245D01*
X-2784511Y-818245D02*
X-2794035Y-827769D01*
X-2584511Y-942055D02*
X-2603558Y-932531D01*
X-2603558Y-932531D02*
X-2613082Y-923007D01*
X-2613082Y-923007D02*
X-2622606Y-903959D01*
X-2622606Y-903959D02*
X-2622606Y-846816D01*
X-2622606Y-846816D02*
X-2613082Y-827769D01*
X-2613082Y-827769D02*
X-2603558Y-818245D01*
X-2603558Y-818245D02*
X-2584511Y-808721D01*
X-2584511Y-808721D02*
X-2555939Y-808721D01*
X-2555939Y-808721D02*
X-2536892Y-818245D01*
X-2536892Y-818245D02*
X-2527368Y-827769D01*
X-2527368Y-827769D02*
X-2517844Y-846816D01*
X-2517844Y-846816D02*
X-2517844Y-903959D01*
X-2517844Y-903959D02*
X-2527368Y-923007D01*
X-2527368Y-923007D02*
X-2536892Y-932531D01*
X-2536892Y-932531D02*
X-2555939Y-942055D01*
X-2555939Y-942055D02*
X-2584511Y-942055D01*
X-2403558Y-942055D02*
X-2422606Y-932531D01*
X-2422606Y-932531D02*
X-2432130Y-913483D01*
X-2432130Y-913483D02*
X-2432130Y-742055D01*
X-2251177Y-932531D02*
X-2270225Y-942055D01*
X-2270225Y-942055D02*
X-2308320Y-942055D01*
X-2308320Y-942055D02*
X-2327368Y-932531D01*
X-2327368Y-932531D02*
X-2336892Y-913483D01*
X-2336892Y-913483D02*
X-2336892Y-837293D01*
X-2336892Y-837293D02*
X-2327368Y-818245D01*
X-2327368Y-818245D02*
X-2308320Y-808721D01*
X-2308320Y-808721D02*
X-2270225Y-808721D01*
X-2270225Y-808721D02*
X-2251177Y-818245D01*
X-2251177Y-818245D02*
X-2241654Y-837293D01*
X-2241654Y-837293D02*
X-2241654Y-856340D01*
X-2241654Y-856340D02*
X-2336892Y-875388D01*
X-2165463Y-932531D02*
X-2146416Y-942055D01*
X-2146416Y-942055D02*
X-2108320Y-942055D01*
X-2108320Y-942055D02*
X-2089273Y-932531D01*
X-2089273Y-932531D02*
X-2079749Y-913483D01*
X-2079749Y-913483D02*
X-2079749Y-903959D01*
X-2079749Y-903959D02*
X-2089273Y-884912D01*
X-2089273Y-884912D02*
X-2108320Y-875388D01*
X-2108320Y-875388D02*
X-2136892Y-875388D01*
X-2136892Y-875388D02*
X-2155939Y-865864D01*
X-2155939Y-865864D02*
X-2165463Y-846816D01*
X-2165463Y-846816D02*
X-2165463Y-837293D01*
X-2165463Y-837293D02*
X-2155939Y-818245D01*
X-2155939Y-818245D02*
X-2136892Y-808721D01*
X-2136892Y-808721D02*
X-2108320Y-808721D01*
X-2108320Y-808721D02*
X-2089273Y-818245D01*
X-2013082Y-1018245D02*
X-2003558Y-1008721D01*
X-2003558Y-1008721D02*
X-1984511Y-980150D01*
X-1984511Y-980150D02*
X-1974987Y-961102D01*
X-1974987Y-961102D02*
X-1965463Y-932531D01*
X-1965463Y-932531D02*
X-1955939Y-884912D01*
X-1955939Y-884912D02*
X-1955939Y-846816D01*
X-1955939Y-846816D02*
X-1965463Y-799197D01*
X-1965463Y-799197D02*
X-1974987Y-770626D01*
X-1974987Y-770626D02*
X-1984511Y-751578D01*
X-1984511Y-751578D02*
X-2003558Y-723007D01*
X-2003558Y-723007D02*
X-2013082Y-713483D01*
D12*
X-7023621Y-1069571D02*
X-7023621Y-1159571D01*
X-7068621Y-1114571D02*
X-6978621Y-1114571D01*
D11*
X-6679749Y-1006055D02*
X-6660702Y-1006055D01*
X-6660702Y-1006055D02*
X-6641654Y-1015578D01*
X-6641654Y-1015578D02*
X-6632130Y-1025102D01*
X-6632130Y-1025102D02*
X-6622606Y-1044150D01*
X-6622606Y-1044150D02*
X-6613083Y-1082245D01*
X-6613083Y-1082245D02*
X-6613083Y-1129864D01*
X-6613083Y-1129864D02*
X-6622606Y-1167959D01*
X-6622606Y-1167959D02*
X-6632130Y-1187007D01*
X-6632130Y-1187007D02*
X-6641654Y-1196531D01*
X-6641654Y-1196531D02*
X-6660702Y-1206055D01*
X-6660702Y-1206055D02*
X-6679749Y-1206055D01*
X-6679749Y-1206055D02*
X-6698797Y-1196531D01*
X-6698797Y-1196531D02*
X-6708321Y-1187007D01*
X-6708321Y-1187007D02*
X-6717844Y-1167959D01*
X-6717844Y-1167959D02*
X-6727368Y-1129864D01*
X-6727368Y-1129864D02*
X-6727368Y-1082245D01*
X-6727368Y-1082245D02*
X-6717844Y-1044150D01*
X-6717844Y-1044150D02*
X-6708321Y-1025102D01*
X-6708321Y-1025102D02*
X-6698797Y-1015578D01*
X-6698797Y-1015578D02*
X-6679749Y-1006055D01*
X-6527368Y-1187007D02*
X-6517844Y-1196531D01*
X-6517844Y-1196531D02*
X-6527368Y-1206055D01*
X-6527368Y-1206055D02*
X-6536892Y-1196531D01*
X-6536892Y-1196531D02*
X-6527368Y-1187007D01*
X-6527368Y-1187007D02*
X-6527368Y-1206055D01*
X-6422606Y-1206055D02*
X-6384511Y-1206055D01*
X-6384511Y-1206055D02*
X-6365463Y-1196531D01*
X-6365463Y-1196531D02*
X-6355940Y-1187007D01*
X-6355940Y-1187007D02*
X-6336892Y-1158436D01*
X-6336892Y-1158436D02*
X-6327368Y-1120340D01*
X-6327368Y-1120340D02*
X-6327368Y-1044150D01*
X-6327368Y-1044150D02*
X-6336892Y-1025102D01*
X-6336892Y-1025102D02*
X-6346416Y-1015578D01*
X-6346416Y-1015578D02*
X-6365463Y-1006055D01*
X-6365463Y-1006055D02*
X-6403559Y-1006055D01*
X-6403559Y-1006055D02*
X-6422606Y-1015578D01*
X-6422606Y-1015578D02*
X-6432130Y-1025102D01*
X-6432130Y-1025102D02*
X-6441654Y-1044150D01*
X-6441654Y-1044150D02*
X-6441654Y-1091769D01*
X-6441654Y-1091769D02*
X-6432130Y-1110817D01*
X-6432130Y-1110817D02*
X-6422606Y-1120340D01*
X-6422606Y-1120340D02*
X-6403559Y-1129864D01*
X-6403559Y-1129864D02*
X-6365463Y-1129864D01*
X-6365463Y-1129864D02*
X-6346416Y-1120340D01*
X-6346416Y-1120340D02*
X-6336892Y-1110817D01*
X-6336892Y-1110817D02*
X-6327368Y-1091769D01*
X-6203559Y-1006055D02*
X-6184511Y-1006055D01*
X-6184511Y-1006055D02*
X-6165463Y-1015578D01*
X-6165463Y-1015578D02*
X-6155940Y-1025102D01*
X-6155940Y-1025102D02*
X-6146416Y-1044150D01*
X-6146416Y-1044150D02*
X-6136892Y-1082245D01*
X-6136892Y-1082245D02*
X-6136892Y-1129864D01*
X-6136892Y-1129864D02*
X-6146416Y-1167959D01*
X-6146416Y-1167959D02*
X-6155940Y-1187007D01*
X-6155940Y-1187007D02*
X-6165463Y-1196531D01*
X-6165463Y-1196531D02*
X-6184511Y-1206055D01*
X-6184511Y-1206055D02*
X-6203559Y-1206055D01*
X-6203559Y-1206055D02*
X-6222606Y-1196531D01*
X-6222606Y-1196531D02*
X-6232130Y-1187007D01*
X-6232130Y-1187007D02*
X-6241654Y-1167959D01*
X-6241654Y-1167959D02*
X-6251178Y-1129864D01*
X-6251178Y-1129864D02*
X-6251178Y-1082245D01*
X-6251178Y-1082245D02*
X-6241654Y-1044150D01*
X-6241654Y-1044150D02*
X-6232130Y-1025102D01*
X-6232130Y-1025102D02*
X-6222606Y-1015578D01*
X-6222606Y-1015578D02*
X-6203559Y-1006055D01*
X-6013083Y-1006055D02*
X-5994035Y-1006055D01*
X-5994035Y-1006055D02*
X-5974987Y-1015578D01*
X-5974987Y-1015578D02*
X-5965463Y-1025102D01*
X-5965463Y-1025102D02*
X-5955940Y-1044150D01*
X-5955940Y-1044150D02*
X-5946416Y-1082245D01*
X-5946416Y-1082245D02*
X-5946416Y-1129864D01*
X-5946416Y-1129864D02*
X-5955940Y-1167959D01*
X-5955940Y-1167959D02*
X-5965463Y-1187007D01*
X-5965463Y-1187007D02*
X-5974987Y-1196531D01*
X-5974987Y-1196531D02*
X-5994035Y-1206055D01*
X-5994035Y-1206055D02*
X-6013083Y-1206055D01*
X-6013083Y-1206055D02*
X-6032130Y-1196531D01*
X-6032130Y-1196531D02*
X-6041654Y-1187007D01*
X-6041654Y-1187007D02*
X-6051178Y-1167959D01*
X-6051178Y-1167959D02*
X-6060702Y-1129864D01*
X-6060702Y-1129864D02*
X-6060702Y-1082245D01*
X-6060702Y-1082245D02*
X-6051178Y-1044150D01*
X-6051178Y-1044150D02*
X-6041654Y-1025102D01*
X-6041654Y-1025102D02*
X-6032130Y-1015578D01*
X-6032130Y-1015578D02*
X-6013083Y-1006055D01*
X-5860702Y-1206055D02*
X-5860702Y-1072721D01*
X-5860702Y-1091769D02*
X-5851178Y-1082245D01*
X-5851178Y-1082245D02*
X-5832130Y-1072721D01*
X-5832130Y-1072721D02*
X-5803559Y-1072721D01*
X-5803559Y-1072721D02*
X-5784511Y-1082245D01*
X-5784511Y-1082245D02*
X-5774987Y-1101293D01*
X-5774987Y-1101293D02*
X-5774987Y-1206055D01*
X-5774987Y-1101293D02*
X-5765463Y-1082245D01*
X-5765463Y-1082245D02*
X-5746416Y-1072721D01*
X-5746416Y-1072721D02*
X-5717844Y-1072721D01*
X-5717844Y-1072721D02*
X-5698797Y-1082245D01*
X-5698797Y-1082245D02*
X-5689273Y-1101293D01*
X-5689273Y-1101293D02*
X-5689273Y-1206055D01*
X-5594035Y-1206055D02*
X-5594035Y-1072721D01*
X-5594035Y-1091769D02*
X-5584511Y-1082245D01*
X-5584511Y-1082245D02*
X-5565464Y-1072721D01*
X-5565464Y-1072721D02*
X-5536892Y-1072721D01*
X-5536892Y-1072721D02*
X-5517844Y-1082245D01*
X-5517844Y-1082245D02*
X-5508321Y-1101293D01*
X-5508321Y-1101293D02*
X-5508321Y-1206055D01*
X-5508321Y-1101293D02*
X-5498797Y-1082245D01*
X-5498797Y-1082245D02*
X-5479749Y-1072721D01*
X-5479749Y-1072721D02*
X-5451178Y-1072721D01*
X-5451178Y-1072721D02*
X-5432130Y-1082245D01*
X-5432130Y-1082245D02*
X-5422606Y-1101293D01*
X-5422606Y-1101293D02*
X-5422606Y-1206055D01*
X-5032130Y-996531D02*
X-5203559Y-1253674D01*
X-4774987Y-1006055D02*
X-4755940Y-1006055D01*
X-4755940Y-1006055D02*
X-4736892Y-1015578D01*
X-4736892Y-1015578D02*
X-4727368Y-1025102D01*
X-4727368Y-1025102D02*
X-4717844Y-1044150D01*
X-4717844Y-1044150D02*
X-4708321Y-1082245D01*
X-4708321Y-1082245D02*
X-4708321Y-1129864D01*
X-4708321Y-1129864D02*
X-4717844Y-1167959D01*
X-4717844Y-1167959D02*
X-4727368Y-1187007D01*
X-4727368Y-1187007D02*
X-4736892Y-1196531D01*
X-4736892Y-1196531D02*
X-4755940Y-1206055D01*
X-4755940Y-1206055D02*
X-4774987Y-1206055D01*
X-4774987Y-1206055D02*
X-4794035Y-1196531D01*
X-4794035Y-1196531D02*
X-4803559Y-1187007D01*
X-4803559Y-1187007D02*
X-4813082Y-1167959D01*
X-4813082Y-1167959D02*
X-4822606Y-1129864D01*
X-4822606Y-1129864D02*
X-4822606Y-1082245D01*
X-4822606Y-1082245D02*
X-4813082Y-1044150D01*
X-4813082Y-1044150D02*
X-4803559Y-1025102D01*
X-4803559Y-1025102D02*
X-4794035Y-1015578D01*
X-4794035Y-1015578D02*
X-4774987Y-1006055D01*
X-4622606Y-1187007D02*
X-4613082Y-1196531D01*
X-4613082Y-1196531D02*
X-4622606Y-1206055D01*
X-4622606Y-1206055D02*
X-4632130Y-1196531D01*
X-4632130Y-1196531D02*
X-4622606Y-1187007D01*
X-4622606Y-1187007D02*
X-4622606Y-1206055D01*
X-4489273Y-1006055D02*
X-4470225Y-1006055D01*
X-4470225Y-1006055D02*
X-4451178Y-1015578D01*
X-4451178Y-1015578D02*
X-4441654Y-1025102D01*
X-4441654Y-1025102D02*
X-4432130Y-1044150D01*
X-4432130Y-1044150D02*
X-4422606Y-1082245D01*
X-4422606Y-1082245D02*
X-4422606Y-1129864D01*
X-4422606Y-1129864D02*
X-4432130Y-1167959D01*
X-4432130Y-1167959D02*
X-4441654Y-1187007D01*
X-4441654Y-1187007D02*
X-4451178Y-1196531D01*
X-4451178Y-1196531D02*
X-4470225Y-1206055D01*
X-4470225Y-1206055D02*
X-4489273Y-1206055D01*
X-4489273Y-1206055D02*
X-4508321Y-1196531D01*
X-4508321Y-1196531D02*
X-4517844Y-1187007D01*
X-4517844Y-1187007D02*
X-4527368Y-1167959D01*
X-4527368Y-1167959D02*
X-4536892Y-1129864D01*
X-4536892Y-1129864D02*
X-4536892Y-1082245D01*
X-4536892Y-1082245D02*
X-4527368Y-1044150D01*
X-4527368Y-1044150D02*
X-4517844Y-1025102D01*
X-4517844Y-1025102D02*
X-4508321Y-1015578D01*
X-4508321Y-1015578D02*
X-4489273Y-1006055D01*
X-4355940Y-1006055D02*
X-4232130Y-1006055D01*
X-4232130Y-1006055D02*
X-4298797Y-1082245D01*
X-4298797Y-1082245D02*
X-4270225Y-1082245D01*
X-4270225Y-1082245D02*
X-4251178Y-1091769D01*
X-4251178Y-1091769D02*
X-4241654Y-1101293D01*
X-4241654Y-1101293D02*
X-4232130Y-1120340D01*
X-4232130Y-1120340D02*
X-4232130Y-1167959D01*
X-4232130Y-1167959D02*
X-4241654Y-1187007D01*
X-4241654Y-1187007D02*
X-4251178Y-1196531D01*
X-4251178Y-1196531D02*
X-4270225Y-1206055D01*
X-4270225Y-1206055D02*
X-4327368Y-1206055D01*
X-4327368Y-1206055D02*
X-4346416Y-1196531D01*
X-4346416Y-1196531D02*
X-4355940Y-1187007D01*
X-4051178Y-1006055D02*
X-4146416Y-1006055D01*
X-4146416Y-1006055D02*
X-4155939Y-1101293D01*
X-4155939Y-1101293D02*
X-4146416Y-1091769D01*
X-4146416Y-1091769D02*
X-4127368Y-1082245D01*
X-4127368Y-1082245D02*
X-4079749Y-1082245D01*
X-4079749Y-1082245D02*
X-4060701Y-1091769D01*
X-4060701Y-1091769D02*
X-4051178Y-1101293D01*
X-4051178Y-1101293D02*
X-4041654Y-1120340D01*
X-4041654Y-1120340D02*
X-4041654Y-1167959D01*
X-4041654Y-1167959D02*
X-4051178Y-1187007D01*
X-4051178Y-1187007D02*
X-4060701Y-1196531D01*
X-4060701Y-1196531D02*
X-4079749Y-1206055D01*
X-4079749Y-1206055D02*
X-4127368Y-1206055D01*
X-4127368Y-1206055D02*
X-4146416Y-1196531D01*
X-4146416Y-1196531D02*
X-4155939Y-1187007D01*
X-3870225Y-1072721D02*
X-3870225Y-1206055D01*
X-3917844Y-996531D02*
X-3965463Y-1139388D01*
X-3965463Y-1139388D02*
X-3841654Y-1139388D01*
X-3774987Y-1006055D02*
X-3774987Y-1044150D01*
X-3698797Y-1006055D02*
X-3698797Y-1044150D01*
X-3403558Y-1282245D02*
X-3413082Y-1272721D01*
X-3413082Y-1272721D02*
X-3432130Y-1244150D01*
X-3432130Y-1244150D02*
X-3441654Y-1225102D01*
X-3441654Y-1225102D02*
X-3451177Y-1196531D01*
X-3451177Y-1196531D02*
X-3460701Y-1148912D01*
X-3460701Y-1148912D02*
X-3460701Y-1110817D01*
X-3460701Y-1110817D02*
X-3451177Y-1063197D01*
X-3451177Y-1063197D02*
X-3441654Y-1034626D01*
X-3441654Y-1034626D02*
X-3432130Y-1015578D01*
X-3432130Y-1015578D02*
X-3413082Y-987007D01*
X-3413082Y-987007D02*
X-3403558Y-977483D01*
X-3241654Y-1072721D02*
X-3241654Y-1206055D01*
X-3289273Y-996531D02*
X-3336892Y-1139388D01*
X-3336892Y-1139388D02*
X-3213082Y-1139388D01*
X-2984511Y-1206055D02*
X-2984511Y-1006055D01*
X-2898796Y-1206055D02*
X-2898796Y-1101293D01*
X-2898796Y-1101293D02*
X-2908320Y-1082245D01*
X-2908320Y-1082245D02*
X-2927368Y-1072721D01*
X-2927368Y-1072721D02*
X-2955939Y-1072721D01*
X-2955939Y-1072721D02*
X-2974987Y-1082245D01*
X-2974987Y-1082245D02*
X-2984511Y-1091769D01*
X-2774987Y-1206055D02*
X-2794035Y-1196531D01*
X-2794035Y-1196531D02*
X-2803558Y-1187007D01*
X-2803558Y-1187007D02*
X-2813082Y-1167959D01*
X-2813082Y-1167959D02*
X-2813082Y-1110817D01*
X-2813082Y-1110817D02*
X-2803558Y-1091769D01*
X-2803558Y-1091769D02*
X-2794035Y-1082245D01*
X-2794035Y-1082245D02*
X-2774987Y-1072721D01*
X-2774987Y-1072721D02*
X-2746416Y-1072721D01*
X-2746416Y-1072721D02*
X-2727368Y-1082245D01*
X-2727368Y-1082245D02*
X-2717844Y-1091769D01*
X-2717844Y-1091769D02*
X-2708320Y-1110817D01*
X-2708320Y-1110817D02*
X-2708320Y-1167959D01*
X-2708320Y-1167959D02*
X-2717844Y-1187007D01*
X-2717844Y-1187007D02*
X-2727368Y-1196531D01*
X-2727368Y-1196531D02*
X-2746416Y-1206055D01*
X-2746416Y-1206055D02*
X-2774987Y-1206055D01*
X-2594035Y-1206055D02*
X-2613082Y-1196531D01*
X-2613082Y-1196531D02*
X-2622606Y-1177483D01*
X-2622606Y-1177483D02*
X-2622606Y-1006055D01*
X-2441654Y-1196531D02*
X-2460701Y-1206055D01*
X-2460701Y-1206055D02*
X-2498797Y-1206055D01*
X-2498797Y-1206055D02*
X-2517844Y-1196531D01*
X-2517844Y-1196531D02*
X-2527368Y-1177483D01*
X-2527368Y-1177483D02*
X-2527368Y-1101293D01*
X-2527368Y-1101293D02*
X-2517844Y-1082245D01*
X-2517844Y-1082245D02*
X-2498797Y-1072721D01*
X-2498797Y-1072721D02*
X-2460701Y-1072721D01*
X-2460701Y-1072721D02*
X-2441654Y-1082245D01*
X-2441654Y-1082245D02*
X-2432130Y-1101293D01*
X-2432130Y-1101293D02*
X-2432130Y-1120340D01*
X-2432130Y-1120340D02*
X-2527368Y-1139388D01*
X-2355939Y-1196531D02*
X-2336892Y-1206055D01*
X-2336892Y-1206055D02*
X-2298797Y-1206055D01*
X-2298797Y-1206055D02*
X-2279749Y-1196531D01*
X-2279749Y-1196531D02*
X-2270225Y-1177483D01*
X-2270225Y-1177483D02*
X-2270225Y-1167959D01*
X-2270225Y-1167959D02*
X-2279749Y-1148912D01*
X-2279749Y-1148912D02*
X-2298797Y-1139388D01*
X-2298797Y-1139388D02*
X-2327368Y-1139388D01*
X-2327368Y-1139388D02*
X-2346416Y-1129864D01*
X-2346416Y-1129864D02*
X-2355939Y-1110817D01*
X-2355939Y-1110817D02*
X-2355939Y-1101293D01*
X-2355939Y-1101293D02*
X-2346416Y-1082245D01*
X-2346416Y-1082245D02*
X-2327368Y-1072721D01*
X-2327368Y-1072721D02*
X-2298797Y-1072721D01*
X-2298797Y-1072721D02*
X-2279749Y-1082245D01*
X-2203558Y-1282245D02*
X-2194035Y-1272721D01*
X-2194035Y-1272721D02*
X-2174987Y-1244150D01*
X-2174987Y-1244150D02*
X-2165463Y-1225102D01*
X-2165463Y-1225102D02*
X-2155939Y-1196531D01*
X-2155939Y-1196531D02*
X-2146416Y-1148912D01*
X-2146416Y-1148912D02*
X-2146416Y-1110817D01*
X-2146416Y-1110817D02*
X-2155939Y-1063197D01*
X-2155939Y-1063197D02*
X-2165463Y-1034626D01*
X-2165463Y-1034626D02*
X-2174987Y-1015578D01*
X-2174987Y-1015578D02*
X-2194035Y-987007D01*
X-2194035Y-987007D02*
X-2203558Y-977483D01*
D12*
X-6993266Y-1413926D02*
X-6993266Y-1343215D01*
X-7063977Y-1343215D01*
X-7063977Y-1413926D01*
X-6993266Y-1413926D01*
D11*
X-6613083Y-1470055D02*
X-6727368Y-1470055D01*
X-6670225Y-1470055D02*
X-6670225Y-1270055D01*
X-6670225Y-1270055D02*
X-6689273Y-1298626D01*
X-6689273Y-1298626D02*
X-6708321Y-1317674D01*
X-6708321Y-1317674D02*
X-6727368Y-1327197D01*
X-6527368Y-1451007D02*
X-6517844Y-1460531D01*
X-6517844Y-1460531D02*
X-6527368Y-1470055D01*
X-6527368Y-1470055D02*
X-6536892Y-1460531D01*
X-6536892Y-1460531D02*
X-6527368Y-1451007D01*
X-6527368Y-1451007D02*
X-6527368Y-1470055D01*
X-6394035Y-1270055D02*
X-6374987Y-1270055D01*
X-6374987Y-1270055D02*
X-6355940Y-1279578D01*
X-6355940Y-1279578D02*
X-6346416Y-1289102D01*
X-6346416Y-1289102D02*
X-6336892Y-1308150D01*
X-6336892Y-1308150D02*
X-6327368Y-1346245D01*
X-6327368Y-1346245D02*
X-6327368Y-1393864D01*
X-6327368Y-1393864D02*
X-6336892Y-1431959D01*
X-6336892Y-1431959D02*
X-6346416Y-1451007D01*
X-6346416Y-1451007D02*
X-6355940Y-1460531D01*
X-6355940Y-1460531D02*
X-6374987Y-1470055D01*
X-6374987Y-1470055D02*
X-6394035Y-1470055D01*
X-6394035Y-1470055D02*
X-6413083Y-1460531D01*
X-6413083Y-1460531D02*
X-6422606Y-1451007D01*
X-6422606Y-1451007D02*
X-6432130Y-1431959D01*
X-6432130Y-1431959D02*
X-6441654Y-1393864D01*
X-6441654Y-1393864D02*
X-6441654Y-1346245D01*
X-6441654Y-1346245D02*
X-6432130Y-1308150D01*
X-6432130Y-1308150D02*
X-6422606Y-1289102D01*
X-6422606Y-1289102D02*
X-6413083Y-1279578D01*
X-6413083Y-1279578D02*
X-6394035Y-1270055D01*
X-6203559Y-1270055D02*
X-6184511Y-1270055D01*
X-6184511Y-1270055D02*
X-6165463Y-1279578D01*
X-6165463Y-1279578D02*
X-6155940Y-1289102D01*
X-6155940Y-1289102D02*
X-6146416Y-1308150D01*
X-6146416Y-1308150D02*
X-6136892Y-1346245D01*
X-6136892Y-1346245D02*
X-6136892Y-1393864D01*
X-6136892Y-1393864D02*
X-6146416Y-1431959D01*
X-6146416Y-1431959D02*
X-6155940Y-1451007D01*
X-6155940Y-1451007D02*
X-6165463Y-1460531D01*
X-6165463Y-1460531D02*
X-6184511Y-1470055D01*
X-6184511Y-1470055D02*
X-6203559Y-1470055D01*
X-6203559Y-1470055D02*
X-6222606Y-1460531D01*
X-6222606Y-1460531D02*
X-6232130Y-1451007D01*
X-6232130Y-1451007D02*
X-6241654Y-1431959D01*
X-6241654Y-1431959D02*
X-6251178Y-1393864D01*
X-6251178Y-1393864D02*
X-6251178Y-1346245D01*
X-6251178Y-1346245D02*
X-6241654Y-1308150D01*
X-6241654Y-1308150D02*
X-6232130Y-1289102D01*
X-6232130Y-1289102D02*
X-6222606Y-1279578D01*
X-6222606Y-1279578D02*
X-6203559Y-1270055D01*
X-6013083Y-1270055D02*
X-5994035Y-1270055D01*
X-5994035Y-1270055D02*
X-5974987Y-1279578D01*
X-5974987Y-1279578D02*
X-5965463Y-1289102D01*
X-5965463Y-1289102D02*
X-5955940Y-1308150D01*
X-5955940Y-1308150D02*
X-5946416Y-1346245D01*
X-5946416Y-1346245D02*
X-5946416Y-1393864D01*
X-5946416Y-1393864D02*
X-5955940Y-1431959D01*
X-5955940Y-1431959D02*
X-5965463Y-1451007D01*
X-5965463Y-1451007D02*
X-5974987Y-1460531D01*
X-5974987Y-1460531D02*
X-5994035Y-1470055D01*
X-5994035Y-1470055D02*
X-6013083Y-1470055D01*
X-6013083Y-1470055D02*
X-6032130Y-1460531D01*
X-6032130Y-1460531D02*
X-6041654Y-1451007D01*
X-6041654Y-1451007D02*
X-6051178Y-1431959D01*
X-6051178Y-1431959D02*
X-6060702Y-1393864D01*
X-6060702Y-1393864D02*
X-6060702Y-1346245D01*
X-6060702Y-1346245D02*
X-6051178Y-1308150D01*
X-6051178Y-1308150D02*
X-6041654Y-1289102D01*
X-6041654Y-1289102D02*
X-6032130Y-1279578D01*
X-6032130Y-1279578D02*
X-6013083Y-1270055D01*
X-5860702Y-1470055D02*
X-5860702Y-1336721D01*
X-5860702Y-1355769D02*
X-5851178Y-1346245D01*
X-5851178Y-1346245D02*
X-5832130Y-1336721D01*
X-5832130Y-1336721D02*
X-5803559Y-1336721D01*
X-5803559Y-1336721D02*
X-5784511Y-1346245D01*
X-5784511Y-1346245D02*
X-5774987Y-1365293D01*
X-5774987Y-1365293D02*
X-5774987Y-1470055D01*
X-5774987Y-1365293D02*
X-5765463Y-1346245D01*
X-5765463Y-1346245D02*
X-5746416Y-1336721D01*
X-5746416Y-1336721D02*
X-5717844Y-1336721D01*
X-5717844Y-1336721D02*
X-5698797Y-1346245D01*
X-5698797Y-1346245D02*
X-5689273Y-1365293D01*
X-5689273Y-1365293D02*
X-5689273Y-1470055D01*
X-5594035Y-1470055D02*
X-5594035Y-1336721D01*
X-5594035Y-1355769D02*
X-5584511Y-1346245D01*
X-5584511Y-1346245D02*
X-5565464Y-1336721D01*
X-5565464Y-1336721D02*
X-5536892Y-1336721D01*
X-5536892Y-1336721D02*
X-5517844Y-1346245D01*
X-5517844Y-1346245D02*
X-5508321Y-1365293D01*
X-5508321Y-1365293D02*
X-5508321Y-1470055D01*
X-5508321Y-1365293D02*
X-5498797Y-1346245D01*
X-5498797Y-1346245D02*
X-5479749Y-1336721D01*
X-5479749Y-1336721D02*
X-5451178Y-1336721D01*
X-5451178Y-1336721D02*
X-5432130Y-1346245D01*
X-5432130Y-1346245D02*
X-5422606Y-1365293D01*
X-5422606Y-1365293D02*
X-5422606Y-1470055D01*
X-5032130Y-1260531D02*
X-5203559Y-1517674D01*
X-4774987Y-1270055D02*
X-4755940Y-1270055D01*
X-4755940Y-1270055D02*
X-4736892Y-1279578D01*
X-4736892Y-1279578D02*
X-4727368Y-1289102D01*
X-4727368Y-1289102D02*
X-4717844Y-1308150D01*
X-4717844Y-1308150D02*
X-4708321Y-1346245D01*
X-4708321Y-1346245D02*
X-4708321Y-1393864D01*
X-4708321Y-1393864D02*
X-4717844Y-1431959D01*
X-4717844Y-1431959D02*
X-4727368Y-1451007D01*
X-4727368Y-1451007D02*
X-4736892Y-1460531D01*
X-4736892Y-1460531D02*
X-4755940Y-1470055D01*
X-4755940Y-1470055D02*
X-4774987Y-1470055D01*
X-4774987Y-1470055D02*
X-4794035Y-1460531D01*
X-4794035Y-1460531D02*
X-4803559Y-1451007D01*
X-4803559Y-1451007D02*
X-4813082Y-1431959D01*
X-4813082Y-1431959D02*
X-4822606Y-1393864D01*
X-4822606Y-1393864D02*
X-4822606Y-1346245D01*
X-4822606Y-1346245D02*
X-4813082Y-1308150D01*
X-4813082Y-1308150D02*
X-4803559Y-1289102D01*
X-4803559Y-1289102D02*
X-4794035Y-1279578D01*
X-4794035Y-1279578D02*
X-4774987Y-1270055D01*
X-4622606Y-1451007D02*
X-4613082Y-1460531D01*
X-4613082Y-1460531D02*
X-4622606Y-1470055D01*
X-4622606Y-1470055D02*
X-4632130Y-1460531D01*
X-4632130Y-1460531D02*
X-4622606Y-1451007D01*
X-4622606Y-1451007D02*
X-4622606Y-1470055D01*
X-4489273Y-1270055D02*
X-4470225Y-1270055D01*
X-4470225Y-1270055D02*
X-4451178Y-1279578D01*
X-4451178Y-1279578D02*
X-4441654Y-1289102D01*
X-4441654Y-1289102D02*
X-4432130Y-1308150D01*
X-4432130Y-1308150D02*
X-4422606Y-1346245D01*
X-4422606Y-1346245D02*
X-4422606Y-1393864D01*
X-4422606Y-1393864D02*
X-4432130Y-1431959D01*
X-4432130Y-1431959D02*
X-4441654Y-1451007D01*
X-4441654Y-1451007D02*
X-4451178Y-1460531D01*
X-4451178Y-1460531D02*
X-4470225Y-1470055D01*
X-4470225Y-1470055D02*
X-4489273Y-1470055D01*
X-4489273Y-1470055D02*
X-4508321Y-1460531D01*
X-4508321Y-1460531D02*
X-4517844Y-1451007D01*
X-4517844Y-1451007D02*
X-4527368Y-1431959D01*
X-4527368Y-1431959D02*
X-4536892Y-1393864D01*
X-4536892Y-1393864D02*
X-4536892Y-1346245D01*
X-4536892Y-1346245D02*
X-4527368Y-1308150D01*
X-4527368Y-1308150D02*
X-4517844Y-1289102D01*
X-4517844Y-1289102D02*
X-4508321Y-1279578D01*
X-4508321Y-1279578D02*
X-4489273Y-1270055D01*
X-4355940Y-1270055D02*
X-4232130Y-1270055D01*
X-4232130Y-1270055D02*
X-4298797Y-1346245D01*
X-4298797Y-1346245D02*
X-4270225Y-1346245D01*
X-4270225Y-1346245D02*
X-4251178Y-1355769D01*
X-4251178Y-1355769D02*
X-4241654Y-1365293D01*
X-4241654Y-1365293D02*
X-4232130Y-1384340D01*
X-4232130Y-1384340D02*
X-4232130Y-1431959D01*
X-4232130Y-1431959D02*
X-4241654Y-1451007D01*
X-4241654Y-1451007D02*
X-4251178Y-1460531D01*
X-4251178Y-1460531D02*
X-4270225Y-1470055D01*
X-4270225Y-1470055D02*
X-4327368Y-1470055D01*
X-4327368Y-1470055D02*
X-4346416Y-1460531D01*
X-4346416Y-1460531D02*
X-4355940Y-1451007D01*
X-4136892Y-1470055D02*
X-4098797Y-1470055D01*
X-4098797Y-1470055D02*
X-4079749Y-1460531D01*
X-4079749Y-1460531D02*
X-4070225Y-1451007D01*
X-4070225Y-1451007D02*
X-4051178Y-1422435D01*
X-4051178Y-1422435D02*
X-4041654Y-1384340D01*
X-4041654Y-1384340D02*
X-4041654Y-1308150D01*
X-4041654Y-1308150D02*
X-4051178Y-1289102D01*
X-4051178Y-1289102D02*
X-4060701Y-1279578D01*
X-4060701Y-1279578D02*
X-4079749Y-1270055D01*
X-4079749Y-1270055D02*
X-4117844Y-1270055D01*
X-4117844Y-1270055D02*
X-4136892Y-1279578D01*
X-4136892Y-1279578D02*
X-4146416Y-1289102D01*
X-4146416Y-1289102D02*
X-4155939Y-1308150D01*
X-4155939Y-1308150D02*
X-4155939Y-1355769D01*
X-4155939Y-1355769D02*
X-4146416Y-1374817D01*
X-4146416Y-1374817D02*
X-4136892Y-1384340D01*
X-4136892Y-1384340D02*
X-4117844Y-1393864D01*
X-4117844Y-1393864D02*
X-4079749Y-1393864D01*
X-4079749Y-1393864D02*
X-4060701Y-1384340D01*
X-4060701Y-1384340D02*
X-4051178Y-1374817D01*
X-4051178Y-1374817D02*
X-4041654Y-1355769D01*
X-3870225Y-1336721D02*
X-3870225Y-1470055D01*
X-3917844Y-1260531D02*
X-3965463Y-1403388D01*
X-3965463Y-1403388D02*
X-3841654Y-1403388D01*
X-3774987Y-1270055D02*
X-3774987Y-1308150D01*
X-3698797Y-1270055D02*
X-3698797Y-1308150D01*
X-3403558Y-1546245D02*
X-3413082Y-1536721D01*
X-3413082Y-1536721D02*
X-3432130Y-1508150D01*
X-3432130Y-1508150D02*
X-3441654Y-1489102D01*
X-3441654Y-1489102D02*
X-3451177Y-1460531D01*
X-3451177Y-1460531D02*
X-3460701Y-1412912D01*
X-3460701Y-1412912D02*
X-3460701Y-1374817D01*
X-3460701Y-1374817D02*
X-3451177Y-1327197D01*
X-3451177Y-1327197D02*
X-3441654Y-1298626D01*
X-3441654Y-1298626D02*
X-3432130Y-1279578D01*
X-3432130Y-1279578D02*
X-3413082Y-1251007D01*
X-3413082Y-1251007D02*
X-3403558Y-1241483D01*
X-3222606Y-1470055D02*
X-3336892Y-1470055D01*
X-3279749Y-1470055D02*
X-3279749Y-1270055D01*
X-3279749Y-1270055D02*
X-3298797Y-1298626D01*
X-3298797Y-1298626D02*
X-3317844Y-1317674D01*
X-3317844Y-1317674D02*
X-3336892Y-1327197D01*
X-2984511Y-1470055D02*
X-2984511Y-1270055D01*
X-2898796Y-1470055D02*
X-2898796Y-1365293D01*
X-2898796Y-1365293D02*
X-2908320Y-1346245D01*
X-2908320Y-1346245D02*
X-2927368Y-1336721D01*
X-2927368Y-1336721D02*
X-2955939Y-1336721D01*
X-2955939Y-1336721D02*
X-2974987Y-1346245D01*
X-2974987Y-1346245D02*
X-2984511Y-1355769D01*
X-2774987Y-1470055D02*
X-2794035Y-1460531D01*
X-2794035Y-1460531D02*
X-2803558Y-1451007D01*
X-2803558Y-1451007D02*
X-2813082Y-1431959D01*
X-2813082Y-1431959D02*
X-2813082Y-1374817D01*
X-2813082Y-1374817D02*
X-2803558Y-1355769D01*
X-2803558Y-1355769D02*
X-2794035Y-1346245D01*
X-2794035Y-1346245D02*
X-2774987Y-1336721D01*
X-2774987Y-1336721D02*
X-2746416Y-1336721D01*
X-2746416Y-1336721D02*
X-2727368Y-1346245D01*
X-2727368Y-1346245D02*
X-2717844Y-1355769D01*
X-2717844Y-1355769D02*
X-2708320Y-1374817D01*
X-2708320Y-1374817D02*
X-2708320Y-1431959D01*
X-2708320Y-1431959D02*
X-2717844Y-1451007D01*
X-2717844Y-1451007D02*
X-2727368Y-1460531D01*
X-2727368Y-1460531D02*
X-2746416Y-1470055D01*
X-2746416Y-1470055D02*
X-2774987Y-1470055D01*
X-2594035Y-1470055D02*
X-2613082Y-1460531D01*
X-2613082Y-1460531D02*
X-2622606Y-1441483D01*
X-2622606Y-1441483D02*
X-2622606Y-1270055D01*
X-2441654Y-1460531D02*
X-2460701Y-1470055D01*
X-2460701Y-1470055D02*
X-2498797Y-1470055D01*
X-2498797Y-1470055D02*
X-2517844Y-1460531D01*
X-2517844Y-1460531D02*
X-2527368Y-1441483D01*
X-2527368Y-1441483D02*
X-2527368Y-1365293D01*
X-2527368Y-1365293D02*
X-2517844Y-1346245D01*
X-2517844Y-1346245D02*
X-2498797Y-1336721D01*
X-2498797Y-1336721D02*
X-2460701Y-1336721D01*
X-2460701Y-1336721D02*
X-2441654Y-1346245D01*
X-2441654Y-1346245D02*
X-2432130Y-1365293D01*
X-2432130Y-1365293D02*
X-2432130Y-1384340D01*
X-2432130Y-1384340D02*
X-2527368Y-1403388D01*
X-2365463Y-1546245D02*
X-2355939Y-1536721D01*
X-2355939Y-1536721D02*
X-2336892Y-1508150D01*
X-2336892Y-1508150D02*
X-2327368Y-1489102D01*
X-2327368Y-1489102D02*
X-2317844Y-1460531D01*
X-2317844Y-1460531D02*
X-2308320Y-1412912D01*
X-2308320Y-1412912D02*
X-2308320Y-1374817D01*
X-2308320Y-1374817D02*
X-2317844Y-1327197D01*
X-2317844Y-1327197D02*
X-2327368Y-1298626D01*
X-2327368Y-1298626D02*
X-2336892Y-1279578D01*
X-2336892Y-1279578D02*
X-2355939Y-1251007D01*
X-2355939Y-1251007D02*
X-2365463Y-1241483D01*
D12*
X-7028621Y-1692571D02*
X-6978621Y-1642571D01*
X-7028621Y-1592571D01*
X-7078621Y-1642571D01*
X-7028621Y-1692571D01*
D11*
X-6613083Y-1734055D02*
X-6727368Y-1734055D01*
X-6670225Y-1734055D02*
X-6670225Y-1534055D01*
X-6670225Y-1534055D02*
X-6689273Y-1562626D01*
X-6689273Y-1562626D02*
X-6708321Y-1581674D01*
X-6708321Y-1581674D02*
X-6727368Y-1591197D01*
X-6527368Y-1715007D02*
X-6517844Y-1724531D01*
X-6517844Y-1724531D02*
X-6527368Y-1734055D01*
X-6527368Y-1734055D02*
X-6536892Y-1724531D01*
X-6536892Y-1724531D02*
X-6527368Y-1715007D01*
X-6527368Y-1715007D02*
X-6527368Y-1734055D01*
X-6394035Y-1534055D02*
X-6374987Y-1534055D01*
X-6374987Y-1534055D02*
X-6355940Y-1543578D01*
X-6355940Y-1543578D02*
X-6346416Y-1553102D01*
X-6346416Y-1553102D02*
X-6336892Y-1572150D01*
X-6336892Y-1572150D02*
X-6327368Y-1610245D01*
X-6327368Y-1610245D02*
X-6327368Y-1657864D01*
X-6327368Y-1657864D02*
X-6336892Y-1695959D01*
X-6336892Y-1695959D02*
X-6346416Y-1715007D01*
X-6346416Y-1715007D02*
X-6355940Y-1724531D01*
X-6355940Y-1724531D02*
X-6374987Y-1734055D01*
X-6374987Y-1734055D02*
X-6394035Y-1734055D01*
X-6394035Y-1734055D02*
X-6413083Y-1724531D01*
X-6413083Y-1724531D02*
X-6422606Y-1715007D01*
X-6422606Y-1715007D02*
X-6432130Y-1695959D01*
X-6432130Y-1695959D02*
X-6441654Y-1657864D01*
X-6441654Y-1657864D02*
X-6441654Y-1610245D01*
X-6441654Y-1610245D02*
X-6432130Y-1572150D01*
X-6432130Y-1572150D02*
X-6422606Y-1553102D01*
X-6422606Y-1553102D02*
X-6413083Y-1543578D01*
X-6413083Y-1543578D02*
X-6394035Y-1534055D01*
X-6203559Y-1534055D02*
X-6184511Y-1534055D01*
X-6184511Y-1534055D02*
X-6165463Y-1543578D01*
X-6165463Y-1543578D02*
X-6155940Y-1553102D01*
X-6155940Y-1553102D02*
X-6146416Y-1572150D01*
X-6146416Y-1572150D02*
X-6136892Y-1610245D01*
X-6136892Y-1610245D02*
X-6136892Y-1657864D01*
X-6136892Y-1657864D02*
X-6146416Y-1695959D01*
X-6146416Y-1695959D02*
X-6155940Y-1715007D01*
X-6155940Y-1715007D02*
X-6165463Y-1724531D01*
X-6165463Y-1724531D02*
X-6184511Y-1734055D01*
X-6184511Y-1734055D02*
X-6203559Y-1734055D01*
X-6203559Y-1734055D02*
X-6222606Y-1724531D01*
X-6222606Y-1724531D02*
X-6232130Y-1715007D01*
X-6232130Y-1715007D02*
X-6241654Y-1695959D01*
X-6241654Y-1695959D02*
X-6251178Y-1657864D01*
X-6251178Y-1657864D02*
X-6251178Y-1610245D01*
X-6251178Y-1610245D02*
X-6241654Y-1572150D01*
X-6241654Y-1572150D02*
X-6232130Y-1553102D01*
X-6232130Y-1553102D02*
X-6222606Y-1543578D01*
X-6222606Y-1543578D02*
X-6203559Y-1534055D01*
X-6013083Y-1534055D02*
X-5994035Y-1534055D01*
X-5994035Y-1534055D02*
X-5974987Y-1543578D01*
X-5974987Y-1543578D02*
X-5965463Y-1553102D01*
X-5965463Y-1553102D02*
X-5955940Y-1572150D01*
X-5955940Y-1572150D02*
X-5946416Y-1610245D01*
X-5946416Y-1610245D02*
X-5946416Y-1657864D01*
X-5946416Y-1657864D02*
X-5955940Y-1695959D01*
X-5955940Y-1695959D02*
X-5965463Y-1715007D01*
X-5965463Y-1715007D02*
X-5974987Y-1724531D01*
X-5974987Y-1724531D02*
X-5994035Y-1734055D01*
X-5994035Y-1734055D02*
X-6013083Y-1734055D01*
X-6013083Y-1734055D02*
X-6032130Y-1724531D01*
X-6032130Y-1724531D02*
X-6041654Y-1715007D01*
X-6041654Y-1715007D02*
X-6051178Y-1695959D01*
X-6051178Y-1695959D02*
X-6060702Y-1657864D01*
X-6060702Y-1657864D02*
X-6060702Y-1610245D01*
X-6060702Y-1610245D02*
X-6051178Y-1572150D01*
X-6051178Y-1572150D02*
X-6041654Y-1553102D01*
X-6041654Y-1553102D02*
X-6032130Y-1543578D01*
X-6032130Y-1543578D02*
X-6013083Y-1534055D01*
X-5860702Y-1734055D02*
X-5860702Y-1600721D01*
X-5860702Y-1619769D02*
X-5851178Y-1610245D01*
X-5851178Y-1610245D02*
X-5832130Y-1600721D01*
X-5832130Y-1600721D02*
X-5803559Y-1600721D01*
X-5803559Y-1600721D02*
X-5784511Y-1610245D01*
X-5784511Y-1610245D02*
X-5774987Y-1629293D01*
X-5774987Y-1629293D02*
X-5774987Y-1734055D01*
X-5774987Y-1629293D02*
X-5765463Y-1610245D01*
X-5765463Y-1610245D02*
X-5746416Y-1600721D01*
X-5746416Y-1600721D02*
X-5717844Y-1600721D01*
X-5717844Y-1600721D02*
X-5698797Y-1610245D01*
X-5698797Y-1610245D02*
X-5689273Y-1629293D01*
X-5689273Y-1629293D02*
X-5689273Y-1734055D01*
X-5594035Y-1734055D02*
X-5594035Y-1600721D01*
X-5594035Y-1619769D02*
X-5584511Y-1610245D01*
X-5584511Y-1610245D02*
X-5565464Y-1600721D01*
X-5565464Y-1600721D02*
X-5536892Y-1600721D01*
X-5536892Y-1600721D02*
X-5517844Y-1610245D01*
X-5517844Y-1610245D02*
X-5508321Y-1629293D01*
X-5508321Y-1629293D02*
X-5508321Y-1734055D01*
X-5508321Y-1629293D02*
X-5498797Y-1610245D01*
X-5498797Y-1610245D02*
X-5479749Y-1600721D01*
X-5479749Y-1600721D02*
X-5451178Y-1600721D01*
X-5451178Y-1600721D02*
X-5432130Y-1610245D01*
X-5432130Y-1610245D02*
X-5422606Y-1629293D01*
X-5422606Y-1629293D02*
X-5422606Y-1734055D01*
X-5032130Y-1524531D02*
X-5203559Y-1781674D01*
X-4774987Y-1534055D02*
X-4755940Y-1534055D01*
X-4755940Y-1534055D02*
X-4736892Y-1543578D01*
X-4736892Y-1543578D02*
X-4727368Y-1553102D01*
X-4727368Y-1553102D02*
X-4717844Y-1572150D01*
X-4717844Y-1572150D02*
X-4708321Y-1610245D01*
X-4708321Y-1610245D02*
X-4708321Y-1657864D01*
X-4708321Y-1657864D02*
X-4717844Y-1695959D01*
X-4717844Y-1695959D02*
X-4727368Y-1715007D01*
X-4727368Y-1715007D02*
X-4736892Y-1724531D01*
X-4736892Y-1724531D02*
X-4755940Y-1734055D01*
X-4755940Y-1734055D02*
X-4774987Y-1734055D01*
X-4774987Y-1734055D02*
X-4794035Y-1724531D01*
X-4794035Y-1724531D02*
X-4803559Y-1715007D01*
X-4803559Y-1715007D02*
X-4813082Y-1695959D01*
X-4813082Y-1695959D02*
X-4822606Y-1657864D01*
X-4822606Y-1657864D02*
X-4822606Y-1610245D01*
X-4822606Y-1610245D02*
X-4813082Y-1572150D01*
X-4813082Y-1572150D02*
X-4803559Y-1553102D01*
X-4803559Y-1553102D02*
X-4794035Y-1543578D01*
X-4794035Y-1543578D02*
X-4774987Y-1534055D01*
X-4622606Y-1715007D02*
X-4613082Y-1724531D01*
X-4613082Y-1724531D02*
X-4622606Y-1734055D01*
X-4622606Y-1734055D02*
X-4632130Y-1724531D01*
X-4632130Y-1724531D02*
X-4622606Y-1715007D01*
X-4622606Y-1715007D02*
X-4622606Y-1734055D01*
X-4489273Y-1534055D02*
X-4470225Y-1534055D01*
X-4470225Y-1534055D02*
X-4451178Y-1543578D01*
X-4451178Y-1543578D02*
X-4441654Y-1553102D01*
X-4441654Y-1553102D02*
X-4432130Y-1572150D01*
X-4432130Y-1572150D02*
X-4422606Y-1610245D01*
X-4422606Y-1610245D02*
X-4422606Y-1657864D01*
X-4422606Y-1657864D02*
X-4432130Y-1695959D01*
X-4432130Y-1695959D02*
X-4441654Y-1715007D01*
X-4441654Y-1715007D02*
X-4451178Y-1724531D01*
X-4451178Y-1724531D02*
X-4470225Y-1734055D01*
X-4470225Y-1734055D02*
X-4489273Y-1734055D01*
X-4489273Y-1734055D02*
X-4508321Y-1724531D01*
X-4508321Y-1724531D02*
X-4517844Y-1715007D01*
X-4517844Y-1715007D02*
X-4527368Y-1695959D01*
X-4527368Y-1695959D02*
X-4536892Y-1657864D01*
X-4536892Y-1657864D02*
X-4536892Y-1610245D01*
X-4536892Y-1610245D02*
X-4527368Y-1572150D01*
X-4527368Y-1572150D02*
X-4517844Y-1553102D01*
X-4517844Y-1553102D02*
X-4508321Y-1543578D01*
X-4508321Y-1543578D02*
X-4489273Y-1534055D01*
X-4355940Y-1534055D02*
X-4232130Y-1534055D01*
X-4232130Y-1534055D02*
X-4298797Y-1610245D01*
X-4298797Y-1610245D02*
X-4270225Y-1610245D01*
X-4270225Y-1610245D02*
X-4251178Y-1619769D01*
X-4251178Y-1619769D02*
X-4241654Y-1629293D01*
X-4241654Y-1629293D02*
X-4232130Y-1648340D01*
X-4232130Y-1648340D02*
X-4232130Y-1695959D01*
X-4232130Y-1695959D02*
X-4241654Y-1715007D01*
X-4241654Y-1715007D02*
X-4251178Y-1724531D01*
X-4251178Y-1724531D02*
X-4270225Y-1734055D01*
X-4270225Y-1734055D02*
X-4327368Y-1734055D01*
X-4327368Y-1734055D02*
X-4346416Y-1724531D01*
X-4346416Y-1724531D02*
X-4355940Y-1715007D01*
X-4136892Y-1734055D02*
X-4098797Y-1734055D01*
X-4098797Y-1734055D02*
X-4079749Y-1724531D01*
X-4079749Y-1724531D02*
X-4070225Y-1715007D01*
X-4070225Y-1715007D02*
X-4051178Y-1686435D01*
X-4051178Y-1686435D02*
X-4041654Y-1648340D01*
X-4041654Y-1648340D02*
X-4041654Y-1572150D01*
X-4041654Y-1572150D02*
X-4051178Y-1553102D01*
X-4051178Y-1553102D02*
X-4060701Y-1543578D01*
X-4060701Y-1543578D02*
X-4079749Y-1534055D01*
X-4079749Y-1534055D02*
X-4117844Y-1534055D01*
X-4117844Y-1534055D02*
X-4136892Y-1543578D01*
X-4136892Y-1543578D02*
X-4146416Y-1553102D01*
X-4146416Y-1553102D02*
X-4155939Y-1572150D01*
X-4155939Y-1572150D02*
X-4155939Y-1619769D01*
X-4155939Y-1619769D02*
X-4146416Y-1638816D01*
X-4146416Y-1638816D02*
X-4136892Y-1648340D01*
X-4136892Y-1648340D02*
X-4117844Y-1657864D01*
X-4117844Y-1657864D02*
X-4079749Y-1657864D01*
X-4079749Y-1657864D02*
X-4060701Y-1648340D01*
X-4060701Y-1648340D02*
X-4051178Y-1638816D01*
X-4051178Y-1638816D02*
X-4041654Y-1619769D01*
X-3870225Y-1600721D02*
X-3870225Y-1734055D01*
X-3917844Y-1524531D02*
X-3965463Y-1667388D01*
X-3965463Y-1667388D02*
X-3841654Y-1667388D01*
X-3774987Y-1534055D02*
X-3774987Y-1572150D01*
X-3698797Y-1534055D02*
X-3698797Y-1572150D01*
X-3403558Y-1810245D02*
X-3413082Y-1800721D01*
X-3413082Y-1800721D02*
X-3432130Y-1772150D01*
X-3432130Y-1772150D02*
X-3441654Y-1753102D01*
X-3441654Y-1753102D02*
X-3451177Y-1724531D01*
X-3451177Y-1724531D02*
X-3460701Y-1676912D01*
X-3460701Y-1676912D02*
X-3460701Y-1638816D01*
X-3460701Y-1638816D02*
X-3451177Y-1591197D01*
X-3451177Y-1591197D02*
X-3441654Y-1562626D01*
X-3441654Y-1562626D02*
X-3432130Y-1543578D01*
X-3432130Y-1543578D02*
X-3413082Y-1515007D01*
X-3413082Y-1515007D02*
X-3403558Y-1505483D01*
X-3298797Y-1619769D02*
X-3317844Y-1610245D01*
X-3317844Y-1610245D02*
X-3327368Y-1600721D01*
X-3327368Y-1600721D02*
X-3336892Y-1581674D01*
X-3336892Y-1581674D02*
X-3336892Y-1572150D01*
X-3336892Y-1572150D02*
X-3327368Y-1553102D01*
X-3327368Y-1553102D02*
X-3317844Y-1543578D01*
X-3317844Y-1543578D02*
X-3298797Y-1534055D01*
X-3298797Y-1534055D02*
X-3260701Y-1534055D01*
X-3260701Y-1534055D02*
X-3241654Y-1543578D01*
X-3241654Y-1543578D02*
X-3232130Y-1553102D01*
X-3232130Y-1553102D02*
X-3222606Y-1572150D01*
X-3222606Y-1572150D02*
X-3222606Y-1581674D01*
X-3222606Y-1581674D02*
X-3232130Y-1600721D01*
X-3232130Y-1600721D02*
X-3241654Y-1610245D01*
X-3241654Y-1610245D02*
X-3260701Y-1619769D01*
X-3260701Y-1619769D02*
X-3298797Y-1619769D01*
X-3298797Y-1619769D02*
X-3317844Y-1629293D01*
X-3317844Y-1629293D02*
X-3327368Y-1638816D01*
X-3327368Y-1638816D02*
X-3336892Y-1657864D01*
X-3336892Y-1657864D02*
X-3336892Y-1695959D01*
X-3336892Y-1695959D02*
X-3327368Y-1715007D01*
X-3327368Y-1715007D02*
X-3317844Y-1724531D01*
X-3317844Y-1724531D02*
X-3298797Y-1734055D01*
X-3298797Y-1734055D02*
X-3260701Y-1734055D01*
X-3260701Y-1734055D02*
X-3241654Y-1724531D01*
X-3241654Y-1724531D02*
X-3232130Y-1715007D01*
X-3232130Y-1715007D02*
X-3222606Y-1695959D01*
X-3222606Y-1695959D02*
X-3222606Y-1657864D01*
X-3222606Y-1657864D02*
X-3232130Y-1638816D01*
X-3232130Y-1638816D02*
X-3241654Y-1629293D01*
X-3241654Y-1629293D02*
X-3260701Y-1619769D01*
X-2984511Y-1734055D02*
X-2984511Y-1534055D01*
X-2898796Y-1734055D02*
X-2898796Y-1629293D01*
X-2898796Y-1629293D02*
X-2908320Y-1610245D01*
X-2908320Y-1610245D02*
X-2927368Y-1600721D01*
X-2927368Y-1600721D02*
X-2955939Y-1600721D01*
X-2955939Y-1600721D02*
X-2974987Y-1610245D01*
X-2974987Y-1610245D02*
X-2984511Y-1619769D01*
X-2774987Y-1734055D02*
X-2794035Y-1724531D01*
X-2794035Y-1724531D02*
X-2803558Y-1715007D01*
X-2803558Y-1715007D02*
X-2813082Y-1695959D01*
X-2813082Y-1695959D02*
X-2813082Y-1638816D01*
X-2813082Y-1638816D02*
X-2803558Y-1619769D01*
X-2803558Y-1619769D02*
X-2794035Y-1610245D01*
X-2794035Y-1610245D02*
X-2774987Y-1600721D01*
X-2774987Y-1600721D02*
X-2746416Y-1600721D01*
X-2746416Y-1600721D02*
X-2727368Y-1610245D01*
X-2727368Y-1610245D02*
X-2717844Y-1619769D01*
X-2717844Y-1619769D02*
X-2708320Y-1638816D01*
X-2708320Y-1638816D02*
X-2708320Y-1695959D01*
X-2708320Y-1695959D02*
X-2717844Y-1715007D01*
X-2717844Y-1715007D02*
X-2727368Y-1724531D01*
X-2727368Y-1724531D02*
X-2746416Y-1734055D01*
X-2746416Y-1734055D02*
X-2774987Y-1734055D01*
X-2594035Y-1734055D02*
X-2613082Y-1724531D01*
X-2613082Y-1724531D02*
X-2622606Y-1705483D01*
X-2622606Y-1705483D02*
X-2622606Y-1534055D01*
X-2441654Y-1724531D02*
X-2460701Y-1734055D01*
X-2460701Y-1734055D02*
X-2498797Y-1734055D01*
X-2498797Y-1734055D02*
X-2517844Y-1724531D01*
X-2517844Y-1724531D02*
X-2527368Y-1705483D01*
X-2527368Y-1705483D02*
X-2527368Y-1629293D01*
X-2527368Y-1629293D02*
X-2517844Y-1610245D01*
X-2517844Y-1610245D02*
X-2498797Y-1600721D01*
X-2498797Y-1600721D02*
X-2460701Y-1600721D01*
X-2460701Y-1600721D02*
X-2441654Y-1610245D01*
X-2441654Y-1610245D02*
X-2432130Y-1629293D01*
X-2432130Y-1629293D02*
X-2432130Y-1648340D01*
X-2432130Y-1648340D02*
X-2527368Y-1667388D01*
X-2355939Y-1724531D02*
X-2336892Y-1734055D01*
X-2336892Y-1734055D02*
X-2298797Y-1734055D01*
X-2298797Y-1734055D02*
X-2279749Y-1724531D01*
X-2279749Y-1724531D02*
X-2270225Y-1705483D01*
X-2270225Y-1705483D02*
X-2270225Y-1695959D01*
X-2270225Y-1695959D02*
X-2279749Y-1676912D01*
X-2279749Y-1676912D02*
X-2298797Y-1667388D01*
X-2298797Y-1667388D02*
X-2327368Y-1667388D01*
X-2327368Y-1667388D02*
X-2346416Y-1657864D01*
X-2346416Y-1657864D02*
X-2355939Y-1638816D01*
X-2355939Y-1638816D02*
X-2355939Y-1629293D01*
X-2355939Y-1629293D02*
X-2346416Y-1610245D01*
X-2346416Y-1610245D02*
X-2327368Y-1600721D01*
X-2327368Y-1600721D02*
X-2298797Y-1600721D01*
X-2298797Y-1600721D02*
X-2279749Y-1610245D01*
X-2032130Y-1657864D02*
X-1879749Y-1657864D01*
X-1955939Y-1734055D02*
X-1955939Y-1581674D01*
X-1651177Y-1534055D02*
X-1527368Y-1534055D01*
X-1527368Y-1534055D02*
X-1594034Y-1610245D01*
X-1594034Y-1610245D02*
X-1565463Y-1610245D01*
X-1565463Y-1610245D02*
X-1546415Y-1619769D01*
X-1546415Y-1619769D02*
X-1536892Y-1629293D01*
X-1536892Y-1629293D02*
X-1527368Y-1648340D01*
X-1527368Y-1648340D02*
X-1527368Y-1695959D01*
X-1527368Y-1695959D02*
X-1536892Y-1715007D01*
X-1536892Y-1715007D02*
X-1546415Y-1724531D01*
X-1546415Y-1724531D02*
X-1565463Y-1734055D01*
X-1565463Y-1734055D02*
X-1622606Y-1734055D01*
X-1622606Y-1734055D02*
X-1641653Y-1724531D01*
X-1641653Y-1724531D02*
X-1651177Y-1715007D01*
X-1298796Y-1724531D02*
X-1279749Y-1734055D01*
X-1279749Y-1734055D02*
X-1241654Y-1734055D01*
X-1241654Y-1734055D02*
X-1222606Y-1724531D01*
X-1222606Y-1724531D02*
X-1213082Y-1705483D01*
X-1213082Y-1705483D02*
X-1213082Y-1695959D01*
X-1213082Y-1695959D02*
X-1222606Y-1676912D01*
X-1222606Y-1676912D02*
X-1241654Y-1667388D01*
X-1241654Y-1667388D02*
X-1270225Y-1667388D01*
X-1270225Y-1667388D02*
X-1289273Y-1657864D01*
X-1289273Y-1657864D02*
X-1298796Y-1638816D01*
X-1298796Y-1638816D02*
X-1298796Y-1629293D01*
X-1298796Y-1629293D02*
X-1289273Y-1610245D01*
X-1289273Y-1610245D02*
X-1270225Y-1600721D01*
X-1270225Y-1600721D02*
X-1241654Y-1600721D01*
X-1241654Y-1600721D02*
X-1222606Y-1610245D01*
X-1098796Y-1734055D02*
X-1117844Y-1724531D01*
X-1117844Y-1724531D02*
X-1127368Y-1705483D01*
X-1127368Y-1705483D02*
X-1127368Y-1534055D01*
X-994034Y-1734055D02*
X-1013082Y-1724531D01*
X-1013082Y-1724531D02*
X-1022606Y-1715007D01*
X-1022606Y-1715007D02*
X-1032130Y-1695959D01*
X-1032130Y-1695959D02*
X-1032130Y-1638816D01*
X-1032130Y-1638816D02*
X-1022606Y-1619769D01*
X-1022606Y-1619769D02*
X-1013082Y-1610245D01*
X-1013082Y-1610245D02*
X-994034Y-1600721D01*
X-994034Y-1600721D02*
X-965463Y-1600721D01*
X-965463Y-1600721D02*
X-946415Y-1610245D01*
X-946415Y-1610245D02*
X-936891Y-1619769D01*
X-936891Y-1619769D02*
X-927368Y-1638816D01*
X-927368Y-1638816D02*
X-927368Y-1695959D01*
X-927368Y-1695959D02*
X-936891Y-1715007D01*
X-936891Y-1715007D02*
X-946415Y-1724531D01*
X-946415Y-1724531D02*
X-965463Y-1734055D01*
X-965463Y-1734055D02*
X-994034Y-1734055D01*
X-870225Y-1600721D02*
X-794034Y-1600721D01*
X-841653Y-1534055D02*
X-841653Y-1705483D01*
X-841653Y-1705483D02*
X-832130Y-1724531D01*
X-832130Y-1724531D02*
X-813082Y-1734055D01*
X-813082Y-1734055D02*
X-794034Y-1734055D01*
X-736891Y-1724531D02*
X-717844Y-1734055D01*
X-717844Y-1734055D02*
X-679749Y-1734055D01*
X-679749Y-1734055D02*
X-660701Y-1724531D01*
X-660701Y-1724531D02*
X-651177Y-1705483D01*
X-651177Y-1705483D02*
X-651177Y-1695959D01*
X-651177Y-1695959D02*
X-660701Y-1676912D01*
X-660701Y-1676912D02*
X-679749Y-1667388D01*
X-679749Y-1667388D02*
X-708320Y-1667388D01*
X-708320Y-1667388D02*
X-727368Y-1657864D01*
X-727368Y-1657864D02*
X-736891Y-1638816D01*
X-736891Y-1638816D02*
X-736891Y-1629293D01*
X-736891Y-1629293D02*
X-727368Y-1610245D01*
X-727368Y-1610245D02*
X-708320Y-1600721D01*
X-708320Y-1600721D02*
X-679749Y-1600721D01*
X-679749Y-1600721D02*
X-660701Y-1610245D01*
X-584511Y-1810245D02*
X-574987Y-1800721D01*
X-574987Y-1800721D02*
X-555939Y-1772150D01*
X-555939Y-1772150D02*
X-546415Y-1753102D01*
X-546415Y-1753102D02*
X-536892Y-1724531D01*
X-536892Y-1724531D02*
X-527368Y-1676912D01*
X-527368Y-1676912D02*
X-527368Y-1638816D01*
X-527368Y-1638816D02*
X-536892Y-1591197D01*
X-536892Y-1591197D02*
X-546415Y-1562626D01*
X-546415Y-1562626D02*
X-555939Y-1543578D01*
X-555939Y-1543578D02*
X-574987Y-1515007D01*
X-574987Y-1515007D02*
X-584511Y-1505483D01*
D13*
X-7080221Y-1855771D02*
X-6978621Y-1957371D01*
X-6978621Y-1855771D02*
X-7080221Y-1957371D01*
X-6978621Y-1906571D02*
G75*
G02*
X-7080221Y-1906571I-50800J0D01*
G01*
X-7080221Y-1906571D02*
G75*
G02*
X-6978621Y-1906571I50800J0D01*
G01*
D11*
X-6613083Y-1998055D02*
X-6727368Y-1998055D01*
X-6670225Y-1998055D02*
X-6670225Y-1798055D01*
X-6670225Y-1798055D02*
X-6689273Y-1826626D01*
X-6689273Y-1826626D02*
X-6708321Y-1845674D01*
X-6708321Y-1845674D02*
X-6727368Y-1855197D01*
X-6527368Y-1979007D02*
X-6517844Y-1988531D01*
X-6517844Y-1988531D02*
X-6527368Y-1998055D01*
X-6527368Y-1998055D02*
X-6536892Y-1988531D01*
X-6536892Y-1988531D02*
X-6527368Y-1979007D01*
X-6527368Y-1979007D02*
X-6527368Y-1998055D01*
X-6394035Y-1798055D02*
X-6374987Y-1798055D01*
X-6374987Y-1798055D02*
X-6355940Y-1807578D01*
X-6355940Y-1807578D02*
X-6346416Y-1817102D01*
X-6346416Y-1817102D02*
X-6336892Y-1836150D01*
X-6336892Y-1836150D02*
X-6327368Y-1874245D01*
X-6327368Y-1874245D02*
X-6327368Y-1921864D01*
X-6327368Y-1921864D02*
X-6336892Y-1959959D01*
X-6336892Y-1959959D02*
X-6346416Y-1979007D01*
X-6346416Y-1979007D02*
X-6355940Y-1988531D01*
X-6355940Y-1988531D02*
X-6374987Y-1998055D01*
X-6374987Y-1998055D02*
X-6394035Y-1998055D01*
X-6394035Y-1998055D02*
X-6413083Y-1988531D01*
X-6413083Y-1988531D02*
X-6422606Y-1979007D01*
X-6422606Y-1979007D02*
X-6432130Y-1959959D01*
X-6432130Y-1959959D02*
X-6441654Y-1921864D01*
X-6441654Y-1921864D02*
X-6441654Y-1874245D01*
X-6441654Y-1874245D02*
X-6432130Y-1836150D01*
X-6432130Y-1836150D02*
X-6422606Y-1817102D01*
X-6422606Y-1817102D02*
X-6413083Y-1807578D01*
X-6413083Y-1807578D02*
X-6394035Y-1798055D01*
X-6136892Y-1998055D02*
X-6251178Y-1998055D01*
X-6194035Y-1998055D02*
X-6194035Y-1798055D01*
X-6194035Y-1798055D02*
X-6213083Y-1826626D01*
X-6213083Y-1826626D02*
X-6232130Y-1845674D01*
X-6232130Y-1845674D02*
X-6251178Y-1855197D01*
X-5965463Y-1798055D02*
X-6003559Y-1798055D01*
X-6003559Y-1798055D02*
X-6022606Y-1807578D01*
X-6022606Y-1807578D02*
X-6032130Y-1817102D01*
X-6032130Y-1817102D02*
X-6051178Y-1845674D01*
X-6051178Y-1845674D02*
X-6060702Y-1883769D01*
X-6060702Y-1883769D02*
X-6060702Y-1959959D01*
X-6060702Y-1959959D02*
X-6051178Y-1979007D01*
X-6051178Y-1979007D02*
X-6041654Y-1988531D01*
X-6041654Y-1988531D02*
X-6022606Y-1998055D01*
X-6022606Y-1998055D02*
X-5984511Y-1998055D01*
X-5984511Y-1998055D02*
X-5965463Y-1988531D01*
X-5965463Y-1988531D02*
X-5955940Y-1979007D01*
X-5955940Y-1979007D02*
X-5946416Y-1959959D01*
X-5946416Y-1959959D02*
X-5946416Y-1912340D01*
X-5946416Y-1912340D02*
X-5955940Y-1893293D01*
X-5955940Y-1893293D02*
X-5965463Y-1883769D01*
X-5965463Y-1883769D02*
X-5984511Y-1874245D01*
X-5984511Y-1874245D02*
X-6022606Y-1874245D01*
X-6022606Y-1874245D02*
X-6041654Y-1883769D01*
X-6041654Y-1883769D02*
X-6051178Y-1893293D01*
X-6051178Y-1893293D02*
X-6060702Y-1912340D01*
X-5860702Y-1998055D02*
X-5860702Y-1864721D01*
X-5860702Y-1883769D02*
X-5851178Y-1874245D01*
X-5851178Y-1874245D02*
X-5832130Y-1864721D01*
X-5832130Y-1864721D02*
X-5803559Y-1864721D01*
X-5803559Y-1864721D02*
X-5784511Y-1874245D01*
X-5784511Y-1874245D02*
X-5774987Y-1893293D01*
X-5774987Y-1893293D02*
X-5774987Y-1998055D01*
X-5774987Y-1893293D02*
X-5765463Y-1874245D01*
X-5765463Y-1874245D02*
X-5746416Y-1864721D01*
X-5746416Y-1864721D02*
X-5717844Y-1864721D01*
X-5717844Y-1864721D02*
X-5698797Y-1874245D01*
X-5698797Y-1874245D02*
X-5689273Y-1893293D01*
X-5689273Y-1893293D02*
X-5689273Y-1998055D01*
X-5594035Y-1998055D02*
X-5594035Y-1864721D01*
X-5594035Y-1883769D02*
X-5584511Y-1874245D01*
X-5584511Y-1874245D02*
X-5565464Y-1864721D01*
X-5565464Y-1864721D02*
X-5536892Y-1864721D01*
X-5536892Y-1864721D02*
X-5517844Y-1874245D01*
X-5517844Y-1874245D02*
X-5508321Y-1893293D01*
X-5508321Y-1893293D02*
X-5508321Y-1998055D01*
X-5508321Y-1893293D02*
X-5498797Y-1874245D01*
X-5498797Y-1874245D02*
X-5479749Y-1864721D01*
X-5479749Y-1864721D02*
X-5451178Y-1864721D01*
X-5451178Y-1864721D02*
X-5432130Y-1874245D01*
X-5432130Y-1874245D02*
X-5422606Y-1893293D01*
X-5422606Y-1893293D02*
X-5422606Y-1998055D01*
X-5032130Y-1788531D02*
X-5203559Y-2045674D01*
X-4774987Y-1798055D02*
X-4755940Y-1798055D01*
X-4755940Y-1798055D02*
X-4736892Y-1807578D01*
X-4736892Y-1807578D02*
X-4727368Y-1817102D01*
X-4727368Y-1817102D02*
X-4717844Y-1836150D01*
X-4717844Y-1836150D02*
X-4708321Y-1874245D01*
X-4708321Y-1874245D02*
X-4708321Y-1921864D01*
X-4708321Y-1921864D02*
X-4717844Y-1959959D01*
X-4717844Y-1959959D02*
X-4727368Y-1979007D01*
X-4727368Y-1979007D02*
X-4736892Y-1988531D01*
X-4736892Y-1988531D02*
X-4755940Y-1998055D01*
X-4755940Y-1998055D02*
X-4774987Y-1998055D01*
X-4774987Y-1998055D02*
X-4794035Y-1988531D01*
X-4794035Y-1988531D02*
X-4803559Y-1979007D01*
X-4803559Y-1979007D02*
X-4813082Y-1959959D01*
X-4813082Y-1959959D02*
X-4822606Y-1921864D01*
X-4822606Y-1921864D02*
X-4822606Y-1874245D01*
X-4822606Y-1874245D02*
X-4813082Y-1836150D01*
X-4813082Y-1836150D02*
X-4803559Y-1817102D01*
X-4803559Y-1817102D02*
X-4794035Y-1807578D01*
X-4794035Y-1807578D02*
X-4774987Y-1798055D01*
X-4622606Y-1979007D02*
X-4613082Y-1988531D01*
X-4613082Y-1988531D02*
X-4622606Y-1998055D01*
X-4622606Y-1998055D02*
X-4632130Y-1988531D01*
X-4632130Y-1988531D02*
X-4622606Y-1979007D01*
X-4622606Y-1979007D02*
X-4622606Y-1998055D01*
X-4489273Y-1798055D02*
X-4470225Y-1798055D01*
X-4470225Y-1798055D02*
X-4451178Y-1807578D01*
X-4451178Y-1807578D02*
X-4441654Y-1817102D01*
X-4441654Y-1817102D02*
X-4432130Y-1836150D01*
X-4432130Y-1836150D02*
X-4422606Y-1874245D01*
X-4422606Y-1874245D02*
X-4422606Y-1921864D01*
X-4422606Y-1921864D02*
X-4432130Y-1959959D01*
X-4432130Y-1959959D02*
X-4441654Y-1979007D01*
X-4441654Y-1979007D02*
X-4451178Y-1988531D01*
X-4451178Y-1988531D02*
X-4470225Y-1998055D01*
X-4470225Y-1998055D02*
X-4489273Y-1998055D01*
X-4489273Y-1998055D02*
X-4508321Y-1988531D01*
X-4508321Y-1988531D02*
X-4517844Y-1979007D01*
X-4517844Y-1979007D02*
X-4527368Y-1959959D01*
X-4527368Y-1959959D02*
X-4536892Y-1921864D01*
X-4536892Y-1921864D02*
X-4536892Y-1874245D01*
X-4536892Y-1874245D02*
X-4527368Y-1836150D01*
X-4527368Y-1836150D02*
X-4517844Y-1817102D01*
X-4517844Y-1817102D02*
X-4508321Y-1807578D01*
X-4508321Y-1807578D02*
X-4489273Y-1798055D01*
X-4251178Y-1864721D02*
X-4251178Y-1998055D01*
X-4298797Y-1788531D02*
X-4346416Y-1931388D01*
X-4346416Y-1931388D02*
X-4222606Y-1931388D01*
X-4108320Y-1798055D02*
X-4089273Y-1798055D01*
X-4089273Y-1798055D02*
X-4070225Y-1807578D01*
X-4070225Y-1807578D02*
X-4060701Y-1817102D01*
X-4060701Y-1817102D02*
X-4051178Y-1836150D01*
X-4051178Y-1836150D02*
X-4041654Y-1874245D01*
X-4041654Y-1874245D02*
X-4041654Y-1921864D01*
X-4041654Y-1921864D02*
X-4051178Y-1959959D01*
X-4051178Y-1959959D02*
X-4060701Y-1979007D01*
X-4060701Y-1979007D02*
X-4070225Y-1988531D01*
X-4070225Y-1988531D02*
X-4089273Y-1998055D01*
X-4089273Y-1998055D02*
X-4108320Y-1998055D01*
X-4108320Y-1998055D02*
X-4127368Y-1988531D01*
X-4127368Y-1988531D02*
X-4136892Y-1979007D01*
X-4136892Y-1979007D02*
X-4146416Y-1959959D01*
X-4146416Y-1959959D02*
X-4155939Y-1921864D01*
X-4155939Y-1921864D02*
X-4155939Y-1874245D01*
X-4155939Y-1874245D02*
X-4146416Y-1836150D01*
X-4146416Y-1836150D02*
X-4136892Y-1817102D01*
X-4136892Y-1817102D02*
X-4127368Y-1807578D01*
X-4127368Y-1807578D02*
X-4108320Y-1798055D01*
X-3917844Y-1798055D02*
X-3898797Y-1798055D01*
X-3898797Y-1798055D02*
X-3879749Y-1807578D01*
X-3879749Y-1807578D02*
X-3870225Y-1817102D01*
X-3870225Y-1817102D02*
X-3860701Y-1836150D01*
X-3860701Y-1836150D02*
X-3851178Y-1874245D01*
X-3851178Y-1874245D02*
X-3851178Y-1921864D01*
X-3851178Y-1921864D02*
X-3860701Y-1959959D01*
X-3860701Y-1959959D02*
X-3870225Y-1979007D01*
X-3870225Y-1979007D02*
X-3879749Y-1988531D01*
X-3879749Y-1988531D02*
X-3898797Y-1998055D01*
X-3898797Y-1998055D02*
X-3917844Y-1998055D01*
X-3917844Y-1998055D02*
X-3936892Y-1988531D01*
X-3936892Y-1988531D02*
X-3946416Y-1979007D01*
X-3946416Y-1979007D02*
X-3955939Y-1959959D01*
X-3955939Y-1959959D02*
X-3965463Y-1921864D01*
X-3965463Y-1921864D02*
X-3965463Y-1874245D01*
X-3965463Y-1874245D02*
X-3955939Y-1836150D01*
X-3955939Y-1836150D02*
X-3946416Y-1817102D01*
X-3946416Y-1817102D02*
X-3936892Y-1807578D01*
X-3936892Y-1807578D02*
X-3917844Y-1798055D01*
X-3774987Y-1798055D02*
X-3774987Y-1836150D01*
X-3698797Y-1798055D02*
X-3698797Y-1836150D01*
X-3403558Y-2074245D02*
X-3413082Y-2064721D01*
X-3413082Y-2064721D02*
X-3432130Y-2036150D01*
X-3432130Y-2036150D02*
X-3441654Y-2017102D01*
X-3441654Y-2017102D02*
X-3451177Y-1988531D01*
X-3451177Y-1988531D02*
X-3460701Y-1940912D01*
X-3460701Y-1940912D02*
X-3460701Y-1902816D01*
X-3460701Y-1902816D02*
X-3451177Y-1855197D01*
X-3451177Y-1855197D02*
X-3441654Y-1826626D01*
X-3441654Y-1826626D02*
X-3432130Y-1807578D01*
X-3432130Y-1807578D02*
X-3413082Y-1779007D01*
X-3413082Y-1779007D02*
X-3403558Y-1769483D01*
X-3346416Y-1798055D02*
X-3222606Y-1798055D01*
X-3222606Y-1798055D02*
X-3289273Y-1874245D01*
X-3289273Y-1874245D02*
X-3260701Y-1874245D01*
X-3260701Y-1874245D02*
X-3241654Y-1883769D01*
X-3241654Y-1883769D02*
X-3232130Y-1893293D01*
X-3232130Y-1893293D02*
X-3222606Y-1912340D01*
X-3222606Y-1912340D02*
X-3222606Y-1959959D01*
X-3222606Y-1959959D02*
X-3232130Y-1979007D01*
X-3232130Y-1979007D02*
X-3241654Y-1988531D01*
X-3241654Y-1988531D02*
X-3260701Y-1998055D01*
X-3260701Y-1998055D02*
X-3317844Y-1998055D01*
X-3317844Y-1998055D02*
X-3336892Y-1988531D01*
X-3336892Y-1988531D02*
X-3346416Y-1979007D01*
X-3146416Y-1817102D02*
X-3136892Y-1807578D01*
X-3136892Y-1807578D02*
X-3117844Y-1798055D01*
X-3117844Y-1798055D02*
X-3070225Y-1798055D01*
X-3070225Y-1798055D02*
X-3051177Y-1807578D01*
X-3051177Y-1807578D02*
X-3041654Y-1817102D01*
X-3041654Y-1817102D02*
X-3032130Y-1836150D01*
X-3032130Y-1836150D02*
X-3032130Y-1855197D01*
X-3032130Y-1855197D02*
X-3041654Y-1883769D01*
X-3041654Y-1883769D02*
X-3155939Y-1998055D01*
X-3155939Y-1998055D02*
X-3032130Y-1998055D01*
X-2794035Y-1998055D02*
X-2794035Y-1798055D01*
X-2708320Y-1998055D02*
X-2708320Y-1893293D01*
X-2708320Y-1893293D02*
X-2717844Y-1874245D01*
X-2717844Y-1874245D02*
X-2736892Y-1864721D01*
X-2736892Y-1864721D02*
X-2765463Y-1864721D01*
X-2765463Y-1864721D02*
X-2784511Y-1874245D01*
X-2784511Y-1874245D02*
X-2794035Y-1883769D01*
X-2584511Y-1998055D02*
X-2603558Y-1988531D01*
X-2603558Y-1988531D02*
X-2613082Y-1979007D01*
X-2613082Y-1979007D02*
X-2622606Y-1959959D01*
X-2622606Y-1959959D02*
X-2622606Y-1902816D01*
X-2622606Y-1902816D02*
X-2613082Y-1883769D01*
X-2613082Y-1883769D02*
X-2603558Y-1874245D01*
X-2603558Y-1874245D02*
X-2584511Y-1864721D01*
X-2584511Y-1864721D02*
X-2555939Y-1864721D01*
X-2555939Y-1864721D02*
X-2536892Y-1874245D01*
X-2536892Y-1874245D02*
X-2527368Y-1883769D01*
X-2527368Y-1883769D02*
X-2517844Y-1902816D01*
X-2517844Y-1902816D02*
X-2517844Y-1959959D01*
X-2517844Y-1959959D02*
X-2527368Y-1979007D01*
X-2527368Y-1979007D02*
X-2536892Y-1988531D01*
X-2536892Y-1988531D02*
X-2555939Y-1998055D01*
X-2555939Y-1998055D02*
X-2584511Y-1998055D01*
X-2403558Y-1998055D02*
X-2422606Y-1988531D01*
X-2422606Y-1988531D02*
X-2432130Y-1969483D01*
X-2432130Y-1969483D02*
X-2432130Y-1798055D01*
X-2251177Y-1988531D02*
X-2270225Y-1998055D01*
X-2270225Y-1998055D02*
X-2308320Y-1998055D01*
X-2308320Y-1998055D02*
X-2327368Y-1988531D01*
X-2327368Y-1988531D02*
X-2336892Y-1969483D01*
X-2336892Y-1969483D02*
X-2336892Y-1893293D01*
X-2336892Y-1893293D02*
X-2327368Y-1874245D01*
X-2327368Y-1874245D02*
X-2308320Y-1864721D01*
X-2308320Y-1864721D02*
X-2270225Y-1864721D01*
X-2270225Y-1864721D02*
X-2251177Y-1874245D01*
X-2251177Y-1874245D02*
X-2241654Y-1893293D01*
X-2241654Y-1893293D02*
X-2241654Y-1912340D01*
X-2241654Y-1912340D02*
X-2336892Y-1931388D01*
X-2165463Y-1988531D02*
X-2146416Y-1998055D01*
X-2146416Y-1998055D02*
X-2108320Y-1998055D01*
X-2108320Y-1998055D02*
X-2089273Y-1988531D01*
X-2089273Y-1988531D02*
X-2079749Y-1969483D01*
X-2079749Y-1969483D02*
X-2079749Y-1959959D01*
X-2079749Y-1959959D02*
X-2089273Y-1940912D01*
X-2089273Y-1940912D02*
X-2108320Y-1931388D01*
X-2108320Y-1931388D02*
X-2136892Y-1931388D01*
X-2136892Y-1931388D02*
X-2155939Y-1921864D01*
X-2155939Y-1921864D02*
X-2165463Y-1902816D01*
X-2165463Y-1902816D02*
X-2165463Y-1893293D01*
X-2165463Y-1893293D02*
X-2155939Y-1874245D01*
X-2155939Y-1874245D02*
X-2136892Y-1864721D01*
X-2136892Y-1864721D02*
X-2108320Y-1864721D01*
X-2108320Y-1864721D02*
X-2089273Y-1874245D01*
X-2013082Y-2074245D02*
X-2003558Y-2064721D01*
X-2003558Y-2064721D02*
X-1984511Y-2036150D01*
X-1984511Y-2036150D02*
X-1974987Y-2017102D01*
X-1974987Y-2017102D02*
X-1965463Y-1988531D01*
X-1965463Y-1988531D02*
X-1955939Y-1940912D01*
X-1955939Y-1940912D02*
X-1955939Y-1902816D01*
X-1955939Y-1902816D02*
X-1965463Y-1855197D01*
X-1965463Y-1855197D02*
X-1974987Y-1826626D01*
X-1974987Y-1826626D02*
X-1984511Y-1807578D01*
X-1984511Y-1807578D02*
X-2003558Y-1779007D01*
X-2003558Y-1779007D02*
X-2013082Y-1769483D01*
D14*
X-7088621Y-2115571D02*
X-6978621Y-2225571D01*
X-6978621Y-2115571D02*
X-7088621Y-2225571D01*
X-7033621Y-2115571D02*
X-7033621Y-2225571D01*
X-7088621Y-2170571D02*
X-6978621Y-2170571D01*
D11*
X-6613083Y-2262055D02*
X-6727368Y-2262055D01*
X-6670225Y-2262055D02*
X-6670225Y-2062055D01*
X-6670225Y-2062055D02*
X-6689273Y-2090626D01*
X-6689273Y-2090626D02*
X-6708321Y-2109674D01*
X-6708321Y-2109674D02*
X-6727368Y-2119197D01*
X-6527368Y-2243007D02*
X-6517844Y-2252531D01*
X-6517844Y-2252531D02*
X-6527368Y-2262055D01*
X-6527368Y-2262055D02*
X-6536892Y-2252531D01*
X-6536892Y-2252531D02*
X-6527368Y-2243007D01*
X-6527368Y-2243007D02*
X-6527368Y-2262055D01*
X-6327368Y-2262055D02*
X-6441654Y-2262055D01*
X-6384511Y-2262055D02*
X-6384511Y-2062055D01*
X-6384511Y-2062055D02*
X-6403559Y-2090626D01*
X-6403559Y-2090626D02*
X-6422606Y-2109674D01*
X-6422606Y-2109674D02*
X-6441654Y-2119197D01*
X-6203559Y-2062055D02*
X-6184511Y-2062055D01*
X-6184511Y-2062055D02*
X-6165463Y-2071578D01*
X-6165463Y-2071578D02*
X-6155940Y-2081102D01*
X-6155940Y-2081102D02*
X-6146416Y-2100150D01*
X-6146416Y-2100150D02*
X-6136892Y-2138245D01*
X-6136892Y-2138245D02*
X-6136892Y-2185864D01*
X-6136892Y-2185864D02*
X-6146416Y-2223959D01*
X-6146416Y-2223959D02*
X-6155940Y-2243007D01*
X-6155940Y-2243007D02*
X-6165463Y-2252531D01*
X-6165463Y-2252531D02*
X-6184511Y-2262055D01*
X-6184511Y-2262055D02*
X-6203559Y-2262055D01*
X-6203559Y-2262055D02*
X-6222606Y-2252531D01*
X-6222606Y-2252531D02*
X-6232130Y-2243007D01*
X-6232130Y-2243007D02*
X-6241654Y-2223959D01*
X-6241654Y-2223959D02*
X-6251178Y-2185864D01*
X-6251178Y-2185864D02*
X-6251178Y-2138245D01*
X-6251178Y-2138245D02*
X-6241654Y-2100150D01*
X-6241654Y-2100150D02*
X-6232130Y-2081102D01*
X-6232130Y-2081102D02*
X-6222606Y-2071578D01*
X-6222606Y-2071578D02*
X-6203559Y-2062055D01*
X-6013083Y-2062055D02*
X-5994035Y-2062055D01*
X-5994035Y-2062055D02*
X-5974987Y-2071578D01*
X-5974987Y-2071578D02*
X-5965463Y-2081102D01*
X-5965463Y-2081102D02*
X-5955940Y-2100150D01*
X-5955940Y-2100150D02*
X-5946416Y-2138245D01*
X-5946416Y-2138245D02*
X-5946416Y-2185864D01*
X-5946416Y-2185864D02*
X-5955940Y-2223959D01*
X-5955940Y-2223959D02*
X-5965463Y-2243007D01*
X-5965463Y-2243007D02*
X-5974987Y-2252531D01*
X-5974987Y-2252531D02*
X-5994035Y-2262055D01*
X-5994035Y-2262055D02*
X-6013083Y-2262055D01*
X-6013083Y-2262055D02*
X-6032130Y-2252531D01*
X-6032130Y-2252531D02*
X-6041654Y-2243007D01*
X-6041654Y-2243007D02*
X-6051178Y-2223959D01*
X-6051178Y-2223959D02*
X-6060702Y-2185864D01*
X-6060702Y-2185864D02*
X-6060702Y-2138245D01*
X-6060702Y-2138245D02*
X-6051178Y-2100150D01*
X-6051178Y-2100150D02*
X-6041654Y-2081102D01*
X-6041654Y-2081102D02*
X-6032130Y-2071578D01*
X-6032130Y-2071578D02*
X-6013083Y-2062055D01*
X-5860702Y-2262055D02*
X-5860702Y-2128721D01*
X-5860702Y-2147769D02*
X-5851178Y-2138245D01*
X-5851178Y-2138245D02*
X-5832130Y-2128721D01*
X-5832130Y-2128721D02*
X-5803559Y-2128721D01*
X-5803559Y-2128721D02*
X-5784511Y-2138245D01*
X-5784511Y-2138245D02*
X-5774987Y-2157293D01*
X-5774987Y-2157293D02*
X-5774987Y-2262055D01*
X-5774987Y-2157293D02*
X-5765463Y-2138245D01*
X-5765463Y-2138245D02*
X-5746416Y-2128721D01*
X-5746416Y-2128721D02*
X-5717844Y-2128721D01*
X-5717844Y-2128721D02*
X-5698797Y-2138245D01*
X-5698797Y-2138245D02*
X-5689273Y-2157293D01*
X-5689273Y-2157293D02*
X-5689273Y-2262055D01*
X-5594035Y-2262055D02*
X-5594035Y-2128721D01*
X-5594035Y-2147769D02*
X-5584511Y-2138245D01*
X-5584511Y-2138245D02*
X-5565464Y-2128721D01*
X-5565464Y-2128721D02*
X-5536892Y-2128721D01*
X-5536892Y-2128721D02*
X-5517844Y-2138245D01*
X-5517844Y-2138245D02*
X-5508321Y-2157293D01*
X-5508321Y-2157293D02*
X-5508321Y-2262055D01*
X-5508321Y-2157293D02*
X-5498797Y-2138245D01*
X-5498797Y-2138245D02*
X-5479749Y-2128721D01*
X-5479749Y-2128721D02*
X-5451178Y-2128721D01*
X-5451178Y-2128721D02*
X-5432130Y-2138245D01*
X-5432130Y-2138245D02*
X-5422606Y-2157293D01*
X-5422606Y-2157293D02*
X-5422606Y-2262055D01*
X-5032130Y-2052531D02*
X-5203559Y-2309674D01*
X-4774987Y-2062055D02*
X-4755940Y-2062055D01*
X-4755940Y-2062055D02*
X-4736892Y-2071578D01*
X-4736892Y-2071578D02*
X-4727368Y-2081102D01*
X-4727368Y-2081102D02*
X-4717844Y-2100150D01*
X-4717844Y-2100150D02*
X-4708321Y-2138245D01*
X-4708321Y-2138245D02*
X-4708321Y-2185864D01*
X-4708321Y-2185864D02*
X-4717844Y-2223959D01*
X-4717844Y-2223959D02*
X-4727368Y-2243007D01*
X-4727368Y-2243007D02*
X-4736892Y-2252531D01*
X-4736892Y-2252531D02*
X-4755940Y-2262055D01*
X-4755940Y-2262055D02*
X-4774987Y-2262055D01*
X-4774987Y-2262055D02*
X-4794035Y-2252531D01*
X-4794035Y-2252531D02*
X-4803559Y-2243007D01*
X-4803559Y-2243007D02*
X-4813082Y-2223959D01*
X-4813082Y-2223959D02*
X-4822606Y-2185864D01*
X-4822606Y-2185864D02*
X-4822606Y-2138245D01*
X-4822606Y-2138245D02*
X-4813082Y-2100150D01*
X-4813082Y-2100150D02*
X-4803559Y-2081102D01*
X-4803559Y-2081102D02*
X-4794035Y-2071578D01*
X-4794035Y-2071578D02*
X-4774987Y-2062055D01*
X-4622606Y-2243007D02*
X-4613082Y-2252531D01*
X-4613082Y-2252531D02*
X-4622606Y-2262055D01*
X-4622606Y-2262055D02*
X-4632130Y-2252531D01*
X-4632130Y-2252531D02*
X-4622606Y-2243007D01*
X-4622606Y-2243007D02*
X-4622606Y-2262055D01*
X-4489273Y-2062055D02*
X-4470225Y-2062055D01*
X-4470225Y-2062055D02*
X-4451178Y-2071578D01*
X-4451178Y-2071578D02*
X-4441654Y-2081102D01*
X-4441654Y-2081102D02*
X-4432130Y-2100150D01*
X-4432130Y-2100150D02*
X-4422606Y-2138245D01*
X-4422606Y-2138245D02*
X-4422606Y-2185864D01*
X-4422606Y-2185864D02*
X-4432130Y-2223959D01*
X-4432130Y-2223959D02*
X-4441654Y-2243007D01*
X-4441654Y-2243007D02*
X-4451178Y-2252531D01*
X-4451178Y-2252531D02*
X-4470225Y-2262055D01*
X-4470225Y-2262055D02*
X-4489273Y-2262055D01*
X-4489273Y-2262055D02*
X-4508321Y-2252531D01*
X-4508321Y-2252531D02*
X-4517844Y-2243007D01*
X-4517844Y-2243007D02*
X-4527368Y-2223959D01*
X-4527368Y-2223959D02*
X-4536892Y-2185864D01*
X-4536892Y-2185864D02*
X-4536892Y-2138245D01*
X-4536892Y-2138245D02*
X-4527368Y-2100150D01*
X-4527368Y-2100150D02*
X-4517844Y-2081102D01*
X-4517844Y-2081102D02*
X-4508321Y-2071578D01*
X-4508321Y-2071578D02*
X-4489273Y-2062055D01*
X-4251178Y-2128721D02*
X-4251178Y-2262055D01*
X-4298797Y-2052531D02*
X-4346416Y-2195388D01*
X-4346416Y-2195388D02*
X-4222606Y-2195388D01*
X-4165463Y-2062055D02*
X-4041654Y-2062055D01*
X-4041654Y-2062055D02*
X-4108320Y-2138245D01*
X-4108320Y-2138245D02*
X-4079749Y-2138245D01*
X-4079749Y-2138245D02*
X-4060701Y-2147769D01*
X-4060701Y-2147769D02*
X-4051178Y-2157293D01*
X-4051178Y-2157293D02*
X-4041654Y-2176340D01*
X-4041654Y-2176340D02*
X-4041654Y-2223959D01*
X-4041654Y-2223959D02*
X-4051178Y-2243007D01*
X-4051178Y-2243007D02*
X-4060701Y-2252531D01*
X-4060701Y-2252531D02*
X-4079749Y-2262055D01*
X-4079749Y-2262055D02*
X-4136892Y-2262055D01*
X-4136892Y-2262055D02*
X-4155939Y-2252531D01*
X-4155939Y-2252531D02*
X-4165463Y-2243007D01*
X-3974987Y-2062055D02*
X-3851178Y-2062055D01*
X-3851178Y-2062055D02*
X-3917844Y-2138245D01*
X-3917844Y-2138245D02*
X-3889273Y-2138245D01*
X-3889273Y-2138245D02*
X-3870225Y-2147769D01*
X-3870225Y-2147769D02*
X-3860701Y-2157293D01*
X-3860701Y-2157293D02*
X-3851178Y-2176340D01*
X-3851178Y-2176340D02*
X-3851178Y-2223959D01*
X-3851178Y-2223959D02*
X-3860701Y-2243007D01*
X-3860701Y-2243007D02*
X-3870225Y-2252531D01*
X-3870225Y-2252531D02*
X-3889273Y-2262055D01*
X-3889273Y-2262055D02*
X-3946416Y-2262055D01*
X-3946416Y-2262055D02*
X-3965463Y-2252531D01*
X-3965463Y-2252531D02*
X-3974987Y-2243007D01*
X-3774987Y-2062055D02*
X-3774987Y-2100150D01*
X-3698797Y-2062055D02*
X-3698797Y-2100150D01*
X-3403558Y-2338245D02*
X-3413082Y-2328721D01*
X-3413082Y-2328721D02*
X-3432130Y-2300150D01*
X-3432130Y-2300150D02*
X-3441654Y-2281102D01*
X-3441654Y-2281102D02*
X-3451177Y-2252531D01*
X-3451177Y-2252531D02*
X-3460701Y-2204912D01*
X-3460701Y-2204912D02*
X-3460701Y-2166817D01*
X-3460701Y-2166817D02*
X-3451177Y-2119197D01*
X-3451177Y-2119197D02*
X-3441654Y-2090626D01*
X-3441654Y-2090626D02*
X-3432130Y-2071578D01*
X-3432130Y-2071578D02*
X-3413082Y-2043007D01*
X-3413082Y-2043007D02*
X-3403558Y-2033483D01*
X-3241654Y-2062055D02*
X-3279749Y-2062055D01*
X-3279749Y-2062055D02*
X-3298797Y-2071578D01*
X-3298797Y-2071578D02*
X-3308320Y-2081102D01*
X-3308320Y-2081102D02*
X-3327368Y-2109674D01*
X-3327368Y-2109674D02*
X-3336892Y-2147769D01*
X-3336892Y-2147769D02*
X-3336892Y-2223959D01*
X-3336892Y-2223959D02*
X-3327368Y-2243007D01*
X-3327368Y-2243007D02*
X-3317844Y-2252531D01*
X-3317844Y-2252531D02*
X-3298797Y-2262055D01*
X-3298797Y-2262055D02*
X-3260701Y-2262055D01*
X-3260701Y-2262055D02*
X-3241654Y-2252531D01*
X-3241654Y-2252531D02*
X-3232130Y-2243007D01*
X-3232130Y-2243007D02*
X-3222606Y-2223959D01*
X-3222606Y-2223959D02*
X-3222606Y-2176340D01*
X-3222606Y-2176340D02*
X-3232130Y-2157293D01*
X-3232130Y-2157293D02*
X-3241654Y-2147769D01*
X-3241654Y-2147769D02*
X-3260701Y-2138245D01*
X-3260701Y-2138245D02*
X-3298797Y-2138245D01*
X-3298797Y-2138245D02*
X-3317844Y-2147769D01*
X-3317844Y-2147769D02*
X-3327368Y-2157293D01*
X-3327368Y-2157293D02*
X-3336892Y-2176340D01*
X-2984511Y-2262055D02*
X-2984511Y-2062055D01*
X-2898796Y-2262055D02*
X-2898796Y-2157293D01*
X-2898796Y-2157293D02*
X-2908320Y-2138245D01*
X-2908320Y-2138245D02*
X-2927368Y-2128721D01*
X-2927368Y-2128721D02*
X-2955939Y-2128721D01*
X-2955939Y-2128721D02*
X-2974987Y-2138245D01*
X-2974987Y-2138245D02*
X-2984511Y-2147769D01*
X-2774987Y-2262055D02*
X-2794035Y-2252531D01*
X-2794035Y-2252531D02*
X-2803558Y-2243007D01*
X-2803558Y-2243007D02*
X-2813082Y-2223959D01*
X-2813082Y-2223959D02*
X-2813082Y-2166817D01*
X-2813082Y-2166817D02*
X-2803558Y-2147769D01*
X-2803558Y-2147769D02*
X-2794035Y-2138245D01*
X-2794035Y-2138245D02*
X-2774987Y-2128721D01*
X-2774987Y-2128721D02*
X-2746416Y-2128721D01*
X-2746416Y-2128721D02*
X-2727368Y-2138245D01*
X-2727368Y-2138245D02*
X-2717844Y-2147769D01*
X-2717844Y-2147769D02*
X-2708320Y-2166817D01*
X-2708320Y-2166817D02*
X-2708320Y-2223959D01*
X-2708320Y-2223959D02*
X-2717844Y-2243007D01*
X-2717844Y-2243007D02*
X-2727368Y-2252531D01*
X-2727368Y-2252531D02*
X-2746416Y-2262055D01*
X-2746416Y-2262055D02*
X-2774987Y-2262055D01*
X-2594035Y-2262055D02*
X-2613082Y-2252531D01*
X-2613082Y-2252531D02*
X-2622606Y-2233483D01*
X-2622606Y-2233483D02*
X-2622606Y-2062055D01*
X-2441654Y-2252531D02*
X-2460701Y-2262055D01*
X-2460701Y-2262055D02*
X-2498797Y-2262055D01*
X-2498797Y-2262055D02*
X-2517844Y-2252531D01*
X-2517844Y-2252531D02*
X-2527368Y-2233483D01*
X-2527368Y-2233483D02*
X-2527368Y-2157293D01*
X-2527368Y-2157293D02*
X-2517844Y-2138245D01*
X-2517844Y-2138245D02*
X-2498797Y-2128721D01*
X-2498797Y-2128721D02*
X-2460701Y-2128721D01*
X-2460701Y-2128721D02*
X-2441654Y-2138245D01*
X-2441654Y-2138245D02*
X-2432130Y-2157293D01*
X-2432130Y-2157293D02*
X-2432130Y-2176340D01*
X-2432130Y-2176340D02*
X-2527368Y-2195388D01*
X-2355939Y-2252531D02*
X-2336892Y-2262055D01*
X-2336892Y-2262055D02*
X-2298797Y-2262055D01*
X-2298797Y-2262055D02*
X-2279749Y-2252531D01*
X-2279749Y-2252531D02*
X-2270225Y-2233483D01*
X-2270225Y-2233483D02*
X-2270225Y-2223959D01*
X-2270225Y-2223959D02*
X-2279749Y-2204912D01*
X-2279749Y-2204912D02*
X-2298797Y-2195388D01*
X-2298797Y-2195388D02*
X-2327368Y-2195388D01*
X-2327368Y-2195388D02*
X-2346416Y-2185864D01*
X-2346416Y-2185864D02*
X-2355939Y-2166817D01*
X-2355939Y-2166817D02*
X-2355939Y-2157293D01*
X-2355939Y-2157293D02*
X-2346416Y-2138245D01*
X-2346416Y-2138245D02*
X-2327368Y-2128721D01*
X-2327368Y-2128721D02*
X-2298797Y-2128721D01*
X-2298797Y-2128721D02*
X-2279749Y-2138245D01*
X-2203558Y-2338245D02*
X-2194035Y-2328721D01*
X-2194035Y-2328721D02*
X-2174987Y-2300150D01*
X-2174987Y-2300150D02*
X-2165463Y-2281102D01*
X-2165463Y-2281102D02*
X-2155939Y-2252531D01*
X-2155939Y-2252531D02*
X-2146416Y-2204912D01*
X-2146416Y-2204912D02*
X-2146416Y-2166817D01*
X-2146416Y-2166817D02*
X-2155939Y-2119197D01*
X-2155939Y-2119197D02*
X-2165463Y-2090626D01*
X-2165463Y-2090626D02*
X-2174987Y-2071578D01*
X-2174987Y-2071578D02*
X-2194035Y-2043007D01*
X-2194035Y-2043007D02*
X-2203558Y-2033483D01*
M02*
