G04 #@! TF.GenerationSoftware,KiCad,Pcbnew,9.0.7*
G04 #@! TF.CreationDate,2026-03-04T19:42:52-03:00*
G04 #@! TF.ProjectId,ZATINO PTH V2,5a415449-4e4f-4205-9054-482056322e6b,rev?*
G04 #@! TF.SameCoordinates,Original*
G04 #@! TF.FileFunction,Copper,L2,Bot*
G04 #@! TF.FilePolarity,Positive*
%FSLAX46Y46*%
G04 Gerber Fmt 4.6, Leading zero omitted, Abs format (unit mm)*
G04 Created by KiCad (PCBNEW 9.0.7) date 2026-03-04 19:42:52*
%MOMM*%
%LPD*%
G01*
G04 APERTURE LIST*
G04 Aperture macros list*
%AMRoundRect*
0 Rectangle with rounded corners*
0 $1 Rounding radius*
0 $2 $3 $4 $5 $6 $7 $8 $9 X,Y pos of 4 corners*
0 Add a 4 corners polygon primitive as box body*
4,1,4,$2,$3,$4,$5,$6,$7,$8,$9,$2,$3,0*
0 Add four circle primitives for the rounded corners*
1,1,$1+$1,$2,$3*
1,1,$1+$1,$4,$5*
1,1,$1+$1,$6,$7*
1,1,$1+$1,$8,$9*
0 Add four rect primitives between the rounded corners*
20,1,$1+$1,$2,$3,$4,$5,0*
20,1,$1+$1,$4,$5,$6,$7,0*
20,1,$1+$1,$6,$7,$8,$9,0*
20,1,$1+$1,$8,$9,$2,$3,0*%
G04 Aperture macros list end*
G04 #@! TA.AperFunction,ComponentPad*
%ADD10C,1.600000*%
G04 #@! TD*
G04 #@! TA.AperFunction,ComponentPad*
%ADD11C,1.800000*%
G04 #@! TD*
G04 #@! TA.AperFunction,ComponentPad*
%ADD12C,1.400000*%
G04 #@! TD*
G04 #@! TA.AperFunction,ComponentPad*
%ADD13O,1.400000X1.400000*%
G04 #@! TD*
G04 #@! TA.AperFunction,ComponentPad*
%ADD14C,2.000000*%
G04 #@! TD*
G04 #@! TA.AperFunction,ComponentPad*
%ADD15C,1.700000*%
G04 #@! TD*
G04 #@! TA.AperFunction,ComponentPad*
%ADD16O,1.700000X1.700000*%
G04 #@! TD*
G04 #@! TA.AperFunction,ComponentPad*
%ADD17R,3.500000X3.500000*%
G04 #@! TD*
G04 #@! TA.AperFunction,ComponentPad*
%ADD18RoundRect,0.750000X-0.750000X-1.000000X0.750000X-1.000000X0.750000X1.000000X-0.750000X1.000000X0*%
G04 #@! TD*
G04 #@! TA.AperFunction,ComponentPad*
%ADD19RoundRect,0.875000X-0.875000X-0.875000X0.875000X-0.875000X0.875000X0.875000X-0.875000X0.875000X0*%
G04 #@! TD*
G04 #@! TA.AperFunction,ComponentPad*
%ADD20C,1.676400*%
G04 #@! TD*
G04 #@! TA.AperFunction,ComponentPad*
%ADD21C,1.500000*%
G04 #@! TD*
G04 #@! TA.AperFunction,ComponentPad*
%ADD22C,2.200000*%
G04 #@! TD*
G04 #@! TA.AperFunction,ComponentPad*
%ADD23O,2.200000X2.200000*%
G04 #@! TD*
G04 #@! TA.AperFunction,ViaPad*
%ADD24C,2.000000*%
G04 #@! TD*
G04 #@! TA.AperFunction,Conductor*
%ADD25C,0.500000*%
G04 #@! TD*
G04 #@! TA.AperFunction,Conductor*
%ADD26C,1.000000*%
G04 #@! TD*
G04 APERTURE END LIST*
D10*
G04 #@! TO.P,C6,1*
G04 #@! TO.N,Net-(BARRA_DE_PINO2-Pin_6)*
X-4178629Y27284163D03*
G04 #@! TO.P,C6,2*
G04 #@! TO.N,RESET*
X-4178629Y24784163D03*
G04 #@! TD*
D11*
G04 #@! TO.P,L1,1,K*
G04 #@! TO.N,GND*
X-65250000Y35110000D03*
G04 #@! TO.P,L1,2,A*
G04 #@! TO.N,Net-(L1-A)*
X-62710000Y35110000D03*
G04 #@! TD*
G04 #@! TO.P,L2,1,K*
G04 #@! TO.N,GND*
X-65250000Y41790000D03*
G04 #@! TO.P,L2,2,A*
G04 #@! TO.N,Net-(L2-A)*
X-62710000Y41790000D03*
G04 #@! TD*
D12*
G04 #@! TO.P,R3,1*
G04 #@! TO.N,+5V*
X-13920000Y23150000D03*
D13*
G04 #@! TO.P,R3,2*
G04 #@! TO.N,RESET*
X-6300000Y23150000D03*
G04 #@! TD*
D14*
G04 #@! TO.P,TACTIL_SWITCH1,1,1*
G04 #@! TO.N,RESET*
X-59190000Y47190000D03*
X-65690000Y47190000D03*
G04 #@! TO.P,TACTIL_SWITCH1,2,2*
G04 #@! TO.N,GND*
X-59190000Y51690000D03*
X-65690000Y51690000D03*
G04 #@! TD*
D15*
G04 #@! TO.P,BARRA_DE_PINO1,1,Pin_1*
G04 #@! TO.N,AREF*
X-24125000Y9940000D03*
D16*
G04 #@! TO.P,BARRA_DE_PINO1,2,Pin_2*
G04 #@! TO.N,+3.3V*
X-26665000Y9940000D03*
G04 #@! TD*
D10*
G04 #@! TO.P,C1,1*
G04 #@! TO.N,VIN*
X-51105112Y11630000D03*
G04 #@! TO.P,C1,2*
G04 #@! TO.N,GND*
X-48605112Y11630000D03*
G04 #@! TD*
D17*
G04 #@! TO.P,CONECTOR1,1*
G04 #@! TO.N,Net-(D1-A)*
X-59550000Y10300000D03*
D18*
G04 #@! TO.P,CONECTOR1,2*
G04 #@! TO.N,GND*
X-65550000Y10300000D03*
D19*
G04 #@! TO.P,CONECTOR1,3*
X-62550000Y5600000D03*
G04 #@! TD*
D10*
G04 #@! TO.P,MICROCONTROLADOR1,1,~{RESET}/PC6*
G04 #@! TO.N,RESET*
X-6301425Y20591998D03*
G04 #@! TO.P,MICROCONTROLADOR1,2,PD0*
G04 #@! TO.N,D0*
X-8841425Y20591998D03*
G04 #@! TO.P,MICROCONTROLADOR1,3,PD1*
G04 #@! TO.N,D1*
X-11381425Y20591998D03*
G04 #@! TO.P,MICROCONTROLADOR1,4,PD2*
G04 #@! TO.N,D2*
X-13921425Y20591998D03*
G04 #@! TO.P,MICROCONTROLADOR1,5,PD3*
G04 #@! TO.N,D3*
X-16461425Y20591998D03*
G04 #@! TO.P,MICROCONTROLADOR1,6,PD4*
G04 #@! TO.N,D4*
X-19001425Y20591998D03*
G04 #@! TO.P,MICROCONTROLADOR1,7,VCC*
G04 #@! TO.N,+5V*
X-21541425Y20591998D03*
G04 #@! TO.P,MICROCONTROLADOR1,8,GND*
G04 #@! TO.N,GND*
X-24081425Y20591998D03*
G04 #@! TO.P,MICROCONTROLADOR1,9,XTAL1/PB6*
G04 #@! TO.N,X1*
X-26621425Y20591998D03*
G04 #@! TO.P,MICROCONTROLADOR1,10,XTAL2/PB7*
G04 #@! TO.N,X2*
X-29161425Y20591998D03*
G04 #@! TO.P,MICROCONTROLADOR1,11,PD5*
G04 #@! TO.N,D5*
X-31701425Y20591998D03*
G04 #@! TO.P,MICROCONTROLADOR1,12,PD6*
G04 #@! TO.N,D6*
X-34241425Y20591998D03*
G04 #@! TO.P,MICROCONTROLADOR1,13,PD7*
G04 #@! TO.N,D7*
X-36781425Y20591998D03*
G04 #@! TO.P,MICROCONTROLADOR1,14,PB0*
G04 #@! TO.N,D8*
X-39321425Y20591998D03*
G04 #@! TO.P,MICROCONTROLADOR1,15,PB1*
G04 #@! TO.N,D9*
X-39321425Y12971998D03*
G04 #@! TO.P,MICROCONTROLADOR1,16,PB2*
G04 #@! TO.N,D10*
X-36781425Y12971998D03*
G04 #@! TO.P,MICROCONTROLADOR1,17,PB3*
G04 #@! TO.N,D11*
X-34241425Y12971998D03*
G04 #@! TO.P,MICROCONTROLADOR1,18,PB4*
G04 #@! TO.N,D12*
X-31701425Y12971998D03*
G04 #@! TO.P,MICROCONTROLADOR1,19,PB5*
G04 #@! TO.N,D13*
X-29161425Y12971998D03*
G04 #@! TO.P,MICROCONTROLADOR1,20,AVCC*
G04 #@! TO.N,+5V*
X-26621425Y12971998D03*
G04 #@! TO.P,MICROCONTROLADOR1,21,AREF*
G04 #@! TO.N,AREF*
X-24081425Y12971998D03*
G04 #@! TO.P,MICROCONTROLADOR1,22,GND*
G04 #@! TO.N,GND*
X-21541425Y12971998D03*
G04 #@! TO.P,MICROCONTROLADOR1,23,PC0*
G04 #@! TO.N,A0*
X-19001425Y12971998D03*
G04 #@! TO.P,MICROCONTROLADOR1,24,PC1*
G04 #@! TO.N,A1*
X-16461425Y12971998D03*
G04 #@! TO.P,MICROCONTROLADOR1,25,PC2*
G04 #@! TO.N,A2*
X-13921425Y12971998D03*
G04 #@! TO.P,MICROCONTROLADOR1,26,PC3*
G04 #@! TO.N,A3*
X-11381425Y12971998D03*
G04 #@! TO.P,MICROCONTROLADOR1,27,PC4*
G04 #@! TO.N,A4*
X-8841425Y12971998D03*
G04 #@! TO.P,MICROCONTROLADOR1,28,PC5*
G04 #@! TO.N,A5*
X-6301425Y12971998D03*
G04 #@! TD*
D15*
G04 #@! TO.P,BARRA_DE_PINO2,1,Pin_1*
G04 #@! TO.N,GND*
X-7690000Y39970000D03*
D16*
G04 #@! TO.P,BARRA_DE_PINO2,2,Pin_2*
G04 #@! TO.N,unconnected-(BARRA_DE_PINO2-Pin_2-Pad2)*
X-7690000Y37430000D03*
G04 #@! TO.P,BARRA_DE_PINO2,3,Pin_3*
G04 #@! TO.N,+5V*
X-7690000Y34890000D03*
G04 #@! TO.P,BARRA_DE_PINO2,4,Pin_4*
G04 #@! TO.N,D0*
X-7690000Y32350000D03*
G04 #@! TO.P,BARRA_DE_PINO2,5,Pin_5*
G04 #@! TO.N,D1*
X-7690000Y29810000D03*
G04 #@! TO.P,BARRA_DE_PINO2,6,Pin_6*
G04 #@! TO.N,Net-(BARRA_DE_PINO2-Pin_6)*
X-7690000Y27270000D03*
G04 #@! TD*
D20*
G04 #@! TO.P,A2,3V3,3V3*
G04 #@! TO.N,+3.3V*
X-34247310Y3140700D03*
G04 #@! TO.P,A2,5V,5V*
G04 #@! TO.N,+5V*
X-31707310Y3140700D03*
G04 #@! TO.P,A2,A0,A0*
G04 #@! TO.N,A0*
X-19007300Y3140700D03*
G04 #@! TO.P,A2,A1,A1*
G04 #@! TO.N,A1*
X-16467300Y3140700D03*
G04 #@! TO.P,A2,A2,A2*
G04 #@! TO.N,A2*
X-13927300Y3140700D03*
G04 #@! TO.P,A2,A3,A3*
G04 #@! TO.N,A3*
X-11387300Y3140700D03*
G04 #@! TO.P,A2,A4,A4*
G04 #@! TO.N,A4*
X-8847300Y3140700D03*
G04 #@! TO.P,A2,A4_SDA,AD4_SDA*
X-48471300Y51400700D03*
G04 #@! TO.P,A2,A5,A5*
G04 #@! TO.N,A5*
X-6307300Y3140700D03*
G04 #@! TO.P,A2,A5_SCL,AD5_SCL*
X-51011300Y51400700D03*
G04 #@! TO.P,A2,AREF,AREF*
G04 #@! TO.N,AREF*
X-45931300Y51400700D03*
G04 #@! TO.P,A2,D0,D0*
G04 #@! TO.N,D0*
X-6307300Y51400700D03*
G04 #@! TO.P,A2,D1,D1*
G04 #@! TO.N,D1*
X-8847300Y51400700D03*
G04 #@! TO.P,A2,D2,D2*
G04 #@! TO.N,D2*
X-11387300Y51400700D03*
G04 #@! TO.P,A2,D3,D3*
G04 #@! TO.N,D3*
X-13927300Y51400700D03*
G04 #@! TO.P,A2,D4,D4*
G04 #@! TO.N,D4*
X-16467300Y51400700D03*
G04 #@! TO.P,A2,D5,D5*
G04 #@! TO.N,D5*
X-19007300Y51400700D03*
G04 #@! TO.P,A2,D6,D6*
G04 #@! TO.N,D6*
X-21547300Y51400700D03*
G04 #@! TO.P,A2,D7,D7*
G04 #@! TO.N,D7*
X-24087300Y51400700D03*
G04 #@! TO.P,A2,D8,D8*
G04 #@! TO.N,D8*
X-28151310Y51400700D03*
G04 #@! TO.P,A2,D9,D9*
G04 #@! TO.N,D9*
X-30691310Y51400700D03*
G04 #@! TO.P,A2,D10,D10*
G04 #@! TO.N,D10*
X-33231310Y51400700D03*
G04 #@! TO.P,A2,D11,D11*
G04 #@! TO.N,D11*
X-35771309Y51400700D03*
G04 #@! TO.P,A2,D12,D12*
G04 #@! TO.N,D12*
X-38311310Y51400700D03*
G04 #@! TO.P,A2,D13,D13*
G04 #@! TO.N,D13*
X-40851310Y51400700D03*
G04 #@! TO.P,A2,GND_1,GND_1*
G04 #@! TO.N,GND*
X-26627310Y3140700D03*
G04 #@! TO.P,A2,GND_2,GND_2*
X-29167310Y3140700D03*
G04 #@! TO.P,A2,GND_3,GND_3*
X-43391310Y51400700D03*
G04 #@! TO.P,A2,IOREF,IOREF*
G04 #@! TO.N,+5V*
X-39327310Y3140700D03*
G04 #@! TO.P,A2,P1,P1*
G04 #@! TO.N,unconnected-(A2-PadP1)*
X-41867310Y3140700D03*
G04 #@! TO.P,A2,RST,RST*
G04 #@! TO.N,RESET*
X-36787310Y3140700D03*
G04 #@! TO.P,A2,VIN,VIN*
G04 #@! TO.N,VIN*
X-24087300Y3140700D03*
G04 #@! TD*
D21*
G04 #@! TO.P,16MHZ1,1,1*
G04 #@! TO.N,X2*
X-30880000Y25120000D03*
G04 #@! TO.P,16MHZ1,2,2*
G04 #@! TO.N,X1*
X-25980000Y25120000D03*
G04 #@! TD*
D10*
G04 #@! TO.P,C2,1*
G04 #@! TO.N,+5V*
X-54835112Y20970000D03*
G04 #@! TO.P,C2,2*
G04 #@! TO.N,GND*
X-52335112Y20970000D03*
G04 #@! TD*
G04 #@! TO.P,C7,1*
G04 #@! TO.N,GND*
X-48482913Y42081118D03*
G04 #@! TO.P,C7,2*
G04 #@! TO.N,AREF*
X-45982913Y42081118D03*
G04 #@! TD*
D22*
G04 #@! TO.P,D1,1,K*
G04 #@! TO.N,VIN*
X-55580000Y16710000D03*
D23*
G04 #@! TO.P,D1,2,A*
G04 #@! TO.N,Net-(D1-A)*
X-55580000Y6550000D03*
G04 #@! TD*
D12*
G04 #@! TO.P,R1,1*
G04 #@! TO.N,+5V*
X-51785112Y35150000D03*
D13*
G04 #@! TO.P,R1,2*
G04 #@! TO.N,Net-(L1-A)*
X-59405112Y35150000D03*
G04 #@! TD*
D10*
G04 #@! TO.P,C5,1*
G04 #@! TO.N,X1*
X-25980000Y29540000D03*
G04 #@! TO.P,C5,2*
G04 #@! TO.N,GND*
X-25980000Y32040000D03*
G04 #@! TD*
G04 #@! TO.P,C4,1*
G04 #@! TO.N,X2*
X-30880000Y29540000D03*
G04 #@! TO.P,C4,2*
G04 #@! TO.N,GND*
X-30880000Y32040000D03*
G04 #@! TD*
G04 #@! TO.P,C3,1*
G04 #@! TO.N,+3.3V*
X-54835112Y28070000D03*
G04 #@! TO.P,C3,2*
G04 #@! TO.N,GND*
X-52335112Y28070000D03*
G04 #@! TD*
D12*
G04 #@! TO.P,R2,1*
G04 #@! TO.N,D13*
X-51785112Y41850000D03*
D13*
G04 #@! TO.P,R2,2*
G04 #@! TO.N,Net-(L2-A)*
X-59405112Y41850000D03*
G04 #@! TD*
D24*
G04 #@! TO.N,GND*
X-55771104Y24823072D03*
G04 #@! TD*
D25*
G04 #@! TO.N,D6*
X-21547300Y46742700D02*
X-21547300Y51400700D01*
X-34241425Y34048575D02*
X-21547300Y46742700D01*
X-34241425Y20591998D02*
X-34241425Y34048575D01*
G04 #@! TO.N,D1*
X-11381425Y45378575D02*
X-8847300Y47912700D01*
X-8847300Y47912700D02*
X-8847300Y51400700D01*
X-11381425Y20591998D02*
X-11381425Y45378575D01*
G04 #@! TO.N,D2*
X-11380000Y47740000D02*
X-11380000Y49475400D01*
X-11380000Y49475400D02*
X-11387300Y49482700D01*
X-12420000Y22093423D02*
X-12420000Y46700000D01*
X-13921425Y20591998D02*
X-12420000Y22093423D01*
X-12420000Y46700000D02*
X-11380000Y47740000D01*
X-11387300Y49482700D02*
X-11387300Y51400700D01*
G04 #@! TO.N,D5*
X-31701425Y22331425D02*
X-32880000Y23510000D01*
X-31701425Y20591998D02*
X-31701425Y22331425D01*
X-32880000Y33190000D02*
X-19007300Y47062700D01*
X-19007300Y47062700D02*
X-19007300Y51400700D01*
X-32880000Y23510000D02*
X-32880000Y33190000D01*
G04 #@! TO.N,D7*
X-24087300Y51400700D02*
X-24087300Y46892700D01*
X-36781425Y34198575D02*
X-36781425Y20591998D01*
X-24087300Y46892700D02*
X-36781425Y34198575D01*
G04 #@! TO.N,D4*
X-16467300Y51400700D02*
X-16467300Y46802700D01*
X-19001425Y44268575D02*
X-19001425Y20591998D01*
X-16467300Y46802700D02*
X-19001425Y44268575D01*
G04 #@! TO.N,D3*
X-13927300Y47532700D02*
X-13927300Y51400700D01*
X-16461425Y20591998D02*
X-16461425Y44998575D01*
X-16461425Y44998575D02*
X-13927300Y47532700D01*
G04 #@! TO.N,D0*
X-6307300Y48522700D02*
X-6307300Y51400700D01*
X-8841425Y20591998D02*
X-8841425Y23341425D01*
X-9870000Y44960000D02*
X-6307300Y48522700D01*
X-7690000Y32350000D02*
X-9870000Y32350000D01*
X-9870000Y32350000D02*
X-9870000Y44960000D01*
X-9870000Y24370000D02*
X-9870000Y32350000D01*
X-8841425Y23341425D02*
X-9870000Y24370000D01*
G04 #@! TO.N,A2*
X-13921425Y3146575D02*
X-13927300Y3140700D01*
X-13921425Y12971998D02*
X-13921425Y3146575D01*
G04 #@! TO.N,A1*
X-16461425Y12971998D02*
X-16461425Y3146575D01*
X-16461425Y3146575D02*
X-16467300Y3140700D01*
G04 #@! TO.N,A0*
X-19001425Y12971998D02*
X-19001425Y3146575D01*
X-19001425Y3146575D02*
X-19007300Y3140700D01*
G04 #@! TO.N,A4*
X-8841425Y3146575D02*
X-8847300Y3140700D01*
X-8841425Y12971998D02*
X-8841425Y3146575D01*
G04 #@! TO.N,A3*
X-11381425Y12971998D02*
X-11381425Y3146575D01*
X-11381425Y3146575D02*
X-11387300Y3140700D01*
G04 #@! TO.N,A5*
X-6301425Y3146575D02*
X-6307300Y3140700D01*
G04 #@! TO.N,D12*
X-38311310Y51400700D02*
X-38311310Y44618690D01*
X-31701425Y11808575D02*
X-31701425Y12971998D01*
X-35010000Y8500000D02*
X-31701425Y11808575D01*
X-44330000Y10320000D02*
X-42510000Y8500000D01*
X-38311310Y44618690D02*
X-44330000Y38600000D01*
X-42510000Y8500000D02*
X-35010000Y8500000D01*
X-44330000Y38600000D02*
X-44330000Y10320000D01*
G04 #@! TO.N,D11*
X-36390000Y9530000D02*
X-41420000Y9530000D01*
X-43360000Y11470000D02*
X-43360000Y37660000D01*
X-41420000Y9530000D02*
X-43360000Y11470000D01*
X-35771309Y45248691D02*
X-35771309Y51400700D01*
X-34241425Y12971998D02*
X-34241425Y11678575D01*
X-43360000Y37660000D02*
X-35771309Y45248691D01*
X-34241425Y11678575D02*
X-36390000Y9530000D01*
G04 #@! TO.N,D9*
X-30691310Y46028690D02*
X-30691310Y51400700D01*
X-39321425Y12971998D02*
X-40810000Y14460573D01*
X-40810000Y35910000D02*
X-30691310Y46028690D01*
X-40810000Y14460573D02*
X-40810000Y35910000D01*
G04 #@! TO.N,D10*
X-42210000Y12590000D02*
X-42210000Y36780000D01*
X-33231310Y45758690D02*
X-33231310Y51400700D01*
X-37390000Y10800000D02*
X-40420000Y10800000D01*
X-36781425Y11408575D02*
X-37390000Y10800000D01*
X-42210000Y36780000D02*
X-33231310Y45758690D01*
X-40420000Y10800000D02*
X-42210000Y12590000D01*
X-36781425Y12971998D02*
X-36781425Y11408575D01*
G04 #@! TO.N,D13*
X-48895112Y38960000D02*
X-45780000Y38960000D01*
X-29161425Y12971998D02*
X-29161425Y12308575D01*
X-51785112Y41850000D02*
X-48895112Y38960000D01*
X-45780000Y9080000D02*
X-45780000Y38960000D01*
X-45780000Y38960000D02*
X-40851310Y43888690D01*
X-34150000Y7320000D02*
X-44020000Y7320000D01*
X-29161425Y12308575D02*
X-34150000Y7320000D01*
X-44020000Y7320000D02*
X-45780000Y9080000D01*
X-40851310Y43888690D02*
X-40851310Y51400700D01*
G04 #@! TO.N,D8*
X-28151310Y45648690D02*
X-28151310Y51400700D01*
X-39321425Y34478575D02*
X-28151310Y45648690D01*
X-39321425Y20591998D02*
X-39321425Y34478575D01*
G04 #@! TO.N,GND*
X-54350000Y24820000D02*
X-52335112Y26834888D01*
X-55890000Y24820000D02*
X-54350000Y24820000D01*
X-52335112Y26834888D02*
X-52335112Y28070000D01*
G04 #@! TO.N,+5V*
X-26621425Y12971998D02*
X-26621425Y14128575D01*
X-31707310Y7886113D02*
X-26621425Y12971998D01*
X-48690000Y15260000D02*
X-47050000Y13620000D01*
X-26621425Y14128575D02*
X-21541425Y19208575D01*
X-44180000Y4930000D02*
X-39350000Y4930000D01*
X-39327310Y4907310D02*
X-39350000Y4930000D01*
X-39327310Y3140700D02*
X-39327310Y4907310D01*
X-31707310Y4930000D02*
X-31707310Y7886113D01*
X-50480000Y15260000D02*
X-48690000Y15260000D01*
X-21541425Y19208575D02*
X-21541425Y20591998D01*
X-38790000Y4930000D02*
X-31707310Y4930000D01*
X-39350000Y4930000D02*
X-38790000Y4930000D01*
X-47050000Y7800000D02*
X-44180000Y4930000D01*
X-54835112Y20970000D02*
X-54835112Y19615112D01*
X-47050000Y13620000D02*
X-47050000Y7800000D01*
X-31707310Y3140700D02*
X-31707310Y4930000D01*
X-54835112Y19615112D02*
X-50480000Y15260000D01*
D26*
G04 #@! TO.N,Net-(D1-A)*
X-59550000Y8190000D02*
X-57910000Y6550000D01*
X-57910000Y6550000D02*
X-55580000Y6550000D01*
X-59550000Y10300000D02*
X-59550000Y8190000D01*
D25*
G04 #@! TO.N,Net-(L1-A)*
X-59445112Y35110000D02*
X-59405112Y35150000D01*
X-62710000Y35110000D02*
X-59445112Y35110000D01*
G04 #@! TO.N,RESET*
X-6300000Y23150000D02*
X-6300000Y23890000D01*
X-57590000Y14140000D02*
X-57590000Y45590000D01*
X-5809702Y1320298D02*
X-4620000Y2510000D01*
X-3960000Y12580000D02*
X-3960000Y19510000D01*
X-6300000Y23890000D02*
X-5405837Y24784163D01*
X-36787310Y3140700D02*
X-36787310Y1327608D01*
X-4620000Y4570000D02*
X-6480000Y6430000D01*
X-3960000Y19510000D02*
X-5041998Y20591998D01*
X-44770298Y1320298D02*
X-57590000Y14140000D01*
X-5405837Y24784163D02*
X-4178629Y24784163D01*
X-36787310Y1327608D02*
X-36780000Y1320298D01*
X-6300000Y23150000D02*
X-6300000Y20593423D01*
X-4620000Y2510000D02*
X-4620000Y4570000D01*
X-37570000Y1320298D02*
X-36780000Y1320298D01*
X-57590000Y45590000D02*
X-59190000Y47190000D01*
X-65690000Y47190000D02*
X-59190000Y47190000D01*
X-36780000Y1320298D02*
X-5809702Y1320298D01*
X-37219702Y1320298D02*
X-44770298Y1320298D01*
X-5041998Y20591998D02*
X-6301425Y20591998D01*
X-6480000Y10060000D02*
X-3960000Y12580000D01*
X-6300000Y20593423D02*
X-6301425Y20591998D01*
X-6480000Y6430000D02*
X-6480000Y10060000D01*
G04 #@! TO.N,X1*
X-25980000Y29540000D02*
X-25980000Y25120000D01*
X-25980000Y25120000D02*
X-25980000Y23170000D01*
X-25980000Y23170000D02*
X-26621425Y22528575D01*
X-26621425Y22528575D02*
X-26621425Y20591998D01*
G04 #@! TO.N,X2*
X-29140000Y23380000D02*
X-29140000Y22770000D01*
X-30880000Y25120000D02*
X-29140000Y23380000D01*
X-30880000Y29540000D02*
X-30880000Y25120000D01*
X-29161425Y22748575D02*
X-29161425Y20591998D01*
X-29140000Y22770000D02*
X-29161425Y22748575D01*
G04 #@! TO.N,AREF*
X-45982913Y51349087D02*
X-45931300Y51400700D01*
X-45930000Y51399400D02*
X-45931300Y51400700D01*
X-45982913Y42081118D02*
X-45982913Y51349087D01*
X-24125000Y9940000D02*
X-24125000Y12928423D01*
X-24125000Y12928423D02*
X-24081425Y12971998D01*
D26*
G04 #@! TO.N,VIN*
X-55580000Y16710000D02*
X-55580000Y15390000D01*
X-55580000Y15390000D02*
X-51820000Y11630000D01*
X-51820000Y11630000D02*
X-51105112Y11630000D01*
D25*
G04 #@! TO.N,Net-(L2-A)*
X-62710000Y41790000D02*
X-59465112Y41790000D01*
X-59465112Y41790000D02*
X-59405112Y41850000D01*
G04 #@! TO.N,Net-(BARRA_DE_PINO2-Pin_6)*
X-3880000Y27270000D02*
X-3870000Y27260000D01*
X-7690000Y27270000D02*
X-4192792Y27270000D01*
X-4192792Y27270000D02*
X-4178629Y27284163D01*
G04 #@! TD*
G04 #@! TA.AperFunction,Conductor*
G04 #@! TO.N,GND*
G36*
X-68679840Y53428553D02*
G01*
X-68679150Y53428530D01*
X-68629857Y53425328D01*
X-68614966Y53428301D01*
X-68612721Y53428522D01*
X-5570224Y53399598D01*
X-5562154Y53396283D01*
X-4721230Y52566210D01*
X-4313921Y52164157D01*
X-4310500Y52156048D01*
X-4310500Y40960707D01*
X-4310629Y40895088D01*
X-4310537Y40894378D01*
X-4310534Y40894365D01*
X-4310501Y40894109D01*
X-4293637Y40831172D01*
X-4293634Y40831150D01*
X-4293631Y40831150D01*
X-4276771Y40767731D01*
X-4276669Y40767483D01*
X-4276670Y40767483D01*
X-4276500Y40767071D01*
X-4276395Y40766817D01*
X-4243751Y40710278D01*
X-4243745Y40710255D01*
X-4243740Y40710258D01*
X-4243739Y40710257D01*
X-4211103Y40653473D01*
X-4211102Y40653472D01*
X-4211099Y40653467D01*
X-4210654Y40652885D01*
X-4210652Y40652883D01*
X-4210504Y40652690D01*
X-4210500Y40652686D01*
X-4164367Y40606553D01*
X-1773852Y38206627D01*
X-1770500Y38198512D01*
X-1770500Y5892737D01*
X-1773868Y5884605D01*
X-1773886Y5884587D01*
X-4049886Y3618551D01*
X-4058025Y3615201D01*
X-4066150Y3618587D01*
X-4069500Y3626701D01*
X-4069500Y4642475D01*
X-4107015Y4782480D01*
X-4107016Y4782485D01*
X-4150340Y4857525D01*
X-4179490Y4908015D01*
X-5926132Y6654657D01*
X-5929500Y6662789D01*
X-5929500Y8345265D01*
X-5667800Y8345265D01*
X-5667800Y8096135D01*
X-5635282Y7849135D01*
X-5635281Y7849131D01*
X-5635280Y7849124D01*
X-5635280Y7849123D01*
X-5570804Y7608499D01*
X-5570804Y7608498D01*
X-5475463Y7378324D01*
X-5350902Y7162577D01*
X-5350900Y7162574D01*
X-5350899Y7162573D01*
X-5199238Y6964924D01*
X-5023076Y6788762D01*
X-4848306Y6654657D01*
X-4825424Y6637099D01*
X-4609677Y6512538D01*
X-4609676Y6512538D01*
X-4609673Y6512536D01*
X-4379507Y6417198D01*
X-4379503Y6417197D01*
X-4138877Y6352721D01*
X-4138876Y6352721D01*
X-4138865Y6352718D01*
X-3891865Y6320200D01*
X-3891861Y6320200D01*
X-3642739Y6320200D01*
X-3642735Y6320200D01*
X-3395735Y6352718D01*
X-3395724Y6352721D01*
X-3395723Y6352721D01*
X-3332754Y6369594D01*
X-3155093Y6417198D01*
X-2924927Y6512536D01*
X-2709173Y6637101D01*
X-2511524Y6788762D01*
X-2335362Y6964924D01*
X-2183701Y7162573D01*
X-2059136Y7378327D01*
X-1963798Y7608493D01*
X-1899318Y7849135D01*
X-1866800Y8096135D01*
X-1866800Y8345265D01*
X-1899318Y8592265D01*
X-1963798Y8832907D01*
X-2059136Y9063073D01*
X-2060235Y9064976D01*
X-2183699Y9278824D01*
X-2183701Y9278827D01*
X-2335362Y9476476D01*
X-2511524Y9652638D01*
X-2709173Y9804299D01*
X-2709174Y9804300D01*
X-2709177Y9804302D01*
X-2924924Y9928863D01*
X-3155098Y10024204D01*
X-3395724Y10088680D01*
X-3395731Y10088681D01*
X-3395735Y10088682D01*
X-3595156Y10114937D01*
X-3642734Y10121200D01*
X-3642735Y10121200D01*
X-3891865Y10121200D01*
X-3891867Y10121200D01*
X-3987025Y10108673D01*
X-4138865Y10088682D01*
X-4138869Y10088682D01*
X-4138877Y10088680D01*
X-4138878Y10088680D01*
X-4379502Y10024204D01*
X-4379503Y10024204D01*
X-4609677Y9928863D01*
X-4825424Y9804302D01*
X-4899546Y9747427D01*
X-5023076Y9652638D01*
X-5023081Y9652633D01*
X-5023083Y9652632D01*
X-5199232Y9476483D01*
X-5199233Y9476481D01*
X-5199238Y9476476D01*
X-5294027Y9352946D01*
X-5350902Y9278824D01*
X-5475463Y9063077D01*
X-5570804Y8832903D01*
X-5570804Y8832902D01*
X-5635280Y8592278D01*
X-5635280Y8592277D01*
X-5635282Y8592269D01*
X-5635282Y8592265D01*
X-5650061Y8480009D01*
X-5663590Y8377240D01*
X-5667800Y8345265D01*
X-5929500Y8345265D01*
X-5929500Y9827211D01*
X-5926132Y9835343D01*
X-4753264Y11008211D01*
X-3519490Y12241985D01*
X-3447016Y12367515D01*
X-3409500Y12507525D01*
X-3409500Y19582475D01*
X-3447016Y19722485D01*
X-3519490Y19848015D01*
X-4703983Y21032508D01*
X-4703984Y21032509D01*
X-4829515Y21104983D01*
X-4829514Y21104983D01*
X-4834831Y21106407D01*
X-4969523Y21142498D01*
X-5339751Y21142498D01*
X-5347883Y21145866D01*
X-5349997Y21148777D01*
X-5357099Y21162714D01*
X-5360193Y21168786D01*
X-5462011Y21308926D01*
X-5584497Y21431412D01*
X-5724637Y21533230D01*
X-5724638Y21533231D01*
X-5724640Y21533232D01*
X-5724647Y21533236D01*
X-5743221Y21542700D01*
X-5748937Y21549393D01*
X-5749500Y21552946D01*
X-5749500Y22308396D01*
X-5746132Y22316528D01*
X-5744396Y22317953D01*
X-5662218Y22372861D01*
X-5522861Y22512218D01*
X-5413368Y22676086D01*
X-5337949Y22858165D01*
X-5299500Y23051459D01*
X-5299500Y23248541D01*
X-5337949Y23441835D01*
X-5413368Y23623914D01*
X-5522861Y23787782D01*
X-5565147Y23830068D01*
X-5568514Y23838198D01*
X-5565147Y23846329D01*
X-5181180Y24230295D01*
X-5173048Y24233663D01*
X-5140303Y24233663D01*
X-5132171Y24230295D01*
X-5130057Y24227384D01*
X-5125408Y24218261D01*
X-5119861Y24207375D01*
X-5018043Y24067235D01*
X-4895557Y23944749D01*
X-4755417Y23842931D01*
X-4601074Y23764290D01*
X-4436330Y23710761D01*
X-4350785Y23697212D01*
X-4265242Y23683663D01*
X-4265240Y23683663D01*
X-4092016Y23683663D01*
X-4023582Y23694503D01*
X-3920928Y23710761D01*
X-3756184Y23764290D01*
X-3601841Y23842931D01*
X-3461701Y23944749D01*
X-3339215Y24067235D01*
X-3237397Y24207375D01*
X-3158756Y24361718D01*
X-3105227Y24526462D01*
X-3078129Y24697552D01*
X-3078129Y24870774D01*
X-3078266Y24871637D01*
X-3101215Y25016535D01*
X-3105227Y25041864D01*
X-3158756Y25206608D01*
X-3237397Y25360951D01*
X-3339215Y25501091D01*
X-3461701Y25623577D01*
X-3601841Y25725395D01*
X-3756184Y25804036D01*
X-3756185Y25804037D01*
X-3756188Y25804038D01*
X-3920931Y25857566D01*
X-4092016Y25884663D01*
X-4092018Y25884663D01*
X-4265240Y25884663D01*
X-4265242Y25884663D01*
X-4436328Y25857566D01*
X-4601071Y25804038D01*
X-4755419Y25725394D01*
X-4895557Y25623577D01*
X-5018043Y25501091D01*
X-5119859Y25360953D01*
X-5119863Y25360948D01*
X-5130057Y25340942D01*
X-5136750Y25335226D01*
X-5140303Y25334663D01*
X-5478312Y25334663D01*
X-5618317Y25297149D01*
X-5618327Y25297145D01*
X-5743852Y25224674D01*
X-6740511Y24228015D01*
X-6807461Y24112051D01*
X-6812985Y24102485D01*
X-6841879Y23994653D01*
X-6846598Y23988068D01*
X-6937779Y23927142D01*
X-7077142Y23787779D01*
X-7186631Y23623917D01*
X-7262052Y23441835D01*
X-7262052Y23441832D01*
X-7287800Y23312390D01*
X-7300500Y23248541D01*
X-7300500Y23051459D01*
X-7281813Y22957515D01*
X-7262052Y22858169D01*
X-7262052Y22858166D01*
X-7186631Y22676084D01*
X-7077142Y22512222D01*
X-7077139Y22512218D01*
X-6937782Y22372861D01*
X-6855610Y22317957D01*
X-6850721Y22310640D01*
X-6850500Y22308396D01*
X-6850500Y21554398D01*
X-6853868Y21546266D01*
X-6856779Y21544152D01*
X-6878204Y21533236D01*
X-6878211Y21533232D01*
X-7018353Y21431412D01*
X-7140839Y21308926D01*
X-7242656Y21168788D01*
X-7321300Y21014440D01*
X-7374828Y20849697D01*
X-7401925Y20678612D01*
X-7401925Y20505385D01*
X-7374828Y20334300D01*
X-7321300Y20169557D01*
X-7321299Y20169554D01*
X-7321298Y20169553D01*
X-7242657Y20015210D01*
X-7140839Y19875070D01*
X-7018353Y19752584D01*
X-6878213Y19650766D01*
X-6723870Y19572125D01*
X-6559126Y19518596D01*
X-6473581Y19505047D01*
X-6388038Y19491498D01*
X-6388036Y19491498D01*
X-6214812Y19491498D01*
X-6146378Y19502338D01*
X-6043724Y19518596D01*
X-5878980Y19572125D01*
X-5724637Y19650766D01*
X-5584497Y19752584D01*
X-5462011Y19875070D01*
X-5360193Y20015210D01*
X-5353284Y20028770D01*
X-5349997Y20035219D01*
X-5343304Y20040935D01*
X-5339751Y20041498D01*
X-5274787Y20041498D01*
X-5266655Y20038130D01*
X-4513868Y19285343D01*
X-4510500Y19277211D01*
X-4510500Y12812789D01*
X-4513868Y12804657D01*
X-6920511Y10398015D01*
X-6992982Y10272490D01*
X-6992986Y10272480D01*
X-7030500Y10132475D01*
X-7030500Y6357526D01*
X-7019508Y6316503D01*
X-6992986Y6217521D01*
X-6992982Y6217511D01*
X-6920511Y6091986D01*
X-5173868Y4345343D01*
X-5170500Y4337211D01*
X-5170500Y3388434D01*
X-5173868Y3380302D01*
X-5182000Y3376934D01*
X-5190132Y3380302D01*
X-5193358Y3386635D01*
X-5196639Y3407344D01*
X-5196639Y3407346D01*
X-5252025Y3577809D01*
X-5333396Y3737509D01*
X-5438748Y3882513D01*
X-5565487Y4009252D01*
X-5710491Y4114604D01*
X-5870191Y4195975D01*
X-5870192Y4195976D01*
X-5870195Y4195977D01*
X-6040657Y4251362D01*
X-6217680Y4279400D01*
X-6217682Y4279400D01*
X-6396918Y4279400D01*
X-6396920Y4279400D01*
X-6573944Y4251362D01*
X-6744406Y4195977D01*
X-6904111Y4114603D01*
X-7049113Y4009252D01*
X-7175852Y3882513D01*
X-7281203Y3737511D01*
X-7362577Y3577806D01*
X-7417962Y3407344D01*
X-7446000Y3230321D01*
X-7446000Y3051080D01*
X-7417962Y2874057D01*
X-7362577Y2703595D01*
X-7362576Y2703592D01*
X-7362575Y2703591D01*
X-7281204Y2543891D01*
X-7175852Y2398887D01*
X-7049113Y2272148D01*
X-6904109Y2166796D01*
X-6744409Y2085425D01*
X-6573946Y2030039D01*
X-6485432Y2016020D01*
X-6396920Y2002000D01*
X-6396918Y2002000D01*
X-6217680Y2002000D01*
X-6144804Y2013543D01*
X-6040654Y2030039D01*
X-5870191Y2085425D01*
X-5838878Y2101381D01*
X-5830104Y2102071D01*
X-5823411Y2096355D01*
X-5822720Y2087581D01*
X-5825525Y2083002D01*
X-6034359Y1874166D01*
X-6042491Y1870798D01*
X-36225310Y1870798D01*
X-36233442Y1874166D01*
X-36236810Y1882298D01*
X-36236810Y2136154D01*
X-36233442Y2144286D01*
X-36230535Y2146399D01*
X-36190501Y2166796D01*
X-36045497Y2272148D01*
X-35918758Y2398887D01*
X-35813406Y2543891D01*
X-35732035Y2703591D01*
X-35676649Y2874054D01*
X-35654145Y3016135D01*
X-35648610Y3051080D01*
X-35648610Y3230321D01*
X-35386010Y3230321D01*
X-35386010Y3051080D01*
X-35357972Y2874057D01*
X-35302587Y2703595D01*
X-35302586Y2703592D01*
X-35302585Y2703591D01*
X-35221214Y2543891D01*
X-35115862Y2398887D01*
X-34989123Y2272148D01*
X-34844119Y2166796D01*
X-34684419Y2085425D01*
X-34513956Y2030039D01*
X-34425442Y2016020D01*
X-34336930Y2002000D01*
X-34336928Y2002000D01*
X-34157690Y2002000D01*
X-34084814Y2013543D01*
X-33980664Y2030039D01*
X-33810201Y2085425D01*
X-33650501Y2166796D01*
X-33505497Y2272148D01*
X-33378758Y2398887D01*
X-33273406Y2543891D01*
X-33192035Y2703591D01*
X-33136649Y2874054D01*
X-33114145Y3016135D01*
X-33108610Y3051080D01*
X-33108610Y3230321D01*
X-33136649Y3407344D01*
X-33136649Y3407346D01*
X-33192035Y3577809D01*
X-33273406Y3737509D01*
X-33378758Y3882513D01*
X-33505497Y4009252D01*
X-33650501Y4114604D01*
X-33810201Y4195975D01*
X-33810202Y4195976D01*
X-33810205Y4195977D01*
X-33980667Y4251362D01*
X-34157690Y4279400D01*
X-34157692Y4279400D01*
X-34336928Y4279400D01*
X-34336930Y4279400D01*
X-34513954Y4251362D01*
X-34684416Y4195977D01*
X-34844121Y4114603D01*
X-34989123Y4009252D01*
X-35115862Y3882513D01*
X-35221213Y3737511D01*
X-35302587Y3577806D01*
X-35357972Y3407344D01*
X-35386010Y3230321D01*
X-35648610Y3230321D01*
X-35676649Y3407344D01*
X-35676649Y3407346D01*
X-35732035Y3577809D01*
X-35813406Y3737509D01*
X-35918758Y3882513D01*
X-36045497Y4009252D01*
X-36190501Y4114604D01*
X-36350201Y4195975D01*
X-36350202Y4195976D01*
X-36350205Y4195977D01*
X-36520667Y4251362D01*
X-36697690Y4279400D01*
X-36697692Y4279400D01*
X-36876928Y4279400D01*
X-36876930Y4279400D01*
X-37053954Y4251362D01*
X-37224416Y4195977D01*
X-37384121Y4114603D01*
X-37529123Y4009252D01*
X-37655862Y3882513D01*
X-37761213Y3737511D01*
X-37842587Y3577806D01*
X-37897972Y3407344D01*
X-37926010Y3230321D01*
X-37926010Y3051080D01*
X-37897972Y2874057D01*
X-37842587Y2703595D01*
X-37842586Y2703592D01*
X-37842585Y2703591D01*
X-37761214Y2543891D01*
X-37655862Y2398887D01*
X-37529123Y2272148D01*
X-37384119Y2166796D01*
X-37344088Y2146400D01*
X-37338373Y2139708D01*
X-37337810Y2136154D01*
X-37337810Y1882298D01*
X-37341178Y1874166D01*
X-37349310Y1870798D01*
X-44537509Y1870798D01*
X-44545641Y1874166D01*
X-45901796Y3230321D01*
X-43006010Y3230321D01*
X-43006010Y3051080D01*
X-42977972Y2874057D01*
X-42922587Y2703595D01*
X-42922586Y2703592D01*
X-42922585Y2703591D01*
X-42841214Y2543891D01*
X-42735862Y2398887D01*
X-42609123Y2272148D01*
X-42464119Y2166796D01*
X-42304419Y2085425D01*
X-42133956Y2030039D01*
X-42045442Y2016020D01*
X-41956930Y2002000D01*
X-41956928Y2002000D01*
X-41777690Y2002000D01*
X-41704814Y2013543D01*
X-41600664Y2030039D01*
X-41430201Y2085425D01*
X-41270501Y2166796D01*
X-41125497Y2272148D01*
X-40998758Y2398887D01*
X-40893406Y2543891D01*
X-40812035Y2703591D01*
X-40756649Y2874054D01*
X-40734145Y3016135D01*
X-40728610Y3051080D01*
X-40728610Y3230321D01*
X-40756649Y3407344D01*
X-40756649Y3407346D01*
X-40812035Y3577809D01*
X-40893406Y3737509D01*
X-40998758Y3882513D01*
X-41125497Y4009252D01*
X-41270501Y4114604D01*
X-41430201Y4195975D01*
X-41430202Y4195976D01*
X-41430205Y4195977D01*
X-41600667Y4251362D01*
X-41777690Y4279400D01*
X-41777692Y4279400D01*
X-41956928Y4279400D01*
X-41956930Y4279400D01*
X-42133954Y4251362D01*
X-42304416Y4195977D01*
X-42464121Y4114603D01*
X-42609123Y4009252D01*
X-42735862Y3882513D01*
X-42841213Y3737511D01*
X-42922587Y3577806D01*
X-42977972Y3407344D01*
X-43006010Y3230321D01*
X-45901796Y3230321D01*
X-57036132Y14364657D01*
X-57039500Y14372789D01*
X-57039500Y16820225D01*
X-56980500Y16820225D01*
X-56980500Y16599776D01*
X-56946016Y16382052D01*
X-56877897Y16172398D01*
X-56877896Y16172395D01*
X-56877895Y16172394D01*
X-56777815Y15975978D01*
X-56648242Y15797635D01*
X-56492365Y15641758D01*
X-56385241Y15563929D01*
X-56380642Y15556424D01*
X-56380500Y15554625D01*
X-56380500Y15311160D01*
X-56349738Y15156507D01*
X-56349738Y15156504D01*
X-56303064Y15043824D01*
X-56289394Y15010821D01*
X-56201789Y14879711D01*
X-52441789Y11119711D01*
X-52330289Y11008211D01*
X-52199179Y10920606D01*
X-52053497Y10860263D01*
X-51898842Y10829500D01*
X-51865718Y10829500D01*
X-51857586Y10826132D01*
X-51822040Y10790586D01*
X-51681900Y10688768D01*
X-51527557Y10610127D01*
X-51362813Y10556598D01*
X-51277268Y10543049D01*
X-51191725Y10529500D01*
X-51191723Y10529500D01*
X-51018499Y10529500D01*
X-50950065Y10540340D01*
X-50847411Y10556598D01*
X-50682667Y10610127D01*
X-50528324Y10688768D01*
X-50388184Y10790586D01*
X-50265698Y10913072D01*
X-50163880Y11053212D01*
X-50085239Y11207555D01*
X-50031710Y11372299D01*
X-50004612Y11543389D01*
X-50004612Y11716611D01*
X-50031710Y11887701D01*
X-50085239Y12052445D01*
X-50163880Y12206788D01*
X-50265698Y12346928D01*
X-50388184Y12469414D01*
X-50528324Y12571232D01*
X-50682667Y12649873D01*
X-50682668Y12649874D01*
X-50682671Y12649875D01*
X-50847414Y12703403D01*
X-51018499Y12730500D01*
X-51018501Y12730500D01*
X-51191723Y12730500D01*
X-51191725Y12730500D01*
X-51362811Y12703403D01*
X-51527554Y12649875D01*
X-51639514Y12592830D01*
X-51648289Y12592140D01*
X-51652867Y12594945D01*
X-54676675Y15618753D01*
X-54680043Y15626885D01*
X-54676675Y15635017D01*
X-54675309Y15636184D01*
X-54667635Y15641758D01*
X-54511758Y15797635D01*
X-54382185Y15975978D01*
X-54282105Y16172394D01*
X-54213985Y16382049D01*
X-54179500Y16599778D01*
X-54179500Y16820222D01*
X-54213985Y17037951D01*
X-54282105Y17247606D01*
X-54382185Y17444022D01*
X-54511758Y17622365D01*
X-54667635Y17778242D01*
X-54845978Y17907815D01*
X-55042394Y18007895D01*
X-55042395Y18007896D01*
X-55042398Y18007897D01*
X-55252052Y18076016D01*
X-55469776Y18110500D01*
X-55469778Y18110500D01*
X-55690222Y18110500D01*
X-55690224Y18110500D01*
X-55907949Y18076016D01*
X-56117603Y18007897D01*
X-56211996Y17959801D01*
X-56314022Y17907815D01*
X-56492365Y17778242D01*
X-56648242Y17622365D01*
X-56777815Y17444022D01*
X-56829801Y17341996D01*
X-56877897Y17247603D01*
X-56946016Y17037949D01*
X-56980500Y16820225D01*
X-57039500Y16820225D01*
X-57039500Y21056614D01*
X-55935612Y21056614D01*
X-55935612Y20883387D01*
X-55908515Y20712302D01*
X-55854987Y20547559D01*
X-55854986Y20547556D01*
X-55854985Y20547555D01*
X-55776344Y20393212D01*
X-55674526Y20253072D01*
X-55552040Y20130586D01*
X-55411900Y20028768D01*
X-55391890Y20018573D01*
X-55386175Y20011881D01*
X-55385612Y20008327D01*
X-55385612Y19542639D01*
X-55348098Y19402633D01*
X-55348094Y19402623D01*
X-55278439Y19281975D01*
X-55275622Y19277097D01*
X-50818015Y14819490D01*
X-50729196Y14768211D01*
X-50692485Y14747016D01*
X-50552475Y14709500D01*
X-48922789Y14709500D01*
X-48914657Y14706132D01*
X-47603868Y13395343D01*
X-47600500Y13387211D01*
X-47600500Y7727527D01*
X-47562986Y7587521D01*
X-47562982Y7587511D01*
X-47490730Y7462365D01*
X-47490510Y7461985D01*
X-44518015Y4489490D01*
X-44392485Y4417016D01*
X-44252475Y4379500D01*
X-44252474Y4379500D01*
X-44107526Y4379500D01*
X-39889310Y4379500D01*
X-39881178Y4376132D01*
X-39877810Y4368000D01*
X-39877810Y4145248D01*
X-39881178Y4137116D01*
X-39884089Y4135002D01*
X-39924110Y4114610D01*
X-39924117Y4114606D01*
X-40069123Y4009252D01*
X-40195862Y3882513D01*
X-40301213Y3737511D01*
X-40382587Y3577806D01*
X-40437972Y3407344D01*
X-40466010Y3230321D01*
X-40466010Y3051080D01*
X-40437972Y2874057D01*
X-40382587Y2703595D01*
X-40382586Y2703592D01*
X-40382585Y2703591D01*
X-40301214Y2543891D01*
X-40195862Y2398887D01*
X-40069123Y2272148D01*
X-39924119Y2166796D01*
X-39764419Y2085425D01*
X-39593956Y2030039D01*
X-39505442Y2016020D01*
X-39416930Y2002000D01*
X-39416928Y2002000D01*
X-39237690Y2002000D01*
X-39164814Y2013543D01*
X-39060664Y2030039D01*
X-38890201Y2085425D01*
X-38730501Y2166796D01*
X-38585497Y2272148D01*
X-38458758Y2398887D01*
X-38353406Y2543891D01*
X-38272035Y2703591D01*
X-38216649Y2874054D01*
X-38194145Y3016135D01*
X-38188610Y3051080D01*
X-38188610Y3230321D01*
X-38216649Y3407344D01*
X-38216649Y3407346D01*
X-38272035Y3577809D01*
X-38353406Y3737509D01*
X-38458758Y3882513D01*
X-38585497Y4009252D01*
X-38730501Y4114604D01*
X-38730502Y4114605D01*
X-38730504Y4114606D01*
X-38730511Y4114610D01*
X-38770531Y4135002D01*
X-38776247Y4141695D01*
X-38776810Y4145248D01*
X-38776810Y4368000D01*
X-38773442Y4376132D01*
X-38765310Y4379500D01*
X-32269310Y4379500D01*
X-32261178Y4376132D01*
X-32257810Y4368000D01*
X-32257810Y4145248D01*
X-32261178Y4137116D01*
X-32264089Y4135002D01*
X-32304110Y4114610D01*
X-32304117Y4114606D01*
X-32449123Y4009252D01*
X-32575862Y3882513D01*
X-32681213Y3737511D01*
X-32762587Y3577806D01*
X-32817972Y3407344D01*
X-32846010Y3230321D01*
X-32846010Y3051080D01*
X-32817972Y2874057D01*
X-32762587Y2703595D01*
X-32762586Y2703592D01*
X-32762585Y2703591D01*
X-32681214Y2543891D01*
X-32575862Y2398887D01*
X-32449123Y2272148D01*
X-32304119Y2166796D01*
X-32144419Y2085425D01*
X-31973956Y2030039D01*
X-31885442Y2016020D01*
X-31796930Y2002000D01*
X-31796928Y2002000D01*
X-31617690Y2002000D01*
X-31544814Y2013543D01*
X-31440664Y2030039D01*
X-31270201Y2085425D01*
X-31110501Y2166796D01*
X-30965497Y2272148D01*
X-30838758Y2398887D01*
X-30733406Y2543891D01*
X-30652035Y2703591D01*
X-30596649Y2874054D01*
X-30574145Y3016135D01*
X-30568610Y3051080D01*
X-30568610Y3230321D01*
X-25226000Y3230321D01*
X-25226000Y3051080D01*
X-25197962Y2874057D01*
X-25142577Y2703595D01*
X-25142576Y2703592D01*
X-25142575Y2703591D01*
X-25061204Y2543891D01*
X-24955852Y2398887D01*
X-24829113Y2272148D01*
X-24684109Y2166796D01*
X-24524409Y2085425D01*
X-24353946Y2030039D01*
X-24265432Y2016020D01*
X-24176920Y2002000D01*
X-24176918Y2002000D01*
X-23997680Y2002000D01*
X-23924804Y2013543D01*
X-23820654Y2030039D01*
X-23650191Y2085425D01*
X-23490491Y2166796D01*
X-23345487Y2272148D01*
X-23218748Y2398887D01*
X-23113396Y2543891D01*
X-23032025Y2703591D01*
X-22976639Y2874054D01*
X-22954135Y3016135D01*
X-22948600Y3051080D01*
X-22948600Y3230321D01*
X-20146000Y3230321D01*
X-20146000Y3051080D01*
X-20117962Y2874057D01*
X-20062577Y2703595D01*
X-20062576Y2703592D01*
X-20062575Y2703591D01*
X-19981204Y2543891D01*
X-19875852Y2398887D01*
X-19749113Y2272148D01*
X-19604109Y2166796D01*
X-19444409Y2085425D01*
X-19273946Y2030039D01*
X-19185432Y2016020D01*
X-19096920Y2002000D01*
X-19096918Y2002000D01*
X-18917680Y2002000D01*
X-18844804Y2013543D01*
X-18740654Y2030039D01*
X-18570191Y2085425D01*
X-18410491Y2166796D01*
X-18265487Y2272148D01*
X-18138748Y2398887D01*
X-18033396Y2543891D01*
X-17952025Y2703591D01*
X-17896639Y2874054D01*
X-17874135Y3016135D01*
X-17868600Y3051080D01*
X-17868600Y3230321D01*
X-17606000Y3230321D01*
X-17606000Y3051080D01*
X-17577962Y2874057D01*
X-17522577Y2703595D01*
X-17522576Y2703592D01*
X-17522575Y2703591D01*
X-17441204Y2543891D01*
X-17335852Y2398887D01*
X-17209113Y2272148D01*
X-17064109Y2166796D01*
X-16904409Y2085425D01*
X-16733946Y2030039D01*
X-16645432Y2016020D01*
X-16556920Y2002000D01*
X-16556918Y2002000D01*
X-16377680Y2002000D01*
X-16304804Y2013543D01*
X-16200654Y2030039D01*
X-16030191Y2085425D01*
X-15870491Y2166796D01*
X-15725487Y2272148D01*
X-15598748Y2398887D01*
X-15493396Y2543891D01*
X-15412025Y2703591D01*
X-15356639Y2874054D01*
X-15334135Y3016135D01*
X-15328600Y3051080D01*
X-15328600Y3230321D01*
X-15066000Y3230321D01*
X-15066000Y3051080D01*
X-15037962Y2874057D01*
X-14982577Y2703595D01*
X-14982576Y2703592D01*
X-14982575Y2703591D01*
X-14901204Y2543891D01*
X-14795852Y2398887D01*
X-14669113Y2272148D01*
X-14524109Y2166796D01*
X-14364409Y2085425D01*
X-14193946Y2030039D01*
X-14105432Y2016020D01*
X-14016920Y2002000D01*
X-14016918Y2002000D01*
X-13837680Y2002000D01*
X-13764804Y2013543D01*
X-13660654Y2030039D01*
X-13490191Y2085425D01*
X-13330491Y2166796D01*
X-13185487Y2272148D01*
X-13058748Y2398887D01*
X-12953396Y2543891D01*
X-12872025Y2703591D01*
X-12816639Y2874054D01*
X-12794135Y3016135D01*
X-12788600Y3051080D01*
X-12788600Y3230321D01*
X-12526000Y3230321D01*
X-12526000Y3051080D01*
X-12497962Y2874057D01*
X-12442577Y2703595D01*
X-12442576Y2703592D01*
X-12442575Y2703591D01*
X-12361204Y2543891D01*
X-12255852Y2398887D01*
X-12129113Y2272148D01*
X-11984109Y2166796D01*
X-11824409Y2085425D01*
X-11653946Y2030039D01*
X-11565432Y2016020D01*
X-11476920Y2002000D01*
X-11476918Y2002000D01*
X-11297680Y2002000D01*
X-11224804Y2013543D01*
X-11120654Y2030039D01*
X-10950191Y2085425D01*
X-10790491Y2166796D01*
X-10645487Y2272148D01*
X-10518748Y2398887D01*
X-10413396Y2543891D01*
X-10332025Y2703591D01*
X-10276639Y2874054D01*
X-10254135Y3016135D01*
X-10248600Y3051080D01*
X-10248600Y3230321D01*
X-9986000Y3230321D01*
X-9986000Y3051080D01*
X-9957962Y2874057D01*
X-9902577Y2703595D01*
X-9902576Y2703592D01*
X-9902575Y2703591D01*
X-9821204Y2543891D01*
X-9715852Y2398887D01*
X-9589113Y2272148D01*
X-9444109Y2166796D01*
X-9284409Y2085425D01*
X-9113946Y2030039D01*
X-9025432Y2016020D01*
X-8936920Y2002000D01*
X-8936918Y2002000D01*
X-8757680Y2002000D01*
X-8684804Y2013543D01*
X-8580654Y2030039D01*
X-8410191Y2085425D01*
X-8250491Y2166796D01*
X-8105487Y2272148D01*
X-7978748Y2398887D01*
X-7873396Y2543891D01*
X-7792025Y2703591D01*
X-7736639Y2874054D01*
X-7714135Y3016135D01*
X-7708600Y3051080D01*
X-7708600Y3230321D01*
X-7736639Y3407344D01*
X-7736639Y3407346D01*
X-7792025Y3577809D01*
X-7873396Y3737509D01*
X-7978748Y3882513D01*
X-8105487Y4009252D01*
X-8250491Y4114604D01*
X-8250492Y4114605D01*
X-8250494Y4114606D01*
X-8250501Y4114610D01*
X-8284646Y4132008D01*
X-8290362Y4138701D01*
X-8290925Y4142254D01*
X-8290925Y12010325D01*
X-8287557Y12018457D01*
X-8284650Y12020570D01*
X-8264637Y12030766D01*
X-8124497Y12132584D01*
X-8002011Y12255070D01*
X-7900193Y12395210D01*
X-7821552Y12549553D01*
X-7768023Y12714297D01*
X-7740925Y12885387D01*
X-7740925Y13058609D01*
X-7740925Y13058612D01*
X-7401925Y13058612D01*
X-7401925Y12885385D01*
X-7374828Y12714300D01*
X-7321300Y12549557D01*
X-7321299Y12549554D01*
X-7321298Y12549553D01*
X-7242657Y12395210D01*
X-7140839Y12255070D01*
X-7018353Y12132584D01*
X-6878213Y12030766D01*
X-6723870Y11952125D01*
X-6559126Y11898596D01*
X-6490325Y11887699D01*
X-6388038Y11871498D01*
X-6388036Y11871498D01*
X-6214812Y11871498D01*
X-6146378Y11882338D01*
X-6043724Y11898596D01*
X-5878980Y11952125D01*
X-5724637Y12030766D01*
X-5584497Y12132584D01*
X-5462011Y12255070D01*
X-5360193Y12395210D01*
X-5281552Y12549553D01*
X-5228023Y12714297D01*
X-5200925Y12885387D01*
X-5200925Y13058609D01*
X-5228023Y13229699D01*
X-5281552Y13394443D01*
X-5360193Y13548786D01*
X-5462011Y13688926D01*
X-5584497Y13811412D01*
X-5724637Y13913230D01*
X-5878980Y13991871D01*
X-5878981Y13991872D01*
X-5878984Y13991873D01*
X-6043727Y14045401D01*
X-6214812Y14072498D01*
X-6214814Y14072498D01*
X-6388036Y14072498D01*
X-6388038Y14072498D01*
X-6559124Y14045401D01*
X-6723867Y13991873D01*
X-6878215Y13913229D01*
X-7018353Y13811412D01*
X-7140839Y13688926D01*
X-7242656Y13548788D01*
X-7321300Y13394440D01*
X-7374828Y13229697D01*
X-7401925Y13058612D01*
X-7740925Y13058612D01*
X-7768023Y13229699D01*
X-7821552Y13394443D01*
X-7900193Y13548786D01*
X-8002011Y13688926D01*
X-8124497Y13811412D01*
X-8264637Y13913230D01*
X-8418980Y13991871D01*
X-8418981Y13991872D01*
X-8418984Y13991873D01*
X-8583727Y14045401D01*
X-8754812Y14072498D01*
X-8754814Y14072498D01*
X-8928036Y14072498D01*
X-8928038Y14072498D01*
X-9099124Y14045401D01*
X-9263867Y13991873D01*
X-9418215Y13913229D01*
X-9558353Y13811412D01*
X-9680839Y13688926D01*
X-9782656Y13548788D01*
X-9861300Y13394440D01*
X-9914828Y13229697D01*
X-9941925Y13058612D01*
X-9941925Y12885385D01*
X-9914828Y12714300D01*
X-9861300Y12549557D01*
X-9861299Y12549554D01*
X-9861298Y12549553D01*
X-9782657Y12395210D01*
X-9680839Y12255070D01*
X-9558353Y12132584D01*
X-9418213Y12030766D01*
X-9398203Y12020571D01*
X-9392488Y12013879D01*
X-9391925Y12010325D01*
X-9391925Y4148242D01*
X-9395293Y4140110D01*
X-9398204Y4137996D01*
X-9444100Y4114610D01*
X-9444107Y4114606D01*
X-9589113Y4009252D01*
X-9715852Y3882513D01*
X-9821203Y3737511D01*
X-9902577Y3577806D01*
X-9957962Y3407344D01*
X-9986000Y3230321D01*
X-10248600Y3230321D01*
X-10276639Y3407344D01*
X-10276639Y3407346D01*
X-10332025Y3577809D01*
X-10413396Y3737509D01*
X-10518748Y3882513D01*
X-10645487Y4009252D01*
X-10790491Y4114604D01*
X-10790492Y4114605D01*
X-10790494Y4114606D01*
X-10790501Y4114610D01*
X-10824646Y4132008D01*
X-10830362Y4138701D01*
X-10830925Y4142254D01*
X-10830925Y12010325D01*
X-10827557Y12018457D01*
X-10824650Y12020570D01*
X-10804637Y12030766D01*
X-10664497Y12132584D01*
X-10542011Y12255070D01*
X-10440193Y12395210D01*
X-10361552Y12549553D01*
X-10308023Y12714297D01*
X-10280925Y12885387D01*
X-10280925Y13058609D01*
X-10308023Y13229699D01*
X-10361552Y13394443D01*
X-10440193Y13548786D01*
X-10542011Y13688926D01*
X-10664497Y13811412D01*
X-10804637Y13913230D01*
X-10958980Y13991871D01*
X-10958981Y13991872D01*
X-10958984Y13991873D01*
X-11123727Y14045401D01*
X-11294812Y14072498D01*
X-11294814Y14072498D01*
X-11468036Y14072498D01*
X-11468038Y14072498D01*
X-11639124Y14045401D01*
X-11803867Y13991873D01*
X-11958215Y13913229D01*
X-12098353Y13811412D01*
X-12220839Y13688926D01*
X-12322656Y13548788D01*
X-12401300Y13394440D01*
X-12454828Y13229697D01*
X-12481925Y13058612D01*
X-12481925Y12885385D01*
X-12454828Y12714300D01*
X-12401300Y12549557D01*
X-12401299Y12549554D01*
X-12401298Y12549553D01*
X-12322657Y12395210D01*
X-12220839Y12255070D01*
X-12098353Y12132584D01*
X-11958213Y12030766D01*
X-11938203Y12020571D01*
X-11932488Y12013879D01*
X-11931925Y12010325D01*
X-11931925Y4148242D01*
X-11935293Y4140110D01*
X-11938204Y4137996D01*
X-11984100Y4114610D01*
X-11984107Y4114606D01*
X-12129113Y4009252D01*
X-12255852Y3882513D01*
X-12361203Y3737511D01*
X-12442577Y3577806D01*
X-12497962Y3407344D01*
X-12526000Y3230321D01*
X-12788600Y3230321D01*
X-12816639Y3407344D01*
X-12816639Y3407346D01*
X-12872025Y3577809D01*
X-12953396Y3737509D01*
X-13058748Y3882513D01*
X-13185487Y4009252D01*
X-13330491Y4114604D01*
X-13330492Y4114605D01*
X-13330494Y4114606D01*
X-13330501Y4114610D01*
X-13364646Y4132008D01*
X-13370362Y4138701D01*
X-13370925Y4142254D01*
X-13370925Y12010325D01*
X-13367557Y12018457D01*
X-13364650Y12020570D01*
X-13344637Y12030766D01*
X-13204497Y12132584D01*
X-13082011Y12255070D01*
X-12980193Y12395210D01*
X-12901552Y12549553D01*
X-12848023Y12714297D01*
X-12820925Y12885387D01*
X-12820925Y13058609D01*
X-12848023Y13229699D01*
X-12901552Y13394443D01*
X-12980193Y13548786D01*
X-13082011Y13688926D01*
X-13204497Y13811412D01*
X-13344637Y13913230D01*
X-13498980Y13991871D01*
X-13498981Y13991872D01*
X-13498984Y13991873D01*
X-13663727Y14045401D01*
X-13834812Y14072498D01*
X-13834814Y14072498D01*
X-14008036Y14072498D01*
X-14008038Y14072498D01*
X-14179124Y14045401D01*
X-14343867Y13991873D01*
X-14498215Y13913229D01*
X-14638353Y13811412D01*
X-14760839Y13688926D01*
X-14862656Y13548788D01*
X-14941300Y13394440D01*
X-14994828Y13229697D01*
X-15021925Y13058612D01*
X-15021925Y12885385D01*
X-14994828Y12714300D01*
X-14941300Y12549557D01*
X-14941299Y12549554D01*
X-14941298Y12549553D01*
X-14862657Y12395210D01*
X-14760839Y12255070D01*
X-14638353Y12132584D01*
X-14498213Y12030766D01*
X-14478203Y12020571D01*
X-14472488Y12013879D01*
X-14471925Y12010325D01*
X-14471925Y4148242D01*
X-14475293Y4140110D01*
X-14478204Y4137996D01*
X-14524100Y4114610D01*
X-14524107Y4114606D01*
X-14669113Y4009252D01*
X-14795852Y3882513D01*
X-14901203Y3737511D01*
X-14982577Y3577806D01*
X-15037962Y3407344D01*
X-15066000Y3230321D01*
X-15328600Y3230321D01*
X-15356639Y3407344D01*
X-15356639Y3407346D01*
X-15412025Y3577809D01*
X-15493396Y3737509D01*
X-15598748Y3882513D01*
X-15725487Y4009252D01*
X-15870491Y4114604D01*
X-15870492Y4114605D01*
X-15870494Y4114606D01*
X-15870501Y4114610D01*
X-15904646Y4132008D01*
X-15910362Y4138701D01*
X-15910925Y4142254D01*
X-15910925Y12010325D01*
X-15907557Y12018457D01*
X-15904650Y12020570D01*
X-15884637Y12030766D01*
X-15744497Y12132584D01*
X-15622011Y12255070D01*
X-15520193Y12395210D01*
X-15441552Y12549553D01*
X-15388023Y12714297D01*
X-15360925Y12885387D01*
X-15360925Y13058609D01*
X-15388023Y13229699D01*
X-15441552Y13394443D01*
X-15520193Y13548786D01*
X-15622011Y13688926D01*
X-15744497Y13811412D01*
X-15884637Y13913230D01*
X-16038980Y13991871D01*
X-16038981Y13991872D01*
X-16038984Y13991873D01*
X-16203727Y14045401D01*
X-16374812Y14072498D01*
X-16374814Y14072498D01*
X-16548036Y14072498D01*
X-16548038Y14072498D01*
X-16719124Y14045401D01*
X-16883867Y13991873D01*
X-17038215Y13913229D01*
X-17178353Y13811412D01*
X-17300839Y13688926D01*
X-17402656Y13548788D01*
X-17481300Y13394440D01*
X-17534828Y13229697D01*
X-17561925Y13058612D01*
X-17561925Y12885385D01*
X-17534828Y12714300D01*
X-17481300Y12549557D01*
X-17481299Y12549554D01*
X-17481298Y12549553D01*
X-17402657Y12395210D01*
X-17300839Y12255070D01*
X-17178353Y12132584D01*
X-17038213Y12030766D01*
X-17018203Y12020571D01*
X-17012488Y12013879D01*
X-17011925Y12010325D01*
X-17011925Y4148242D01*
X-17015293Y4140110D01*
X-17018204Y4137996D01*
X-17064100Y4114610D01*
X-17064107Y4114606D01*
X-17209113Y4009252D01*
X-17335852Y3882513D01*
X-17441203Y3737511D01*
X-17522577Y3577806D01*
X-17577962Y3407344D01*
X-17606000Y3230321D01*
X-17868600Y3230321D01*
X-17896639Y3407344D01*
X-17896639Y3407346D01*
X-17952025Y3577809D01*
X-18033396Y3737509D01*
X-18138748Y3882513D01*
X-18265487Y4009252D01*
X-18410491Y4114604D01*
X-18410492Y4114605D01*
X-18410494Y4114606D01*
X-18410501Y4114610D01*
X-18444646Y4132008D01*
X-18450362Y4138701D01*
X-18450925Y4142254D01*
X-18450925Y12010325D01*
X-18447557Y12018457D01*
X-18444650Y12020570D01*
X-18424637Y12030766D01*
X-18284497Y12132584D01*
X-18162011Y12255070D01*
X-18060193Y12395210D01*
X-17981552Y12549553D01*
X-17928023Y12714297D01*
X-17900925Y12885387D01*
X-17900925Y13058609D01*
X-17928023Y13229699D01*
X-17981552Y13394443D01*
X-18060193Y13548786D01*
X-18162011Y13688926D01*
X-18284497Y13811412D01*
X-18424637Y13913230D01*
X-18578980Y13991871D01*
X-18578981Y13991872D01*
X-18578984Y13991873D01*
X-18743727Y14045401D01*
X-18914812Y14072498D01*
X-18914814Y14072498D01*
X-19088036Y14072498D01*
X-19088038Y14072498D01*
X-19259124Y14045401D01*
X-19423867Y13991873D01*
X-19578215Y13913229D01*
X-19718353Y13811412D01*
X-19840839Y13688926D01*
X-19942656Y13548788D01*
X-20021300Y13394440D01*
X-20074828Y13229697D01*
X-20101925Y13058612D01*
X-20101925Y12885385D01*
X-20074828Y12714300D01*
X-20021300Y12549557D01*
X-20021299Y12549554D01*
X-20021298Y12549553D01*
X-19942657Y12395210D01*
X-19840839Y12255070D01*
X-19718353Y12132584D01*
X-19578213Y12030766D01*
X-19558203Y12020571D01*
X-19552488Y12013879D01*
X-19551925Y12010325D01*
X-19551925Y4148242D01*
X-19555293Y4140110D01*
X-19558204Y4137996D01*
X-19604100Y4114610D01*
X-19604107Y4114606D01*
X-19749113Y4009252D01*
X-19875852Y3882513D01*
X-19981203Y3737511D01*
X-20062577Y3577806D01*
X-20117962Y3407344D01*
X-20146000Y3230321D01*
X-22948600Y3230321D01*
X-22976639Y3407344D01*
X-22976639Y3407346D01*
X-23032025Y3577809D01*
X-23113396Y3737509D01*
X-23218748Y3882513D01*
X-23345487Y4009252D01*
X-23490491Y4114604D01*
X-23650191Y4195975D01*
X-23650192Y4195976D01*
X-23650195Y4195977D01*
X-23820657Y4251362D01*
X-23997680Y4279400D01*
X-23997682Y4279400D01*
X-24176918Y4279400D01*
X-24176920Y4279400D01*
X-24353944Y4251362D01*
X-24524406Y4195977D01*
X-24684111Y4114603D01*
X-24829113Y4009252D01*
X-24955852Y3882513D01*
X-25061203Y3737511D01*
X-25142577Y3577806D01*
X-25197962Y3407344D01*
X-25226000Y3230321D01*
X-30568610Y3230321D01*
X-30596649Y3407344D01*
X-30596649Y3407346D01*
X-30652035Y3577809D01*
X-30733406Y3737509D01*
X-30838758Y3882513D01*
X-30965497Y4009252D01*
X-31110501Y4114604D01*
X-31110502Y4114605D01*
X-31110504Y4114606D01*
X-31110511Y4114610D01*
X-31150531Y4135002D01*
X-31156247Y4141695D01*
X-31156810Y4145248D01*
X-31156810Y7653326D01*
X-31153443Y7661457D01*
X-28784352Y10030549D01*
X-27815500Y10030549D01*
X-27815500Y9849452D01*
X-27787172Y9670594D01*
X-27731213Y9498365D01*
X-27731212Y9498362D01*
X-27731211Y9498361D01*
X-27648996Y9337006D01*
X-27542553Y9190499D01*
X-27414501Y9062447D01*
X-27267994Y8956004D01*
X-27106639Y8873789D01*
X-26934409Y8817829D01*
X-26844978Y8803665D01*
X-26755548Y8789500D01*
X-26755546Y8789500D01*
X-26574452Y8789500D01*
X-26502909Y8800832D01*
X-26395591Y8817829D01*
X-26223361Y8873789D01*
X-26062006Y8956004D01*
X-25915499Y9062447D01*
X-25787447Y9190499D01*
X-25681004Y9337006D01*
X-25598789Y9498361D01*
X-25542829Y9670591D01*
X-25514500Y9849454D01*
X-25514500Y10030546D01*
X-25514500Y10030549D01*
X-25275500Y10030549D01*
X-25275500Y9849452D01*
X-25247172Y9670594D01*
X-25191213Y9498365D01*
X-25191212Y9498362D01*
X-25191211Y9498361D01*
X-25108996Y9337006D01*
X-25002553Y9190499D01*
X-24874501Y9062447D01*
X-24727994Y8956004D01*
X-24566639Y8873789D01*
X-24394409Y8817829D01*
X-24304978Y8803665D01*
X-24215548Y8789500D01*
X-24215546Y8789500D01*
X-24034452Y8789500D01*
X-23962909Y8800832D01*
X-23855591Y8817829D01*
X-23683361Y8873789D01*
X-23522006Y8956004D01*
X-23375499Y9062447D01*
X-23247447Y9190499D01*
X-23141004Y9337006D01*
X-23058789Y9498361D01*
X-23002829Y9670591D01*
X-22974500Y9849454D01*
X-22974500Y10030546D01*
X-22975860Y10039130D01*
X-23002829Y10209407D01*
X-23002829Y10209409D01*
X-23058789Y10381639D01*
X-23141004Y10542994D01*
X-23247447Y10689501D01*
X-23375499Y10817553D01*
X-23522006Y10923996D01*
X-23522007Y10923997D01*
X-23522009Y10923998D01*
X-23522016Y10924002D01*
X-23568221Y10947545D01*
X-23573937Y10954237D01*
X-23574500Y10957791D01*
X-23574500Y11988123D01*
X-23571132Y11996255D01*
X-23568225Y11998368D01*
X-23504637Y12030766D01*
X-23364497Y12132584D01*
X-23242011Y12255070D01*
X-23140193Y12395210D01*
X-23061552Y12549553D01*
X-23008023Y12714297D01*
X-22980925Y12885387D01*
X-22980925Y13058609D01*
X-23008023Y13229699D01*
X-23061552Y13394443D01*
X-23140193Y13548786D01*
X-23242011Y13688926D01*
X-23364497Y13811412D01*
X-23504637Y13913230D01*
X-23658980Y13991871D01*
X-23658981Y13991872D01*
X-23658984Y13991873D01*
X-23823727Y14045401D01*
X-23994812Y14072498D01*
X-23994814Y14072498D01*
X-24168036Y14072498D01*
X-24168038Y14072498D01*
X-24339124Y14045401D01*
X-24503867Y13991873D01*
X-24658215Y13913229D01*
X-24798353Y13811412D01*
X-24920839Y13688926D01*
X-25022656Y13548788D01*
X-25101300Y13394440D01*
X-25154828Y13229697D01*
X-25181925Y13058612D01*
X-25181925Y12885385D01*
X-25154828Y12714300D01*
X-25101300Y12549557D01*
X-25101299Y12549554D01*
X-25101298Y12549553D01*
X-25022657Y12395210D01*
X-24920839Y12255070D01*
X-24798353Y12132584D01*
X-24688051Y12052445D01*
X-24680240Y12046770D01*
X-24675642Y12039265D01*
X-24675500Y12037466D01*
X-24675500Y10957791D01*
X-24678868Y10949659D01*
X-24681779Y10947545D01*
X-24727985Y10924002D01*
X-24727992Y10923998D01*
X-24874501Y10817553D01*
X-25002553Y10689501D01*
X-25108995Y10542996D01*
X-25191213Y10381636D01*
X-25247172Y10209407D01*
X-25275500Y10030549D01*
X-25514500Y10030549D01*
X-25515860Y10039130D01*
X-25542829Y10209407D01*
X-25542829Y10209409D01*
X-25598789Y10381639D01*
X-25681004Y10542994D01*
X-25787447Y10689501D01*
X-25915499Y10817553D01*
X-26062006Y10923996D01*
X-26223361Y11006211D01*
X-26223362Y11006212D01*
X-26223365Y11006213D01*
X-26395594Y11062172D01*
X-26574452Y11090500D01*
X-26574454Y11090500D01*
X-26755546Y11090500D01*
X-26755548Y11090500D01*
X-26934407Y11062172D01*
X-27106636Y11006213D01*
X-27267996Y10923995D01*
X-27414501Y10817553D01*
X-27542553Y10689501D01*
X-27648995Y10542996D01*
X-27731213Y10381636D01*
X-27787172Y10209407D01*
X-27815500Y10030549D01*
X-28784352Y10030549D01*
X-26912169Y11902732D01*
X-26904038Y11906099D01*
X-26900484Y11905536D01*
X-26895301Y11903852D01*
X-26879126Y11898596D01*
X-26810325Y11887699D01*
X-26708038Y11871498D01*
X-26708036Y11871498D01*
X-26534812Y11871498D01*
X-26466378Y11882338D01*
X-26363724Y11898596D01*
X-26198980Y11952125D01*
X-26044637Y12030766D01*
X-25904497Y12132584D01*
X-25782011Y12255070D01*
X-25680193Y12395210D01*
X-25601552Y12549553D01*
X-25548023Y12714297D01*
X-25520925Y12885387D01*
X-25520925Y13058609D01*
X-25548023Y13229699D01*
X-25601552Y13394443D01*
X-25680193Y13548786D01*
X-25782011Y13688926D01*
X-25904497Y13811412D01*
X-26041629Y13911044D01*
X-26046225Y13918547D01*
X-26044171Y13927106D01*
X-26043005Y13928472D01*
X-21100915Y18870560D01*
X-21028441Y18996090D01*
X-21028193Y18997016D01*
X-20990925Y19136100D01*
X-20990925Y19630325D01*
X-20987557Y19638457D01*
X-20984650Y19640570D01*
X-20964637Y19650766D01*
X-20824497Y19752584D01*
X-20702011Y19875070D01*
X-20600193Y20015210D01*
X-20521552Y20169553D01*
X-20468023Y20334297D01*
X-20440925Y20505387D01*
X-20440925Y20678609D01*
X-20440925Y20678612D01*
X-20101925Y20678612D01*
X-20101925Y20505385D01*
X-20074828Y20334300D01*
X-20021300Y20169557D01*
X-20021299Y20169554D01*
X-20021298Y20169553D01*
X-19942657Y20015210D01*
X-19840839Y19875070D01*
X-19718353Y19752584D01*
X-19578213Y19650766D01*
X-19423870Y19572125D01*
X-19259126Y19518596D01*
X-19173581Y19505047D01*
X-19088038Y19491498D01*
X-19088036Y19491498D01*
X-18914812Y19491498D01*
X-18846378Y19502338D01*
X-18743724Y19518596D01*
X-18578980Y19572125D01*
X-18424637Y19650766D01*
X-18284497Y19752584D01*
X-18162011Y19875070D01*
X-18060193Y20015210D01*
X-17981552Y20169553D01*
X-17928023Y20334297D01*
X-17900925Y20505387D01*
X-17900925Y20678609D01*
X-17900925Y20678612D01*
X-17561925Y20678612D01*
X-17561925Y20505385D01*
X-17534828Y20334300D01*
X-17481300Y20169557D01*
X-17481299Y20169554D01*
X-17481298Y20169553D01*
X-17402657Y20015210D01*
X-17300839Y19875070D01*
X-17178353Y19752584D01*
X-17038213Y19650766D01*
X-16883870Y19572125D01*
X-16719126Y19518596D01*
X-16633581Y19505047D01*
X-16548038Y19491498D01*
X-16548036Y19491498D01*
X-16374812Y19491498D01*
X-16306378Y19502338D01*
X-16203724Y19518596D01*
X-16038980Y19572125D01*
X-15884637Y19650766D01*
X-15744497Y19752584D01*
X-15622011Y19875070D01*
X-15520193Y20015210D01*
X-15441552Y20169553D01*
X-15388023Y20334297D01*
X-15360925Y20505387D01*
X-15360925Y20678609D01*
X-15360925Y20678612D01*
X-15021925Y20678612D01*
X-15021925Y20505385D01*
X-14994828Y20334300D01*
X-14941300Y20169557D01*
X-14941299Y20169554D01*
X-14941298Y20169553D01*
X-14862657Y20015210D01*
X-14760839Y19875070D01*
X-14638353Y19752584D01*
X-14498213Y19650766D01*
X-14343870Y19572125D01*
X-14179126Y19518596D01*
X-14093581Y19505047D01*
X-14008038Y19491498D01*
X-14008036Y19491498D01*
X-13834812Y19491498D01*
X-13766378Y19502338D01*
X-13663724Y19518596D01*
X-13498980Y19572125D01*
X-13344637Y19650766D01*
X-13204497Y19752584D01*
X-13082011Y19875070D01*
X-12980193Y20015210D01*
X-12901552Y20169553D01*
X-12848023Y20334297D01*
X-12820925Y20505387D01*
X-12820925Y20678609D01*
X-12848023Y20849699D01*
X-12854963Y20871057D01*
X-12854273Y20879832D01*
X-12852161Y20882740D01*
X-11979490Y21755409D01*
X-11953384Y21800628D01*
X-11946402Y21805985D01*
X-11937675Y21804836D01*
X-11932317Y21797854D01*
X-11931925Y21794877D01*
X-11931925Y21553672D01*
X-11935293Y21545540D01*
X-11938204Y21543426D01*
X-11958204Y21533236D01*
X-11958211Y21533232D01*
X-12098353Y21431412D01*
X-12220839Y21308926D01*
X-12322656Y21168788D01*
X-12401300Y21014440D01*
X-12454828Y20849697D01*
X-12481925Y20678612D01*
X-12481925Y20505385D01*
X-12454828Y20334300D01*
X-12401300Y20169557D01*
X-12401299Y20169554D01*
X-12401298Y20169553D01*
X-12322657Y20015210D01*
X-12220839Y19875070D01*
X-12098353Y19752584D01*
X-11958213Y19650766D01*
X-11803870Y19572125D01*
X-11639126Y19518596D01*
X-11553581Y19505047D01*
X-11468038Y19491498D01*
X-11468036Y19491498D01*
X-11294812Y19491498D01*
X-11226378Y19502338D01*
X-11123724Y19518596D01*
X-10958980Y19572125D01*
X-10804637Y19650766D01*
X-10664497Y19752584D01*
X-10542011Y19875070D01*
X-10440193Y20015210D01*
X-10361552Y20169553D01*
X-10308023Y20334297D01*
X-10280925Y20505387D01*
X-10280925Y20678609D01*
X-10308023Y20849699D01*
X-10361552Y21014443D01*
X-10440193Y21168786D01*
X-10542011Y21308926D01*
X-10664497Y21431412D01*
X-10804637Y21533230D01*
X-10804638Y21533231D01*
X-10804640Y21533232D01*
X-10804647Y21533236D01*
X-10824646Y21543426D01*
X-10830362Y21550119D01*
X-10830925Y21553672D01*
X-10830925Y45032475D01*
X-10420500Y45032475D01*
X-10420500Y24297526D01*
X-10405099Y24240049D01*
X-10382986Y24157521D01*
X-10382982Y24157511D01*
X-10310511Y24031986D01*
X-9395293Y23116768D01*
X-9391925Y23108636D01*
X-9391925Y21553672D01*
X-9395293Y21545540D01*
X-9398204Y21543426D01*
X-9418204Y21533236D01*
X-9418211Y21533232D01*
X-9558353Y21431412D01*
X-9680839Y21308926D01*
X-9782656Y21168788D01*
X-9861300Y21014440D01*
X-9914828Y20849697D01*
X-9941925Y20678612D01*
X-9941925Y20505385D01*
X-9914828Y20334300D01*
X-9861300Y20169557D01*
X-9861299Y20169554D01*
X-9861298Y20169553D01*
X-9782657Y20015210D01*
X-9680839Y19875070D01*
X-9558353Y19752584D01*
X-9418213Y19650766D01*
X-9263870Y19572125D01*
X-9099126Y19518596D01*
X-9013581Y19505047D01*
X-8928038Y19491498D01*
X-8928036Y19491498D01*
X-8754812Y19491498D01*
X-8686378Y19502338D01*
X-8583724Y19518596D01*
X-8418980Y19572125D01*
X-8264637Y19650766D01*
X-8124497Y19752584D01*
X-8002011Y19875070D01*
X-7900193Y20015210D01*
X-7821552Y20169553D01*
X-7768023Y20334297D01*
X-7740925Y20505387D01*
X-7740925Y20678609D01*
X-7768023Y20849699D01*
X-7821552Y21014443D01*
X-7900193Y21168786D01*
X-8002011Y21308926D01*
X-8124497Y21431412D01*
X-8264637Y21533230D01*
X-8264638Y21533231D01*
X-8264640Y21533232D01*
X-8264647Y21533236D01*
X-8284646Y21543426D01*
X-8290362Y21550119D01*
X-8290925Y21553672D01*
X-8290925Y23413900D01*
X-8297256Y23437526D01*
X-8328441Y23553910D01*
X-8344932Y23582474D01*
X-8400915Y23679440D01*
X-9316132Y24594657D01*
X-9319500Y24602789D01*
X-9319500Y27360549D01*
X-8840500Y27360549D01*
X-8840500Y27179452D01*
X-8812172Y27000594D01*
X-8756213Y26828365D01*
X-8756212Y26828362D01*
X-8756211Y26828361D01*
X-8673996Y26667006D01*
X-8567553Y26520499D01*
X-8439501Y26392447D01*
X-8292994Y26286004D01*
X-8131639Y26203789D01*
X-7959409Y26147829D01*
X-7869978Y26133665D01*
X-7780548Y26119500D01*
X-7780546Y26119500D01*
X-7599452Y26119500D01*
X-7527909Y26130832D01*
X-7420591Y26147829D01*
X-7248361Y26203789D01*
X-7087006Y26286004D01*
X-6940499Y26392447D01*
X-6812447Y26520499D01*
X-6706004Y26667006D01*
X-6695579Y26687468D01*
X-6682455Y26713221D01*
X-6675762Y26718937D01*
X-6672209Y26719500D01*
X-5133086Y26719500D01*
X-5124954Y26716132D01*
X-5122841Y26713223D01*
X-5119861Y26707375D01*
X-5018043Y26567235D01*
X-4895557Y26444749D01*
X-4755417Y26342931D01*
X-4601074Y26264290D01*
X-4436330Y26210761D01*
X-4350785Y26197212D01*
X-4265242Y26183663D01*
X-4265240Y26183663D01*
X-4092016Y26183663D01*
X-4023582Y26194503D01*
X-3920928Y26210761D01*
X-3756184Y26264290D01*
X-3601841Y26342931D01*
X-3461701Y26444749D01*
X-3339215Y26567235D01*
X-3237397Y26707375D01*
X-3158756Y26861718D01*
X-3105227Y27026462D01*
X-3078129Y27197552D01*
X-3078129Y27370774D01*
X-3105227Y27541864D01*
X-3158756Y27706608D01*
X-3237397Y27860951D01*
X-3339215Y28001091D01*
X-3461701Y28123577D01*
X-3601841Y28225395D01*
X-3756184Y28304036D01*
X-3756185Y28304037D01*
X-3756188Y28304038D01*
X-3920931Y28357566D01*
X-4092016Y28384663D01*
X-4092018Y28384663D01*
X-4265240Y28384663D01*
X-4265242Y28384663D01*
X-4436328Y28357566D01*
X-4601071Y28304038D01*
X-4755419Y28225394D01*
X-4895557Y28123577D01*
X-5018043Y28001091D01*
X-5119863Y27860949D01*
X-5119867Y27860942D01*
X-5137274Y27826779D01*
X-5143967Y27821063D01*
X-5147520Y27820500D01*
X-6672209Y27820500D01*
X-6680341Y27823868D01*
X-6682455Y27826779D01*
X-6699869Y27860953D01*
X-6706004Y27872994D01*
X-6812447Y28019501D01*
X-6940499Y28147553D01*
X-7087006Y28253996D01*
X-7248361Y28336211D01*
X-7248362Y28336212D01*
X-7248365Y28336213D01*
X-7420594Y28392172D01*
X-7599452Y28420500D01*
X-7599454Y28420500D01*
X-7780546Y28420500D01*
X-7780548Y28420500D01*
X-7959407Y28392172D01*
X-8131636Y28336213D01*
X-8292996Y28253995D01*
X-8439501Y28147553D01*
X-8567553Y28019501D01*
X-8673995Y27872996D01*
X-8756213Y27711636D01*
X-8812172Y27539407D01*
X-8840500Y27360549D01*
X-9319500Y27360549D01*
X-9319500Y29900549D01*
X-8840500Y29900549D01*
X-8840500Y29719452D01*
X-8812172Y29540594D01*
X-8756213Y29368365D01*
X-8756212Y29368362D01*
X-8756211Y29368361D01*
X-8673996Y29207006D01*
X-8567553Y29060499D01*
X-8439501Y28932447D01*
X-8292994Y28826004D01*
X-8131639Y28743789D01*
X-7959409Y28687829D01*
X-7869978Y28673665D01*
X-7780548Y28659500D01*
X-7780546Y28659500D01*
X-7599452Y28659500D01*
X-7527909Y28670832D01*
X-7420591Y28687829D01*
X-7248361Y28743789D01*
X-7087006Y28826004D01*
X-6940499Y28932447D01*
X-6812447Y29060499D01*
X-6706004Y29207006D01*
X-6623789Y29368361D01*
X-6567829Y29540591D01*
X-6539500Y29719454D01*
X-6539500Y29900546D01*
X-6567829Y30079409D01*
X-6623789Y30251639D01*
X-6706004Y30412994D01*
X-6812447Y30559501D01*
X-6940499Y30687553D01*
X-7087006Y30793996D01*
X-7248361Y30876211D01*
X-7248362Y30876212D01*
X-7248365Y30876213D01*
X-7420594Y30932172D01*
X-7599452Y30960500D01*
X-7599454Y30960500D01*
X-7780546Y30960500D01*
X-7780548Y30960500D01*
X-7959407Y30932172D01*
X-8131636Y30876213D01*
X-8292996Y30793995D01*
X-8439501Y30687553D01*
X-8567553Y30559501D01*
X-8673995Y30412996D01*
X-8756213Y30251636D01*
X-8812172Y30079407D01*
X-8840500Y29900549D01*
X-9319500Y29900549D01*
X-9319500Y31788000D01*
X-9316132Y31796132D01*
X-9308000Y31799500D01*
X-8707791Y31799500D01*
X-8699659Y31796132D01*
X-8697545Y31793221D01*
X-8674666Y31748320D01*
X-8673996Y31747006D01*
X-8567553Y31600499D01*
X-8439501Y31472447D01*
X-8292994Y31366004D01*
X-8131639Y31283789D01*
X-7959409Y31227829D01*
X-7869978Y31213665D01*
X-7780548Y31199500D01*
X-7780546Y31199500D01*
X-7599452Y31199500D01*
X-7527909Y31210832D01*
X-7420591Y31227829D01*
X-7248361Y31283789D01*
X-7087006Y31366004D01*
X-6940499Y31472447D01*
X-6812447Y31600499D01*
X-6706004Y31747006D01*
X-6623789Y31908361D01*
X-6567829Y32080591D01*
X-6539500Y32259454D01*
X-6539500Y32440546D01*
X-6567829Y32619409D01*
X-6623789Y32791639D01*
X-6706004Y32952994D01*
X-6812447Y33099501D01*
X-6940499Y33227553D01*
X-7087006Y33333996D01*
X-7248361Y33416211D01*
X-7248362Y33416212D01*
X-7248365Y33416213D01*
X-7420594Y33472172D01*
X-7599452Y33500500D01*
X-7599454Y33500500D01*
X-7780546Y33500500D01*
X-7780548Y33500500D01*
X-7959407Y33472172D01*
X-8131636Y33416213D01*
X-8292996Y33333995D01*
X-8391435Y33262475D01*
X-8439501Y33227553D01*
X-8567553Y33099501D01*
X-8673994Y32952996D01*
X-8673998Y32952991D01*
X-8697545Y32906779D01*
X-8704238Y32901063D01*
X-8707791Y32900500D01*
X-9308000Y32900500D01*
X-9316132Y32903868D01*
X-9319500Y32912000D01*
X-9319500Y34980549D01*
X-8840500Y34980549D01*
X-8840500Y34799452D01*
X-8812172Y34620594D01*
X-8756213Y34448365D01*
X-8756212Y34448362D01*
X-8756211Y34448361D01*
X-8673996Y34287006D01*
X-8567553Y34140499D01*
X-8439501Y34012447D01*
X-8292994Y33906004D01*
X-8131639Y33823789D01*
X-7959409Y33767829D01*
X-7869978Y33753665D01*
X-7780548Y33739500D01*
X-7780546Y33739500D01*
X-7599452Y33739500D01*
X-7527909Y33750832D01*
X-7420591Y33767829D01*
X-7248361Y33823789D01*
X-7087006Y33906004D01*
X-6940499Y34012447D01*
X-6812447Y34140499D01*
X-6706004Y34287006D01*
X-6623789Y34448361D01*
X-6567829Y34620591D01*
X-6539500Y34799454D01*
X-6539500Y34980546D01*
X-6567829Y35159409D01*
X-6623789Y35331639D01*
X-6706004Y35492994D01*
X-6812447Y35639501D01*
X-6940499Y35767553D01*
X-7087006Y35873996D01*
X-7248361Y35956211D01*
X-7248362Y35956212D01*
X-7248365Y35956213D01*
X-7420594Y36012172D01*
X-7599452Y36040500D01*
X-7599454Y36040500D01*
X-7780546Y36040500D01*
X-7780548Y36040500D01*
X-7959407Y36012172D01*
X-8131636Y35956213D01*
X-8292996Y35873995D01*
X-8439501Y35767553D01*
X-8567553Y35639501D01*
X-8673995Y35492996D01*
X-8756213Y35331636D01*
X-8812172Y35159407D01*
X-8840500Y34980549D01*
X-9319500Y34980549D01*
X-9319500Y37520549D01*
X-8840500Y37520549D01*
X-8840500Y37339452D01*
X-8812172Y37160594D01*
X-8756213Y36988365D01*
X-8756212Y36988362D01*
X-8756211Y36988361D01*
X-8673996Y36827006D01*
X-8567553Y36680499D01*
X-8439501Y36552447D01*
X-8292994Y36446004D01*
X-8131639Y36363789D01*
X-7959409Y36307829D01*
X-7869978Y36293665D01*
X-7780548Y36279500D01*
X-7780546Y36279500D01*
X-7599452Y36279500D01*
X-7563116Y36285255D01*
X-5667800Y36285255D01*
X-5667800Y36036125D01*
X-5635282Y35789125D01*
X-5635281Y35789121D01*
X-5635280Y35789114D01*
X-5635280Y35789113D01*
X-5570804Y35548489D01*
X-5570804Y35548488D01*
X-5475463Y35318314D01*
X-5350902Y35102567D01*
X-5350900Y35102564D01*
X-5350899Y35102563D01*
X-5199238Y34904914D01*
X-5023076Y34728752D01*
X-4825427Y34577091D01*
X-4825424Y34577089D01*
X-4609677Y34452528D01*
X-4609676Y34452528D01*
X-4609673Y34452526D01*
X-4379507Y34357188D01*
X-4379503Y34357187D01*
X-4138877Y34292711D01*
X-4138876Y34292711D01*
X-4138865Y34292708D01*
X-3891865Y34260190D01*
X-3891861Y34260190D01*
X-3642739Y34260190D01*
X-3642735Y34260190D01*
X-3395735Y34292708D01*
X-3395724Y34292711D01*
X-3395723Y34292711D01*
X-3332754Y34309584D01*
X-3155093Y34357188D01*
X-2924927Y34452526D01*
X-2709173Y34577091D01*
X-2511524Y34728752D01*
X-2335362Y34904914D01*
X-2183701Y35102563D01*
X-2059136Y35318317D01*
X-1963798Y35548483D01*
X-1905098Y35767553D01*
X-1899321Y35789113D01*
X-1899321Y35789114D01*
X-1899322Y35789114D01*
X-1899318Y35789125D01*
X-1866800Y36036125D01*
X-1866800Y36285255D01*
X-1899318Y36532255D01*
X-1904729Y36552448D01*
X-1963797Y36772892D01*
X-1963797Y36772893D01*
X-1963798Y36772897D01*
X-2059136Y37003063D01*
X-2183701Y37218817D01*
X-2335362Y37416466D01*
X-2511524Y37592628D01*
X-2709173Y37744289D01*
X-2709174Y37744290D01*
X-2709177Y37744292D01*
X-2924924Y37868853D01*
X-3155098Y37964194D01*
X-3395724Y38028670D01*
X-3395731Y38028671D01*
X-3395735Y38028672D01*
X-3595156Y38054927D01*
X-3642734Y38061190D01*
X-3642735Y38061190D01*
X-3891865Y38061190D01*
X-3891867Y38061190D01*
X-3987025Y38048663D01*
X-4138865Y38028672D01*
X-4138869Y38028672D01*
X-4138877Y38028670D01*
X-4138878Y38028670D01*
X-4379502Y37964194D01*
X-4379503Y37964194D01*
X-4609677Y37868853D01*
X-4825424Y37744292D01*
X-4883916Y37699409D01*
X-5023076Y37592628D01*
X-5023081Y37592623D01*
X-5023083Y37592622D01*
X-5199232Y37416473D01*
X-5199233Y37416471D01*
X-5199238Y37416466D01*
X-5294027Y37292936D01*
X-5350902Y37218814D01*
X-5475463Y37003067D01*
X-5570804Y36772893D01*
X-5570804Y36772892D01*
X-5635280Y36532268D01*
X-5635280Y36532267D01*
X-5664476Y36310500D01*
X-5667800Y36285255D01*
X-7563116Y36285255D01*
X-7489029Y36296989D01*
X-7452941Y36302706D01*
X-7420591Y36307829D01*
X-7248361Y36363789D01*
X-7087006Y36446004D01*
X-6940499Y36552447D01*
X-6812447Y36680499D01*
X-6706004Y36827006D01*
X-6623789Y36988361D01*
X-6567829Y37160591D01*
X-6539500Y37339454D01*
X-6539500Y37520546D01*
X-6550917Y37592628D01*
X-6567829Y37699407D01*
X-6567829Y37699409D01*
X-6623789Y37871639D01*
X-6706004Y38032994D01*
X-6812447Y38179501D01*
X-6940499Y38307553D01*
X-7087006Y38413996D01*
X-7248361Y38496211D01*
X-7248362Y38496212D01*
X-7248365Y38496213D01*
X-7420594Y38552172D01*
X-7599452Y38580500D01*
X-7599454Y38580500D01*
X-7780546Y38580500D01*
X-7780548Y38580500D01*
X-7959407Y38552172D01*
X-8131636Y38496213D01*
X-8292996Y38413995D01*
X-8439501Y38307553D01*
X-8567553Y38179501D01*
X-8673995Y38032996D01*
X-8756213Y37871636D01*
X-8812172Y37699407D01*
X-8840500Y37520549D01*
X-9319500Y37520549D01*
X-9319500Y44727212D01*
X-9316132Y44735344D01*
X-7646790Y46404686D01*
X-5866790Y48184686D01*
X-5794316Y48310215D01*
X-5756800Y48450226D01*
X-5756800Y48595174D01*
X-5756800Y50396154D01*
X-5753432Y50404286D01*
X-5750525Y50406399D01*
X-5710491Y50426796D01*
X-5565487Y50532148D01*
X-5438748Y50658887D01*
X-5333396Y50803891D01*
X-5252025Y50963591D01*
X-5196639Y51134054D01*
X-5174135Y51276135D01*
X-5168600Y51311080D01*
X-5168600Y51490321D01*
X-5196639Y51667344D01*
X-5196639Y51667346D01*
X-5252025Y51837809D01*
X-5333396Y51997509D01*
X-5438748Y52142513D01*
X-5565487Y52269252D01*
X-5710491Y52374604D01*
X-5870191Y52455975D01*
X-5870192Y52455976D01*
X-5870195Y52455977D01*
X-6040657Y52511362D01*
X-6217680Y52539400D01*
X-6217682Y52539400D01*
X-6396918Y52539400D01*
X-6396920Y52539400D01*
X-6573944Y52511362D01*
X-6744406Y52455977D01*
X-6904111Y52374603D01*
X-7049113Y52269252D01*
X-7175852Y52142513D01*
X-7281203Y51997511D01*
X-7362577Y51837806D01*
X-7417962Y51667344D01*
X-7446000Y51490321D01*
X-7446000Y51311080D01*
X-7417962Y51134057D01*
X-7362577Y50963595D01*
X-7362576Y50963592D01*
X-7362575Y50963591D01*
X-7281204Y50803891D01*
X-7175852Y50658887D01*
X-7049113Y50532148D01*
X-6904109Y50426796D01*
X-6864078Y50406400D01*
X-6858363Y50399708D01*
X-6857800Y50396154D01*
X-6857800Y48755489D01*
X-6861168Y48747357D01*
X-10310511Y45298015D01*
X-10337085Y45251985D01*
X-10382982Y45172490D01*
X-10382986Y45172480D01*
X-10420500Y45032475D01*
X-10830925Y45032475D01*
X-10830925Y45145786D01*
X-10827557Y45153918D01*
X-9638690Y46342785D01*
X-8406790Y47574685D01*
X-8334316Y47700215D01*
X-8296800Y47840226D01*
X-8296800Y47985174D01*
X-8296800Y50396154D01*
X-8293432Y50404286D01*
X-8290525Y50406399D01*
X-8250491Y50426796D01*
X-8105487Y50532148D01*
X-7978748Y50658887D01*
X-7873396Y50803891D01*
X-7792025Y50963591D01*
X-7736639Y51134054D01*
X-7714135Y51276135D01*
X-7708600Y51311080D01*
X-7708600Y51490321D01*
X-7736639Y51667344D01*
X-7736639Y51667346D01*
X-7792025Y51837809D01*
X-7873396Y51997509D01*
X-7978748Y52142513D01*
X-8105487Y52269252D01*
X-8250491Y52374604D01*
X-8410191Y52455975D01*
X-8410192Y52455976D01*
X-8410195Y52455977D01*
X-8580657Y52511362D01*
X-8757680Y52539400D01*
X-8757682Y52539400D01*
X-8936918Y52539400D01*
X-8936920Y52539400D01*
X-9113944Y52511362D01*
X-9284406Y52455977D01*
X-9444111Y52374603D01*
X-9589113Y52269252D01*
X-9715852Y52142513D01*
X-9821203Y51997511D01*
X-9902577Y51837806D01*
X-9957962Y51667344D01*
X-9986000Y51490321D01*
X-9986000Y51311080D01*
X-9957962Y51134057D01*
X-9902577Y50963595D01*
X-9902576Y50963592D01*
X-9902575Y50963591D01*
X-9821204Y50803891D01*
X-9715852Y50658887D01*
X-9589113Y50532148D01*
X-9444109Y50426796D01*
X-9404078Y50406400D01*
X-9398363Y50399708D01*
X-9397800Y50396154D01*
X-9397800Y48145489D01*
X-9401168Y48137357D01*
X-11821936Y45716590D01*
X-11848041Y45671374D01*
X-11855024Y45666016D01*
X-11863750Y45667165D01*
X-11869108Y45674148D01*
X-11869500Y45677124D01*
X-11869500Y46467211D01*
X-11866132Y46475343D01*
X-11428990Y46912485D01*
X-10939490Y47401985D01*
X-10867016Y47527515D01*
X-10829500Y47667526D01*
X-10829500Y47812474D01*
X-10829500Y49547875D01*
X-10836408Y49573657D01*
X-10836800Y49576633D01*
X-10836800Y50396154D01*
X-10833432Y50404286D01*
X-10830525Y50406399D01*
X-10790491Y50426796D01*
X-10645487Y50532148D01*
X-10518748Y50658887D01*
X-10413396Y50803891D01*
X-10332025Y50963591D01*
X-10276639Y51134054D01*
X-10254135Y51276135D01*
X-10248600Y51311080D01*
X-10248600Y51490321D01*
X-10276639Y51667344D01*
X-10276639Y51667346D01*
X-10332025Y51837809D01*
X-10413396Y51997509D01*
X-10518748Y52142513D01*
X-10645487Y52269252D01*
X-10790491Y52374604D01*
X-10950191Y52455975D01*
X-10950192Y52455976D01*
X-10950195Y52455977D01*
X-11120657Y52511362D01*
X-11297680Y52539400D01*
X-11297682Y52539400D01*
X-11476918Y52539400D01*
X-11476920Y52539400D01*
X-11653944Y52511362D01*
X-11824406Y52455977D01*
X-11984111Y52374603D01*
X-12129113Y52269252D01*
X-12255852Y52142513D01*
X-12361203Y51997511D01*
X-12442577Y51837806D01*
X-12497962Y51667344D01*
X-12526000Y51490321D01*
X-12526000Y51311080D01*
X-12497962Y51134057D01*
X-12442577Y50963595D01*
X-12442576Y50963592D01*
X-12442575Y50963591D01*
X-12361204Y50803891D01*
X-12255852Y50658887D01*
X-12129113Y50532148D01*
X-11984109Y50426796D01*
X-11944078Y50406400D01*
X-11938363Y50399708D01*
X-11937800Y50396154D01*
X-11937800Y49410227D01*
X-11930892Y49384445D01*
X-11930500Y49381469D01*
X-11930500Y47972789D01*
X-11933868Y47964657D01*
X-12860511Y47038015D01*
X-12888101Y46990225D01*
X-12932985Y46912484D01*
X-12970500Y46772475D01*
X-12970500Y23529952D01*
X-12973868Y23521820D01*
X-12982000Y23518452D01*
X-12990132Y23521820D01*
X-12992625Y23525551D01*
X-12994448Y23529952D01*
X-13033368Y23623914D01*
X-13142861Y23787782D01*
X-13282218Y23927139D01*
X-13308573Y23944749D01*
X-13446084Y24036631D01*
X-13628167Y24112052D01*
X-13744563Y24135205D01*
X-13821459Y24150500D01*
X-14018541Y24150500D01*
X-14114531Y24131407D01*
X-14211832Y24112052D01*
X-14211835Y24112052D01*
X-14393917Y24036631D01*
X-14557779Y23927142D01*
X-14697142Y23787779D01*
X-14806631Y23623917D01*
X-14882052Y23441835D01*
X-14882052Y23441832D01*
X-14907800Y23312390D01*
X-14920500Y23248541D01*
X-14920500Y23051459D01*
X-14901813Y22957515D01*
X-14882052Y22858169D01*
X-14882052Y22858166D01*
X-14806631Y22676084D01*
X-14697142Y22512222D01*
X-14697139Y22512218D01*
X-14557782Y22372861D01*
X-14393914Y22263368D01*
X-14211835Y22187949D01*
X-14018541Y22149500D01*
X-14018539Y22149500D01*
X-13821461Y22149500D01*
X-13821459Y22149500D01*
X-13628165Y22187949D01*
X-13446086Y22263368D01*
X-13282218Y22372861D01*
X-13142861Y22512218D01*
X-13033368Y22676086D01*
X-12992625Y22774451D01*
X-12986401Y22780674D01*
X-12977599Y22780674D01*
X-12971375Y22774450D01*
X-12970500Y22770049D01*
X-12970500Y22326212D01*
X-12973868Y22318080D01*
X-13630682Y21661267D01*
X-13638814Y21657899D01*
X-13642367Y21658462D01*
X-13663725Y21665401D01*
X-13834812Y21692498D01*
X-13834814Y21692498D01*
X-14008036Y21692498D01*
X-14008038Y21692498D01*
X-14179124Y21665401D01*
X-14343867Y21611873D01*
X-14498215Y21533229D01*
X-14638353Y21431412D01*
X-14760839Y21308926D01*
X-14862656Y21168788D01*
X-14941300Y21014440D01*
X-14994828Y20849697D01*
X-15021925Y20678612D01*
X-15360925Y20678612D01*
X-15388023Y20849699D01*
X-15441552Y21014443D01*
X-15520193Y21168786D01*
X-15622011Y21308926D01*
X-15744497Y21431412D01*
X-15884637Y21533230D01*
X-15884638Y21533231D01*
X-15884640Y21533232D01*
X-15884647Y21533236D01*
X-15904646Y21543426D01*
X-15910362Y21550119D01*
X-15910925Y21553672D01*
X-15910925Y44765786D01*
X-15907557Y44773918D01*
X-14698128Y45983347D01*
X-13486790Y47194685D01*
X-13414316Y47320215D01*
X-13392406Y47401985D01*
X-13392272Y47402484D01*
X-13376800Y47460226D01*
X-13376800Y50396154D01*
X-13373432Y50404286D01*
X-13370525Y50406399D01*
X-13330491Y50426796D01*
X-13185487Y50532148D01*
X-13058748Y50658887D01*
X-12953396Y50803891D01*
X-12872025Y50963591D01*
X-12816639Y51134054D01*
X-12794135Y51276135D01*
X-12788600Y51311080D01*
X-12788600Y51490321D01*
X-12816639Y51667344D01*
X-12816639Y51667346D01*
X-12872025Y51837809D01*
X-12953396Y51997509D01*
X-13058748Y52142513D01*
X-13185487Y52269252D01*
X-13330491Y52374604D01*
X-13490191Y52455975D01*
X-13490192Y52455976D01*
X-13490195Y52455977D01*
X-13660657Y52511362D01*
X-13837680Y52539400D01*
X-13837682Y52539400D01*
X-14016918Y52539400D01*
X-14016920Y52539400D01*
X-14193944Y52511362D01*
X-14364406Y52455977D01*
X-14524111Y52374603D01*
X-14669113Y52269252D01*
X-14795852Y52142513D01*
X-14901203Y51997511D01*
X-14982577Y51837806D01*
X-15037962Y51667344D01*
X-15066000Y51490321D01*
X-15066000Y51311080D01*
X-15037962Y51134057D01*
X-14982577Y50963595D01*
X-14982576Y50963592D01*
X-14982575Y50963591D01*
X-14901204Y50803891D01*
X-14795852Y50658887D01*
X-14669113Y50532148D01*
X-14524109Y50426796D01*
X-14484078Y50406400D01*
X-14478363Y50399708D01*
X-14477800Y50396154D01*
X-14477800Y47765489D01*
X-14481168Y47757357D01*
X-16901936Y45336590D01*
X-16950781Y45251985D01*
X-16974410Y45211059D01*
X-17011925Y45071050D01*
X-17011925Y21553672D01*
X-17015293Y21545540D01*
X-17018204Y21543426D01*
X-17038204Y21533236D01*
X-17038211Y21533232D01*
X-17178353Y21431412D01*
X-17300839Y21308926D01*
X-17402656Y21168788D01*
X-17481300Y21014440D01*
X-17534828Y20849697D01*
X-17561925Y20678612D01*
X-17900925Y20678612D01*
X-17928023Y20849699D01*
X-17981552Y21014443D01*
X-18060193Y21168786D01*
X-18162011Y21308926D01*
X-18284497Y21431412D01*
X-18424637Y21533230D01*
X-18424638Y21533231D01*
X-18424640Y21533232D01*
X-18424647Y21533236D01*
X-18444646Y21543426D01*
X-18450362Y21550119D01*
X-18450925Y21553672D01*
X-18450925Y44035786D01*
X-18447557Y44043918D01*
X-17239490Y45251985D01*
X-16026790Y46464685D01*
X-15954316Y46590215D01*
X-15945748Y46622191D01*
X-15916800Y46730225D01*
X-15916800Y50396154D01*
X-15913432Y50404286D01*
X-15910525Y50406399D01*
X-15870491Y50426796D01*
X-15725487Y50532148D01*
X-15598748Y50658887D01*
X-15493396Y50803891D01*
X-15412025Y50963591D01*
X-15356639Y51134054D01*
X-15334135Y51276135D01*
X-15328600Y51311080D01*
X-15328600Y51490321D01*
X-15356639Y51667344D01*
X-15356639Y51667346D01*
X-15412025Y51837809D01*
X-15493396Y51997509D01*
X-15598748Y52142513D01*
X-15725487Y52269252D01*
X-15870491Y52374604D01*
X-16030191Y52455975D01*
X-16030192Y52455976D01*
X-16030195Y52455977D01*
X-16200657Y52511362D01*
X-16377680Y52539400D01*
X-16377682Y52539400D01*
X-16556918Y52539400D01*
X-16556920Y52539400D01*
X-16733944Y52511362D01*
X-16904406Y52455977D01*
X-17064111Y52374603D01*
X-17209113Y52269252D01*
X-17335852Y52142513D01*
X-17441203Y51997511D01*
X-17522577Y51837806D01*
X-17577962Y51667344D01*
X-17606000Y51490321D01*
X-17606000Y51311080D01*
X-17577962Y51134057D01*
X-17522577Y50963595D01*
X-17522576Y50963592D01*
X-17522575Y50963591D01*
X-17441204Y50803891D01*
X-17335852Y50658887D01*
X-17209113Y50532148D01*
X-17064109Y50426796D01*
X-17024078Y50406400D01*
X-17018363Y50399708D01*
X-17017800Y50396154D01*
X-17017800Y47035489D01*
X-17021168Y47027357D01*
X-19441936Y44606590D01*
X-19511793Y44485591D01*
X-19514410Y44481059D01*
X-19551925Y44341050D01*
X-19551925Y21553672D01*
X-19555293Y21545540D01*
X-19558204Y21543426D01*
X-19578204Y21533236D01*
X-19578211Y21533232D01*
X-19718353Y21431412D01*
X-19840839Y21308926D01*
X-19942656Y21168788D01*
X-20021300Y21014440D01*
X-20074828Y20849697D01*
X-20101925Y20678612D01*
X-20440925Y20678612D01*
X-20468023Y20849699D01*
X-20521552Y21014443D01*
X-20600193Y21168786D01*
X-20702011Y21308926D01*
X-20824497Y21431412D01*
X-20964637Y21533230D01*
X-21118980Y21611871D01*
X-21118981Y21611872D01*
X-21118984Y21611873D01*
X-21283727Y21665401D01*
X-21454812Y21692498D01*
X-21454814Y21692498D01*
X-21628036Y21692498D01*
X-21628038Y21692498D01*
X-21799124Y21665401D01*
X-21963867Y21611873D01*
X-22118215Y21533229D01*
X-22258353Y21431412D01*
X-22380839Y21308926D01*
X-22482656Y21168788D01*
X-22561300Y21014440D01*
X-22614828Y20849697D01*
X-22641925Y20678612D01*
X-22641925Y20505385D01*
X-22614828Y20334300D01*
X-22561300Y20169557D01*
X-22561299Y20169554D01*
X-22561298Y20169553D01*
X-22482657Y20015210D01*
X-22380839Y19875070D01*
X-22258353Y19752584D01*
X-22118213Y19650766D01*
X-22098203Y19640571D01*
X-22092488Y19633879D01*
X-22091925Y19630325D01*
X-22091925Y19441364D01*
X-22095293Y19433232D01*
X-27061936Y14466590D01*
X-27107251Y14388099D01*
X-27134410Y14341059D01*
X-27171925Y14201050D01*
X-27171925Y13933672D01*
X-27175293Y13925540D01*
X-27178204Y13923426D01*
X-27198204Y13913236D01*
X-27198211Y13913232D01*
X-27338353Y13811412D01*
X-27460839Y13688926D01*
X-27562656Y13548788D01*
X-27641300Y13394440D01*
X-27694828Y13229697D01*
X-27721925Y13058612D01*
X-27721925Y12885385D01*
X-27694828Y12714298D01*
X-27694828Y12714297D01*
X-27687889Y12692940D01*
X-27688580Y12684166D01*
X-27690694Y12681255D01*
X-32147821Y8224128D01*
X-32220292Y8098603D01*
X-32220296Y8098593D01*
X-32257810Y7958588D01*
X-32257810Y5492000D01*
X-32261178Y5483868D01*
X-32269310Y5480500D01*
X-43947211Y5480500D01*
X-43955343Y5483868D01*
X-46496132Y8024657D01*
X-46499500Y8032789D01*
X-46499500Y13692475D01*
X-46537016Y13832485D01*
X-46609490Y13958015D01*
X-48351985Y15700510D01*
X-48351986Y15700511D01*
X-48477511Y15772982D01*
X-48477513Y15772983D01*
X-48477515Y15772984D01*
X-48477519Y15772985D01*
X-48477521Y15772986D01*
X-48569513Y15797635D01*
X-48617525Y15810500D01*
X-50247211Y15810500D01*
X-50255343Y15813868D01*
X-54281244Y19839769D01*
X-54284612Y19847901D01*
X-54284612Y20008327D01*
X-54281244Y20016459D01*
X-54278337Y20018572D01*
X-54258324Y20028768D01*
X-54118184Y20130586D01*
X-53995698Y20253072D01*
X-53893880Y20393212D01*
X-53815239Y20547555D01*
X-53761710Y20712299D01*
X-53736565Y20871057D01*
X-53734612Y20883387D01*
X-53734612Y21056614D01*
X-53756874Y21197168D01*
X-53761710Y21227701D01*
X-53815239Y21392445D01*
X-53893880Y21546788D01*
X-53995698Y21686928D01*
X-54118184Y21809414D01*
X-54258324Y21911232D01*
X-54412667Y21989873D01*
X-54412668Y21989874D01*
X-54412671Y21989875D01*
X-54577414Y22043403D01*
X-54748499Y22070500D01*
X-54748501Y22070500D01*
X-54921723Y22070500D01*
X-54921725Y22070500D01*
X-55092811Y22043403D01*
X-55257554Y21989875D01*
X-55411902Y21911231D01*
X-55552040Y21809414D01*
X-55674526Y21686928D01*
X-55776343Y21546790D01*
X-55854987Y21392442D01*
X-55908515Y21227699D01*
X-55935612Y21056614D01*
X-57039500Y21056614D01*
X-57039500Y28156614D01*
X-55935612Y28156614D01*
X-55935612Y27983387D01*
X-55908515Y27812302D01*
X-55854987Y27647559D01*
X-55854986Y27647556D01*
X-55854985Y27647555D01*
X-55776344Y27493212D01*
X-55674526Y27353072D01*
X-55552040Y27230586D01*
X-55411900Y27128768D01*
X-55257557Y27050127D01*
X-55092813Y26996598D01*
X-55007268Y26983049D01*
X-54921725Y26969500D01*
X-54921723Y26969500D01*
X-54748499Y26969500D01*
X-54680065Y26980340D01*
X-54577411Y26996598D01*
X-54412667Y27050127D01*
X-54258324Y27128768D01*
X-54118184Y27230586D01*
X-53995698Y27353072D01*
X-53893880Y27493212D01*
X-53815239Y27647555D01*
X-53761710Y27812299D01*
X-53734612Y27983389D01*
X-53734612Y28156611D01*
X-53761710Y28327701D01*
X-53815239Y28492445D01*
X-53893880Y28646788D01*
X-53995698Y28786928D01*
X-54118184Y28909414D01*
X-54258324Y29011232D01*
X-54412667Y29089873D01*
X-54412668Y29089874D01*
X-54412671Y29089875D01*
X-54577414Y29143403D01*
X-54748499Y29170500D01*
X-54748501Y29170500D01*
X-54921723Y29170500D01*
X-54921725Y29170500D01*
X-55092811Y29143403D01*
X-55257554Y29089875D01*
X-55411902Y29011231D01*
X-55552040Y28909414D01*
X-55674526Y28786928D01*
X-55776343Y28646790D01*
X-55854987Y28492442D01*
X-55908515Y28327699D01*
X-55935612Y28156614D01*
X-57039500Y28156614D01*
X-57039500Y35248541D01*
X-52785612Y35248541D01*
X-52785612Y35051459D01*
X-52771507Y34980549D01*
X-52747164Y34858169D01*
X-52747164Y34858166D01*
X-52671743Y34676084D01*
X-52588198Y34551050D01*
X-52562251Y34512218D01*
X-52422894Y34372861D01*
X-52259026Y34263368D01*
X-52076947Y34187949D01*
X-51883653Y34149500D01*
X-51883651Y34149500D01*
X-51686573Y34149500D01*
X-51686571Y34149500D01*
X-51493277Y34187949D01*
X-51311198Y34263368D01*
X-51147330Y34372861D01*
X-51007973Y34512218D01*
X-50898480Y34676086D01*
X-50823061Y34858165D01*
X-50784612Y35051459D01*
X-50784612Y35248541D01*
X-50823061Y35441835D01*
X-50898480Y35623914D01*
X-51007973Y35787782D01*
X-51147330Y35927139D01*
X-51274589Y36012171D01*
X-51311196Y36036631D01*
X-51320537Y36040500D01*
X-51493277Y36112051D01*
X-51493279Y36112052D01*
X-51617496Y36136760D01*
X-51686571Y36150500D01*
X-51883653Y36150500D01*
X-51979643Y36131407D01*
X-52076944Y36112052D01*
X-52076947Y36112052D01*
X-52259029Y36036631D01*
X-52422891Y35927142D01*
X-52562254Y35787779D01*
X-52671743Y35623917D01*
X-52747164Y35441835D01*
X-52747164Y35441832D01*
X-52757252Y35391116D01*
X-52785612Y35248541D01*
X-57039500Y35248541D01*
X-57039500Y41948541D01*
X-52785612Y41948541D01*
X-52785612Y41751459D01*
X-52766332Y41654535D01*
X-52747164Y41558169D01*
X-52747164Y41558166D01*
X-52671743Y41376084D01*
X-52576285Y41233221D01*
X-52562251Y41212218D01*
X-52422894Y41072861D01*
X-52259026Y40963368D01*
X-52076947Y40887949D01*
X-51883653Y40849500D01*
X-51883651Y40849500D01*
X-51686572Y40849500D01*
X-51686571Y40849500D01*
X-51589646Y40868781D01*
X-51581014Y40867064D01*
X-51579271Y40865634D01*
X-49233127Y38519490D01*
X-49107597Y38447016D01*
X-48967587Y38409500D01*
X-46342000Y38409500D01*
X-46333868Y38406132D01*
X-46330500Y38398000D01*
X-46330500Y9007526D01*
X-46317695Y8959737D01*
X-46292986Y8867521D01*
X-46292982Y8867511D01*
X-46273001Y8832902D01*
X-46220510Y8741985D01*
X-44358015Y6879490D01*
X-44232485Y6807016D01*
X-44092475Y6769500D01*
X-34077525Y6769500D01*
X-33937515Y6807016D01*
X-33811985Y6879490D01*
X-28741022Y11950455D01*
X-28738118Y11952565D01*
X-28584637Y12030766D01*
X-28444497Y12132584D01*
X-28322011Y12255070D01*
X-28220193Y12395210D01*
X-28141552Y12549553D01*
X-28088023Y12714297D01*
X-28060925Y12885387D01*
X-28060925Y13058609D01*
X-28088023Y13229699D01*
X-28141552Y13394443D01*
X-28220193Y13548786D01*
X-28322011Y13688926D01*
X-28444497Y13811412D01*
X-28584637Y13913230D01*
X-28738980Y13991871D01*
X-28738981Y13991872D01*
X-28738984Y13991873D01*
X-28903727Y14045401D01*
X-29074812Y14072498D01*
X-29074814Y14072498D01*
X-29248036Y14072498D01*
X-29248038Y14072498D01*
X-29419124Y14045401D01*
X-29583867Y13991873D01*
X-29738215Y13913229D01*
X-29878353Y13811412D01*
X-30000839Y13688926D01*
X-30102656Y13548788D01*
X-30181300Y13394440D01*
X-30234828Y13229697D01*
X-30261925Y13058612D01*
X-30261925Y12885385D01*
X-30234828Y12714300D01*
X-30181300Y12549557D01*
X-30181299Y12549554D01*
X-30181298Y12549553D01*
X-30102657Y12395210D01*
X-30003505Y12258739D01*
X-30001451Y12250182D01*
X-30004677Y12243849D01*
X-34374657Y7873868D01*
X-34382789Y7870500D01*
X-43787211Y7870500D01*
X-43795343Y7873868D01*
X-45226132Y9304657D01*
X-45229500Y9312789D01*
X-45229500Y38672475D01*
X-44880500Y38672475D01*
X-44880500Y10392474D01*
X-44880500Y10247526D01*
X-44870286Y10209407D01*
X-44842986Y10107521D01*
X-44842982Y10107511D01*
X-44798547Y10030546D01*
X-44770510Y9981985D01*
X-42848014Y8059490D01*
X-42722485Y7987016D01*
X-42582475Y7949500D01*
X-34937525Y7949500D01*
X-34797515Y7987016D01*
X-34671985Y8059490D01*
X-31260915Y11470561D01*
X-31188441Y11596090D01*
X-31150925Y11736101D01*
X-31150925Y11881049D01*
X-31150925Y12010325D01*
X-31147557Y12018457D01*
X-31144650Y12020570D01*
X-31124637Y12030766D01*
X-30984497Y12132584D01*
X-30862011Y12255070D01*
X-30760193Y12395210D01*
X-30681552Y12549553D01*
X-30628023Y12714297D01*
X-30600925Y12885387D01*
X-30600925Y13058609D01*
X-30628023Y13229699D01*
X-30681552Y13394443D01*
X-30760193Y13548786D01*
X-30862011Y13688926D01*
X-30984497Y13811412D01*
X-31124637Y13913230D01*
X-31278980Y13991871D01*
X-31278981Y13991872D01*
X-31278984Y13991873D01*
X-31443727Y14045401D01*
X-31614812Y14072498D01*
X-31614814Y14072498D01*
X-31788036Y14072498D01*
X-31788038Y14072498D01*
X-31959124Y14045401D01*
X-32123867Y13991873D01*
X-32278215Y13913229D01*
X-32418353Y13811412D01*
X-32540839Y13688926D01*
X-32642656Y13548788D01*
X-32721300Y13394440D01*
X-32774828Y13229697D01*
X-32801925Y13058612D01*
X-32801925Y12885385D01*
X-32774828Y12714300D01*
X-32721300Y12549557D01*
X-32721299Y12549554D01*
X-32721298Y12549553D01*
X-32642657Y12395210D01*
X-32540839Y12255070D01*
X-32418353Y12132584D01*
X-32278213Y12030766D01*
X-32278211Y12030765D01*
X-32278208Y12030763D01*
X-32277974Y12030620D01*
X-32277933Y12030564D01*
X-32277847Y12030501D01*
X-32277868Y12030474D01*
X-32272797Y12023502D01*
X-32274170Y12014808D01*
X-32275846Y12012680D01*
X-35234657Y9053868D01*
X-35242789Y9050500D01*
X-36076600Y9050500D01*
X-36084732Y9053868D01*
X-36088100Y9062000D01*
X-36084732Y9070132D01*
X-36082350Y9071959D01*
X-36051985Y9089490D01*
X-33800915Y11340560D01*
X-33728441Y11466090D01*
X-33690925Y11606101D01*
X-33690925Y11751049D01*
X-33690925Y12010325D01*
X-33687557Y12018457D01*
X-33684650Y12020570D01*
X-33664637Y12030766D01*
X-33524497Y12132584D01*
X-33402011Y12255070D01*
X-33300193Y12395210D01*
X-33221552Y12549553D01*
X-33168023Y12714297D01*
X-33140925Y12885387D01*
X-33140925Y13058609D01*
X-33168023Y13229699D01*
X-33221552Y13394443D01*
X-33300193Y13548786D01*
X-33402011Y13688926D01*
X-33524497Y13811412D01*
X-33664637Y13913230D01*
X-33818980Y13991871D01*
X-33818981Y13991872D01*
X-33818984Y13991873D01*
X-33983727Y14045401D01*
X-34154812Y14072498D01*
X-34154814Y14072498D01*
X-34328036Y14072498D01*
X-34328038Y14072498D01*
X-34499124Y14045401D01*
X-34663867Y13991873D01*
X-34818215Y13913229D01*
X-34958353Y13811412D01*
X-35080839Y13688926D01*
X-35182656Y13548788D01*
X-35261300Y13394440D01*
X-35314828Y13229697D01*
X-35341925Y13058612D01*
X-35341925Y12885385D01*
X-35314828Y12714300D01*
X-35261300Y12549557D01*
X-35261299Y12549554D01*
X-35261298Y12549553D01*
X-35182657Y12395210D01*
X-35080839Y12255070D01*
X-34958353Y12132584D01*
X-34818213Y12030766D01*
X-34798203Y12020571D01*
X-34792488Y12013879D01*
X-34791925Y12010325D01*
X-34791925Y11911364D01*
X-34795293Y11903232D01*
X-36614657Y10083868D01*
X-36622789Y10080500D01*
X-41187211Y10080500D01*
X-41195343Y10083868D01*
X-42806132Y11694657D01*
X-42809500Y11702789D01*
X-42809500Y36852475D01*
X-42760500Y36852475D01*
X-42760500Y12517525D01*
X-42747609Y12469414D01*
X-42744822Y12459014D01*
X-42727726Y12395209D01*
X-42722984Y12377515D01*
X-42717208Y12367511D01*
X-42652292Y12255070D01*
X-42650510Y12251985D01*
X-40758015Y10359490D01*
X-40632485Y10287016D01*
X-40492475Y10249500D01*
X-37317525Y10249500D01*
X-37177515Y10287016D01*
X-37051985Y10359490D01*
X-36340915Y11070560D01*
X-36268441Y11196090D01*
X-36265369Y11207555D01*
X-36230925Y11336100D01*
X-36230925Y12010325D01*
X-36227557Y12018457D01*
X-36224650Y12020570D01*
X-36204637Y12030766D01*
X-36064497Y12132584D01*
X-35942011Y12255070D01*
X-35840193Y12395210D01*
X-35761552Y12549553D01*
X-35708023Y12714297D01*
X-35680925Y12885387D01*
X-35680925Y13058609D01*
X-35708023Y13229699D01*
X-35761552Y13394443D01*
X-35840193Y13548786D01*
X-35942011Y13688926D01*
X-36064497Y13811412D01*
X-36204637Y13913230D01*
X-36358980Y13991871D01*
X-36358981Y13991872D01*
X-36358984Y13991873D01*
X-36523727Y14045401D01*
X-36694812Y14072498D01*
X-36694814Y14072498D01*
X-36868036Y14072498D01*
X-36868038Y14072498D01*
X-37039124Y14045401D01*
X-37203867Y13991873D01*
X-37358215Y13913229D01*
X-37498353Y13811412D01*
X-37620839Y13688926D01*
X-37722656Y13548788D01*
X-37801300Y13394440D01*
X-37854828Y13229697D01*
X-37881925Y13058612D01*
X-37881925Y12885385D01*
X-37854828Y12714300D01*
X-37801300Y12549557D01*
X-37801299Y12549554D01*
X-37801298Y12549553D01*
X-37722657Y12395210D01*
X-37620839Y12255070D01*
X-37498353Y12132584D01*
X-37358213Y12030766D01*
X-37338203Y12020571D01*
X-37332488Y12013879D01*
X-37331925Y12010325D01*
X-37331925Y11641364D01*
X-37335293Y11633232D01*
X-37614657Y11353868D01*
X-37622789Y11350500D01*
X-40187211Y11350500D01*
X-40195343Y11353868D01*
X-41656132Y12814657D01*
X-41659500Y12822789D01*
X-41659500Y35982475D01*
X-41360500Y35982475D01*
X-41360500Y14533047D01*
X-41360500Y14388099D01*
X-41355121Y14368025D01*
X-41322986Y14248094D01*
X-41322982Y14248084D01*
X-41250511Y14122559D01*
X-40390694Y13262742D01*
X-40387326Y13254610D01*
X-40387889Y13251057D01*
X-40394828Y13229700D01*
X-40394828Y13229699D01*
X-40421925Y13058612D01*
X-40421925Y12885385D01*
X-40394828Y12714300D01*
X-40341300Y12549557D01*
X-40341299Y12549554D01*
X-40341298Y12549553D01*
X-40262657Y12395210D01*
X-40160839Y12255070D01*
X-40038353Y12132584D01*
X-39898213Y12030766D01*
X-39743870Y11952125D01*
X-39579126Y11898596D01*
X-39510325Y11887699D01*
X-39408038Y11871498D01*
X-39408036Y11871498D01*
X-39234812Y11871498D01*
X-39166378Y11882338D01*
X-39063724Y11898596D01*
X-38898980Y11952125D01*
X-38744637Y12030766D01*
X-38604497Y12132584D01*
X-38482011Y12255070D01*
X-38380193Y12395210D01*
X-38301552Y12549553D01*
X-38248023Y12714297D01*
X-38220925Y12885387D01*
X-38220925Y13058609D01*
X-38248023Y13229699D01*
X-38301552Y13394443D01*
X-38380193Y13548786D01*
X-38482011Y13688926D01*
X-38604497Y13811412D01*
X-38744637Y13913230D01*
X-38898980Y13991871D01*
X-38898981Y13991872D01*
X-38898984Y13991873D01*
X-39063727Y14045401D01*
X-39234812Y14072498D01*
X-39234814Y14072498D01*
X-39408036Y14072498D01*
X-39408038Y14072498D01*
X-39579126Y14045401D01*
X-39579127Y14045401D01*
X-39600484Y14038462D01*
X-39609258Y14039153D01*
X-39612169Y14041267D01*
X-40256132Y14685230D01*
X-40259500Y14693362D01*
X-40259500Y19975472D01*
X-40256132Y19983604D01*
X-40248000Y19986972D01*
X-40239868Y19983604D01*
X-40238702Y19982239D01*
X-40160839Y19875070D01*
X-40038353Y19752584D01*
X-39898213Y19650766D01*
X-39743870Y19572125D01*
X-39579126Y19518596D01*
X-39493581Y19505047D01*
X-39408038Y19491498D01*
X-39408036Y19491498D01*
X-39234812Y19491498D01*
X-39166378Y19502338D01*
X-39063724Y19518596D01*
X-38898980Y19572125D01*
X-38744637Y19650766D01*
X-38604497Y19752584D01*
X-38482011Y19875070D01*
X-38380193Y20015210D01*
X-38301552Y20169553D01*
X-38248023Y20334297D01*
X-38220925Y20505387D01*
X-38220925Y20678609D01*
X-38220925Y20678612D01*
X-37881925Y20678612D01*
X-37881925Y20505385D01*
X-37854828Y20334300D01*
X-37801300Y20169557D01*
X-37801299Y20169554D01*
X-37801298Y20169553D01*
X-37722657Y20015210D01*
X-37620839Y19875070D01*
X-37498353Y19752584D01*
X-37358213Y19650766D01*
X-37203870Y19572125D01*
X-37039126Y19518596D01*
X-36953581Y19505047D01*
X-36868038Y19491498D01*
X-36868036Y19491498D01*
X-36694812Y19491498D01*
X-36626378Y19502338D01*
X-36523724Y19518596D01*
X-36358980Y19572125D01*
X-36204637Y19650766D01*
X-36064497Y19752584D01*
X-35942011Y19875070D01*
X-35840193Y20015210D01*
X-35761552Y20169553D01*
X-35708023Y20334297D01*
X-35680925Y20505387D01*
X-35680925Y20678609D01*
X-35680925Y20678612D01*
X-35341925Y20678612D01*
X-35341925Y20505385D01*
X-35314828Y20334300D01*
X-35261300Y20169557D01*
X-35261299Y20169554D01*
X-35261298Y20169553D01*
X-35182657Y20015210D01*
X-35080839Y19875070D01*
X-34958353Y19752584D01*
X-34818213Y19650766D01*
X-34663870Y19572125D01*
X-34499126Y19518596D01*
X-34413581Y19505047D01*
X-34328038Y19491498D01*
X-34328036Y19491498D01*
X-34154812Y19491498D01*
X-34086378Y19502338D01*
X-33983724Y19518596D01*
X-33818980Y19572125D01*
X-33664637Y19650766D01*
X-33524497Y19752584D01*
X-33402011Y19875070D01*
X-33300193Y20015210D01*
X-33221552Y20169553D01*
X-33168023Y20334297D01*
X-33140925Y20505387D01*
X-33140925Y20678609D01*
X-33168023Y20849699D01*
X-33221552Y21014443D01*
X-33300193Y21168786D01*
X-33402011Y21308926D01*
X-33524497Y21431412D01*
X-33664637Y21533230D01*
X-33664638Y21533231D01*
X-33664640Y21533232D01*
X-33664647Y21533236D01*
X-33684646Y21543426D01*
X-33690362Y21550119D01*
X-33690925Y21553672D01*
X-33690925Y33262475D01*
X-33430500Y33262475D01*
X-33430500Y23437526D01*
X-33424169Y23413898D01*
X-33392986Y23297521D01*
X-33392982Y23297511D01*
X-33320511Y23171986D01*
X-32255293Y22106768D01*
X-32251925Y22098636D01*
X-32251925Y21553672D01*
X-32255293Y21545540D01*
X-32258204Y21543426D01*
X-32278204Y21533236D01*
X-32278211Y21533232D01*
X-32418353Y21431412D01*
X-32540839Y21308926D01*
X-32642656Y21168788D01*
X-32721300Y21014440D01*
X-32774828Y20849697D01*
X-32801925Y20678612D01*
X-32801925Y20505385D01*
X-32774828Y20334300D01*
X-32721300Y20169557D01*
X-32721299Y20169554D01*
X-32721298Y20169553D01*
X-32642657Y20015210D01*
X-32540839Y19875070D01*
X-32418353Y19752584D01*
X-32278213Y19650766D01*
X-32123870Y19572125D01*
X-31959126Y19518596D01*
X-31873581Y19505047D01*
X-31788038Y19491498D01*
X-31788036Y19491498D01*
X-31614812Y19491498D01*
X-31546378Y19502338D01*
X-31443724Y19518596D01*
X-31278980Y19572125D01*
X-31124637Y19650766D01*
X-30984497Y19752584D01*
X-30862011Y19875070D01*
X-30760193Y20015210D01*
X-30681552Y20169553D01*
X-30628023Y20334297D01*
X-30600925Y20505387D01*
X-30600925Y20678609D01*
X-30628023Y20849699D01*
X-30681552Y21014443D01*
X-30760193Y21168786D01*
X-30862011Y21308926D01*
X-30984497Y21431412D01*
X-31124637Y21533230D01*
X-31124638Y21533231D01*
X-31124640Y21533232D01*
X-31124647Y21533236D01*
X-31144646Y21543426D01*
X-31150362Y21550119D01*
X-31150925Y21553672D01*
X-31150925Y22403900D01*
X-31188441Y22543909D01*
X-31188441Y22543910D01*
X-31221430Y22601049D01*
X-31260915Y22669440D01*
X-32326132Y23734657D01*
X-32329500Y23742789D01*
X-32329500Y29626614D01*
X-31980500Y29626614D01*
X-31980500Y29453387D01*
X-31953403Y29282302D01*
X-31899875Y29117559D01*
X-31899874Y29117556D01*
X-31899873Y29117555D01*
X-31821232Y28963212D01*
X-31719414Y28823072D01*
X-31596928Y28700586D01*
X-31456788Y28598768D01*
X-31436778Y28588573D01*
X-31431063Y28581881D01*
X-31430500Y28578327D01*
X-31430500Y26021741D01*
X-31433868Y26013609D01*
X-31435611Y26012179D01*
X-31549652Y25935980D01*
X-31695980Y25789652D01*
X-31810940Y25617601D01*
X-31890131Y25426420D01*
X-31890132Y25426415D01*
X-31930500Y25223465D01*
X-31930500Y25016536D01*
X-31890132Y24813586D01*
X-31890131Y24813581D01*
X-31810940Y24622400D01*
X-31695980Y24450349D01*
X-31695977Y24450345D01*
X-31549655Y24304023D01*
X-31377598Y24189059D01*
X-31186420Y24109870D01*
X-30983465Y24069500D01*
X-30983464Y24069500D01*
X-30776537Y24069500D01*
X-30776535Y24069500D01*
X-30642012Y24096259D01*
X-30633380Y24094542D01*
X-30631637Y24093112D01*
X-29693868Y23155344D01*
X-29690500Y23147212D01*
X-29690500Y22902523D01*
X-29690892Y22899547D01*
X-29711925Y22821050D01*
X-29711925Y21553672D01*
X-29715293Y21545540D01*
X-29718204Y21543426D01*
X-29738204Y21533236D01*
X-29738211Y21533232D01*
X-29878353Y21431412D01*
X-30000839Y21308926D01*
X-30102656Y21168788D01*
X-30181300Y21014440D01*
X-30234828Y20849697D01*
X-30261925Y20678612D01*
X-30261925Y20505385D01*
X-30234828Y20334300D01*
X-30181300Y20169557D01*
X-30181299Y20169554D01*
X-30181298Y20169553D01*
X-30102657Y20015210D01*
X-30000839Y19875070D01*
X-29878353Y19752584D01*
X-29738213Y19650766D01*
X-29583870Y19572125D01*
X-29419126Y19518596D01*
X-29333581Y19505047D01*
X-29248038Y19491498D01*
X-29248036Y19491498D01*
X-29074812Y19491498D01*
X-29006378Y19502338D01*
X-28903724Y19518596D01*
X-28738980Y19572125D01*
X-28584637Y19650766D01*
X-28444497Y19752584D01*
X-28322011Y19875070D01*
X-28220193Y20015210D01*
X-28141552Y20169553D01*
X-28088023Y20334297D01*
X-28060925Y20505387D01*
X-28060925Y20678609D01*
X-28060925Y20678612D01*
X-27721925Y20678612D01*
X-27721925Y20505385D01*
X-27694828Y20334300D01*
X-27641300Y20169557D01*
X-27641299Y20169554D01*
X-27641298Y20169553D01*
X-27562657Y20015210D01*
X-27460839Y19875070D01*
X-27338353Y19752584D01*
X-27198213Y19650766D01*
X-27043870Y19572125D01*
X-26879126Y19518596D01*
X-26793581Y19505047D01*
X-26708038Y19491498D01*
X-26708036Y19491498D01*
X-26534812Y19491498D01*
X-26466378Y19502338D01*
X-26363724Y19518596D01*
X-26198980Y19572125D01*
X-26044637Y19650766D01*
X-25904497Y19752584D01*
X-25782011Y19875070D01*
X-25680193Y20015210D01*
X-25601552Y20169553D01*
X-25548023Y20334297D01*
X-25520925Y20505387D01*
X-25520925Y20678609D01*
X-25548023Y20849699D01*
X-25601552Y21014443D01*
X-25680193Y21168786D01*
X-25782011Y21308926D01*
X-25904497Y21431412D01*
X-26044637Y21533230D01*
X-26044638Y21533231D01*
X-26044640Y21533232D01*
X-26044647Y21533236D01*
X-26064646Y21543426D01*
X-26070362Y21550119D01*
X-26070925Y21553672D01*
X-26070925Y22295786D01*
X-26067557Y22303918D01*
X-25827565Y22543910D01*
X-25539490Y22831985D01*
X-25467016Y22957515D01*
X-25444382Y23041985D01*
X-25429500Y23097525D01*
X-25429500Y24218261D01*
X-25426132Y24226393D01*
X-25424396Y24227818D01*
X-25310345Y24304023D01*
X-25164023Y24450345D01*
X-25049059Y24622402D01*
X-24969870Y24813580D01*
X-24929500Y25016535D01*
X-24929500Y25223465D01*
X-24951619Y25334663D01*
X-24969869Y25426415D01*
X-24969870Y25426420D01*
X-25000800Y25501091D01*
X-25049059Y25617598D01*
X-25164023Y25789655D01*
X-25310345Y25935977D01*
X-25424389Y26012179D01*
X-25429279Y26019497D01*
X-25429500Y26021741D01*
X-25429500Y28578327D01*
X-25426132Y28586459D01*
X-25423225Y28588572D01*
X-25403212Y28598768D01*
X-25263072Y28700586D01*
X-25140586Y28823072D01*
X-25038768Y28963212D01*
X-24960127Y29117555D01*
X-24906598Y29282299D01*
X-24879500Y29453389D01*
X-24879500Y29626611D01*
X-24906598Y29797701D01*
X-24960127Y29962445D01*
X-25038768Y30116788D01*
X-25140586Y30256928D01*
X-25263072Y30379414D01*
X-25403212Y30481232D01*
X-25557555Y30559873D01*
X-25557556Y30559874D01*
X-25557559Y30559875D01*
X-25722302Y30613403D01*
X-25893387Y30640500D01*
X-25893389Y30640500D01*
X-26066611Y30640500D01*
X-26066613Y30640500D01*
X-26237699Y30613403D01*
X-26402442Y30559875D01*
X-26556790Y30481231D01*
X-26696928Y30379414D01*
X-26819414Y30256928D01*
X-26921231Y30116790D01*
X-26999875Y29962442D01*
X-27053403Y29797699D01*
X-27080500Y29626614D01*
X-27080500Y29453387D01*
X-27053403Y29282302D01*
X-26999875Y29117559D01*
X-26999874Y29117556D01*
X-26999873Y29117555D01*
X-26921232Y28963212D01*
X-26819414Y28823072D01*
X-26696928Y28700586D01*
X-26556788Y28598768D01*
X-26536778Y28588573D01*
X-26531063Y28581881D01*
X-26530500Y28578327D01*
X-26530500Y26021741D01*
X-26533868Y26013609D01*
X-26535611Y26012179D01*
X-26649652Y25935980D01*
X-26795980Y25789652D01*
X-26910940Y25617601D01*
X-26990131Y25426420D01*
X-26990132Y25426415D01*
X-27030500Y25223465D01*
X-27030500Y25016536D01*
X-26990132Y24813586D01*
X-26990131Y24813581D01*
X-26910940Y24622400D01*
X-26795980Y24450349D01*
X-26795977Y24450345D01*
X-26649655Y24304023D01*
X-26535610Y24227822D01*
X-26530721Y24220505D01*
X-26530500Y24218261D01*
X-26530500Y23402789D01*
X-26533868Y23394657D01*
X-27061936Y22866590D01*
X-27116584Y22771934D01*
X-27134410Y22741059D01*
X-27171925Y22601050D01*
X-27171925Y21553672D01*
X-27175293Y21545540D01*
X-27178204Y21543426D01*
X-27198204Y21533236D01*
X-27198211Y21533232D01*
X-27338353Y21431412D01*
X-27460839Y21308926D01*
X-27562656Y21168788D01*
X-27641300Y21014440D01*
X-27694828Y20849697D01*
X-27721925Y20678612D01*
X-28060925Y20678612D01*
X-28088023Y20849699D01*
X-28141552Y21014443D01*
X-28220193Y21168786D01*
X-28322011Y21308926D01*
X-28444497Y21431412D01*
X-28584637Y21533230D01*
X-28584638Y21533231D01*
X-28584640Y21533232D01*
X-28584647Y21533236D01*
X-28604646Y21543426D01*
X-28610362Y21550119D01*
X-28610925Y21553672D01*
X-28610925Y22616054D01*
X-28610533Y22619031D01*
X-28603648Y22644724D01*
X-28589500Y22697526D01*
X-28589500Y23452475D01*
X-28627016Y23592485D01*
X-28637423Y23610510D01*
X-28699490Y23718014D01*
X-29853112Y24871637D01*
X-29856480Y24879769D01*
X-29856259Y24882013D01*
X-29829500Y25016535D01*
X-29829500Y25223465D01*
X-29851619Y25334663D01*
X-29869869Y25426415D01*
X-29869870Y25426420D01*
X-29900800Y25501091D01*
X-29949059Y25617598D01*
X-30064023Y25789655D01*
X-30210345Y25935977D01*
X-30324389Y26012179D01*
X-30329279Y26019497D01*
X-30329500Y26021741D01*
X-30329500Y28578327D01*
X-30326132Y28586459D01*
X-30323225Y28588572D01*
X-30303212Y28598768D01*
X-30163072Y28700586D01*
X-30040586Y28823072D01*
X-29938768Y28963212D01*
X-29860127Y29117555D01*
X-29806598Y29282299D01*
X-29779500Y29453389D01*
X-29779500Y29626611D01*
X-29806598Y29797701D01*
X-29860127Y29962445D01*
X-29938768Y30116788D01*
X-30040586Y30256928D01*
X-30163072Y30379414D01*
X-30303212Y30481232D01*
X-30457555Y30559873D01*
X-30457556Y30559874D01*
X-30457559Y30559875D01*
X-30622302Y30613403D01*
X-30793387Y30640500D01*
X-30793389Y30640500D01*
X-30966611Y30640500D01*
X-30966613Y30640500D01*
X-31137699Y30613403D01*
X-31302442Y30559875D01*
X-31456790Y30481231D01*
X-31596928Y30379414D01*
X-31719414Y30256928D01*
X-31821231Y30116790D01*
X-31899875Y29962442D01*
X-31953403Y29797699D01*
X-31980500Y29626614D01*
X-32329500Y29626614D01*
X-32329500Y32957211D01*
X-32326132Y32965343D01*
X-25777607Y39513868D01*
X-18566790Y46724685D01*
X-18494316Y46850215D01*
X-18487628Y46875174D01*
X-18456800Y46990225D01*
X-18456800Y50396154D01*
X-18453432Y50404286D01*
X-18450525Y50406399D01*
X-18410491Y50426796D01*
X-18265487Y50532148D01*
X-18138748Y50658887D01*
X-18033396Y50803891D01*
X-17952025Y50963591D01*
X-17896639Y51134054D01*
X-17874135Y51276135D01*
X-17868600Y51311080D01*
X-17868600Y51490321D01*
X-17896639Y51667344D01*
X-17896639Y51667346D01*
X-17952025Y51837809D01*
X-18033396Y51997509D01*
X-18138748Y52142513D01*
X-18265487Y52269252D01*
X-18410491Y52374604D01*
X-18570191Y52455975D01*
X-18570192Y52455976D01*
X-18570195Y52455977D01*
X-18740657Y52511362D01*
X-18917680Y52539400D01*
X-18917682Y52539400D01*
X-19096918Y52539400D01*
X-19096920Y52539400D01*
X-19273944Y52511362D01*
X-19444406Y52455977D01*
X-19604111Y52374603D01*
X-19749113Y52269252D01*
X-19875852Y52142513D01*
X-19981203Y51997511D01*
X-20062577Y51837806D01*
X-20117962Y51667344D01*
X-20146000Y51490321D01*
X-20146000Y51311080D01*
X-20117962Y51134057D01*
X-20062577Y50963595D01*
X-20062576Y50963592D01*
X-20062575Y50963591D01*
X-19981204Y50803891D01*
X-19875852Y50658887D01*
X-19749113Y50532148D01*
X-19604109Y50426796D01*
X-19564078Y50406400D01*
X-19558363Y50399708D01*
X-19557800Y50396154D01*
X-19557800Y47295489D01*
X-19561168Y47287357D01*
X-33320511Y33528015D01*
X-33352751Y33472171D01*
X-33392985Y33402484D01*
X-33430500Y33262475D01*
X-33690925Y33262475D01*
X-33690925Y33815786D01*
X-33687557Y33823918D01*
X-27997607Y39513868D01*
X-21106790Y46404685D01*
X-21034316Y46530215D01*
X-20996800Y46670226D01*
X-20996800Y46815174D01*
X-20996800Y50396154D01*
X-20993432Y50404286D01*
X-20990525Y50406399D01*
X-20950491Y50426796D01*
X-20805487Y50532148D01*
X-20678748Y50658887D01*
X-20573396Y50803891D01*
X-20492025Y50963591D01*
X-20436639Y51134054D01*
X-20414135Y51276135D01*
X-20408600Y51311080D01*
X-20408600Y51490321D01*
X-20436639Y51667344D01*
X-20436639Y51667346D01*
X-20492025Y51837809D01*
X-20573396Y51997509D01*
X-20678748Y52142513D01*
X-20805487Y52269252D01*
X-20950491Y52374604D01*
X-21110191Y52455975D01*
X-21110192Y52455976D01*
X-21110195Y52455977D01*
X-21280657Y52511362D01*
X-21457680Y52539400D01*
X-21457682Y52539400D01*
X-21636918Y52539400D01*
X-21636920Y52539400D01*
X-21813944Y52511362D01*
X-21984406Y52455977D01*
X-22144111Y52374603D01*
X-22289113Y52269252D01*
X-22415852Y52142513D01*
X-22521203Y51997511D01*
X-22602577Y51837806D01*
X-22657962Y51667344D01*
X-22686000Y51490321D01*
X-22686000Y51311080D01*
X-22657962Y51134057D01*
X-22602577Y50963595D01*
X-22602576Y50963592D01*
X-22602575Y50963591D01*
X-22521204Y50803891D01*
X-22415852Y50658887D01*
X-22289113Y50532148D01*
X-22144109Y50426796D01*
X-22104078Y50406400D01*
X-22098363Y50399708D01*
X-22097800Y50396154D01*
X-22097800Y46975489D01*
X-22101168Y46967357D01*
X-34681936Y34386590D01*
X-34736137Y34292708D01*
X-34754410Y34261059D01*
X-34791925Y34121050D01*
X-34791925Y21553672D01*
X-34795293Y21545540D01*
X-34798204Y21543426D01*
X-34818204Y21533236D01*
X-34818211Y21533232D01*
X-34958353Y21431412D01*
X-35080839Y21308926D01*
X-35182656Y21168788D01*
X-35261300Y21014440D01*
X-35314828Y20849697D01*
X-35341925Y20678612D01*
X-35680925Y20678612D01*
X-35708023Y20849699D01*
X-35761552Y21014443D01*
X-35840193Y21168786D01*
X-35942011Y21308926D01*
X-36064497Y21431412D01*
X-36204637Y21533230D01*
X-36204638Y21533231D01*
X-36204640Y21533232D01*
X-36204647Y21533236D01*
X-36224646Y21543426D01*
X-36230362Y21550119D01*
X-36230925Y21553672D01*
X-36230925Y33965786D01*
X-36227557Y33973918D01*
X-30687607Y39513868D01*
X-23646790Y46554685D01*
X-23574316Y46680215D01*
X-23560916Y46730225D01*
X-23536800Y46820225D01*
X-23536800Y50396154D01*
X-23533432Y50404286D01*
X-23530525Y50406399D01*
X-23490491Y50426796D01*
X-23345487Y50532148D01*
X-23218748Y50658887D01*
X-23113396Y50803891D01*
X-23032025Y50963591D01*
X-22976639Y51134054D01*
X-22954135Y51276135D01*
X-22948600Y51311080D01*
X-22948600Y51490321D01*
X-22976639Y51667344D01*
X-22976639Y51667346D01*
X-23032025Y51837809D01*
X-23113396Y51997509D01*
X-23218748Y52142513D01*
X-23345487Y52269252D01*
X-23490491Y52374604D01*
X-23650191Y52455975D01*
X-23650192Y52455976D01*
X-23650195Y52455977D01*
X-23820657Y52511362D01*
X-23997680Y52539400D01*
X-23997682Y52539400D01*
X-24176918Y52539400D01*
X-24176920Y52539400D01*
X-24353944Y52511362D01*
X-24524406Y52455977D01*
X-24684111Y52374603D01*
X-24829113Y52269252D01*
X-24955852Y52142513D01*
X-25061203Y51997511D01*
X-25142577Y51837806D01*
X-25197962Y51667344D01*
X-25226000Y51490321D01*
X-25226000Y51311080D01*
X-25197962Y51134057D01*
X-25142577Y50963595D01*
X-25142576Y50963592D01*
X-25142575Y50963591D01*
X-25061204Y50803891D01*
X-24955852Y50658887D01*
X-24829113Y50532148D01*
X-24684109Y50426796D01*
X-24644078Y50406400D01*
X-24638363Y50399708D01*
X-24637800Y50396154D01*
X-24637800Y47125489D01*
X-24641168Y47117357D01*
X-37221936Y34536590D01*
X-37249362Y34489084D01*
X-37294410Y34411059D01*
X-37331925Y34271050D01*
X-37331925Y21553672D01*
X-37335293Y21545540D01*
X-37338204Y21543426D01*
X-37358204Y21533236D01*
X-37358211Y21533232D01*
X-37498353Y21431412D01*
X-37620839Y21308926D01*
X-37722656Y21168788D01*
X-37801300Y21014440D01*
X-37854828Y20849697D01*
X-37881925Y20678612D01*
X-38220925Y20678612D01*
X-38248023Y20849699D01*
X-38301552Y21014443D01*
X-38380193Y21168786D01*
X-38482011Y21308926D01*
X-38604497Y21431412D01*
X-38744637Y21533230D01*
X-38744638Y21533231D01*
X-38744640Y21533232D01*
X-38744647Y21533236D01*
X-38764646Y21543426D01*
X-38770362Y21550119D01*
X-38770925Y21553672D01*
X-38770925Y34245786D01*
X-38767557Y34253918D01*
X-33507607Y39513868D01*
X-27710800Y45310675D01*
X-27638326Y45436205D01*
X-27627076Y45478190D01*
X-27600810Y45576215D01*
X-27600810Y50396154D01*
X-27597442Y50404286D01*
X-27594535Y50406399D01*
X-27554501Y50426796D01*
X-27409497Y50532148D01*
X-27282758Y50658887D01*
X-27177406Y50803891D01*
X-27096035Y50963591D01*
X-27040649Y51134054D01*
X-27018145Y51276135D01*
X-27012610Y51311080D01*
X-27012610Y51490321D01*
X-27040649Y51667344D01*
X-27040649Y51667346D01*
X-27096035Y51837809D01*
X-27177406Y51997509D01*
X-27282758Y52142513D01*
X-27409497Y52269252D01*
X-27554501Y52374604D01*
X-27714201Y52455975D01*
X-27714202Y52455976D01*
X-27714205Y52455977D01*
X-27884667Y52511362D01*
X-28061690Y52539400D01*
X-28061692Y52539400D01*
X-28240928Y52539400D01*
X-28240930Y52539400D01*
X-28417954Y52511362D01*
X-28588416Y52455977D01*
X-28748121Y52374603D01*
X-28893123Y52269252D01*
X-29019862Y52142513D01*
X-29125213Y51997511D01*
X-29206587Y51837806D01*
X-29261972Y51667344D01*
X-29290010Y51490321D01*
X-29290010Y51311080D01*
X-29261972Y51134057D01*
X-29206587Y50963595D01*
X-29206586Y50963592D01*
X-29206585Y50963591D01*
X-29125214Y50803891D01*
X-29019862Y50658887D01*
X-28893123Y50532148D01*
X-28748119Y50426796D01*
X-28708088Y50406400D01*
X-28702373Y50399708D01*
X-28701810Y50396154D01*
X-28701810Y45881479D01*
X-28705178Y45873347D01*
X-39761936Y34816590D01*
X-39822574Y34711559D01*
X-39834407Y34691065D01*
X-39834411Y34691055D01*
X-39871925Y34551050D01*
X-39871925Y21553672D01*
X-39875293Y21545540D01*
X-39878204Y21543426D01*
X-39898204Y21533236D01*
X-39898211Y21533232D01*
X-40038353Y21431412D01*
X-40160839Y21308926D01*
X-40238696Y21201766D01*
X-40246201Y21197168D01*
X-40254760Y21199222D01*
X-40259358Y21206727D01*
X-40259500Y21208526D01*
X-40259500Y35677212D01*
X-40256132Y35685344D01*
X-35264023Y40677453D01*
X-30250800Y45690676D01*
X-30178326Y45816205D01*
X-30166276Y45861175D01*
X-30140810Y45956215D01*
X-30140810Y50396154D01*
X-30137442Y50404286D01*
X-30134535Y50406399D01*
X-30094501Y50426796D01*
X-29949497Y50532148D01*
X-29822758Y50658887D01*
X-29717406Y50803891D01*
X-29636035Y50963591D01*
X-29580649Y51134054D01*
X-29558145Y51276135D01*
X-29552610Y51311080D01*
X-29552610Y51490321D01*
X-29580649Y51667344D01*
X-29580649Y51667346D01*
X-29636035Y51837809D01*
X-29717406Y51997509D01*
X-29822758Y52142513D01*
X-29949497Y52269252D01*
X-30094501Y52374604D01*
X-30254201Y52455975D01*
X-30254202Y52455976D01*
X-30254205Y52455977D01*
X-30424667Y52511362D01*
X-30601690Y52539400D01*
X-30601692Y52539400D01*
X-30780928Y52539400D01*
X-30780930Y52539400D01*
X-30957954Y52511362D01*
X-31128416Y52455977D01*
X-31288121Y52374603D01*
X-31433123Y52269252D01*
X-31559862Y52142513D01*
X-31665213Y51997511D01*
X-31746587Y51837806D01*
X-31801972Y51667344D01*
X-31830010Y51490321D01*
X-31830010Y51311080D01*
X-31801972Y51134057D01*
X-31746587Y50963595D01*
X-31746586Y50963592D01*
X-31746585Y50963591D01*
X-31665214Y50803891D01*
X-31559862Y50658887D01*
X-31433123Y50532148D01*
X-31288119Y50426796D01*
X-31248088Y50406400D01*
X-31242373Y50399708D01*
X-31241810Y50396154D01*
X-31241810Y46261479D01*
X-31245178Y46253347D01*
X-41250511Y36248015D01*
X-41314742Y36136760D01*
X-41322985Y36122484D01*
X-41352543Y36012172D01*
X-41360500Y35982475D01*
X-41659500Y35982475D01*
X-41659500Y36547211D01*
X-41656132Y36555343D01*
X-37230857Y40980618D01*
X-32790800Y45420675D01*
X-32718326Y45546205D01*
X-32710285Y45576215D01*
X-32680810Y45686215D01*
X-32680810Y50396154D01*
X-32677442Y50404286D01*
X-32674535Y50406399D01*
X-32634501Y50426796D01*
X-32489497Y50532148D01*
X-32362758Y50658887D01*
X-32257406Y50803891D01*
X-32176035Y50963591D01*
X-32120649Y51134054D01*
X-32098145Y51276135D01*
X-32092610Y51311080D01*
X-32092610Y51490321D01*
X-32120649Y51667344D01*
X-32120649Y51667346D01*
X-32176035Y51837809D01*
X-32257406Y51997509D01*
X-32362758Y52142513D01*
X-32489497Y52269252D01*
X-32634501Y52374604D01*
X-32794201Y52455975D01*
X-32794202Y52455976D01*
X-32794205Y52455977D01*
X-32964667Y52511362D01*
X-33141690Y52539400D01*
X-33141692Y52539400D01*
X-33320928Y52539400D01*
X-33320930Y52539400D01*
X-33497954Y52511362D01*
X-33668416Y52455977D01*
X-33828121Y52374603D01*
X-33973123Y52269252D01*
X-34099862Y52142513D01*
X-34205213Y51997511D01*
X-34286587Y51837806D01*
X-34341972Y51667344D01*
X-34370010Y51490321D01*
X-34370010Y51311080D01*
X-34341972Y51134057D01*
X-34286587Y50963595D01*
X-34286586Y50963592D01*
X-34286585Y50963591D01*
X-34205214Y50803891D01*
X-34099862Y50658887D01*
X-33973123Y50532148D01*
X-33828119Y50426796D01*
X-33788088Y50406400D01*
X-33782373Y50399708D01*
X-33781810Y50396154D01*
X-33781810Y45991479D01*
X-33785178Y45983347D01*
X-42650511Y37118015D01*
X-42689304Y37050821D01*
X-42722982Y36992490D01*
X-42722986Y36992480D01*
X-42760500Y36852475D01*
X-42809500Y36852475D01*
X-42809500Y37427211D01*
X-42806132Y37435343D01*
X-39074736Y41166739D01*
X-35330799Y44910676D01*
X-35258325Y45036206D01*
X-35248989Y45071049D01*
X-35220809Y45176216D01*
X-35220809Y50396154D01*
X-35217441Y50404286D01*
X-35214534Y50406399D01*
X-35174500Y50426796D01*
X-35029496Y50532148D01*
X-34902757Y50658887D01*
X-34797405Y50803891D01*
X-34716034Y50963591D01*
X-34660648Y51134054D01*
X-34638144Y51276135D01*
X-34632609Y51311080D01*
X-34632609Y51490321D01*
X-34660648Y51667344D01*
X-34660648Y51667346D01*
X-34716034Y51837809D01*
X-34797405Y51997509D01*
X-34902757Y52142513D01*
X-35029496Y52269252D01*
X-35174500Y52374604D01*
X-35334200Y52455975D01*
X-35334201Y52455976D01*
X-35334204Y52455977D01*
X-35504666Y52511362D01*
X-35681689Y52539400D01*
X-35681691Y52539400D01*
X-35860927Y52539400D01*
X-35860929Y52539400D01*
X-36037953Y52511362D01*
X-36208415Y52455977D01*
X-36368120Y52374603D01*
X-36513122Y52269252D01*
X-36639861Y52142513D01*
X-36745212Y51997511D01*
X-36826586Y51837806D01*
X-36881971Y51667344D01*
X-36910009Y51490321D01*
X-36910009Y51311080D01*
X-36881971Y51134057D01*
X-36826586Y50963595D01*
X-36826585Y50963592D01*
X-36826584Y50963591D01*
X-36745213Y50803891D01*
X-36639861Y50658887D01*
X-36513122Y50532148D01*
X-36368118Y50426796D01*
X-36328087Y50406400D01*
X-36322372Y50399708D01*
X-36321809Y50396154D01*
X-36321809Y45481480D01*
X-36325177Y45473348D01*
X-43759868Y38038657D01*
X-43768000Y38035289D01*
X-43776132Y38038657D01*
X-43779500Y38046789D01*
X-43779500Y38367211D01*
X-43776132Y38375343D01*
X-40909770Y41241705D01*
X-37870800Y44280675D01*
X-37798326Y44406205D01*
X-37787107Y44448075D01*
X-37760810Y44546215D01*
X-37760810Y50396154D01*
X-37757442Y50404286D01*
X-37754535Y50406399D01*
X-37714501Y50426796D01*
X-37569497Y50532148D01*
X-37442758Y50658887D01*
X-37337406Y50803891D01*
X-37256035Y50963591D01*
X-37200649Y51134054D01*
X-37178145Y51276135D01*
X-37172610Y51311080D01*
X-37172610Y51490321D01*
X-37200649Y51667344D01*
X-37200649Y51667346D01*
X-37256035Y51837809D01*
X-37337406Y51997509D01*
X-37442758Y52142513D01*
X-37569497Y52269252D01*
X-37714501Y52374604D01*
X-37874201Y52455975D01*
X-37874202Y52455976D01*
X-37874205Y52455977D01*
X-38044667Y52511362D01*
X-38221690Y52539400D01*
X-38221692Y52539400D01*
X-38400928Y52539400D01*
X-38400930Y52539400D01*
X-38577954Y52511362D01*
X-38748416Y52455977D01*
X-38908121Y52374603D01*
X-39053123Y52269252D01*
X-39179862Y52142513D01*
X-39285213Y51997511D01*
X-39366587Y51837806D01*
X-39421972Y51667344D01*
X-39450010Y51490321D01*
X-39450010Y51311080D01*
X-39421972Y51134057D01*
X-39366587Y50963595D01*
X-39366586Y50963592D01*
X-39366585Y50963591D01*
X-39285214Y50803891D01*
X-39179862Y50658887D01*
X-39053123Y50532148D01*
X-38908119Y50426796D01*
X-38868088Y50406400D01*
X-38862373Y50399708D01*
X-38861810Y50396154D01*
X-38861810Y44851479D01*
X-38865178Y44843347D01*
X-44770511Y38938015D01*
X-44842982Y38812490D01*
X-44842986Y38812480D01*
X-44868485Y38717314D01*
X-44880500Y38672475D01*
X-45229500Y38672475D01*
X-45229500Y38727211D01*
X-45226132Y38735343D01*
X-42821587Y41139888D01*
X-40410800Y43550675D01*
X-40338326Y43676205D01*
X-40327107Y43718075D01*
X-40300810Y43816215D01*
X-40300810Y50396154D01*
X-40297442Y50404286D01*
X-40294535Y50406399D01*
X-40254501Y50426796D01*
X-40109497Y50532148D01*
X-39982758Y50658887D01*
X-39877406Y50803891D01*
X-39796035Y50963591D01*
X-39740649Y51134054D01*
X-39718145Y51276135D01*
X-39712610Y51311080D01*
X-39712610Y51490321D01*
X-39740649Y51667344D01*
X-39740649Y51667346D01*
X-39796035Y51837809D01*
X-39877406Y51997509D01*
X-39982758Y52142513D01*
X-40109497Y52269252D01*
X-40254501Y52374604D01*
X-40414201Y52455975D01*
X-40414202Y52455976D01*
X-40414205Y52455977D01*
X-40584667Y52511362D01*
X-40761690Y52539400D01*
X-40761692Y52539400D01*
X-40940928Y52539400D01*
X-40940930Y52539400D01*
X-41117954Y52511362D01*
X-41288416Y52455977D01*
X-41448121Y52374603D01*
X-41593123Y52269252D01*
X-41719862Y52142513D01*
X-41825213Y51997511D01*
X-41906587Y51837806D01*
X-41961972Y51667344D01*
X-41990010Y51490321D01*
X-41990010Y51311080D01*
X-41961972Y51134057D01*
X-41906587Y50963595D01*
X-41906586Y50963592D01*
X-41906585Y50963591D01*
X-41825214Y50803891D01*
X-41719862Y50658887D01*
X-41593123Y50532148D01*
X-41448119Y50426796D01*
X-41408088Y50406400D01*
X-41402373Y50399708D01*
X-41401810Y50396154D01*
X-41401810Y44121479D01*
X-41405178Y44113347D01*
X-46004657Y39513868D01*
X-46012789Y39510500D01*
X-48662323Y39510500D01*
X-48670455Y39513868D01*
X-50800746Y41644159D01*
X-50804114Y41652291D01*
X-50803894Y41654530D01*
X-50784612Y41751459D01*
X-50784612Y41948541D01*
X-50823061Y42141835D01*
X-50833788Y42167732D01*
X-47083413Y42167732D01*
X-47083413Y41994505D01*
X-47056316Y41823420D01*
X-47002788Y41658677D01*
X-47002787Y41658674D01*
X-47002786Y41658673D01*
X-46924145Y41504330D01*
X-46822327Y41364190D01*
X-46699841Y41241704D01*
X-46559701Y41139886D01*
X-46405358Y41061245D01*
X-46240614Y41007716D01*
X-46155069Y40994167D01*
X-46069526Y40980618D01*
X-46069524Y40980618D01*
X-45896300Y40980618D01*
X-45827866Y40991458D01*
X-45725212Y41007716D01*
X-45560468Y41061245D01*
X-45406125Y41139886D01*
X-45265985Y41241704D01*
X-45143499Y41364190D01*
X-45041681Y41504330D01*
X-44963040Y41658673D01*
X-44909511Y41823417D01*
X-44882413Y41994507D01*
X-44882413Y42167729D01*
X-44909511Y42338819D01*
X-44963040Y42503563D01*
X-45041681Y42657906D01*
X-45143499Y42798046D01*
X-45265985Y42920532D01*
X-45406125Y43022350D01*
X-45406126Y43022351D01*
X-45406128Y43022352D01*
X-45406135Y43022356D01*
X-45426134Y43032546D01*
X-45431850Y43039239D01*
X-45432413Y43042792D01*
X-45432413Y50369856D01*
X-45429045Y50377988D01*
X-45426138Y50380101D01*
X-45334491Y50426796D01*
X-45189487Y50532148D01*
X-45062748Y50658887D01*
X-44957396Y50803891D01*
X-44876025Y50963591D01*
X-44820639Y51134054D01*
X-44798135Y51276135D01*
X-44792600Y51311080D01*
X-44792600Y51490321D01*
X-44820639Y51667344D01*
X-44820639Y51667346D01*
X-44876025Y51837809D01*
X-44957396Y51997509D01*
X-45062748Y52142513D01*
X-45189487Y52269252D01*
X-45334491Y52374604D01*
X-45494191Y52455975D01*
X-45494192Y52455976D01*
X-45494195Y52455977D01*
X-45664657Y52511362D01*
X-45841680Y52539400D01*
X-45841682Y52539400D01*
X-46020918Y52539400D01*
X-46020920Y52539400D01*
X-46197944Y52511362D01*
X-46368406Y52455977D01*
X-46528111Y52374603D01*
X-46673113Y52269252D01*
X-46799852Y52142513D01*
X-46905203Y51997511D01*
X-46986577Y51837806D01*
X-47041962Y51667344D01*
X-47070000Y51490321D01*
X-47070000Y51311080D01*
X-47041962Y51134057D01*
X-46986577Y50963595D01*
X-46986576Y50963592D01*
X-46986575Y50963591D01*
X-46905204Y50803891D01*
X-46799852Y50658887D01*
X-46673113Y50532148D01*
X-46538153Y50434094D01*
X-46533555Y50426589D01*
X-46533413Y50424790D01*
X-46533413Y43042792D01*
X-46536781Y43034660D01*
X-46539692Y43032546D01*
X-46559692Y43022356D01*
X-46559699Y43022352D01*
X-46699841Y42920532D01*
X-46822327Y42798046D01*
X-46924144Y42657908D01*
X-47002788Y42503560D01*
X-47056316Y42338817D01*
X-47083413Y42167732D01*
X-50833788Y42167732D01*
X-50898480Y42323914D01*
X-51007973Y42487782D01*
X-51147330Y42627139D01*
X-51193379Y42657908D01*
X-51311196Y42736631D01*
X-51493279Y42812052D01*
X-51609675Y42835205D01*
X-51686571Y42850500D01*
X-51883653Y42850500D01*
X-51979643Y42831407D01*
X-52076944Y42812052D01*
X-52076947Y42812052D01*
X-52259029Y42736631D01*
X-52422891Y42627142D01*
X-52562254Y42487779D01*
X-52671743Y42323917D01*
X-52747164Y42141835D01*
X-52747164Y42141832D01*
X-52785612Y41948541D01*
X-57039500Y41948541D01*
X-57039500Y45662475D01*
X-57045861Y45686215D01*
X-57077016Y45802485D01*
X-57093574Y45831164D01*
X-57149490Y45928015D01*
X-57962013Y46740538D01*
X-57965381Y46748670D01*
X-57964820Y46752217D01*
X-57921523Y46885466D01*
X-57889500Y47087648D01*
X-57889500Y47292352D01*
X-57889997Y47295489D01*
X-57921523Y47494532D01*
X-57921523Y47494534D01*
X-57984780Y47689219D01*
X-58077713Y47871610D01*
X-58198034Y48037219D01*
X-58342781Y48181966D01*
X-58508390Y48302287D01*
X-58690781Y48395220D01*
X-58690782Y48395221D01*
X-58690785Y48395222D01*
X-58885469Y48458478D01*
X-59087646Y48490500D01*
X-59087648Y48490500D01*
X-59292352Y48490500D01*
X-59292354Y48490500D01*
X-59494532Y48458478D01*
X-59689216Y48395222D01*
X-59782297Y48347795D01*
X-59871610Y48302287D01*
X-59871613Y48302286D01*
X-59871615Y48302284D01*
X-60037216Y48181969D01*
X-60181969Y48037216D01*
X-60302284Y47871615D01*
X-60365892Y47746779D01*
X-60372585Y47741063D01*
X-60376139Y47740500D01*
X-64503861Y47740500D01*
X-64511993Y47743868D01*
X-64514108Y47746779D01*
X-64547582Y47812474D01*
X-64577713Y47871610D01*
X-64698034Y48037219D01*
X-64842781Y48181966D01*
X-65008390Y48302287D01*
X-65190781Y48395220D01*
X-65190782Y48395221D01*
X-65190785Y48395222D01*
X-65385469Y48458478D01*
X-65587646Y48490500D01*
X-65587648Y48490500D01*
X-65792352Y48490500D01*
X-65792354Y48490500D01*
X-65994532Y48458478D01*
X-66189216Y48395222D01*
X-66282297Y48347795D01*
X-66371610Y48302287D01*
X-66371613Y48302286D01*
X-66371615Y48302284D01*
X-66537216Y48181969D01*
X-66681969Y48037216D01*
X-66802284Y47871615D01*
X-66895222Y47689216D01*
X-66958478Y47494532D01*
X-66990500Y47292355D01*
X-66990500Y47087646D01*
X-66958478Y46885469D01*
X-66895222Y46690785D01*
X-66895221Y46690782D01*
X-66895220Y46690781D01*
X-66802287Y46508390D01*
X-66681966Y46342781D01*
X-66537219Y46198034D01*
X-66371610Y46077713D01*
X-66189219Y45984780D01*
X-65994534Y45921523D01*
X-65893443Y45905512D01*
X-65792354Y45889500D01*
X-65792352Y45889500D01*
X-65587646Y45889500D01*
X-65506776Y45902310D01*
X-65385466Y45921523D01*
X-65190781Y45984780D01*
X-65008390Y46077713D01*
X-64842781Y46198034D01*
X-64698034Y46342781D01*
X-64577713Y46508390D01*
X-64514108Y46633221D01*
X-64507415Y46638937D01*
X-64503861Y46639500D01*
X-60376139Y46639500D01*
X-60368007Y46636132D01*
X-60365892Y46633221D01*
X-60302287Y46508390D01*
X-60181966Y46342781D01*
X-60037219Y46198034D01*
X-59871610Y46077713D01*
X-59689219Y45984780D01*
X-59494534Y45921523D01*
X-59393443Y45905512D01*
X-59292354Y45889500D01*
X-59292352Y45889500D01*
X-59087646Y45889500D01*
X-59006776Y45902310D01*
X-58885466Y45921523D01*
X-58752221Y45964818D01*
X-58743449Y45964128D01*
X-58740538Y45962013D01*
X-58143868Y45365343D01*
X-58140500Y45357211D01*
X-58140500Y14067525D01*
X-58132129Y14036284D01*
X-58108363Y13947589D01*
X-58102985Y13927517D01*
X-58030511Y13801986D01*
X-45317955Y1089430D01*
X-45314587Y1081298D01*
X-45317955Y1073166D01*
X-45326087Y1069798D01*
X-68446918Y1069798D01*
X-68448394Y1069893D01*
X-68481034Y1074116D01*
X-68481035Y1074116D01*
X-68507682Y1070547D01*
X-68512513Y1069900D01*
X-68514040Y1069798D01*
X-68545801Y1069798D01*
X-68562608Y1065296D01*
X-68565303Y1064907D01*
X-68681795Y1062060D01*
X-68684282Y1062270D01*
X-68816030Y1088015D01*
X-68818412Y1088757D01*
X-68941500Y1142314D01*
X-68943663Y1143550D01*
X-69052307Y1222401D01*
X-69054154Y1224076D01*
X-69143227Y1324500D01*
X-69144671Y1326536D01*
X-69209986Y1443812D01*
X-69210956Y1446110D01*
X-69249436Y1574712D01*
X-69249888Y1577167D01*
X-69259469Y1707598D01*
X-69259500Y1708440D01*
X-69259500Y1720928D01*
X-69259493Y1721335D01*
X-69257482Y1778145D01*
X-69259206Y1785630D01*
X-69259500Y1788212D01*
X-69259500Y3265265D01*
X-57737800Y3265265D01*
X-57737800Y3016135D01*
X-57705282Y2769135D01*
X-57705281Y2769131D01*
X-57705280Y2769124D01*
X-57705280Y2769123D01*
X-57640804Y2528499D01*
X-57640804Y2528498D01*
X-57545463Y2298324D01*
X-57420902Y2082577D01*
X-57420900Y2082574D01*
X-57420899Y2082573D01*
X-57269238Y1884924D01*
X-57093076Y1708762D01*
X-56895427Y1557101D01*
X-56895424Y1557099D01*
X-56679677Y1432538D01*
X-56679676Y1432538D01*
X-56679673Y1432536D01*
X-56449507Y1337198D01*
X-56389347Y1321078D01*
X-56208877Y1272721D01*
X-56208876Y1272721D01*
X-56208865Y1272718D01*
X-55961865Y1240200D01*
X-55961861Y1240200D01*
X-55712739Y1240200D01*
X-55712735Y1240200D01*
X-55465735Y1272718D01*
X-55465724Y1272721D01*
X-55465723Y1272721D01*
X-55402754Y1289594D01*
X-55225093Y1337198D01*
X-54994927Y1432536D01*
X-54779173Y1557101D01*
X-54581524Y1708762D01*
X-54405362Y1884924D01*
X-54253701Y2082573D01*
X-54129136Y2298327D01*
X-54033798Y2528493D01*
X-53969318Y2769135D01*
X-53936800Y3016135D01*
X-53936800Y3265265D01*
X-53969318Y3512265D01*
X-53986880Y3577806D01*
X-54033797Y3752902D01*
X-54033797Y3752903D01*
X-54033798Y3752907D01*
X-54129136Y3983073D01*
X-54205079Y4114610D01*
X-54253699Y4198824D01*
X-54294012Y4251361D01*
X-54405362Y4396476D01*
X-54581524Y4572638D01*
X-54779173Y4724299D01*
X-54779174Y4724300D01*
X-54779177Y4724302D01*
X-54994924Y4848863D01*
X-55225098Y4944204D01*
X-55465724Y5008680D01*
X-55465731Y5008681D01*
X-55465735Y5008682D01*
X-55665156Y5034937D01*
X-55712734Y5041200D01*
X-55712735Y5041200D01*
X-55961865Y5041200D01*
X-55961867Y5041200D01*
X-56057025Y5028673D01*
X-56208865Y5008682D01*
X-56208869Y5008682D01*
X-56208877Y5008680D01*
X-56208878Y5008680D01*
X-56449502Y4944204D01*
X-56449503Y4944204D01*
X-56679677Y4848863D01*
X-56895424Y4724302D01*
X-56969546Y4667427D01*
X-57093076Y4572638D01*
X-57093081Y4572633D01*
X-57093083Y4572632D01*
X-57269232Y4396483D01*
X-57269233Y4396481D01*
X-57269238Y4396476D01*
X-57359073Y4279400D01*
X-57420902Y4198824D01*
X-57545463Y3983077D01*
X-57640804Y3752903D01*
X-57640804Y3752902D01*
X-57705280Y3512278D01*
X-57705280Y3512277D01*
X-57705282Y3512269D01*
X-57705282Y3512265D01*
X-57737800Y3265265D01*
X-69259500Y3265265D01*
X-69259500Y12094872D01*
X-61600500Y12094872D01*
X-61600500Y8505131D01*
X-61600499Y8505129D01*
X-61597586Y8480010D01*
X-61597586Y8480008D01*
X-61552209Y8377240D01*
X-61552207Y8377237D01*
X-61552206Y8377235D01*
X-61472765Y8297794D01*
X-61472763Y8297793D01*
X-61472761Y8297792D01*
X-61369995Y8252416D01*
X-61369987Y8252414D01*
X-61351392Y8250258D01*
X-61344865Y8249500D01*
X-60362000Y8249501D01*
X-60353868Y8246133D01*
X-60350500Y8238001D01*
X-60350500Y8111158D01*
X-60334911Y8032789D01*
X-60319738Y7956507D01*
X-60319738Y7956504D01*
X-60285509Y7873868D01*
X-60259394Y7810821D01*
X-60171789Y7679711D01*
X-58531789Y6039711D01*
X-58420289Y5928211D01*
X-58289179Y5840606D01*
X-58143497Y5780263D01*
X-57988843Y5749500D01*
X-57988842Y5749500D01*
X-56735375Y5749500D01*
X-56727243Y5746132D01*
X-56726075Y5744763D01*
X-56648242Y5637635D01*
X-56492365Y5481758D01*
X-56314022Y5352185D01*
X-56117606Y5252105D01*
X-55907951Y5183985D01*
X-55799087Y5166743D01*
X-55690224Y5149500D01*
X-55690222Y5149500D01*
X-55469776Y5149500D01*
X-55382687Y5163294D01*
X-55252049Y5183985D01*
X-55042394Y5252105D01*
X-54845978Y5352185D01*
X-54667635Y5481758D01*
X-54511758Y5637635D01*
X-54382185Y5815978D01*
X-54282105Y6012394D01*
X-54213985Y6222049D01*
X-54179500Y6439778D01*
X-54179500Y6660222D01*
X-54179907Y6662789D01*
X-54213985Y6877949D01*
X-54213985Y6877951D01*
X-54282105Y7087606D01*
X-54382185Y7284022D01*
X-54511758Y7462365D01*
X-54667635Y7618242D01*
X-54845978Y7747815D01*
X-55042394Y7847895D01*
X-55042395Y7847896D01*
X-55042398Y7847897D01*
X-55252052Y7916016D01*
X-55469776Y7950500D01*
X-55469778Y7950500D01*
X-55690222Y7950500D01*
X-55690224Y7950500D01*
X-55907949Y7916016D01*
X-56117603Y7847897D01*
X-56190367Y7810821D01*
X-56314022Y7747815D01*
X-56492365Y7618242D01*
X-56648245Y7462362D01*
X-56696944Y7395333D01*
X-56709298Y7378327D01*
X-56726071Y7355241D01*
X-56733576Y7350642D01*
X-56735375Y7350500D01*
X-57573658Y7350500D01*
X-57581790Y7353868D01*
X-58457791Y8229869D01*
X-58461159Y8238001D01*
X-58457791Y8246133D01*
X-58449659Y8249501D01*
X-57755130Y8249501D01*
X-57755130Y8249502D01*
X-57730009Y8252415D01*
X-57730008Y8252415D01*
X-57627240Y8297792D01*
X-57627241Y8297792D01*
X-57627235Y8297794D01*
X-57547794Y8377235D01*
X-57502415Y8480009D01*
X-57499500Y8505135D01*
X-57499501Y12094864D01*
X-57499501Y12094865D01*
X-57499501Y12094870D01*
X-57499502Y12094872D01*
X-57502415Y12119991D01*
X-57502415Y12119993D01*
X-57547792Y12222761D01*
X-57547794Y12222764D01*
X-57547794Y12222765D01*
X-57627235Y12302206D01*
X-57627237Y12302207D01*
X-57627240Y12302209D01*
X-57730006Y12347585D01*
X-57730014Y12347587D01*
X-57755129Y12350500D01*
X-61344870Y12350500D01*
X-61344872Y12350499D01*
X-61369991Y12347586D01*
X-61369993Y12347586D01*
X-61472761Y12302209D01*
X-61472764Y12302207D01*
X-61552207Y12222764D01*
X-61552209Y12222761D01*
X-61597585Y12119995D01*
X-61597587Y12119987D01*
X-61600500Y12094872D01*
X-69259500Y12094872D01*
X-69259500Y35204484D01*
X-63910500Y35204484D01*
X-63910500Y35015517D01*
X-63880941Y34828885D01*
X-63822549Y34649172D01*
X-63822548Y34649169D01*
X-63822547Y34649168D01*
X-63736760Y34480801D01*
X-63625690Y34327927D01*
X-63492073Y34194310D01*
X-63339199Y34083240D01*
X-63170832Y33997453D01*
X-62991118Y33939060D01*
X-62897800Y33924280D01*
X-62804483Y33909500D01*
X-62804481Y33909500D01*
X-62615517Y33909500D01*
X-62540865Y33921324D01*
X-62428882Y33939060D01*
X-62249168Y33997453D01*
X-62080801Y34083240D01*
X-61927927Y34194310D01*
X-61794310Y34327927D01*
X-61683240Y34480801D01*
X-61666848Y34512973D01*
X-61646339Y34553221D01*
X-61639647Y34558937D01*
X-61636093Y34559500D01*
X-60219991Y34559500D01*
X-60211859Y34556132D01*
X-60210429Y34554389D01*
X-60209649Y34553221D01*
X-60182251Y34512218D01*
X-60042894Y34372861D01*
X-59879026Y34263368D01*
X-59696947Y34187949D01*
X-59503653Y34149500D01*
X-59503651Y34149500D01*
X-59306573Y34149500D01*
X-59306571Y34149500D01*
X-59113277Y34187949D01*
X-58931198Y34263368D01*
X-58767330Y34372861D01*
X-58627973Y34512218D01*
X-58518480Y34676086D01*
X-58443061Y34858165D01*
X-58404612Y35051459D01*
X-58404612Y35248541D01*
X-58443061Y35441835D01*
X-58518480Y35623914D01*
X-58627973Y35787782D01*
X-58767330Y35927139D01*
X-58894589Y36012171D01*
X-58931196Y36036631D01*
X-58940537Y36040500D01*
X-59113277Y36112051D01*
X-59113279Y36112052D01*
X-59237496Y36136760D01*
X-59306571Y36150500D01*
X-59503653Y36150500D01*
X-59599643Y36131407D01*
X-59696944Y36112052D01*
X-59696947Y36112052D01*
X-59879029Y36036631D01*
X-60042891Y35927142D01*
X-60182254Y35787779D01*
X-60263883Y35665611D01*
X-60271201Y35660721D01*
X-60273445Y35660500D01*
X-61636093Y35660500D01*
X-61644225Y35663868D01*
X-61646339Y35666779D01*
X-61672566Y35718250D01*
X-61683240Y35739199D01*
X-61794310Y35892073D01*
X-61927927Y36025690D01*
X-62080801Y36136760D01*
X-62249168Y36222547D01*
X-62249169Y36222548D01*
X-62249172Y36222549D01*
X-62428885Y36280941D01*
X-62615517Y36310500D01*
X-62615519Y36310500D01*
X-62804481Y36310500D01*
X-62804483Y36310500D01*
X-62991116Y36280941D01*
X-63170829Y36222549D01*
X-63339201Y36136759D01*
X-63492073Y36025690D01*
X-63625690Y35892073D01*
X-63736759Y35739201D01*
X-63822549Y35570829D01*
X-63880941Y35391116D01*
X-63910500Y35204484D01*
X-69259500Y35204484D01*
X-69259500Y41884484D01*
X-63910500Y41884484D01*
X-63910500Y41695517D01*
X-63880941Y41508885D01*
X-63822549Y41329172D01*
X-63822548Y41329169D01*
X-63822547Y41329168D01*
X-63736760Y41160801D01*
X-63625690Y41007927D01*
X-63492073Y40874310D01*
X-63339199Y40763240D01*
X-63170832Y40677453D01*
X-62991118Y40619060D01*
X-62912151Y40606553D01*
X-62804483Y40589500D01*
X-62804481Y40589500D01*
X-62615517Y40589500D01*
X-62540865Y40601324D01*
X-62428882Y40619060D01*
X-62249168Y40677453D01*
X-62080801Y40763240D01*
X-61927927Y40874310D01*
X-61794310Y41007927D01*
X-61683240Y41160801D01*
X-61666848Y41192973D01*
X-61646339Y41233221D01*
X-61639647Y41238937D01*
X-61636093Y41239500D01*
X-60206627Y41239500D01*
X-60198495Y41236132D01*
X-60197065Y41234389D01*
X-60182251Y41212218D01*
X-60042894Y41072861D01*
X-59879026Y40963368D01*
X-59696947Y40887949D01*
X-59503653Y40849500D01*
X-59503651Y40849500D01*
X-59306573Y40849500D01*
X-59306571Y40849500D01*
X-59113277Y40887949D01*
X-58931198Y40963368D01*
X-58767330Y41072861D01*
X-58627973Y41212218D01*
X-58518480Y41376086D01*
X-58443061Y41558165D01*
X-58404612Y41751459D01*
X-58404612Y41948541D01*
X-58443061Y42141835D01*
X-58518480Y42323914D01*
X-58627973Y42487782D01*
X-58767330Y42627139D01*
X-58813379Y42657908D01*
X-58931196Y42736631D01*
X-59113279Y42812052D01*
X-59229675Y42835205D01*
X-59306571Y42850500D01*
X-59503653Y42850500D01*
X-59599643Y42831407D01*
X-59696944Y42812052D01*
X-59696947Y42812052D01*
X-59879029Y42736631D01*
X-60042891Y42627142D01*
X-60182254Y42487779D01*
X-60277247Y42345611D01*
X-60284565Y42340721D01*
X-60286809Y42340500D01*
X-61636093Y42340500D01*
X-61644225Y42343868D01*
X-61646339Y42346779D01*
X-61672566Y42398250D01*
X-61683240Y42419199D01*
X-61794310Y42572073D01*
X-61927927Y42705690D01*
X-62080801Y42816760D01*
X-62249168Y42902547D01*
X-62249169Y42902548D01*
X-62249172Y42902549D01*
X-62428885Y42960941D01*
X-62615517Y42990500D01*
X-62615519Y42990500D01*
X-62804481Y42990500D01*
X-62804483Y42990500D01*
X-62991116Y42960941D01*
X-63170829Y42902549D01*
X-63339201Y42816759D01*
X-63492073Y42705690D01*
X-63625690Y42572073D01*
X-63736759Y42419201D01*
X-63822549Y42250829D01*
X-63880941Y42071116D01*
X-63910500Y41884484D01*
X-69259500Y41884484D01*
X-69259500Y51525265D01*
X-56467800Y51525265D01*
X-56467800Y51276135D01*
X-56435282Y51029135D01*
X-56435281Y51029131D01*
X-56435280Y51029124D01*
X-56435280Y51029123D01*
X-56370804Y50788499D01*
X-56370804Y50788498D01*
X-56275463Y50558324D01*
X-56150902Y50342577D01*
X-56150900Y50342574D01*
X-56150899Y50342573D01*
X-55999238Y50144924D01*
X-55823076Y49968762D01*
X-55625427Y49817101D01*
X-55625424Y49817099D01*
X-55409677Y49692538D01*
X-55409676Y49692538D01*
X-55409673Y49692536D01*
X-55179507Y49597198D01*
X-55179503Y49597197D01*
X-54938877Y49532721D01*
X-54938876Y49532721D01*
X-54938865Y49532718D01*
X-54691865Y49500200D01*
X-54691861Y49500200D01*
X-54442739Y49500200D01*
X-54442735Y49500200D01*
X-54195735Y49532718D01*
X-54195724Y49532721D01*
X-54195723Y49532721D01*
X-54132754Y49549594D01*
X-53955093Y49597198D01*
X-53724927Y49692536D01*
X-53509173Y49817101D01*
X-53311524Y49968762D01*
X-53135362Y50144924D01*
X-52983701Y50342573D01*
X-52859136Y50558327D01*
X-52763798Y50788493D01*
X-52699318Y51029135D01*
X-52666800Y51276135D01*
X-52666800Y51490321D01*
X-52150000Y51490321D01*
X-52150000Y51311080D01*
X-52121962Y51134057D01*
X-52066577Y50963595D01*
X-52066576Y50963592D01*
X-52066575Y50963591D01*
X-51985204Y50803891D01*
X-51879852Y50658887D01*
X-51753113Y50532148D01*
X-51608109Y50426796D01*
X-51448409Y50345425D01*
X-51277946Y50290039D01*
X-51189432Y50276020D01*
X-51100920Y50262000D01*
X-51100918Y50262000D01*
X-50921680Y50262000D01*
X-50850871Y50273216D01*
X-50744654Y50290039D01*
X-50574191Y50345425D01*
X-50414491Y50426796D01*
X-50269487Y50532148D01*
X-50142748Y50658887D01*
X-50037396Y50803891D01*
X-49956025Y50963591D01*
X-49900639Y51134054D01*
X-49878135Y51276135D01*
X-49872600Y51311080D01*
X-49872600Y51490321D01*
X-49610000Y51490321D01*
X-49610000Y51311080D01*
X-49581962Y51134057D01*
X-49526577Y50963595D01*
X-49526576Y50963592D01*
X-49526575Y50963591D01*
X-49445204Y50803891D01*
X-49339852Y50658887D01*
X-49213113Y50532148D01*
X-49068109Y50426796D01*
X-48908409Y50345425D01*
X-48737946Y50290039D01*
X-48649432Y50276020D01*
X-48560920Y50262000D01*
X-48560918Y50262000D01*
X-48381680Y50262000D01*
X-48310871Y50273216D01*
X-48204654Y50290039D01*
X-48034191Y50345425D01*
X-47874491Y50426796D01*
X-47729487Y50532148D01*
X-47602748Y50658887D01*
X-47497396Y50803891D01*
X-47416025Y50963591D01*
X-47360639Y51134054D01*
X-47338135Y51276135D01*
X-47332600Y51311080D01*
X-47332600Y51490321D01*
X-47360639Y51667344D01*
X-47360639Y51667346D01*
X-47416025Y51837809D01*
X-47497396Y51997509D01*
X-47602748Y52142513D01*
X-47729487Y52269252D01*
X-47874491Y52374604D01*
X-48034191Y52455975D01*
X-48034192Y52455976D01*
X-48034195Y52455977D01*
X-48204657Y52511362D01*
X-48381680Y52539400D01*
X-48381682Y52539400D01*
X-48560918Y52539400D01*
X-48560920Y52539400D01*
X-48737944Y52511362D01*
X-48908406Y52455977D01*
X-49068111Y52374603D01*
X-49213113Y52269252D01*
X-49339852Y52142513D01*
X-49445203Y51997511D01*
X-49526577Y51837806D01*
X-49581962Y51667344D01*
X-49610000Y51490321D01*
X-49872600Y51490321D01*
X-49900639Y51667344D01*
X-49900639Y51667346D01*
X-49956025Y51837809D01*
X-50037396Y51997509D01*
X-50142748Y52142513D01*
X-50269487Y52269252D01*
X-50414491Y52374604D01*
X-50574191Y52455975D01*
X-50574192Y52455976D01*
X-50574195Y52455977D01*
X-50744657Y52511362D01*
X-50921680Y52539400D01*
X-50921682Y52539400D01*
X-51100918Y52539400D01*
X-51100920Y52539400D01*
X-51277944Y52511362D01*
X-51448406Y52455977D01*
X-51608111Y52374603D01*
X-51753113Y52269252D01*
X-51879852Y52142513D01*
X-51985203Y51997511D01*
X-52066577Y51837806D01*
X-52121962Y51667344D01*
X-52150000Y51490321D01*
X-52666800Y51490321D01*
X-52666800Y51525265D01*
X-52699318Y51772265D01*
X-52716880Y51837806D01*
X-52763797Y52012902D01*
X-52763797Y52012903D01*
X-52763798Y52012907D01*
X-52859136Y52243073D01*
X-52970460Y52435892D01*
X-52983699Y52458824D01*
X-53024012Y52511361D01*
X-53135362Y52656476D01*
X-53311524Y52832638D01*
X-53509173Y52984299D01*
X-53509174Y52984300D01*
X-53509177Y52984302D01*
X-53724924Y53108863D01*
X-53955098Y53204204D01*
X-54195724Y53268680D01*
X-54195731Y53268681D01*
X-54195735Y53268682D01*
X-54395156Y53294937D01*
X-54442734Y53301200D01*
X-54442735Y53301200D01*
X-54691865Y53301200D01*
X-54691867Y53301200D01*
X-54787025Y53288673D01*
X-54938865Y53268682D01*
X-54938869Y53268682D01*
X-54938877Y53268680D01*
X-54938878Y53268680D01*
X-55179502Y53204204D01*
X-55179503Y53204204D01*
X-55409677Y53108863D01*
X-55625424Y52984302D01*
X-55679145Y52943080D01*
X-55823076Y52832638D01*
X-55823081Y52832633D01*
X-55823083Y52832632D01*
X-55999232Y52656483D01*
X-55999233Y52656481D01*
X-55999238Y52656476D01*
X-56089073Y52539400D01*
X-56150902Y52458824D01*
X-56275463Y52243077D01*
X-56370804Y52012903D01*
X-56370804Y52012902D01*
X-56435280Y51772278D01*
X-56435280Y51772277D01*
X-56435282Y51772269D01*
X-56435282Y51772265D01*
X-56467800Y51525265D01*
X-69259500Y51525265D01*
X-69259500Y52795192D01*
X-69259239Y52797627D01*
X-69256894Y52808453D01*
X-69259486Y52861847D01*
X-69259500Y52862405D01*
X-69259500Y52882038D01*
X-69259470Y52882863D01*
X-69251051Y52999936D01*
X-69250525Y53002637D01*
X-69212232Y53121209D01*
X-69211078Y53123709D01*
X-69145631Y53229746D01*
X-69143917Y53231895D01*
X-69055086Y53319286D01*
X-69052910Y53320963D01*
X-68945823Y53384666D01*
X-68943308Y53385780D01*
X-68824112Y53422135D01*
X-68821409Y53422614D01*
X-68714488Y53428551D01*
X-68713855Y53428568D01*
X-68679840Y53428553D01*
G37*
G04 #@! TD.AperFunction*
G04 #@! TD*
M02*
