G04 #@! TF.GenerationSoftware,KiCad,Pcbnew,9.0.7*
G04 #@! TF.CreationDate,2026-03-04T19:42:52-03:00*
G04 #@! TF.ProjectId,ZATINO PTH V2,5a415449-4e4f-4205-9054-482056322e6b,rev?*
G04 #@! TF.SameCoordinates,Original*
G04 #@! TF.FileFunction,Soldermask,Top*
G04 #@! TF.FilePolarity,Negative*
%FSLAX46Y46*%
G04 Gerber Fmt 4.6, Leading zero omitted, Abs format (unit mm)*
G04 Created by KiCad (PCBNEW 9.0.7) date 2026-03-04 19:42:52*
%MOMM*%
%LPD*%
G01*
G04 APERTURE LIST*
G04 Aperture macros list*
%AMRoundRect*
0 Rectangle with rounded corners*
0 $1 Rounding radius*
0 $2 $3 $4 $5 $6 $7 $8 $9 X,Y pos of 4 corners*
0 Add a 4 corners polygon primitive as box body*
4,1,4,$2,$3,$4,$5,$6,$7,$8,$9,$2,$3,0*
0 Add four circle primitives for the rounded corners*
1,1,$1+$1,$2,$3*
1,1,$1+$1,$4,$5*
1,1,$1+$1,$6,$7*
1,1,$1+$1,$8,$9*
0 Add four rect primitives between the rounded corners*
20,1,$1+$1,$2,$3,$4,$5,0*
20,1,$1+$1,$4,$5,$6,$7,0*
20,1,$1+$1,$6,$7,$8,$9,0*
20,1,$1+$1,$8,$9,$2,$3,0*%
G04 Aperture macros list end*
%ADD10C,1.600000*%
%ADD11C,1.800000*%
%ADD12C,1.400000*%
%ADD13O,1.400000X1.400000*%
%ADD14C,2.000000*%
%ADD15RoundRect,0.375000X0.625000X0.375000X-0.625000X0.375000X-0.625000X-0.375000X0.625000X-0.375000X0*%
%ADD16RoundRect,0.500000X0.500000X1.400000X-0.500000X1.400000X-0.500000X-1.400000X0.500000X-1.400000X0*%
%ADD17C,1.700000*%
%ADD18O,1.700000X1.700000*%
%ADD19R,3.500000X3.500000*%
%ADD20RoundRect,0.750000X-0.750000X-1.000000X0.750000X-1.000000X0.750000X1.000000X-0.750000X1.000000X0*%
%ADD21RoundRect,0.875000X-0.875000X-0.875000X0.875000X-0.875000X0.875000X0.875000X-0.875000X0.875000X0*%
%ADD22C,3.300000*%
%ADD23C,1.880400*%
%ADD24C,1.500000*%
%ADD25R,3.000000X3.000000*%
%ADD26C,2.200000*%
%ADD27O,2.200000X2.200000*%
G04 APERTURE END LIST*
D10*
G04 #@! TO.C,C6*
X-4178629Y27284163D03*
X-4178629Y24784163D03*
G04 #@! TD*
D11*
G04 #@! TO.C,L1*
X-65250000Y35110000D03*
X-62710000Y35110000D03*
G04 #@! TD*
G04 #@! TO.C,L2*
X-65250000Y41790000D03*
X-62710000Y41790000D03*
G04 #@! TD*
D12*
G04 #@! TO.C,R3*
X-13920000Y23150000D03*
D13*
X-6300000Y23150000D03*
G04 #@! TD*
D14*
G04 #@! TO.C,TACTIL_SWITCH1*
X-59190000Y47190000D03*
X-65690000Y47190000D03*
X-59190000Y51690000D03*
X-65690000Y51690000D03*
G04 #@! TD*
D15*
G04 #@! TO.C,REGULADOR_3V3*
X-59640000Y25760000D03*
X-59640000Y28060000D03*
D16*
X-65940000Y28060000D03*
D15*
X-59640000Y30360000D03*
G04 #@! TD*
D17*
G04 #@! TO.C,BARRA_DE_PINO1*
X-24125000Y9940000D03*
D18*
X-26665000Y9940000D03*
G04 #@! TD*
D10*
G04 #@! TO.C,C1*
X-51105112Y11630000D03*
X-48605112Y11630000D03*
G04 #@! TD*
D19*
G04 #@! TO.C,CONECTOR1*
X-59550000Y10300000D03*
D20*
X-65550000Y10300000D03*
D21*
X-62550000Y5600000D03*
G04 #@! TD*
D10*
G04 #@! TO.C,MICROCONTROLADOR1*
X-6301425Y20591998D03*
X-8841425Y20591998D03*
X-11381425Y20591998D03*
X-13921425Y20591998D03*
X-16461425Y20591998D03*
X-19001425Y20591998D03*
X-21541425Y20591998D03*
X-24081425Y20591998D03*
X-26621425Y20591998D03*
X-29161425Y20591998D03*
X-31701425Y20591998D03*
X-34241425Y20591998D03*
X-36781425Y20591998D03*
X-39321425Y20591998D03*
X-39321425Y12971998D03*
X-36781425Y12971998D03*
X-34241425Y12971998D03*
X-31701425Y12971998D03*
X-29161425Y12971998D03*
X-26621425Y12971998D03*
X-24081425Y12971998D03*
X-21541425Y12971998D03*
X-19001425Y12971998D03*
X-16461425Y12971998D03*
X-13921425Y12971998D03*
X-11381425Y12971998D03*
X-8841425Y12971998D03*
X-6301425Y12971998D03*
G04 #@! TD*
D17*
G04 #@! TO.C,BARRA_DE_PINO2*
X-7690000Y39970000D03*
D18*
X-7690000Y37430000D03*
X-7690000Y34890000D03*
X-7690000Y32350000D03*
X-7690000Y29810000D03*
X-7690000Y27270000D03*
G04 #@! TD*
D22*
G04 #@! TO.C,A2*
X-55837300Y3140700D03*
X-54567300Y51400700D03*
X-3767300Y36160690D03*
X-3767300Y8220700D03*
D23*
X-34247310Y3140700D03*
X-31707310Y3140700D03*
X-19007300Y3140700D03*
X-16467300Y3140700D03*
X-13927300Y3140700D03*
X-11387300Y3140700D03*
X-8847300Y3140700D03*
X-48471300Y51400700D03*
X-6307300Y3140700D03*
X-51011300Y51400700D03*
X-45931300Y51400700D03*
X-6307300Y51400700D03*
X-8847300Y51400700D03*
X-11387300Y51400700D03*
X-13927300Y51400700D03*
X-16467300Y51400700D03*
X-19007300Y51400700D03*
X-21547300Y51400700D03*
X-24087300Y51400700D03*
X-28151310Y51400700D03*
X-30691310Y51400700D03*
X-33231310Y51400700D03*
X-35771309Y51400700D03*
X-38311310Y51400700D03*
X-40851310Y51400700D03*
X-26627310Y3140700D03*
X-29167310Y3140700D03*
X-43391310Y51400700D03*
X-39327310Y3140700D03*
X-41867310Y3140700D03*
X-36787310Y3140700D03*
X-24087300Y3140700D03*
G04 #@! TD*
D24*
G04 #@! TO.C,16MHZ1*
X-30880000Y25120000D03*
X-25980000Y25120000D03*
G04 #@! TD*
D10*
G04 #@! TO.C,C2*
X-54835112Y20970000D03*
X-52335112Y20970000D03*
G04 #@! TD*
G04 #@! TO.C,C7*
X-48482913Y42081118D03*
X-45982913Y42081118D03*
G04 #@! TD*
D15*
G04 #@! TO.C,REGULADOR_5V1*
X-59640000Y18707500D03*
X-59640000Y21007500D03*
D16*
X-65940000Y21007500D03*
D15*
X-59640000Y23307500D03*
G04 #@! TD*
D25*
G04 #@! TO.C,TP1*
X-45809881Y3992307D03*
G04 #@! TD*
D26*
G04 #@! TO.C,D1*
X-55580000Y16710000D03*
D27*
X-55580000Y6550000D03*
G04 #@! TD*
D12*
G04 #@! TO.C,R1*
X-51785112Y35150000D03*
D13*
X-59405112Y35150000D03*
G04 #@! TD*
D10*
G04 #@! TO.C,C5*
X-25980000Y29540000D03*
X-25980000Y32040000D03*
G04 #@! TD*
G04 #@! TO.C,C4*
X-30880000Y29540000D03*
X-30880000Y32040000D03*
G04 #@! TD*
G04 #@! TO.C,C3*
X-54835112Y28070000D03*
X-52335112Y28070000D03*
G04 #@! TD*
D12*
G04 #@! TO.C,R2*
X-51785112Y41850000D03*
D13*
X-59405112Y41850000D03*
G04 #@! TD*
M02*
